<svg id="Layer_2" enable-background="new 0 0 512 512" viewBox="0 0 512 512" xmlns="http://www.w3.org/2000/svg"><g><g><path d="m59.994 325.913c-.792.167-1.596.305-2.411.414-17.697 2.362-33.959-10.069-36.321-27.767l-5.095-38.173c-2.362-17.697 10.069-33.959 27.767-36.321" style="fill:none;stroke:#474747;stroke-width:15;stroke-linecap:round;stroke-linejoin:round;stroke-miterlimit:10"/><path d="m208.296 330.641v-59.443c0-15.809 10.067-29.863 25.035-34.95l4.53-1.608c18.621-6.329 39.042-4.562 56.299 4.872l10.74 5.872" style="fill:none;stroke:#474747;stroke-width:15;stroke-linecap:round;stroke-linejoin:round;stroke-miterlimit:10"/><path d="m172.831 239.699-14.884-5.059c-18.621-6.329-39.042-4.562-56.299 4.872l-10.74 5.872" style="fill:none;stroke:#474747;stroke-width:15;stroke-linecap:round;stroke-linejoin:round;stroke-miterlimit:10"/><g><circle cx="136.869" cy="283.547" fill="#474747" r="17.282"/></g><g><circle cx="263.629" cy="283.547" fill="#474747" r="17.282"/></g><g style="fill:none;stroke:#474747;stroke-width:15;stroke-linecap:round;stroke-linejoin:round;stroke-miterlimit:10"><path d="m269.711 280.772 16.351-5.294"/><path d="m131 280.772-16.351-5.294"/><path d="m271.618 421.773c-24.394 20.808-51.324 33.355-73.715 33.355s-49.321-12.547-73.715-33.355c-43.877-37.426-68.827-78.512-68.827-136.183l-14.607-93.875c-9.276-93.816 64.42-175.158 158.693-175.158 97.683 0 172.407 87.028 157.632 183.587l-10.711 51.805"/><path d="m259.588 108.35s-156.836 20.836-208.01 139.599"/><path d="m246.347 142.617s65.307 18.568 100.021 109.332"/><path d="m159.395 362.043c11.273 11.767 28.311-1.883 38.471 8.054 11.441-9.309 24.828 3.085 38.471-8.054"/><path d="m188.505 395.05h19.791"/></g></g><g><g><g><g><path d="m407.258 495.245s-89.714-39.826-89.714-88.954v-106.517l89.378-31.826 89.378 31.826v106.516c.001 49.129-89.042 88.955-89.042 88.955z" style="fill:none;stroke:#474747;stroke-width:15;stroke-linecap:round;stroke-linejoin:round;stroke-miterlimit:10"/></g></g></g><g style="fill:none;stroke:#474747;stroke-width:15;stroke-linecap:round;stroke-linejoin:round;stroke-miterlimit:10"><circle cx="406.923" cy="381.596" r="23.613"/><path d="m406.923 330.428v-6.873"/><path d="m406.923 439.638v-6.873"/><path d="m355.755 381.596h-6.874"/><path d="m464.965 381.596h-6.873"/><path d="m370.741 345.415-4.86-4.86"/><path d="m447.965 422.638-4.86-4.86"/><path d="m370.741 417.778-4.86 4.86"/><path d="m447.965 340.555-6.396 6.396"/></g></g></g></svg>