<svg version="1.1" id="Capa_1" xmlns="http://www.w3.org/2000/svg" xmlns:xlink="http://www.w3.org/1999/xlink" x="0px" y="0px" viewBox="0 0 512 512" style="enable-background:new 0 0 512 512;" xml:space="preserve">
<g>
	<path style="fill:none;stroke:#000000;stroke-width:15;stroke-linecap:round;stroke-linejoin:round;stroke-miterlimit:10;" d="&#10;&#9;&#9;M96.561,356.316V285.37c0-25.61,14.31-49.08,37.09-60.8c4.28-2.2,7.76-5.5,10.17-9.46c2.41-3.95,3.75-8.55,3.75-13.36v-12.58"/>
	<path style="fill:none;stroke:#000000;stroke-width:15;stroke-linecap:round;stroke-linejoin:round;stroke-miterlimit:10;" d="&#10;&#9;&#9;M302.894,373.82v93.63c0,20.46-16.59,37.05-37.05,37.05h-132.23c-20.46,0-37.05-16.59-37.05-37.05v-39.79"/>
	<path style="fill:none;stroke:#000000;stroke-width:15;stroke-linecap:round;stroke-linejoin:round;stroke-miterlimit:10;" d="&#10;&#9;&#9;M251.884,188.83v12.92c0,9.61,5.37,18.42,13.92,22.82c11.39,5.86,20.66,14.66,27.08,25.19c6.43,10.54,10.01,22.8,10.01,35.61v53.45&#10;&#9;&#9;"/>
	<path style="fill:none;stroke:#000000;stroke-width:15;stroke-linecap:round;stroke-linejoin:round;stroke-miterlimit:10;" d="&#10;&#9;&#9;M187.434,151.51h80.02c5.53,0,10,4.48,10,10v15.89c0,5.52-4.47,10-10,10h-135.45c-5.53,0-10-4.48-10-10v-15.89&#10;&#9;&#9;c0-5.52,4.47-10,10-10h20.43"/>
	
		<line style="fill:none;stroke:#000000;stroke-width:15;stroke-linecap:round;stroke-linejoin:round;stroke-miterlimit:10;" x1="300.924" y1="465.15" x2="172.684" y2="465.15"/>
	
		<line style="fill:none;stroke:#000000;stroke-width:15;stroke-linecap:round;stroke-linejoin:round;stroke-miterlimit:10;" x1="137.684" y1="465.15" x2="98.524" y2="465.15"/>
	
		<line style="fill:none;stroke:#000000;stroke-width:15;stroke-linecap:round;stroke-linejoin:round;stroke-miterlimit:10;" x1="98.524" y1="288.274" x2="300.927" y2="288.274"/>
	<path style="fill:none;stroke:#000000;stroke-width:15;stroke-linecap:round;stroke-linejoin:round;stroke-miterlimit:10;" d="&#10;&#9;&#9;M318.778,148.516l122.331,0c5.523,0,10-4.477,10-10v-18.241c0-5.523-4.477-10-10-10l-122.331,0c-5.523,0-10,4.477-10,10v18.241&#10;&#9;&#9;C308.778,144.039,313.255,148.516,318.778,148.516z"/>
	<path style="fill:none;stroke:#000000;stroke-width:15;stroke-linecap:round;stroke-linejoin:round;stroke-miterlimit:10;" d="&#10;&#9;&#9;M350.784,86.78v23.5h58.32V36.23c0-15.87-12.87-28.73-28.73-28.73h-0.86c-15.86,0-28.73,12.86-28.73,28.73v15.55"/>
	
		<line style="fill:none;stroke:#000000;stroke-width:15;stroke-linecap:round;stroke-linejoin:round;stroke-miterlimit:10;" x1="407.955" y1="151.51" x2="407.955" y2="178.922"/>
	<path style="fill:none;stroke:#000000;stroke-width:15;stroke-linecap:round;stroke-linejoin:round;stroke-miterlimit:10;" d="&#10;&#9;&#9;M407.955,235.065l0,82.979c0,5.26-1.451,10.18-3.973,14.384c-6.56,10.932-10.405,23.276-10.405,36.025v18.482&#10;&#9;&#9;c0,7.341-5.642,13.658-12.975,14.003c-7.829,0.368-14.292-5.87-14.292-13.618l0-18.867c0-12.75-3.845-25.093-10.405-36.026&#10;&#9;&#9;c-2.523-4.204-3.973-9.124-3.973-14.384l0-167.118"/>
	
		<line style="fill:none;stroke:#000000;stroke-width:15;stroke-linecap:round;stroke-linejoin:round;stroke-miterlimit:10;" x1="401.843" y1="257.166" x2="358.043" y2="257.166"/>
	<path style="fill:none;stroke:#000000;stroke-width:15;stroke-linecap:round;stroke-linejoin:round;stroke-miterlimit:10;" d="&#10;&#9;&#9;M405.669,475.56c0-28.94-25.726-44.979-25.726-44.979s-25.726,16.04-25.726,44.979c0,15.983,11.518,28.94,25.726,28.94&#10;&#9;&#9;C394.151,504.5,405.669,491.543,405.669,475.56z"/>
	<path style="fill:none;stroke:#000000;stroke-width:15;stroke-linecap:round;stroke-linejoin:round;stroke-miterlimit:10;" d="&#10;&#9;&#9;M240.244,353.309v-15.207c0-7.886-6.393-14.278-14.278-14.278h-52.479c-7.886,0-14.278,6.393-14.278,14.278v15.207&#10;&#9;&#9;c0,7.886,6.393,14.278,14.278,14.278h52.479C233.851,367.587,240.244,361.195,240.244,353.309z"/>
	
		<line style="fill:none;stroke:#000000;stroke-width:15;stroke-linecap:round;stroke-linejoin:round;stroke-miterlimit:10;" x1="170.609" y1="398.435" x2="228.843" y2="398.435"/>
	
		<line style="fill:none;stroke:#000000;stroke-width:15;stroke-linecap:round;stroke-linejoin:round;stroke-miterlimit:10;" x1="181.164" y1="430.31" x2="218.288" y2="430.31"/>
	<path style="fill:none;stroke:#000000;stroke-width:15;stroke-linecap:round;stroke-linejoin:round;stroke-miterlimit:10;" d="&#10;&#9;&#9;M436.027,206.994c-16.325,6.487-21.585,11.746-28.072,28.072c-6.487-16.325-11.746-21.585-28.072-28.072&#10;&#9;&#9;c16.325-6.487,21.585-11.746,28.072-28.072C414.442,195.247,419.701,200.506,436.027,206.994z"/>
	<path style="fill:none;stroke:#000000;stroke-width:15;stroke-linecap:round;stroke-linejoin:round;stroke-miterlimit:10;" d="&#10;&#9;&#9;M286.569,91.668c-18.444,7.504-24.386,13.587-31.715,32.469c-7.329-18.883-13.271-24.966-31.715-32.469&#10;&#9;&#9;c18.444-7.504,24.386-13.587,31.715-32.469C262.183,78.081,268.125,84.164,286.569,91.668z"/>
	<path style="fill:none;stroke:#000000;stroke-width:15;stroke-linecap:round;stroke-linejoin:round;stroke-miterlimit:10;" d="&#10;&#9;&#9;M132.231,391.986c-20.744,8.243-27.426,14.926-35.67,35.67c-8.243-20.744-14.926-27.426-35.67-35.67&#10;&#9;&#9;c20.744-8.243,27.426-14.926,35.67-35.67C104.804,377.06,111.487,383.743,132.231,391.986z"/>
</g>
<g>
</g>
<g>
</g>
<g>
</g>
<g>
</g>
<g>
</g>
<g>
</g>
<g>
</g>
<g>
</g>
<g>
</g>
<g>
</g>
<g>
</g>
<g>
</g>
<g>
</g>
<g>
</g>
<g>
</g>
</svg>