<svg viewBox="0 0 512 512" xmlns="http://www.w3.org/2000/svg"><g id="Layer_2" data-name="Layer 2"><g id="Layer_1_copy_13" data-name="Layer 1 copy 13"><g id="_8" data-name="8"><path d="m165.34 340.51-68.34 68.31a3.51 3.51 0 0 0 5 5l68.31-68.31a16.55 16.55 0 0 1 -2.75-2.21 17.11 17.11 0 0 1 -2.22-2.79z"/><path d="m263.05 248.8-13.76-2-.16.07-77.33 77.3a10.5 10.5 0 0 0 0 14.85 10.5 10.5 0 0 0 14.85 0l78.11-78.11z"/><path d="m413.49 262.19-69.22-28.88-12-16.09 12.05-16 39.68-16.33a4.09 4.09 0 1 0 -3.11-7.56l-39.69 16.32-19.83-2.91-2.8-19.85 28.39-68a4.09 4.09 0 1 0 -7.54-3.15l-28.4 68.06-16.08 12-16-12.05-17.48-42.53a4.09 4.09 0 0 0 -7.56 3.11l17.49 42.53-2.89 19.74-19.85 2.81-59.2-24.7a4.09 4.09 0 0 0 -3.15 7.54l59.2 24.75 12 16.08-12.05 16-29.35 12.03a4.08 4.08 0 1 0 3.1 7.55l29.33-12 19.83 2.91 2.81 19.84-20.5 49.13a4.09 4.09 0 1 0 7.54 3.15l20.5-49.13 16.08-12 16 12 20.24 49.24a4.09 4.09 0 0 0 7.56-3.11l-20.24-49.23 2.9-19.84 19.85-2.8 69.22 28.88a4.09 4.09 0 0 0 3.15-7.54zm-87.64-32.14-15.85 2.24-2.32 15.87-12.82-9.64-12.86 9.58-2.24-15.88-15.87-2.33 9.64-12.82-9.57-12.86 15.84-2.21 2.32-15.87 12.82 9.64 12.87-9.57 2.24 15.8 15.87 2.33-9.64 12.81z"/><path d="m304.74 207.32-1.46-10.31-8.36 6.22-8.33-6.27-1.51 10.31-10.32 1.46 6.23 8.36-6.27 8.33 10.31 1.51 1.46 10.32 8.36-6.22 8.33 6.26 1.51-10.31 10.32-1.46-6.22-8.36 6.26-8.32z"/><path id="border" d="m256 18a238.06 238.06 0 0 1 92.63 457.3 238.06 238.06 0 0 1 -185.26-438.6 236.39 236.39 0 0 1 92.63-18.7m0-18c-141.38 0-256 114.62-256 256s114.62 256 256 256 256-114.62 256-256-114.62-256-256-256z"/></g></g></g></svg>