<?xml version="1.0" encoding="UTF-8"?>
<!-- Generator: Adobe Illustrator 23.0.2, SVG Export Plug-In . SVG Version: 6.00 Build 0)  -->
<svg xmlns="http://www.w3.org/2000/svg" xmlns:xlink="http://www.w3.org/1999/xlink" version="1.1" id="Capa_1" x="0px" y="0px" viewBox="0 0 512 512" style="enable-background:new 0 0 512 512;" xml:space="preserve" width="512" height="512">
<g>
	<g>
		<path d="M404.645,445.935h-35.656c-26.142,0-49.128-16.14-58.275-40.061c29.068-11.105,52.115-34.493,62.751-63.787    c30.055-10.017,55.906-28.696,74.94-54.262c19.995-26.857,30.563-58.76,30.563-92.257C478.968,87.732,391.236,0,283.399,0h-54.798    C120.764,0,33.032,87.732,33.032,195.57c0,33.497,10.568,65.399,30.563,92.256c19.034,25.566,44.884,44.245,74.94,54.262    c10.636,29.296,33.683,52.683,62.751,63.787c-9.147,23.921-32.133,40.061-58.275,40.061h-35.656    c-31.875,0-57.806,25.932-57.806,57.806V512h412.903v-8.258C462.452,471.868,436.52,445.935,404.645,445.935z M123.871,222.968    h8.258v49.548h-8.258c-13.66,0-24.774-11.114-24.774-24.774S110.211,222.968,123.871,222.968z M132.543,206.452h-8.672    c-2.729,0-5.395,0.273-7.977,0.78c3.835-51.163,46.689-91.619,98.816-91.619h82.581c52.127,0,94.981,40.456,98.816,91.619    c-2.583-0.508-5.248-0.78-7.977-0.78h-8.672c-4.157-41.672-39.419-74.323-82.167-74.323H214.71    C171.962,132.129,136.7,164.779,132.543,206.452z M379.871,222.968h8.258c13.66,0,24.774,11.114,24.774,24.774    s-11.114,24.774-24.774,24.774h-8.258V222.968z M462.452,195.57c0,3.652-0.15,7.272-0.425,10.861    c-8.909-0.229-16.091-7.532-16.091-16.495c0-8.647,6.684-15.751,15.155-16.447C461.984,180.726,462.452,188.094,462.452,195.57z     M422.901,83.461c9.935,12.339,18.269,26.016,24.686,40.717c-4.653,5.033-11.187,7.95-18.168,7.95    c-13.66,0-24.774-11.114-24.774-24.774C404.645,95.94,412.251,86.319,422.901,83.461z M332.317,23.308    c16.132,4.587,31.337,11.395,45.278,20.055c-3.971,8.608-12.705,14.443-22.498,14.443c-13.66,0-24.774-11.114-24.774-24.774    C330.323,29.645,331.01,26.358,332.317,23.308z M171.002,26.022c1.594,4.9,2.418,10.009,2.418,15.268    c0,27.321-22.228,49.548-49.548,49.548c-11.539,0-22.683-4.069-31.501-11.325C113.088,55.23,140.163,36.526,171.002,26.022z     M49.548,195.569c0-9.547,0.76-18.92,2.206-28.067c8.51,3.968,14.31,12.583,14.31,22.434c0,10.25-6.377,19.214-15.451,22.932    C49.914,207.191,49.548,201.417,49.548,195.569z M53.656,229.309c16.79-5.31,28.925-21.12,28.925-39.373    c0-17.764-11.303-33.156-27.427-38.891c5.464-21.271,14.75-41.022,27.075-58.485c11.699,9.487,26.414,14.795,41.642,14.795    c36.428,0,66.065-29.636,66.065-66.065c0-6.829-1.043-13.47-3.062-19.853c13.394-3.209,27.363-4.921,41.727-4.921h54.798    c11.159,0,22.079,1.035,32.678,2.999c-1.494,4.308-2.271,8.857-2.271,13.517c0,22.767,18.523,41.29,41.29,41.29    c15.333,0,29.131-8.576,36.235-21.521c7.038,5.334,13.669,11.176,19.842,17.471c-13.782,6.728-23.045,20.819-23.045,37.082    c0,22.767,18.523,41.29,41.29,41.29c8.937,0,17.432-2.869,24.407-7.992c1.745,5.401,3.237,10.911,4.468,16.52    c-16.257,2.053-28.874,15.957-28.874,32.762c0,17.313,13.391,31.548,30.359,32.915c-8.813,44.521-38.918,81.81-81.257,99.692    c0.885-5.537,1.35-11.211,1.35-16.994v-16.516h8.258c22.767,0,41.29-18.523,41.29-41.29c0-13.479-6.494-25.469-16.516-33.01    v-0.023c0-63.749-51.864-115.613-115.613-115.613H214.71c-63.749,0-115.613,51.864-115.613,115.613v0.023    c-10.022,7.541-16.516,19.53-16.516,33.01c0,22.767,18.523,41.29,41.29,41.29h8.258v16.516c0,5.783,0.466,11.457,1.35,16.995    C93.204,305.532,63.993,270.964,53.656,229.309z M148.645,305.548V214.71c0-36.428,29.636-66.065,66.065-66.065h82.581    c36.428,0,66.065,29.636,66.065,66.065v90.839c0,50.088-40.75,90.839-90.839,90.839h-33.032    C189.396,396.387,148.645,355.637,148.645,305.548z M66.894,495.484c3.837-18.823,20.521-33.032,40.46-33.032h35.656    c33.503,0,62.901-20.967,74.144-51.891c7.205,1.531,14.674,2.342,22.329,2.342h33.032c7.655,0,15.123-0.811,22.329-2.342    c11.242,30.923,40.64,51.891,74.144,51.891h35.656c19.939,0,36.624,14.209,40.46,33.032H66.894z"/>
		<path d="M247.742,289.032h24.774v-16.516h-10.161c1.252-3.713,1.902-7.647,1.902-11.68l-0.001-21.354l-16.516,0.001l0.001,21.354    c0,5.325-2.074,10.332-5.839,14.099c-2.362,2.362-3.068,5.914-1.789,8.999C241.393,287.02,244.403,289.032,247.742,289.032z"/>
		<path d="M305.125,332.934l1.613-4.841l-14.285-14.286c-5.325-5.325-12.407-8.258-19.937-8.258c-6.014,0-11.741,1.87-16.516,5.336    c-4.775-3.465-10.502-5.336-16.516-5.336c-7.531,0-14.612,2.933-19.937,8.258l-14.285,14.285l1.613,4.841    c0.415,1.243,10.584,30.422,49.125,30.422S304.71,334.176,305.125,332.934z M224.768,331.942l6.458-6.458    c2.206-2.206,5.139-3.42,8.258-3.42c3.119,0,6.052,1.215,8.258,3.42l8.258,8.26l8.258-8.259c2.206-2.206,5.139-3.42,8.258-3.42    c3.12,0,6.052,1.215,8.258,3.42l6.469,6.469c-3.666,5.635-12.535,14.884-31.243,14.884    C237.344,346.839,228.453,337.585,224.768,331.942z"/>
		<path d="M256,82.581c13.66,0,24.774-11.113,24.774-24.774S269.66,33.032,256,33.032c-13.66,0-24.774,11.113-24.774,24.774    S242.34,82.581,256,82.581z M256,49.548c4.553,0,8.258,3.705,8.258,8.258s-3.705,8.258-8.258,8.258    c-4.553,0-8.258-3.705-8.258-8.258S251.447,49.548,256,49.548z"/>
	</g>
</g>















</svg>
