<svg id="Layer_5" height="512" viewBox="0 0 512 512" width="512" xmlns="http://www.w3.org/2000/svg" data-name="Layer 5"><path d="m66.971 382.54c.263 7.916 11.719 7.964 12 0 0-23.996 15.505-39.501 39.501-39.501 3.313 0 6-2.687 6-6s-2.687-6-6-6c-23.996 0-39.501-15.505-39.501-39.5 0-3.313-2.687-6-6-6s-6 2.687-6 6c0 23.996-15.505 39.5-39.501 39.5-3.313 0-6 2.687-6 6s2.687 6 6 6c23.996 0 39.501 15.505 39.501 39.501zm6-64.903c4.382 8.387 11.015 15.02 19.402 19.402-8.388 4.382-15.021 11.015-19.402 19.402-4.382-8.387-11.015-15.02-19.402-19.402 8.388-4.382 15.021-11.015 19.402-19.402z"/><path d="m460.414 415.583c-16.925 0-27.86-10.936-27.86-27.86-.266-7.923-11.721-7.958-12 0 0 16.924-10.936 27.86-27.859 27.86-3.313 0-6 2.687-6 6s2.687 6 6 6c16.924 0 27.859 10.936 27.859 27.86 0 3.313 2.687 6 6 6s6-2.687 6-6c0-16.924 10.936-27.86 27.86-27.86 7.923-.266 7.958-11.721 0-12zm-33.86 17.285c-2.864-4.606-6.679-8.42-11.284-11.285 4.605-2.864 8.42-6.679 11.284-11.285 2.864 4.606 6.679 8.42 11.285 11.285-4.606 2.864-8.421 6.679-11.285 11.285z"/><path d="m387.986 54.466c16.924 0 27.859 10.936 27.859 27.86.266 7.923 11.721 7.958 12 0 0-16.924 10.936-27.86 27.86-27.86 3.313 0 6-2.687 6-6s-2.687-6-6-6c-16.925 0-27.86-10.936-27.86-27.86 0-3.313-2.687-6-6-6s-6 2.687-6 6c0 16.924-10.936 27.86-27.859 27.86-7.923.266-7.958 11.721 0 12zm33.859-17.285c2.864 4.606 6.679 8.42 11.285 11.285-4.606 2.864-8.421 6.679-11.285 11.285-2.864-4.606-6.679-8.42-11.284-11.285 4.605-2.864 8.42-6.679 11.284-11.285z"/><path d="m378.644 261.984h17.655c7.938-.272 7.945-11.725 0-12h-17.655c-7.938.272-7.945 11.725 0 12z"/><path d="m375.751 317.952c7.778.704 15.669.704 23.446 0 10.082-.92 18.958-6.027 23.744-13.661 10.447-16.245-3.625-35.573-22.446-32.607-8.644 1.355-17.409 1.354-26.083-.005-10.877-1.644-21.278 4.208-24.706 13.817-5.798 16.081 9.481 31.418 26.044 32.456zm-14.775-28.331c1.463-4.293 6.806-6.883 11.612-6.082 9.877 1.549 19.892 1.549 29.735.005 5.159-.777 10.197 1.869 11.681 6.173 2.589 8.743-7.082 15.609-15.893 16.284-7.059.64-14.218.64-21.273 0-6.373-.582-11.854-3.603-14.664-8.082-1.74-2.773-2.178-5.688-1.198-8.298z"/><path d="m346.275 194.403c-15.207 0-27.579 12.372-27.579 27.579v5.658c0 9.78 7.956 17.736 17.736 17.736h19.686c9.78 0 17.736-7.957 17.736-17.736v-5.658c0-15.207-12.372-27.579-27.579-27.579zm15.579 33.236c0 3.163-2.573 5.736-5.736 5.736h-19.686c-3.163 0-5.736-2.573-5.736-5.736v-5.658c.855-20.666 30.305-20.662 31.158 0z"/><path d="m459.147 227.639v-5.658c0-15.207-12.371-27.579-27.578-27.579s-27.579 12.372-27.579 27.579v5.658c0 9.78 7.956 17.736 17.736 17.736h19.686c9.779 0 17.735-7.957 17.735-17.736zm-43.157 0v-5.658c.855-20.665 30.304-20.663 31.157 0v5.658c0 3.163-2.573 5.736-5.735 5.736h-19.686c-3.163 0-5.736-2.573-5.736-5.736z"/><path d="m323.773 505.55c.915-1.218 1.305-2.789 1.123-4.296-.228-1.671-5.377-41.627-5.377-41.627-.888-6.406-9.834-7.078-11.696-.947-8.765-8.044-20.42-12.917-33.07-12.917h-136.038c-12.65 0-24.305 4.873-33.07 12.917-1.806-6.076-10.804-5.504-11.696.947 0 0-5.377 41.627-5.377 41.627-.091.791-.037 1.593.173 2.361.977 3.753 5.632 5.591 8.892 3.513 1.557-.941 2.625-2.596 2.844-4.405 0 0 1.876-14.521 1.876-14.521 3.121-17.482 18.421-30.438 36.358-30.438h136.038c17.937 0 33.238 12.956 36.358 30.438l1.876 14.521c.155 1.105.593 2.141 1.27 3.024 2.343 3.025 7.301 2.979 9.517-.197z"/><path d="m184.531 428.886c7.7 1.788 10.721-9.267 3.084-11.597 0 0-21.185-5.636-21.185-5.636-7.736-1.777-10.695 9.287-3.084 11.597 0 0 21.185 5.636 21.185 5.636z"/><path d="m227.388 429.089c.511 0 1.029-.066 1.546-.203l21.187-5.636c7.6-2.302 4.668-13.371-3.084-11.597 0 0-21.186 5.636-21.186 5.636-6.751 1.922-5.401 11.702 1.538 11.8z"/><path d="m174.262 196.756c-10.292-10.293-27.043-10.294-37.337 0-2.344 2.343-2.344 6.142 0 8.485 2.343 2.342 6.143 2.344 8.485 0 5.616-5.616 14.754-5.615 20.368 0 1.171 1.171 2.707 1.757 4.242 1.757 5.216.091 8.041-6.554 4.242-10.243z"/><path d="m206.733 277.109c6.761 0 13.521-2.574 18.668-7.721 5.42-5.807-2.672-13.908-8.484-8.485-5.615 5.614-14.753 5.616-20.368 0-5.8-5.42-13.911 2.673-8.484 8.485 5.146 5.147 11.907 7.721 18.669 7.721z"/><path d="m165.854 217.125c-2.409-.827-5.005-.131-6.581 1.863-.704.748-3.964 3.711-9.403 1.201-3.009-1.389-6.572-.075-7.962 2.933-1.389 3.009-.076 6.574 2.933 7.962 4.846 2.237 9.269 2.465 12.993 1.7v8.153c0 3.313 2.687 6 6 6s6-2.687 6-6v-18.048c0-2.563-1.555-4.933-3.979-5.765z"/><path d="m257.872 189.023c-7.052 0-13.683 2.747-18.669 7.733-5.418 5.808 2.672 13.907 8.486 8.485 5.361-5.588 15.006-5.586 20.367 0 5.772 5.433 13.924-2.703 8.484-8.486-4.986-4.987-11.616-7.733-18.669-7.733z"/><path d="m263.597 220.189c-5.44 2.513-8.7-.453-9.403-1.2-3.504-4.419-10.652-1.712-10.56 3.901v18.048c.272 7.937 11.725 7.945 12 0v-8.153c3.726.767 8.149.536 12.993-1.7 7.096-3.576 2.295-13.978-5.029-10.896z"/><path d="m232.366 287.622h-51.267c-3.313 0-6 2.687-6 6 1.739 41.969 61.537 41.951 63.267 0 0-3.313-2.687-6-6-6zm-25.634 25.633c-8.733 0-16.154-5.733-18.695-13.633h37.392c-2.542 7.9-9.962 13.633-18.696 13.633z"/><path d="m437.554 121.808c-3.313 0-6 2.686-6 6 .275 7.943 11.727 7.94 12 0 0-3.314-2.686-6-6-6z"/><path d="m482.32 176.295c-1.051-3.331-4.697-4.92-7.933-3.786l1.859-1.936c1.735-1.807 2.166-4.501 1.079-6.759-4.347-9.03-10.042-17.358-16.927-24.753-5.607-5.622-13.996 2.172-8.783 8.177 5.115 5.494 9.482 11.569 13.018 18.103l-13.248 13.793c-1.851 1.926-2.204 4.843-.869 7.156s4.04 3.461 6.632 2.826l15.299-3.77c2.092 8.229 2.967 16.719 2.604 25.312l-2.176 51.585c-.473 11.216-3.351 22.321-8.364 32.383l-14.424-3.555c-2.591-.64-5.298.513-6.632 2.826-1.335 2.313-.981 5.23.869 7.156l9.437 9.825c-5.561 6.526-12.084 12.073-19.446 16.529l-21.116 12.78c-4.529 2.742-9.388 4.715-14.498 5.894l-4.017-13.864c-.743-2.565-3.092-4.33-5.763-4.33s-5.02 1.765-5.763 4.331l-4.176 14.412c-6.081-1.058-11.965-3.249-17.241-6.442l-21.114-12.781c-7.362-4.456-13.886-10.003-19.446-16.529l9.437-9.825c1.851-1.926 2.204-4.843.869-7.156-1.337-2.313-4.044-3.464-6.632-2.826l-14.425 3.555c-4.367-8.764-7.103-18.313-8.057-28.046-.27-.242-2.348-54.046-2.483-55.922-.359-8.508.525-17.043 2.621-25.307l15.281 3.766c2.592.636 5.297-.513 6.632-2.826s.981-5.23-.869-7.156l-13.246-13.792c19.402-36.654 64.192-54.862 103.675-41.946 3.158.999 6.531-.749 7.532-3.908s-.749-6.531-3.907-7.532c-28.659-9.219-61.336-4.543-86.09 12.538-.764-.578-1.552-1.121-2.366-1.622 21.536-19.176 7.267-55.546-21.694-54.72-6.6-21.818-25.314-37.187-47.247-39.95-2.875-13.9-15.034-24.115-29.755-24.115-.003-.026-66.606.253-66.646.235-24.99-.35-46.683 21.654-46.023 46.587-23.918 10.112-38.504 37.935-32.857 63.461 0 0 1.473 7.309 1.473 7.309-12.455 6.084-19.311 21.429-15.364 34.808 0 0 7.45 27.141 7.45 27.141.926 3.374 2.771 6.315 5.305 8.591v19.394c-6.408 4.904-9.739 13.201-8.507 21.178 0 0 1.583 10.653 1.583 10.653 2.352 16.105 16.929 27.949 33.147 27.207 3.557 27.727 19.475 52.386 43.659 67.023l13.023 7.883v30.278c0 6.333-3.721 12.093-9.516 14.692-20.528 9.242-42.574 12.414-44.68 12.688-2.679.171-23.039 1.843-43.582 13.954-20.098 11.849-44.055 36.184-44.055 84.83 0 3.313 2.687 6 6 6s6-2.687 6-6c0-34.323 12.706-59.31 37.766-74.265 19.056-11.372 38.555-12.54 38.739-12.549 1.773-.21 24.703-3.053 48.657-13.68l.101-.045c10.065-4.515 16.569-14.573 16.569-25.625v-23.205c17.642 9.022 38.425 9.022 56.065 0v23.205c0 11.052 6.503 21.11 16.612 25.645 23.204 10.442 47.323 13.56 48.276 13.667 1.143.105 19.061.766 38.812 12.077 25.302 14.796 38.131 39.954 38.131 74.775 0 3.313 2.687 6 6 6s6-2.687 6-6c0-49.063-23.967-73.377-44.073-85.134-20.48-11.977-40.78-13.497-43.588-13.653-2.3-.311-24.009-3.43-44.546-12.636-5.833-2.546-9.628-8.355-9.625-14.741v-30.278c23.36-13.134 39.745-26.085 50.347-51.238 1.46 3.506 3.131 6.924 5.017 10.225 1.199 2.1 3.53 3.256 5.877 2.987-1.168 2.038-1.057 4.63.406 6.582 7.121 9.501 15.87 17.428 26.003 23.561l21.114 12.781c8.259 4.998 17.716 8.019 27.35 8.737 2.635.205 5.138-1.388 6.06-3.865 1.051 2.41 3.582 3.883 6.249 3.551 8.638-1.088 16.789-3.922 24.226-8.424l21.115-12.78c10.133-6.133 18.882-14.06 26.003-23.561 1.463-1.952 1.574-4.544.406-6.582 2.352.259 4.678-.889 5.876-2.987 7.269-12.726 11.437-27.178 12.053-41.795l2.176-51.584c.502-11.898-1.087-23.63-4.722-34.869zm-178.524-23.457c-1.731 2.678-3.343 5.436-4.815 8.266-.82 1.699-2.02 3.42-1.957 5.366.013 1.5.588 2.975 1.673 4.104l1.859 1.936c-3.781-1.306-7.48.957-8.264 4.833l-65.17-20.067 87.782-27.03c2.098.5 4.675 1.046 6.569 2.058-6.797 6.011-12.743 12.915-17.677 20.533zm-173.845-105.711c1.377-16.961 16.832-31.056 33.903-30.805.027-.01 66.565-.229 66.6-.235 7.937 0 14.648 4.903 17.252 11.919-1.332.138-2.664.294-3.985.508 0 0-112.087 18.312-112.087 18.312-.56.093-1.121.191-1.683.302zm-26.154 30.368c6.25-9.061 15.422-15.358 25.9-18.011 1.284-.319 115.959-19.126 115.959-19.126 21.348-3.685 43.069 9.134 49.896 29.948l-197.637 47.753-1.221-6.059c-2.439-12.099.083-24.353 7.103-34.504zm-21.185 75.816c-2.774-9.318 3.218-19.854 12.634-22.232 0 0 208.824-50.474 208.824-50.474 24.026-4.61 33.327 29.322 9.815 37.4-49.996 15.381-216.271 66.594-216.271 66.594-.604.185-1.23.275-1.859.266-2.568-.02-5.047-1.887-5.692-4.412 0 0-7.45-27.141-7.45-27.141zm13.183 53.626v-10.062c3.386.189 8.856-1.97 12.116-2.891-.613 4.648-.86 9.339-.832 14.027-3.686-.862-7.498-1.33-11.284-1.074zm-7.055 34.744-1.583-10.653c-.866-5.189 2.66-10.523 7.751-11.79 4.201-.95 8.676.035 12.657 1.48l1.6 37.934c-10.033.357-18.966-7.025-20.425-16.971zm202.283 30.888c-3.963 22.861-17.571 42.81-37.446 54.84l-21.115 12.78c-15.87 9.605-35.588 9.605-51.458 0l-21.114-12.78c-22.475-13.603-36.742-37.158-38.453-63.287-.041-.625-.076-1.252-.108-1.878l-2.176-51.584c-.274-6.901.223-13.839 1.559-20.616l86.022-26.488c19.979 6.152 62.471 19.236 82.689 25.462-1.288 7.303-1.832 14.736-1.522 22.148.479 7.19 1.852 55.391 3.123 61.404z"/></svg>