<svg id="Layer_1" enable-background="new 0 0 500 500" viewBox="0 0 500 500" xmlns="http://www.w3.org/2000/svg"><path clip-rule="evenodd" d="m247.418 436.332c10.196 0 20.23-.863 30.048-2.427-1.403-13.487-3.075-22.927-5.071-28.16 0-.054 0-.108-.054-.162-2.535-7.499-3.884-15.213-4.154-23.197-1.565.971-3.183 1.942-4.748 2.967l-5.071 3.183c-3.453 2.158-7.175 3.237-10.897 3.237-3.776 0-7.499-1.079-10.897-3.237l-5.125-3.183c-1.834-1.187-3.668-2.32-5.556-3.506-.108 7.714-1.349 15.753-4.208 23.844-.054 0-.054.054-.054.054-1.942 5.233-3.614 14.674-5.017 28.053 10.088 1.671 20.338 2.534 30.804 2.534zm-72.99-69.915c1.241 1.565 1.672 3.615 1.133 5.557l-11.976 44.398c1.295.647 2.805 1.456 3.668 1.888 11.868 5.664 24.114 9.98 36.738 13.001 1.51-13.972 3.345-23.844 5.61-29.94 5.287-14.835 4.478-33.069-2.212-51.357-2.212-6.042-5.125-12.354-8.632-18.72-.27-.593-.539-1.187-.647-1.834l-7.337-36.306c-.917-.809-2.104-1.187-3.345-1.025-1.241.216-2.374 1.025-2.967 2.158.108 5.233.647 14.727 1.672 28.322.162 2.536-1.133 4.909-3.398 6.096-2.266 1.187-4.963.971-6.959-.647-14.512-11.545-25.031-35.012-32.098-71.695-3.183 3.668-5.017 9.764-2.913 20.877 1.025 4.586 2.05 9.117 3.129 13.433 8.739 35.442 19.043 60.959 30.534 75.794zm-23.035-126.127c-.702-25.409 6.743-50.117 21.309-70.239 9.009-12.516 20.122-22.388 32.53-29.347.539-.216 1.079-.54 1.564-.917 20.5-11.005 44.182-14.188 67.325-8.092-.809 18.018-6.689 33.177-17.694 45.693-.054.054-.054.054-.108.108-.27.27-.486.54-.702.863-8.847 9.71-20.877 17.856-36.09 24.492-29.131 10.951-49.307 32.854-60.204 65.222-1.726-7.067-3.291-14.835-4.64-23.197-.323-1.888-1.456-3.56-3.129-4.478-.053-.054-.107-.054-.161-.108zm58.91-116.202c1.996-.863 4.046-1.619 6.096-2.374 20.122-7.013 41.431-7.714 61.877-2.158l-.324-3.83c-.863-10.25-8.47-17.964-17.695-17.964h-31.505c-9.225 0-16.885 7.715-17.749 17.964zm76.28 12.893c-1.565 17.047-7.283 31.991-17.155 44.722 10.951 10.735 18.827 15.86 25.355 20.014 16.616 10.682 24.384 17.802 40.136 65.545 1.619-6.851 3.129-14.35 4.478-22.388.324-1.888 1.456-3.56 3.075-4.478.323-.216.593-.324.917-.432.809-43.641-21.201-83.346-56.806-102.983zm-17.425 229.652c-4.208 2.644-8.362 5.233-12.57 7.876l-5.071 3.237c-2.644 1.672-5.449 1.672-8.146 0l-5.071-3.237c-4.531-2.805-9.009-5.664-13.487-8.47-1.241-7.66-3.237-14.674-5.395-20.5-2.32-6.366-5.341-12.947-8.955-19.583l-7.445-36.9c-.162-.755-.486-1.51-.917-2.212-3.56-5.449-10.034-8.362-16.508-7.445-6.474.971-11.814 5.61-13.648 11.922-.216.593-.27 1.187-.27 1.78 0 2.428.108 5.826.324 10.196-1.942-3.561-3.777-7.606-5.503-12.03 7.768-39.867 26.65-64.898 57.669-76.497.108-.054.162-.108.27-.108 14.727-6.42 26.866-14.242 36.414-23.413 11.652 11.383 20.068 16.777 26.973 21.201 14.889 9.602 21.147 13.648 40.622 76.604-1.996 5.341-4.154 10.088-6.42 14.242.216-4.37.324-7.768.377-10.196 0-.593-.108-1.187-.27-1.78-1.834-6.312-7.175-10.951-13.648-11.922-6.474-.917-12.947 1.996-16.508 7.445-.485.701-.755 1.456-.917 2.212l-7.499 36.9c-3.614 6.635-6.581 13.217-8.955 19.583-2.586 7.177-4.421 14.19-5.446 21.095zm81.19-110.321c3.183 3.668 5.017 9.764 2.967 20.877-9.441 42.51-20.77 72.558-33.717 89.228-1.241 1.565-1.672 3.615-1.133 5.557l12.138 44.722c-12.785 6.366-26.326 11.383-40.514 14.674-1.51-13.972-3.345-23.844-5.664-29.994-5.287-15.645-4.531-32.962 2.212-51.411 2.212-6.042 5.125-12.354 8.631-18.72.324-.593.539-1.187.647-1.834l7.391-36.306c.863-.809 2.05-1.187 3.291-1.025 1.295.216 2.374 1.025 2.967 2.158-.054 5.233-.647 14.727-1.618 28.322-.216 2.536 1.133 4.909 3.345 6.096 2.266 1.187 5.017.971 7.013-.647 14.511-11.547 25.031-35.013 32.044-71.697zm109.512-59.18c-2.212 2.751-6.258 3.183-9.009.971l-14.781-11.922c6.959 20.446 10.466 41.809 10.466 63.819 0 53.192-20.716 103.2-58.317 140.801s-87.61 58.316-140.801 58.316c-29.617 0-58.047-6.312-84.589-18.773-.108-.054-.216-.108-.378-.162-.108-.108-.431-.216-.863-.432-.485-.27-.971-.486-1.456-.701-.27-.162-.54-.27-.755-.432-.702-.378-1.565-.809-2.536-1.295-1.726-.917-3.291-1.726-3.614-1.888-2.751-1.349-4.154-4.424-3.399-7.391l12.57-46.394c-11.976-16.616-22.118-42.132-30.911-77.953-1.133-4.424-2.212-9.117-3.291-13.864 0-.054 0-.108 0-.216-3.722-19.691 2.482-30.21 10.52-35.874-1.511-29.293 6.797-57.993 23.575-81.19 9.495-13.163 21.255-23.898 34.58-31.774l1.403-16.13c1.403-16.939 14.512-29.725 30.48-29.725h31.505c15.914 0 29.023 12.785 30.48 29.725l.863 10.52c19.906 10.681 36.306 26.973 47.851 47.689 11.922 21.417 17.748 46.61 16.616 71.425 7.66 5.772 13.433 16.292 9.818 35.335 0 .108-.054.162-.054.216-9.495 43.049-20.716 73.152-34.202 91.817l10.52 38.734c54.753-32.476 91.599-92.195 91.599-160.384 0-21.309-3.507-41.917-10.466-61.607l-3.345 21.633c-.486 3.183-3.237 5.449-6.312 5.449-.324 0-.701-.054-1.025-.108-3.506-.54-5.88-3.83-5.341-7.337l6.851-43.697c.377-2.266 1.888-4.154 3.992-4.963 2.158-.809 4.585-.432 6.366.971l34.418 27.782c2.752 2.212 3.184 6.258.972 9.009zm-374.228 100.557c3.506.324 6.15 3.398 5.88 6.905l-3.507 42.942c.108 1.78-.485 3.56-1.672 4.855-.593.647-1.295 1.187-2.104 1.564-.863.432-1.78.647-2.697.647-1.295 0-2.589-.432-3.668-1.133l-36.36-25.193c-2.913-1.996-3.669-5.988-1.619-8.901 1.996-2.913 5.988-3.614 8.901-1.618l15.753 10.897c-10.682-24.761-16.293-51.573-16.293-78.654 0-53.192 20.716-103.2 58.316-140.801 37.655-37.601 87.664-58.317 140.855-58.317 35.713 0 70.778 9.549 101.42 27.729 3.021 1.78 4.046 5.718 2.212 8.739-1.78 3.075-5.718 4.046-8.793 2.266-28.592-16.993-61.391-25.949-94.838-25.949-102.769.001-186.332 83.564-186.332 186.333 0 25.895 5.449 51.465 15.86 75.094l1.78-21.525c.27-3.506 3.345-6.15 6.906-5.88zm296.868 11.922c2.805 2.428 5.287 5.449 7.337 8.847 2.05-3.399 4.478-6.42 7.283-8.847-2.805-2.427-5.233-5.395-7.283-8.793-2.05 3.399-4.531 6.366-7.337 8.793zm-14.565-6.15c-2.697.863-4.586 3.345-4.586 6.15 0 2.859 1.888 5.341 4.586 6.15 7.93 2.374 14.188 11.814 15.537 23.467.324 3.237 3.075 5.664 6.366 5.664 3.237 0 5.934-2.427 6.312-5.664 1.349-11.652 7.606-21.093 15.537-23.467 2.697-.809 4.585-3.291 4.585-6.15 0-2.805-1.888-5.287-4.585-6.15-7.93-2.374-14.188-11.76-15.537-23.413-.378-3.237-3.075-5.665-6.312-5.665-3.291 0-6.042 2.428-6.366 5.665-1.349 11.653-7.607 21.04-15.537 23.413zm-256.517-96.349c-2.751-2.428-5.233-5.395-7.283-8.793-2.05 3.399-4.478 6.366-7.283 8.793 2.805 2.481 5.233 5.449 7.283 8.847 2.05-3.398 4.532-6.365 7.283-8.847zm14.62 6.15c2.697-.809 4.531-3.291 4.531-6.15 0-2.805-1.834-5.287-4.531-6.096-7.984-2.374-14.188-11.814-15.537-23.467-.377-3.237-3.129-5.664-6.366-5.664s-5.988 2.427-6.366 5.664c-1.349 11.652-7.552 21.093-15.483 23.467-2.751.809-4.585 3.291-4.585 6.096 0 2.859 1.834 5.341 4.585 6.15 7.93 2.374 14.134 11.814 15.483 23.467.378 3.237 3.129 5.664 6.366 5.664s5.988-2.428 6.366-5.664c1.349-11.652 7.553-21.093 15.537-23.467zm109.889 51.088c2.751 2.212 3.183 6.258.971 9.009s-6.258 3.183-9.009.971c-9.603-7.768-22.442-7.768-32.045 0-1.187.917-2.589 1.403-4.046 1.403-1.834 0-3.668-.809-4.963-2.374-2.212-2.751-1.781-6.797.971-9.009 14.189-11.437 33.987-11.437 48.121 0zm30.21 9.98c9.602-7.768 22.496-7.768 32.098 0 1.133.917 2.589 1.403 3.992 1.403 1.888 0 3.722-.809 4.963-2.374 2.266-2.751 1.834-6.797-.917-9.009-14.188-11.437-33.987-11.437-48.174 0-2.751 2.212-3.183 6.258-.971 9.009 2.266 2.751 6.258 3.183 9.009.971z" fill-rule="evenodd"/></svg>