<svg viewBox="0 0 96 96" xmlns="http://www.w3.org/2000/svg"><g id="Layer_1"/><g id="Layer_2"/><g id="Layer_3"/><g id="Layer_4"><g><path d="m30.67 60.049c2.796 0 5.269-1.524 6.3-3.88l-2.498-1.094c-.597 1.364-2.089 2.246-3.802 2.246s-3.205-.881-3.802-2.246l-2.499 1.094c1.031 2.356 3.506 3.88 6.301 3.88z"/><path d="m49.814 60.049c2.797 0 5.269-1.524 6.3-3.88l-2.498-1.094c-.597 1.364-2.089 2.246-3.802 2.246-1.689 0-3.201-.895-3.762-2.228l-2.516 1.059c.996 2.366 3.46 3.897 6.278 3.897z"/><path d="m46.389 72.404c-3.958 3.248-9.05 3.248-13.012 0l-1.729 2.111c2.475 2.025 5.321 3.098 8.234 3.098 2.916 0 5.763-1.073 8.237-3.098z"/><path d="m32.954 48.64c-.845-.32-1.723-.554-2.613-.7l-.44 2.693c.713.117 1.416.306 2.091.558z"/><path d="m20.571 50.157 1.503 2.281c.622-.412 1.265-.76 1.928-1.045l-1.076-2.509c-.807.349-1.598.776-2.355 1.273z"/><path d="m27.981 50.505-.071-2.729c-.89.025-1.793.139-2.682.345l.611 2.658c.712-.163 1.433-.256 2.142-.274z"/><path d="m37.307 51.184c-.7-.576-1.428-1.084-2.185-1.517l-1.361 2.366c.629.362 1.235.785 1.816 1.261z"/><path d="m45.941 51.394-1.076-2.509c-.807.348-1.599.775-2.354 1.272l1.503 2.281c.619-.412 1.263-.76 1.927-1.044z"/><path d="m49.921 50.505-.071-2.729c-.89.025-1.793.139-2.683.345l.611 2.658c.714-.163 1.434-.256 2.143-.274z"/><path d="m54.892 48.64c-.842-.32-1.722-.554-2.612-.7l-.441 2.693c.711.117 1.414.306 2.089.558z"/><path d="m59.248 51.184c-.702-.576-1.432-1.084-2.187-1.517l-1.361 2.366c.627.362 1.234.785 1.817 1.261z"/><path d="m28.282 67.067-1.208-2.445c-.64.316-1.317.565-2.011.739l.664 2.644c.881-.22 1.741-.536 2.555-.938z"/><path d="m22.603 65.664c-.53 0-1.059-.039-1.583-.121l-.419 2.693c.666.103 1.332.156 2.002.156.235 0 .469-.007.705-.018l-.137-2.729z"/><path d="m28.729 63.61 1.624 2.196c.704-.522 1.375-1.119 1.997-1.777l-1.982-1.876c-.512.544-1.06 1.03-1.639 1.457z"/><path d="m45.813 63.226c.59.647 1.212 1.254 1.862 1.816l1.784-2.068c-.569-.49-1.112-1.02-1.627-1.588z"/><path d="m35.28 79.805c-.535-.004-1.061-.05-1.571-.153l-.529 2.679c.677.131 1.373.199 2.091.203.224 0 .448-.007.671-.021l-.142-2.722z"/><path d="m28.31 74.586-2.597.831c.291.91.679 1.755 1.151 2.516l2.317-1.443c-.356-.568-.647-1.208-.871-1.904z"/><path d="m30.335 77.919-1.883 1.976c.423.405.885.768 1.379 1.084.306.199.62.377.942.537l1.222-2.438c-.233-.117-.458-.245-.683-.391-.353-.228-.678-.484-.977-.768z"/><path d="m44.214 79.741-.334 2.708c.458.057.917.085 1.37.085.474 0 .944-.028 1.405-.089l-.355-2.707c-.679.092-1.379.089-2.086.003z"/><path d="m49.151 78.682c-.35.231-.718.426-1.098.586l1.052 2.516c.538-.224 1.057-.497 1.526-.81.313-.195.61-.409.892-.64l-1.72-2.118c-.197.161-.405.31-.652.466z"/><path d="m34.994 66.911c-.06.27-.034.554.075.81.071.174.753 1.713 2.462 2.253.384.121.778.181 1.183.181.826 0 1.7-.249 2.612-.746l2.448.512.558-2.672-2.964-.618c-.346-.067-.707-.007-1.009.181-.568.362-1.379.764-1.986.565-.266-.078-.465-.259-.597-.419l2.062-9.533-2.667-.576z"/><path d="m73.606 73.36-.002.001-11.864-11.865c-.35-.348-.858-.48-1.341-.345-.476.135-.84.519-.952 1.002-1.347 5.813 1.272 10.77 3.706 13.9 1.945 2.516 3.866 4.004 3.948 4.065.245.192.54.284.831.284.352 0 .7-.135.965-.398l.841-.839.288.267c.233.213.522.274.838.291.018.352.171.679.427.92l.849.803c.045.782.386 1.549.969 2.132.655.657 1.529 1.066 2.396.97.616.405 1.322.608 2.015.608.862 0 1.706-.313 2.336-.942 1.313-1.315 1.203-3.404-.258-4.868zm-5.742 3.816c-.661-.615-1.608-1.571-2.555-2.796-1.677-2.157-3.461-5.301-3.496-8.951l8.899 8.901zm10.063 5.106c-.245.245-.757.178-1.091-.146-.355-.341-.871-.469-1.343-.327-.089.028-.284.014-.455-.16-.153-.153-.195-.33-.171-.437.114-.473-.035-.974-.389-1.308l-1.006-.952c-.129-.405-.359-.785-.67-1.098-.306-.302-.702-.508-1.116-.64l.956-.955 5.024 5.017c.311.313.492.775.261 1.006z"/><path d="m69.922 54.258c-.214 0-.41.056-.622.063 2.587-4.773 4.019-10.107 4.019-15.651 0-4.097-.727-8.02-2.161-11.679.565-.963.92-2.018 1.055-3.13.647-4.779-2.37-9.078-7.025-9.999-1.021-.195-2.107-.224-3.18-.082-2.763-2.448-5.916-4.392-9.391-5.781-.682-2.107-2.524-3.649-4.793-3.941-1.867-.259-3.646.366-4.9 1.645-8.709-.625-17.503 2.135-24.143 7.817-4.431.213-8.149 3.571-8.762 8.02-.155 1.19-.091 2.345.183 3.379-1.96 4.221-2.995 8.961-2.995 13.751 0 7.272 2.283 14.107 6.585 19.803v.681c0 9.597 6.191 21.557 14.404 27.829 3.966 3.01 8.024 4.534 12.067 4.534 3.613 0 7.789-1.869 12.102-5.429.837-.728 1.546-1.4 2.208-2.058 3.424 4.805 9.011 7.97 15.349 7.97 10.406 0 18.871-8.467 18.871-18.871s-8.466-18.871-18.871-18.871zm-56.166-3.255v2.469c-2.51-4.463-3.82-9.508-3.82-14.803 0-4.562 1.02-9.075 2.955-13.047.162-.33.181-.711.059-1.055-.273-.768-.352-1.691-.224-2.668.444-3.237 3.237-5.66 6.506-5.66h.06c.302.032.663-.121.915-.341 6.298-5.557 14.7-8.268 23.158-7.416.469.025.945-.16 1.233-.544.664-.895 1.716-1.325 2.878-1.173 1.352.174 2.416 1.173 2.649 2.487.084.473.414.871.865 1.038 3.621 1.361 6.872 3.361 9.668 5.948.321.298.771.419 1.201.334.945-.195 1.917-.203 2.807-.032 3.263.647 5.301 3.571 4.841 6.975-.112.924-.446 1.777-.99 2.533-.277.384-.334.885-.151 1.325 1.474 3.511 2.222 7.313 2.222 11.296 0 5.653-1.535 11.107-4.445 15.83-2.128-5.573-5.952-11.05-10.9-15.042 1.571-1.363 2.733-2.761 3.522-4.238l-2.408-1.286c-.702 1.313-1.835 2.583-3.393 3.855-4.058-2.705-8.734-4.408-13.794-4.441-1.403-2.452-3.365-6.691-2.764-10.475l-2.697-.426c-.629 3.976.901 8.115 2.462 11.116-4.583.638-8.796 2.738-12.411 5.538l-3.336-6.393-2.42 1.265 3.617 6.93c-3.198 2.897-5.827 6.256-7.677 9.411-.124.21-.188.448-.188.69zm36.845 33.006c-3.736 3.081-7.41 4.779-10.338 4.779-3.433 0-6.939-1.34-10.415-3.976-5.296-4.045-9.633-10.63-11.806-17.238.073.026.144.069.217.093l.863-2.587c-.673-.227-1.334-.515-1.984-.861-.364-1.729-.619-3.44-.619-5.066v-7.833c4.3-7.122 12.667-15.252 22.506-15.252 11.425 0 20.781 9.542 24.539 19.369-4.749 1.713-8.604 5.24-10.72 9.783-.615-.304-1.213-.639-1.785-1.021l-1.516 2.267c.728.487 1.49.924 2.281 1.304l.27-.565c-.625 1.874-1.045 3.842-1.045 5.923 0 1.096.144 2.156.324 3.202-.111.19-.212.391-.338.565l.5.355c.343 1.534.915 2.968 1.608 4.336-.746.776-1.556 1.562-2.542 2.423zm19.321 5.262c-8.901 0-16.142-7.241-16.142-16.142 0-7.583 5.275-13.918 12.335-15.64.272-.079.544-.156.862-.204.957-.178 1.936-.298 2.946-.298 8.901 0 16.142 7.241 16.142 16.142s-7.242 16.142-16.143 16.142z"/></g></g></svg>