<svg version="1.1" id="Capa_1" xmlns="http://www.w3.org/2000/svg" xmlns:xlink="http://www.w3.org/1999/xlink" x="0px" y="0px" viewBox="0 0 512 512" style="enable-background:new 0 0 512 512;" xml:space="preserve">
<g>
	<g>
		<path style="fill:none;stroke:#000000;stroke-width:15;stroke-linecap:round;stroke-linejoin:round;stroke-miterlimit:10;" d="&#10;&#9;&#9;&#9;M340.176,98.74C316.083,82.461,287.101,72.934,256,72.934h0c-64.224,0-119.411,40.627-141.155,97.447"/>
		<path style="fill:none;stroke:#000000;stroke-width:15;stroke-linecap:round;stroke-linejoin:round;stroke-miterlimit:10;" d="&#10;&#9;&#9;&#9;M181.434,428.345c22.033,12.604,47.496,19.826,74.566,19.826h0c83.077,0,151.049-67.972,151.049-151.049v-73.14&#10;&#9;&#9;&#9;c0-4.333-0.196-8.623-0.558-12.866"/>
		<path style="fill:none;stroke:#000000;stroke-width:15;stroke-linecap:round;stroke-linejoin:round;stroke-miterlimit:10;" d="&#10;&#9;&#9;&#9;M106.196,204.635c-0.82,6.338-1.245,12.796-1.245,19.348v54.041"/>
		<g>
			<path style="fill:none;stroke:#000000;stroke-width:15;stroke-linecap:round;stroke-linejoin:round;stroke-miterlimit:10;" d="&#10;&#9;&#9;&#9;&#9;M158.092,221.029c2.429,14.973,15.412,26.406,31.07,26.406s28.641-11.433,31.07-26.406"/>
			<path style="fill:none;stroke:#000000;stroke-width:15;stroke-linecap:round;stroke-linejoin:round;stroke-miterlimit:10;" d="&#10;&#9;&#9;&#9;&#9;M291.768,221.029c2.429,14.973,15.412,26.406,31.07,26.406c15.658,0,28.641-11.433,31.07-26.406"/>
		</g>
		<g>
			<path style="fill:none;stroke:#000000;stroke-width:15;stroke-linecap:round;stroke-linejoin:round;stroke-miterlimit:10;" d="&#10;&#9;&#9;&#9;&#9;M224.747,340.549c2.429,14.973,15.412,26.406,31.07,26.406s28.641-11.433,31.07-26.406"/>
		</g>
		
			<polyline style="fill:none;stroke:#000000;stroke-width:15;stroke-linecap:round;stroke-linejoin:round;stroke-miterlimit:10;" points="&#10;&#9;&#9;&#9;255.817,297.33 234.388,284.958 255.817,258.553 &#9;&#9;"/>
		<path style="fill:none;stroke:#000000;stroke-width:15;stroke-linecap:round;stroke-linejoin:round;stroke-miterlimit:10;" d="&#10;&#9;&#9;&#9;M365.623,62.464c-18.615,15.532-30.466,38.897-30.466,65.036c0,46.763,37.909,84.671,84.671,84.671&#10;&#9;&#9;&#9;c46.762,0,84.671-37.908,84.671-84.671s-37.909-84.671-84.671-84.671c-8.065,0-15.857,1.152-23.247,3.258"/>
		<path style="fill:none;stroke:#000000;stroke-width:15;stroke-linecap:round;stroke-linejoin:round;stroke-miterlimit:10;" d="&#10;&#9;&#9;&#9;M465.128,111.412H440.15c-2.338,0-4.234-1.895-4.234-4.234V82.201c0-2.338-1.895-4.234-4.234-4.234h-23.708&#10;&#9;&#9;&#9;c-2.338,0-4.234,1.895-4.234,4.234v24.978c0,2.338-1.895,4.234-4.234,4.234H374.53c-2.338,0-4.234,1.895-4.234,4.234v23.708&#10;&#9;&#9;&#9;c0,2.338,1.895,4.234,4.234,4.234h24.978c2.338,0,4.234,1.895,4.234,4.234v24.978c0,2.338,1.895,4.234,4.234,4.234h23.708&#10;&#9;&#9;&#9;c2.338,0,4.234-1.895,4.234-4.234v-24.978c0-2.338,1.895-4.234,4.234-4.234h24.978c2.338,0,4.234-1.895,4.234-4.234v-23.708&#10;&#9;&#9;&#9;C469.361,113.308,467.466,111.412,465.128,111.412z"/>
		<g>
			<path style="fill:none;stroke:#000000;stroke-width:15;stroke-linecap:round;stroke-linejoin:round;stroke-miterlimit:10;" d="&#10;&#9;&#9;&#9;&#9;M345.5,323.829c-9.65,0-17.5-7.851-17.5-17.5c0-9.65,7.85-17.5,17.5-17.5c9.65,0,17.5,7.85,17.5,17.5&#10;&#9;&#9;&#9;&#9;C363,315.978,355.149,323.829,345.5,323.829z"/>
			<path style="fill:none;stroke:#000000;stroke-width:15;stroke-linecap:round;stroke-linejoin:round;stroke-miterlimit:10;" d="&#10;&#9;&#9;&#9;&#9;M197.5,178.829c-9.65,0-17.5-7.851-17.5-17.5s7.85-17.5,17.5-17.5c9.65,0,17.5,7.85,17.5,17.5S207.149,178.829,197.5,178.829z"/>
		</g>
		<path style="fill:none;stroke:#000000;stroke-width:15;stroke-linecap:round;stroke-linejoin:round;stroke-miterlimit:10;" d="&#10;&#9;&#9;&#9;M164.439,340.941c-15.414,5.671-26.438,20.501-26.438,37.858c0,15.373,8.651,28.761,21.337,35.562"/>
		<path style="fill:none;stroke:#000000;stroke-width:15;stroke-linecap:round;stroke-linejoin:round;stroke-miterlimit:10;" d="&#10;&#9;&#9;&#9;M90.916,373.928c-10.062,0-18.247-8.186-18.247-18.247s8.186-18.247,18.247-18.247s18.247,8.186,18.247,18.247&#10;&#9;&#9;&#9;S100.977,373.928,90.916,373.928z"/>
		<path style="fill:none;stroke:#000000;stroke-width:15;stroke-linecap:round;stroke-linejoin:round;stroke-miterlimit:10;" d="&#10;&#9;&#9;&#9;M92.741,442.331c3.089-3.707,4.952-8.469,4.952-13.661c0-11.786-9.589-21.375-21.375-21.375c-10.23,0-18.794,7.227-20.881,16.841"/>
		
			<circle style="fill:none;stroke:#000000;stroke-width:15;stroke-linecap:round;stroke-linejoin:round;stroke-miterlimit:10;" cx="103.086" cy="373.586" r="95.586"/>
		<path style="fill:none;stroke:#000000;stroke-width:15;stroke-linecap:round;stroke-linejoin:round;stroke-miterlimit:10;" d="&#10;&#9;&#9;&#9;M35.802,391.086c7.779,29.888,34.994,52.018,67.283,52.018c38.333,0,69.519-31.186,69.519-69.519&#10;&#9;&#9;&#9;c0-38.332-31.186-69.518-69.519-69.518c-32.29,0-59.505,22.13-67.284,52.018"/>
	</g>
</g>
<g>
</g>
<g>
</g>
<g>
</g>
<g>
</g>
<g>
</g>
<g>
</g>
<g>
</g>
<g>
</g>
<g>
</g>
<g>
</g>
<g>
</g>
<g>
</g>
<g>
</g>
<g>
</g>
<g>
</g>
</svg>