<svg id="Layer_1" viewBox="0 0 48 48" xmlns="http://www.w3.org/2000/svg" data-name="Layer 1"><g fill="none" stroke="#353535" stroke-miterlimit="10" stroke-width="2"><path d=""/><path d="m11 24a3.25 3.25 0 0 1 6 0" stroke-linecap="round"/><path d="m20 28v4.042"/><g stroke-linecap="round"><path d="m12.28571 47v-3.77017l-1.56562-1.73363a16.74855 16.74855 0 0 1 -3.83734-7.13278"/><path d="m16.5829 38.30159a4.08826 4.08826 0 0 0 3.50176 1.49206 4.08826 4.08826 0 0 0 3.50176-1.49206"/><path d="m23.58642 36.06349a4.08826 4.08826 0 0 0 -3.50176-1.49206 4.08826 4.08826 0 0 0 -3.50176 1.49206"/><path d="m18.94864 46.72113a6.61518 6.61518 0 0 0 3.801 0l.00036-.00013a14.731 14.731 0 0 0 7.07975-4.50755 19.40962 19.40962 0 0 0 3.619-5.89637"/></g><path d="m1 30.508 1.492 1.492h3.73v-13h-3.73l-1.492 1.492z"/><path d="m5 16.66667v-.373a15.29364 15.29364 0 0 1 15.29364-15.29367 15.25324 15.25324 0 0 1 11.2665 4.95127" stroke-linecap="round"/><path d="m28.603 43.524v4.476"/><path d="m44.375 19.243a11 11 0 1 1 -13.6567-4.37856"/><path d="m38.33333 31h-6.66666a1.56679 1.56679 0 0 1 -1.66667-1.44252v-10.09755l.83333-10.09766.12961-.02748a24.321 24.321 0 0 1 8.20372.02748l.83334 10.09766v10.09755a1.56679 1.56679 0 0 1 -1.66667 1.44252z"/><path d="m35 8.46032v-3.99194a3.46838 3.46838 0 0 1 3.46815-3.46838h.00024a3.46838 3.46838 0 0 1 3.29039 2.37158l.77776 3.20263a5.54052 5.54052 0 0 0 5.46346 4.42579"/><g><path d="m30.266 17h11.75"/><circle cx="44.016" cy="17" r="2"/><path d="m44.016 15h4"/><path d="m44.016 19h4"/></g><path d="m34.079 23h-3.984"/><path d="m36.063 23h2.985"/><path d="m34.079 27.111h-3.984"/><path d="m36 27.111h2.984"/><path d="m6.22222 19h4.14008a24.29847 24.29847 0 0 0 16.19256-6.30891l.55624-.50062" stroke-linecap="round"/><path d="m8.67419 15.0506h2.37835a13.90523 13.90523 0 0 0 9.30211-3.5696l.31954-.28759" stroke-linecap="round"/></g></svg>