<?xml version="1.0"?>
<svg xmlns="http://www.w3.org/2000/svg" data-name="Layer 1" id="Layer_1" viewBox="0 0 64 64"><title/><path d="M22,11H16a9,9,0,0,0-9,9V44a9,9,0,0,0,9,9h6a9,9,0,0,0,9-9V20A9,9,0,0,0,22,11ZM9,30.61l7,2.73L9,35.62ZM22,51H16a7,7,0,0,1-7-7V37.73l10.29-3.34h0L29,31.23V44A7,7,0,0,1,22,51Zm7-21.87L19,32.37,9,28.46V20a7,7,0,0,1,7-7h6a7,7,0,0,1,7,7Z"/><path d="M24.73,19.23A6.21,6.21,0,0,0,19,15a6.21,6.21,0,0,0-5.73,4.23A3.05,3.05,0,0,0,11,22a3.05,3.05,0,0,0,2.27,2.77A6.21,6.21,0,0,0,19,29a6.21,6.21,0,0,0,5.73-4.23A3.05,3.05,0,0,0,27,22,3.05,3.05,0,0,0,24.73,19.23ZM23.78,23a1,1,0,0,0-.79.71A4.31,4.31,0,0,1,19,27a4.31,4.31,0,0,1-4-3.34,1,1,0,0,0-.79-.71C13.53,22.84,13,22.42,13,22s.53-.84,1.22-.95a1,1,0,0,0,.79-.71A4.31,4.31,0,0,1,19,17a4.31,4.31,0,0,1,4,3.34,1,1,0,0,0,.79.71c.69.11,1.22.53,1.22.95S24.47,22.84,23.78,23Z"/><path d="M51,20H48V17a1,1,0,0,0-1-1H43a1,1,0,0,0-1,1v3H39a1,1,0,0,0-1,1v4a1,1,0,0,0,1,1h3v3a1,1,0,0,0,1,1h4a1,1,0,0,0,1-1V26h3a1,1,0,0,0,1-1V21A1,1,0,0,0,51,20Zm-1,4H47a1,1,0,0,0-1,1v3H44V25a1,1,0,0,0-1-1H40V22h3a1,1,0,0,0,1-1V18h2v3a1,1,0,0,0,1,1h3Z"/><path d="M45,11a12,12,0,0,0-1,24V52a1,1,0,0,0,2,0V35a12,12,0,0,0-1-24Zm0,22A10,10,0,1,1,55,23,10,10,0,0,1,45,33Z"/></svg>
