<svg viewBox="0 0 96 96" xmlns="http://www.w3.org/2000/svg"><g id="Layer_1"/><g id="Layer_2"/><g id="Layer_3"/><g id="Layer_4"><g><path d="m13.436 70.165 5.367 5.367 1.94-1.937-8.372-8.375-8.371 8.375 1.94 1.937 4.804-4.804c1.459 10.345 9.804 21.057 20.314 21.057v-2.744c-9.012 0-16.4-9.779-17.622-18.876z"/><path d="m75.255 73.667 1.94 1.944 5.02-5.018c-1.394 8.974-8.69 18.449-17.559 18.449v2.744c10.571 0 18.953-10.838 20.338-21.24l5.065 5.065 1.941-1.944-8.372-8.368z"/><path d="m44.844 53.662-2.512-1.1c-.547 1.24-1.962 2.076-3.523 2.076-1.56 0-2.974-.836-3.521-2.076l-2.512 1.1c.991 2.262 3.36 3.719 6.033 3.719 2.675 0 5.044-1.457 6.035-3.719z"/><path d="m56.917 54.637c-1.565 0-2.964-.829-3.482-2.058l-2.53 1.065c.956 2.269 3.316 3.737 6.012 3.737 2.673 0 5.041-1.458 6.033-3.719l-2.512-1.1c-.546 1.239-1.961 2.075-3.521 2.075z"/><path d="m50.916 50.921c.525-.554 1.081-1.065 1.663-1.529l-1.711-2.144c-.679.543-1.327 1.14-1.942 1.786z"/><path d="m56.226 47.263-1.011-2.551c-.825.329-1.626.725-2.394 1.186l1.411 2.351c.64-.382 1.304-.715 1.994-.986z"/><path d="m58.591 46.562c.579-.114 1.158-.189 1.737-.229l-.186-2.737c-.693.046-1.386.136-2.092.275l-.547.118.618 2.673z"/><path d="m34.697 46.152-.179-2.744c-.822 0-1.645.061-2.464.182l.4 2.715c.686-.1 1.374-.154 2.063-.154h.18z"/><path d="m38.822 46.855.875-2.601c-.659-.222-1.336-.4-2.019-.536-.2-.043-.4-.079-.597-.107l-.397 2.715.45.082c.577.111 1.139.262 1.688.447z"/><path d="m44.172 46.58c-.727-.525-1.485-.99-2.271-1.39l-1.243 2.444c.661.336 1.297.729 1.906 1.168z"/><path d="m45.671 51.743 2.122-1.736c-.565-.693-1.165-1.333-1.794-1.922l-1.879 2.001c.544.51 1.062 1.064 1.551 1.657z"/><path d="m72.981 55.792c4.065-5.397 6.226-11.857 6.226-18.731 0-3.855-.677-7.557-2.011-11.023.516-.911.849-1.901.988-2.955.615-4.584-2.271-8.686-6.708-9.536-1.009-.196-2.028-.229-3-.096-2.621-2.305-5.593-4.127-8.852-5.434-.655-2.019-2.412-3.487-4.559-3.744-1.772-.25-3.478.314-4.699 1.536-.822-.068-1.65-.089-2.503-.089-7.451 0-14.654 2.662-20.343 7.503-4.204.211-7.737 3.398-8.329 7.617-.154 1.118-.1 2.222.157 3.223-1.878 4.087-2.83 8.457-2.83 12.998 0 6.873 2.161 13.333 6.226 18.731v.646c0 9.107 5.881 20.452 13.675 26.379.597.458 1.211.824 1.82 1.212 0 .008-.002.016-.002.024h.038c3.138 1.987 6.41 3.083 9.585 3.083 4.375 0 8.659-2.798 11.494-5.152 6.771-5.745 13.624-16.364 13.624-25.547v-.645zm-2.744.646c0 7.25-5.44 17.332-12.645 23.446-.972.808-1.936 1.488-2.887 2.088-.165-.644-.378-1.273-.693-1.863l-2.419 1.293c.311.582.515 1.208.604 1.858l.268-.037c-1.652.767-3.212 1.169-4.602 1.169-2.163 0-4.407-.641-6.625-1.788.042-.159.028-.33.085-.485l-2.217-.804c-.339-.232-.682-.424-1.018-.682-7.182-5.459-12.598-15.864-12.598-24.196v-7.303c.628-1.051 1.379-2.121 2.187-3.186l.697 1.568c.699-.311 1.408-.572 2.124-.779l-.768-2.637c-.279.082-.55.209-.828.304 4.317-5.102 10.524-9.586 17.59-9.682v2.271h2.744v-2.111c6.058.795 11.366 4.37 15.282 9.053-.658-.133-1.318-.264-1.984-.318l-.218 2.737c.74.057 1.476.175 2.206.35l.513-2.123c.569.718 1.115 1.452 1.617 2.211l-.193.516c.245.092.482.224.724.328 1.281 2.067 2.322 4.237 3.055 6.41v2.392z"/><path d="m44.587 75.921.664 2.665c.632-.157 1.313-.211 1.96-.136l.282-2.73c-.955-.092-1.966-.035-2.906.201z"/><path d="m48.905 78.905c.602.268 1.151.636 1.629 1.097l1.901-1.979c-.709-.682-1.52-1.229-2.412-1.626z"/><path d="m40.015 78.894 2.162 1.694c.409-.525.899-.965 1.456-1.311l-1.451-2.33c-.829.514-1.557 1.172-2.167 1.947z"/><path d="m44.928 56.234-2.151 9.936.166.4c.07.164.729 1.651 2.381 2.176.371.118.754.175 1.147.175.786 0 1.615-.236 2.48-.7l2.287.475.557-2.687-3.344-.697-.468.297c-.738.468-1.386.65-1.811.525-.22-.064-.388-.211-.504-.343l1.944-8.979z"/><path d="m41.762 70.387-1.74 2.122c2.351 1.929 5.061 2.948 7.841 2.948 2.782 0 5.494-1.018 7.841-2.948l-1.74-2.122c-3.701 3.044-8.489 3.048-12.202 0z"/><path d="m46.491 43.836h2.744v2.451h-2.744z"/><path d="m46.491 39.188h2.744v2.455h-2.744z"/></g></g></svg>