<?xml version="1.0" encoding="UTF-8"?>
<svg xmlns="http://www.w3.org/2000/svg" xmlns:xlink="http://www.w3.org/1999/xlink" version="1.1" id="Capa_1" x="0px" y="0px" viewBox="0 0 512 512" style="enable-background:new 0 0 512 512;" xml:space="preserve" width="512" height="512">
<g>
	<g>
		<g>
			<path style="fill:none;stroke:#000000;stroke-width:15;stroke-linecap:round;stroke-linejoin:round;stroke-miterlimit:10;" d="&#10;&#9;&#9;&#9;&#9;M364.41,186.014c9.376-17.155,14.732-36.785,14.732-57.614v0c0-66.495-54.405-120.9-120.9-120.9H220.96&#10;&#9;&#9;&#9;&#9;c-66.495,0-120.9,54.405-120.9,120.9v0c0,20.828,5.357,40.459,14.732,57.614"/>
			<g>
				<path style="fill:none;stroke:#000000;stroke-width:15;stroke-linecap:round;stroke-linejoin:round;stroke-miterlimit:10;" d="&#10;&#9;&#9;&#9;&#9;&#9;M122.953,181.663c-14.611,5.691-25.041,19.926-25.041,36.487v0c0,21.528,17.613,39.141,39.141,39.141h9.164"/>
				<path style="fill:none;stroke:#000000;stroke-width:15;stroke-linecap:round;stroke-linejoin:round;stroke-miterlimit:10;" d="&#10;&#9;&#9;&#9;&#9;&#9;M368.76,246.778c7.694-7.159,12.53-17.354,12.53-28.628v0c0-16.561-10.429-30.796-25.041-36.487"/>
			</g>
			<path style="fill:none;stroke:#000000;stroke-width:15;stroke-linecap:round;stroke-linejoin:round;stroke-miterlimit:10;" d="&#10;&#9;&#9;&#9;&#9;M199.26,327.95V340c0,10.213-6.31,19.363-15.857,22.993l-88.321,33.58c-26.729,10.163-44.399,35.784-44.399,64.38V489.5&#10;&#9;&#9;&#9;&#9;c0,8.284,6.716,15,15,15h353.875v-77.498c-7.744-13.661-20.093-24.595-35.437-30.429l-88.321-33.58&#10;&#9;&#9;&#9;&#9;c-9.546-3.63-15.857-12.78-15.857-22.993v-12.05"/>
			<g>
				<path style="fill:none;stroke:#000000;stroke-width:15;stroke-linecap:round;stroke-linejoin:round;stroke-miterlimit:10;" d="&#10;&#9;&#9;&#9;&#9;&#9;M334.854,165.127c-11.496-33.414-43.183-57.435-80.499-57.435h-29.506c-37.317,0-69.003,24.02-80.499,57.435H334.854z"/>
				<path style="fill:none;stroke:#000000;stroke-width:15;stroke-linecap:round;stroke-linejoin:round;stroke-miterlimit:10;" d="&#10;&#9;&#9;&#9;&#9;&#9;M140.323,228.395c4.758,51.351,38.143,94.395,84.064,112.998c9.777,3.961,20.652,3.961,30.429,0&#10;&#9;&#9;&#9;&#9;&#9;c25.086-10.163,46.416-27.631,61.396-49.751"/>
				<path style="fill:none;stroke:#000000;stroke-width:15;stroke-linecap:round;stroke-linejoin:round;stroke-miterlimit:10;" d="&#10;&#9;&#9;&#9;&#9;&#9;M334.038,253.757c2.381-8.164,4.034-16.639,4.842-25.362"/>
			</g>
			<path style="fill:none;stroke:#000000;stroke-width:15;stroke-linecap:round;stroke-linejoin:round;stroke-miterlimit:10;" d="&#10;&#9;&#9;&#9;&#9;M239.601,252.968c-9.507,0-17.213-7.707-17.213-17.213c0-7.13,4.335-13.248,10.513-15.861c3.994-1.69,6.7-5.47,6.7-9.807v-12.059&#10;&#9;&#9;&#9;&#9;"/>
			<path style="fill:none;stroke:#000000;stroke-width:15;stroke-linecap:round;stroke-linejoin:round;stroke-miterlimit:10;" d="&#10;&#9;&#9;&#9;&#9;M214.6,280.636c13.819,13.819,36.184,13.819,50.003,0"/>
			<g>
				<g>
					<path style="fill:none;stroke:#000000;stroke-width:15;stroke-linecap:round;stroke-linejoin:round;stroke-miterlimit:10;" d="&#10;&#9;&#9;&#9;&#9;&#9;&#9;M260.264,413.454c0-10.333,8.362-18.695,18.695-18.695h10.823"/>
				</g>
				<g>
					<path style="fill:none;stroke:#000000;stroke-width:15;stroke-linecap:round;stroke-linejoin:round;stroke-miterlimit:10;" d="&#10;&#9;&#9;&#9;&#9;&#9;&#9;M218.938,413.454c0-10.333-8.362-18.695-18.695-18.695H189.42"/>
				</g>
			</g>
		</g>
		<path style="fill:none;stroke:#000000;stroke-width:15;stroke-linecap:round;stroke-linejoin:round;stroke-miterlimit:10;" d="&#10;&#9;&#9;&#9;M444.483,390v-19.595h-24.925V504.5h19.925c2.761,0,5-2.239,5-5V425"/>
		<path style="fill:none;stroke:#000000;stroke-width:15;stroke-linecap:round;stroke-linejoin:round;stroke-miterlimit:10;" d="&#10;&#9;&#9;&#9;M122.953,170.112v31.536c0,16.171,13.109,29.28,29.28,29.28h30.628c11.482,0,21.904-6.711,26.656-17.164l5.825-12.815&#10;&#9;&#9;&#9;c0.809-1.78,2.583-2.922,4.538-2.922h39.442c1.955,0,3.729,1.143,4.538,2.922l5.825,12.815&#10;&#9;&#9;&#9;c4.751,10.453,15.174,17.164,26.656,17.164h30.628c16.171,0,29.28-13.109,29.28-29.28v-31.536c0-2.753-2.232-4.985-4.985-4.985&#10;&#9;&#9;&#9;H127.938C125.185,165.127,122.953,167.359,122.953,170.112z"/>
		<path style="fill:none;stroke:#000000;stroke-width:15;stroke-linecap:round;stroke-linejoin:round;stroke-miterlimit:10;" d="&#10;&#9;&#9;&#9;M145,451.161h-29.524c-5.506,0-9.97,4.464-9.97,9.97V504.5h268.191v-43.369c0-5.506-4.464-9.97-9.97-9.97H180"/>
		<path style="fill:none;stroke:#000000;stroke-width:15;stroke-linecap:round;stroke-linejoin:round;stroke-miterlimit:10;" d="&#10;&#9;&#9;&#9;M446.976,309.588h-33.898v55.816c0,2.761,2.239,5,5,5h27.886c2.761,0,5-2.239,5-5v-56.39&#10;&#9;&#9;&#9;C449.696,309.381,448.361,309.588,446.976,309.588z"/>
		<path style="fill:none;stroke:#000000;stroke-width:15;stroke-linecap:round;stroke-linejoin:round;stroke-miterlimit:10;" d="&#10;&#9;&#9;&#9;M345.282,253.757h-37.871c-2.761,0-5,2.239-5,5v27.886c0,2.761,2.239,5,5,5h37.871V253.757z"/>
		<path style="fill:none;stroke:#000000;stroke-width:15;stroke-linecap:round;stroke-linejoin:round;stroke-miterlimit:10;" d="&#10;&#9;&#9;&#9;M383.168,295.247v-45.095c0-1.164,0.154-2.29,0.416-3.374h-33.302c-2.761,0-5,2.239-5,5v41.844c0,2.761,2.239,5,5,5h33.302&#10;&#9;&#9;&#9;C383.322,297.537,383.168,296.411,383.168,295.247z"/>
		<path style="fill:none;stroke:#000000;stroke-width:15;stroke-linecap:round;stroke-linejoin:round;stroke-miterlimit:10;" d="&#10;&#9;&#9;&#9;M446.975,309.588h-49.466c-7.92,0-14.341-6.421-14.341-14.341v-45.095c0-7.92,6.421-14.341,14.341-14.341h49.466&#10;&#9;&#9;&#9;c7.92,0,14.341,6.421,14.341,14.341v45.095C461.317,303.168,454.896,309.588,446.975,309.588z"/>
		<g>
			
				<line style="fill:none;stroke:#000000;stroke-width:15;stroke-linecap:round;stroke-linejoin:round;stroke-miterlimit:10;" x1="334.642" y1="322.352" x2="334.642" y2="319"/>
			
				<line style="fill:none;stroke:#000000;stroke-width:15;stroke-linecap:round;stroke-linejoin:round;stroke-miterlimit:10;" x1="334.642" y1="353.895" x2="334.642" y2="350.722"/>
			
				<line style="fill:none;stroke:#000000;stroke-width:15;stroke-linecap:round;stroke-linejoin:round;stroke-miterlimit:10;" x1="320.457" y1="336.537" x2="317.105" y2="336.537"/>
			
				<line style="fill:none;stroke:#000000;stroke-width:15;stroke-linecap:round;stroke-linejoin:round;stroke-miterlimit:10;" x1="352" y1="336.537" x2="348.828" y2="336.537"/>
		</g>
	</g>
	
		<line style="fill:none;stroke:#000000;stroke-width:15;stroke-linecap:round;stroke-linejoin:round;stroke-miterlimit:10;" x1="282" y1="258" x2="273" y2="249"/>
	
		<line style="fill:none;stroke:#000000;stroke-width:15;stroke-linecap:round;stroke-linejoin:round;stroke-miterlimit:10;" x1="281.5" y1="295.5" x2="273" y2="304"/>
	<g>
		
			<line style="fill:none;stroke:#000000;stroke-width:15;stroke-linecap:round;stroke-linejoin:round;stroke-miterlimit:10;" x1="419.824" y1="161" x2="419.824" y2="168.089"/>
		
			<line style="fill:none;stroke:#000000;stroke-width:15;stroke-linecap:round;stroke-linejoin:round;stroke-miterlimit:10;" x1="419.824" y1="195.559" x2="419.824" y2="202.648"/>
		
			<line style="fill:none;stroke:#000000;stroke-width:15;stroke-linecap:round;stroke-linejoin:round;stroke-miterlimit:10;" x1="399" y1="181.824" x2="406.089" y2="181.824"/>
		
			<line style="fill:none;stroke:#000000;stroke-width:15;stroke-linecap:round;stroke-linejoin:round;stroke-miterlimit:10;" x1="433.559" y1="181.824" x2="440.648" y2="181.824"/>
	</g>
	<path style="fill:none;stroke:#000000;stroke-width:15;stroke-linecap:round;stroke-linejoin:round;stroke-miterlimit:10;" d="&#10;&#9;&#9;M339.487,165.127v-9.836c0-46.037-37.32-83.357-83.357-83.357h-33.058c-12.04,0-23.472,2.573-33.808,7.166"/>
	<path style="fill:none;stroke:#000000;stroke-width:15;stroke-linecap:round;stroke-linejoin:round;stroke-miterlimit:10;" d="&#10;&#9;&#9;M160.947,99.732c-13.197,14.747-21.232,34.212-21.232,55.559v9.836"/>
</g>















</svg>
