<svg enable-background="new 0 0 550 550" viewBox="0 0 550 550" xmlns="http://www.w3.org/2000/svg"><g id="_x36_32_-_Foot_Massage"><g><g><g><path d="" style="fill:none;stroke:rgb(0,0,0);stroke-width:12;stroke-linecap:round;stroke-linejoin:round;stroke-miterlimit:10"/></g><g><path d="m231.052 120.792c-19.489 0-34.755-23.674-34.755-53.896s15.266-53.896 34.755-53.896 34.756 23.674 34.756 53.896-15.267 53.896-34.756 53.896zm0-95.792c-12.334 0-22.755 19.186-22.755 41.896s10.421 41.896 22.755 41.896c12.335 0 22.756-19.186 22.756-41.896s-10.421-41.896-22.756-41.896z" fill="rgb(0,0,0)"/></g><g><path d="m302.767 109.84c-15.94 0-28.908-15.905-28.908-35.454 0-19.55 12.968-35.455 28.908-35.455s28.909 15.905 28.909 35.455c0 19.549-12.969 35.454-28.909 35.454zm0-58.909c-9.165 0-16.908 10.741-16.908 23.455 0 12.713 7.743 23.454 16.908 23.454 9.166 0 16.909-10.741 16.909-23.454 0-12.714-7.743-23.455-16.909-23.455z" fill="rgb(0,0,0)"/></g><g><path d="m362.135 129.328c-14.136 0-25.636-14.018-25.636-31.247s11.5-31.247 25.636-31.247 25.637 14.017 25.637 31.247-11.501 31.247-25.637 31.247zm0-50.494c-7.392 0-13.636 8.814-13.636 19.247s6.244 19.247 13.636 19.247 13.637-8.814 13.637-19.247c-.001-10.433-6.246-19.247-13.637-19.247z" fill="rgb(0,0,0)"/></g><g><path d="m411.974 158.578c-12.331 0-22.363-12.13-22.363-27.039s10.032-27.039 22.363-27.039c12.332 0 22.364 12.129 22.364 27.039s-10.032 27.039-22.364 27.039zm0-42.078c-5.617 0-10.363 6.887-10.363 15.039s4.746 15.039 10.363 15.039c5.618 0 10.364-6.887 10.364-15.039s-4.746-15.039-10.364-15.039z" fill="rgb(0,0,0)"/></g><g><path d="m442.436 202.128c-10.526 0-19.091-10.242-19.091-22.831s8.564-22.831 19.091-22.831 19.091 10.242 19.091 22.831-8.565 22.831-19.091 22.831zm0-33.662c-3.777 0-7.091 5.061-7.091 10.831s3.313 10.831 7.091 10.831 7.091-5.061 7.091-10.831-3.314-10.831-7.091-10.831z" fill="rgb(0,0,0)"/></g></g><g><path d="m318.46 537c-1.855 0-3.696-.063-5.471-.187-36.546-2.454-65.831-29.537-68.104-62.995-.225-3.307 2.273-6.169 5.58-6.394 3.318-.204 6.168 2.274 6.393 5.58 1.868 27.497 26.352 49.782 56.951 51.837 1.513.105 3.073.158 4.651.158 28.572 0 53.85-18.227 60.104-43.339 16.609-66.667 43.916-184.204 40.186-222.353-.052-.533-.032-1.07.058-1.598.031-.189 3.291-20.894-7.193-46.077-13.897-33.377-45.729-59.689-92.054-76.089-17.375-6.151-35.813-7.832-53.327-4.859-20.657 3.503-33.541 12.056-38.292 25.42-2.583 7.255-2.286 15.587.836 23.462 6.391 16.148 18.504 49.424 27.841 90.886 3.362 14.928 6.075 29.755 8.062 44.068.456 3.282-1.836 6.313-5.118 6.769-3.277.443-6.313-1.836-6.768-5.118-1.941-13.984-4.593-28.479-7.883-43.082-9.158-40.669-21.03-73.283-27.292-89.104-4.192-10.578-4.543-21.91-.985-31.904 6.228-17.514 22.685-29.004 47.59-33.229 19.52-3.314 40.041-1.456 59.34 5.378 63.093 22.336 88.885 57.726 99.412 83.48 10.452 25.572 8.391 46.693 7.784 51.178 3.497 40.659-23.86 158.67-40.553 225.671-3.726 14.957-13.01 28.426-26.144 37.923-12.944 9.363-29.14 14.518-45.604 14.518z" fill="rgb(0,0,0)"/></g><g><path d="m156.049 521.237c-1.571 0-3.081-.616-4.204-1.719-1.149-1.128-1.796-2.671-1.796-4.281v-125.391c0-2.838 1.988-5.287 4.765-5.871l26.206-5.514c18.334-6.149 22.495-37.727 23.341-56.063 1.219-26.65 18.959-49.251 44.145-56.237.248-.071.525-.142.803-.211 3.216-.804 6.472 1.151 7.276 4.366s-1.151 6.473-4.366 7.276c-.151.037-.303.074-.461.12-20.216 5.606-34.428 23.781-35.41 45.236-1.213 26.314-7.741 59.302-31.949 67.032-.194.062-.391.114-.59.155l-21.76 4.578v114.118c31.857-2.925 61.837-16.975 84.584-39.669 23.789-23.694 38.246-55.238 40.712-88.825 2.435-33.158 8.383-56.091 17.681-68.16 5.579-7.229 10.378-15.305 14.733-22.956l21.405-37.619c2.161-3.802 2.616-8.189 1.281-12.353-1.333-4.157-4.249-7.456-8.211-9.29-2.056-.948-4.235-1.431-6.472-1.431-5.561 0-10.714 3.002-13.449 7.835l-35.582 62.898c-3.46 6.115-7.907 11.968-13.594 17.894-.602.627-1.192 1.294-1.755 1.983-2.096 2.566-5.875 2.949-8.442.853-2.566-2.096-2.948-5.876-.853-8.442.765-.937 1.57-1.847 2.393-2.703 4.984-5.193 8.846-10.262 11.806-15.493l35.583-62.898c4.862-8.59 14.018-13.926 23.894-13.926 3.985 0 7.855.854 11.505 2.537 6.948 3.215 12.27 9.235 14.604 16.519 2.338 7.29 1.508 15.29-2.276 21.949l-21.408 37.623c-4.571 8.03-9.632 16.537-15.659 24.347-7.726 10.029-12.988 31.37-15.215 61.712-2.678 36.466-18.378 70.718-44.209 96.444-25.13 25.073-58.395 40.44-93.662 43.267-3.287.269-5.205.307-5.285.308-.036.002-.073.002-.109.002z" fill="rgb(0,0,0)"/></g><g><path d="m244.028 389.595c-2.813 0-5.324-1.987-5.883-4.852-8.296-42.518 14.927-71.931 15.92-73.162 2.079-2.58 5.856-2.985 8.437-.905 2.577 2.077 2.984 5.847.914 8.426-.296.374-20.67 26.56-13.492 63.343.634 3.253-1.488 6.403-4.74 7.038-.388.076-.775.112-1.156.112z" fill="rgb(0,0,0)"/></g><g><path d="m382.796 271.089c-.192 0-.387-.009-.583-.028-3.299-.318-5.714-3.25-5.396-6.548.188-1.938.282-3.843.282-5.662 0-30.093-24.482-54.576-54.576-54.576-10.517 0-20.727 2.999-29.524 8.672-2.786 1.797-6.499.994-8.295-1.791-1.795-2.785-.993-6.498 1.791-8.294 10.742-6.926 23.2-10.587 36.028-10.587 36.71 0 66.576 29.866 66.576 66.576 0 2.202-.113 4.495-.337 6.814-.3 3.103-2.912 5.424-5.966 5.424z" fill="rgb(0,0,0)"/></g><g><path d="m156.055 521.238c-.435 0-.876-.047-1.319-.146l-61.576-13.817c-2.74-.615-4.687-3.047-4.687-5.854v-97.759c0-2.808 1.947-5.24 4.687-5.854l61.576-13.816c3.228-.729 6.442 1.308 7.168 4.541s-1.308 6.442-4.541 7.168l-56.889 12.765v88.153l56.889 12.765c3.233.726 5.267 3.935 4.541 7.168-.627 2.79-3.104 4.686-5.849 4.686z" fill="rgb(0,0,0)"/></g><g><path d="m300.746 495.729c-9.374 0-17-7.626-17-17s7.626-17 17-17 17 7.626 17 17-7.626 17-17 17zm0-22c-2.757 0-5 2.243-5 5s2.243 5 5 5 5-2.243 5-5-2.243-5-5-5z" fill="rgb(0,0,0)"/></g><g><path d="m353.254 461.848c-9.374 0-17-7.626-17-17s7.626-17 17-17 17 7.626 17 17-7.626 17-17 17zm0-22c-2.757 0-5 2.243-5 5s2.243 5 5 5 5-2.243 5-5-2.243-5-5-5z" fill="rgb(0,0,0)"/></g><g><path d="m336.423 406.846c-9.374 0-17-7.626-17-17s7.626-17 17-17 17 7.626 17 17-7.626 17-17 17zm0-22c-2.757 0-5 2.243-5 5s2.243 5 5 5 5-2.243 5-5-2.243-5-5-5z" fill="rgb(0,0,0)"/></g><g><path d="m364.254 361.143c-9.374 0-17-7.626-17-17s7.626-17 17-17 17 7.626 17 17-7.626 17-17 17zm0-22c-2.757 0-5 2.243-5 5s2.243 5 5 5 5-2.243 5-5-2.243-5-5-5z" fill="rgb(0,0,0)"/></g></g></g><g id="Layer_1"/></svg>