<svg id="Layer_1" enable-background="new 0 0 512 512" viewBox="0 0 512 512" xmlns="http://www.w3.org/2000/svg"><path d="m141.024 277.776c-7.192 0-13.043 5.85-13.043 13.043 0 3.868-3.136 7.004-7.003 7.004-3.868 0-7.003-3.136-7.003-7.004 0-14.915 12.135-27.05 27.05-27.05 14.9 0 27.021 12.135 27.021 27.05 0 3.868-3.136 7.004-7.003 7.004-3.868 0-7.003-3.136-7.003-7.004-.002-7.193-5.84-13.043-13.016-13.043zm114.381-14.008c-14.915 0-27.05 12.135-27.05 27.05 0 3.868 3.136 7.004 7.003 7.004 3.868 0 7.003-3.136 7.003-7.004 0-7.192 5.851-13.043 13.043-13.043 7.176 0 13.014 5.85 13.014 13.043 0 3.868 3.136 7.004 7.003 7.004 3.868 0 7.003-3.136 7.003-7.004.002-14.915-12.119-27.05-27.019-27.05zm256.662-127.792c0 74.702-60.774 135.476-135.476 135.476-4.808 0-9.59-.259-14.329-.762-1.096 17.144-12.436 31.666-27.893 36.152-6.186 32.737-22.383 62.57-45.933 84.434-6.932 6.435-14.394 12.068-22.258 16.858l5.709 18.37c34.543 14.153 62.294 26.999 87.119 40.318l4.291 2.361c.03.017.06.033.09.051 13.623 7.763 24.754 18.756 32.189 31.792 1.236 2.168 1.226 4.829-.028 6.987-1.253 2.158-3.561 3.486-6.056 3.486h-382.555c-2.493 0-4.799-1.326-6.053-3.48s-1.268-4.815-.037-6.982c7.404-13.034 18.541-24.023 32.206-31.779 1.104-.645 2.32-1.312 3.561-1.992l.75-.41c24.98-13.404 52.732-26.25 87.175-40.351l5.691-18.375c-7.861-4.788-15.32-10.419-22.248-16.853-23.543-21.861-39.735-51.693-45.921-84.433-16.289-4.722-28.017-20.562-28.017-38.879 0-11.087 4.4-21.818 12.071-29.443 5.816-5.78 13.156-9.411 21.071-10.502 4.055-12.52 9.566-24.572 16.3-35.787-1.744-7.143-5.976-13.33-12.072-17.566-6.635-4.61-14.671-6.358-22.629-4.92-3.801.692-7.449-1.84-8.137-5.646-.688-3.807 1.841-7.449 5.647-8.137 11.643-2.105 23.402.454 33.112 7.201 5.696 3.957 10.273 9.083 13.512 14.988 6.583-8.847 13.973-16.977 22.036-24.159.267-.238.538-.468.807-.704-4.602-14.112-19.07-23.064-34.094-20.372-3.808.688-7.447-1.85-8.13-5.658-.683-3.807 1.85-7.446 5.657-8.129 20.231-3.633 39.788 7.182 48.02 25.036 9.14-6.56 18.729-11.804 28.629-15.683-3.486-13.688-16.27-23.403-30.753-22.713-3.878.199-7.149-2.789-7.338-6.652s2.789-7.148 6.652-7.338c20.866-1.008 39.347 12.787 44.774 32.357 9.496-2.484 19.211-3.756 29.035-3.756.363 0 .725.013 1.087.016.012-5.94-1.732-11.751-5.109-16.8-4.487-6.71-11.316-11.269-19.23-12.837-3.794-.752-6.26-4.438-5.507-8.232.752-3.795 4.434-6.256 8.232-5.508 11.585 2.298 21.582 8.97 28.149 18.791 5.131 7.672 7.675 16.547 7.451 25.588 9.492 1.272 18.855 3.742 28.017 7.406 3.742-71.382 62.991-128.306 135.286-128.306 74.702 0 135.477 60.774 135.477 135.476zm-429.94 91.697h14.721c9.584 0 17.381-7.797 17.381-17.381v-35.657c-14.223 15.538-25.234 34.117-32.102 53.038zm171.486 187.229c-17.35 8.192-36.199 12.527-55.398 12.527-19.208 0-38.064-4.337-55.418-12.531l-5.858 18.912c-.621 2.004-2.107 3.625-4.05 4.415-35.4 14.403-63.631 27.412-88.842 40.94l-.705.386c-1.127.617-2.233 1.222-3.302 1.846-7.608 4.318-14.248 9.773-19.654 16.094h355.684c-5.372-6.317-11.92-11.695-19.573-16.062l-4.174-2.298c-25.049-13.439-53.28-26.449-88.785-40.908-1.94-.79-3.425-2.407-4.047-4.407zm94.715-146.431c-21.524-4.586-41.717-14.367-58.765-28.674l-45.209 8.429c-2.458.461-4.977-.431-6.604-2.331-1.627-1.901-2.116-4.526-1.283-6.886l16.655-47.176c-6.861-15.122-10.8-31.144-11.765-47.759-13.956-6.423-28.449-9.685-43.142-9.685-26.222 0-49.855 10.326-69.294 26.289-.211.24-.441.465-.685.675v48.939c0 17.307-14.081 31.388-31.388 31.388h-24.385c-.066-.001-.133-.001-.198-.001-7.811 0-13.159 3.68-16.276 6.778-5.045 5.013-7.938 12.123-7.938 19.507 0 13.228 9.052 24.446 21.056 26.094 3.06.42 5.483 2.795 5.965 5.845 6.911 43.732 32.123 79.484 66.159 98.541.503.208.969.469 1.397.775 16.81 9.122 35.71 14.201 55.587 14.201 19.84 0 38.706-5.061 55.492-14.15.468-.343.984-.632 1.544-.855 34.009-19.064 59.199-54.803 66.106-98.511.483-3.051 2.906-5.425 5.965-5.845 11.833-1.624 20.778-12.58 21.006-25.588zm149.732-132.495c0-66.978-54.491-121.469-121.47-121.469-66.978 0-121.469 54.49-121.469 121.469 0 18.39 3.994 36.04 11.872 52.461.805 1.677.909 3.606.29 5.361l-13.569 38.434 36.588-6.821c.427-.08.857-.119 1.284-.119 1.694 0 3.347.615 4.638 1.755 22.184 19.603 50.726 30.398 80.368 30.398 66.977 0 121.468-54.49 121.468-121.469zm-253.128 209.194c-3.668-1.236-7.638.742-8.869 4.408-5.467 16.275-20.677 27.21-37.849 27.21-17.189 0-32.411-10.935-37.877-27.21-1.232-3.666-5.206-5.639-8.869-4.409-3.667 1.232-5.641 5.203-4.409 8.87 7.384 21.986 27.942 36.757 51.155 36.757 23.196 0 43.742-14.772 51.127-36.757 1.232-3.667-.742-7.638-4.409-8.869zm-77.028-171.255h1.758c3.868 0 7.003-3.136 7.003-7.004s-3.136-7.004-7.003-7.004h-1.758c-3.868 0-7.003 3.136-7.003 7.004-.001 3.868 3.135 7.004 7.003 7.004zm27.844 0h1.758c3.868 0 7.003-3.136 7.003-7.004s-3.136-7.004-7.003-7.004h-1.758c-3.868 0-7.003 3.136-7.003 7.004-.001 3.868 3.135 7.004 7.003 7.004zm27.844 0h1.786c3.868 0 7.003-3.136 7.003-7.004s-3.136-7.004-7.003-7.004h-1.786c-3.868 0-7.003 3.136-7.003 7.004-.001 3.868 3.135 7.004 7.003 7.004zm-68.504 30.736h1.758c3.868 0 7.003-3.136 7.003-7.004s-3.136-7.004-7.003-7.004h-1.758c-3.868 0-7.003 3.136-7.003 7.004s3.135 7.004 7.003 7.004zm27.843 0h1.758c3.868 0 7.003-3.136 7.003-7.004s-3.136-7.004-7.003-7.004h-1.758c-3.868 0-7.003 3.136-7.003 7.004s3.135 7.004 7.003 7.004zm27.844 0h1.758c3.868 0 7.003-3.136 7.003-7.004s-3.136-7.004-7.003-7.004h-1.758c-3.868 0-7.003 3.136-7.003 7.004s3.135 7.004 7.003 7.004zm-69.156 28.496h1.758c3.868 0 7.003-3.136 7.003-7.004s-3.136-7.004-7.003-7.004h-1.758c-3.868 0-7.003 3.136-7.003 7.004s3.135 7.004 7.003 7.004zm29.602-14.008h-1.758c-3.868 0-7.003 3.136-7.003 7.004s3.136 7.004 7.003 7.004h1.758c3.868 0 7.003-3.136 7.003-7.004 0-3.869-3.135-7.004-7.003-7.004zm27.872 0h-1.758c-3.868 0-7.003 3.136-7.003 7.004s3.136 7.004 7.003 7.004h1.758c3.868 0 7.003-3.136 7.003-7.004.001-3.869-3.135-7.004-7.003-7.004zm26.965 0h-1.758c-3.868 0-7.003 3.136-7.003 7.004s3.136 7.004 7.003 7.004h1.758c3.868 0 7.003-3.136 7.003-7.004 0-3.869-3.135-7.004-7.003-7.004zm258.505-83.163c0 59.536-48.437 107.973-107.973 107.973s-107.972-48.437-107.972-107.973 48.436-107.972 107.972-107.972 107.973 48.437 107.973 107.972zm-201.938 0c0 1.597.041 3.185.12 4.763h47.969c1.936 0 3.785.802 5.109 2.213 1.324 1.413 2.004 3.31 1.88 5.241-.127 1.978-.185 3.5-.185 4.937 0 22.962 12.081 46.132 39.072 46.132s39.072-23.169 39.072-46.132c0-1.779-.058-3.357-.176-4.825-.157-1.949.508-3.875 1.833-5.312 1.326-1.437 3.192-2.255 5.147-2.255h47.969c.079-1.578.12-3.166.12-4.763 0-51.813-42.153-93.965-93.966-93.965-51.811.001-93.964 42.153-93.964 93.966zm186.047 18.771h-39.017c-.653 34.545-22.288 58.523-53.064 58.523s-52.411-23.978-53.064-58.523h-39.017c8.722 42.85 46.694 75.194 92.081 75.194 45.386.001 83.359-32.344 92.081-75.194zm-123.696-8.932c0-12.538 4.058-23.785 7.639-33.708.737-2.043 1.466-4.063 2.15-6.067l15.23-42.651c.995-2.788 3.636-4.649 6.596-4.649s5.6 1.861 6.596 4.649l15.198 42.559c.699 2.032 1.412 4 2.132 5.988 3.604 9.95 7.689 21.228 7.689 33.879 0 28.516-16.331 38.676-31.615 38.676s-31.615-10.16-31.615-38.676zm14.007 0c0 9.212 2.288 24.668 17.608 24.668s17.608-15.455 17.608-24.668c0-10.192-3.483-19.809-6.851-29.11-.746-2.06-1.485-4.1-2.181-6.126l-8.575-24.011-8.602 24.09c-.678 1.988-1.434 4.084-2.198 6.203-3.348 9.275-6.809 18.865-6.809 28.954zm-354.428 251.729c0-3.079 2.011-5.797 4.956-6.697 12.545-3.835 20.859-12.197 25.418-25.563.967-2.836 3.632-4.743 6.628-4.743s5.661 1.907 6.628 4.743c4.56 13.368 12.882 21.729 25.443 25.561 2.947.9 4.959 3.618 4.959 6.699s-2.013 5.799-4.959 6.699c-12.563 3.832-20.885 12.202-25.441 25.585-.966 2.838-3.632 4.746-6.63 4.746s-5.664-1.909-6.63-4.746c-4.556-13.382-12.87-21.751-25.417-25.587-2.944-.899-4.955-3.618-4.955-6.697zm23.321.001c5.426 3.649 9.992 8.306 13.682 13.95 3.691-5.644 8.261-10.301 13.691-13.95-5.429-3.647-10-8.302-13.691-13.94-3.689 5.638-8.257 10.293-13.682 13.94zm-23.321-302.347c.002-3.082 2.019-5.799 4.968-6.695 12.528-3.806 20.838-12.166 25.406-25.559.968-2.837 3.632-4.743 6.629-4.743s5.661 1.907 6.629 4.743c4.568 13.394 12.886 21.754 25.43 25.558 2.95.895 4.969 3.613 4.971 6.696.003 3.083-2.011 5.805-4.959 6.705-12.554 3.83-20.876 12.2-25.442 25.588-.968 2.837-3.632 4.743-6.629 4.743s-5.661-1.907-6.629-4.743c-4.565-13.386-12.879-21.757-25.418-25.59-2.947-.901-4.959-3.622-4.956-6.703zm23.331.015c5.419 3.649 9.984 8.307 13.672 13.949 3.69-5.644 8.256-10.299 13.68-13.949-5.423-3.643-9.99-8.297-13.68-13.94-3.688 5.643-8.253 10.297-13.672 13.94zm379.355 255.178c0 3.079-2.011 5.797-4.955 6.697-12.567 3.843-20.89 12.205-25.446 25.563-.968 2.837-3.632 4.743-6.629 4.743-.002 0-.003 0-.005 0-2.999-.003-5.663-1.914-6.627-4.753-4.529-13.35-12.842-21.708-25.414-25.553-2.945-.901-4.955-3.618-4.955-6.697s2.011-5.797 4.956-6.697c12.571-3.844 20.884-12.202 25.414-25.552.964-2.84 3.628-4.75 6.627-4.753h.005c2.996 0 5.661 1.907 6.629 4.743 4.556 13.358 12.879 21.72 25.446 25.562 2.943.899 4.954 3.618 4.954 6.697zm-23.332 0c-5.428-3.646-9.997-8.296-13.688-13.929-3.684 5.632-8.251 10.282-13.679 13.929 5.428 3.647 9.994 8.297 13.679 13.93 3.69-5.633 8.26-10.284 13.688-13.93z"/></svg>