<?xml version="1.0"?>
<svg xmlns="http://www.w3.org/2000/svg" viewBox="0 0 128 128"><g data-name="Layer 31" id="Layer_31"><path d="M98,58.5H96.5V44a29.307,29.307,0,0,0-3.521-13.962c4.7-5.583,4.8-13.378.082-18.1-5-5-13.574-4.547-19.122,1a15.869,15.869,0,0,0-1.692,2.038A29.467,29.467,0,0,0,67,14.5H61A29.533,29.533,0,0,0,31.5,44V58.5H30A5.507,5.507,0,0,0,24.5,64a11.5,11.5,0,0,0,8.05,10.963,41.345,41.345,0,0,0,6.161,14.075l.309.453A27.478,27.478,0,0,0,61.741,101.5h4.518A27.48,27.48,0,0,0,88.981,89.49l.307-.451A41.371,41.371,0,0,0,95.45,74.963,11.5,11.5,0,0,0,103.5,64,5.507,5.507,0,0,0,98,58.5ZM76.061,15.061c4.377-4.378,11.051-4.827,14.878-1,3.394,3.393,3.453,8.945.369,13.249A29.612,29.612,0,0,0,75.451,15.74C75.651,15.51,75.845,15.277,76.061,15.061ZM34.5,44A26.53,26.53,0,0,1,61,17.5h6A26.53,26.53,0,0,1,93.5,44V56A2.5,2.5,0,0,1,91,58.5h-.477a28.352,28.352,0,0,1-16.432-5.214L67.169,48.4a5.508,5.508,0,0,0-6.341,0l-6.914,4.881A28.35,28.35,0,0,1,37.479,58.5H37A2.5,2.5,0,0,1,34.5,56V44Zm-7,20A2.5,2.5,0,0,1,30,61.5h1.5v4.161a41.767,41.767,0,0,0,.408,5.791A8.507,8.507,0,0,1,27.5,64ZM86.809,87.351,86.5,87.8A24.485,24.485,0,0,1,66.259,98.5H61.741A24.483,24.483,0,0,1,41.5,87.8l-.309-.453A38.344,38.344,0,0,1,34.5,65.661V60.893A5.463,5.463,0,0,0,37,61.5h.479a31.337,31.337,0,0,0,18.166-5.766l6.913-4.88a2.5,2.5,0,0,1,2.88,0l6.923,4.885A31.34,31.34,0,0,0,90.523,61.5H91a5.463,5.463,0,0,0,2.5-.607v4.768A38.343,38.343,0,0,1,86.809,87.351Zm9.283-15.9a41.767,41.767,0,0,0,.408-5.791V61.5H98a2.5,2.5,0,0,1,2.5,2.5A8.51,8.51,0,0,1,96.092,71.452Z"/><path d="M93.582,111.557A32.784,32.784,0,0,0,83.8,99.271a1.5,1.5,0,1,0-1.828,2.379,29.776,29.776,0,0,1,8.883,11.157l1.369,2.985a.5.5,0,0,1-.455.708H36a.5.5,0,0,1-.454-.708l1.368-2.985A29.779,29.779,0,0,1,45.8,101.65a1.5,1.5,0,0,0-1.828-2.379,32.786,32.786,0,0,0-9.783,12.286l-1.368,2.985A3.5,3.5,0,0,0,36,119.5H91.769a3.5,3.5,0,0,0,3.181-4.958Z"/><path d="M68.229,89.329a8.205,8.205,0,0,1-8.458,0A1.5,1.5,0,1,0,58.229,91.9a11.19,11.19,0,0,0,11.542,0,1.5,1.5,0,0,0-1.542-2.572Z"/><path d="M25,49.5a1.5,1.5,0,0,0,0-3H21.5V43a1.5,1.5,0,0,0-3,0v3.5H15a1.5,1.5,0,0,0,0,3h3.5V53a1.5,1.5,0,0,0,3,0V49.5Z"/><path d="M113,38.5h-3.5V35a1.5,1.5,0,0,0-3,0v3.5H103a1.5,1.5,0,0,0,0,3h3.5V45a1.5,1.5,0,0,0,3,0V41.5H113a1.5,1.5,0,0,0,0-3Z"/><path d="M62.5,74.269a3.5,3.5,0,0,0-4.891-3.2,15.862,15.862,0,0,1-13.219,0,3.5,3.5,0,0,0-4.89,3.2,8.832,8.832,0,0,0,6.329,8.494,18.557,18.557,0,0,0,10.342,0A8.832,8.832,0,0,0,62.5,74.269Zm-7.153,5.609a15.6,15.6,0,0,1-8.694,0A5.82,5.82,0,0,1,42.5,74.269a.478.478,0,0,1,.22-.41.5.5,0,0,1,.274-.084.506.506,0,0,1,.2.044,18.957,18.957,0,0,0,15.6,0,.5.5,0,0,1,.48.04.478.478,0,0,1,.22.41A5.82,5.82,0,0,1,55.347,79.878Z"/><path d="M51,71.5a15.46,15.46,0,0,0,8.963-3.35,1.5,1.5,0,0,0,0-2.3A15.46,15.46,0,0,0,51,62.5a15.46,15.46,0,0,0-8.963,3.35,1.5,1.5,0,0,0,0,2.3A15.46,15.46,0,0,0,51,71.5Zm1.5-3.132V65.632A12.268,12.268,0,0,1,56.276,67,12.268,12.268,0,0,1,52.5,68.368Zm-3-2.736v2.737A12.275,12.275,0,0,1,45.724,67,12.268,12.268,0,0,1,49.5,65.632Z"/><path d="M86.929,71.353a3.507,3.507,0,0,0-3.32-.288,15.862,15.862,0,0,1-13.219,0,3.5,3.5,0,0,0-4.89,3.2,8.832,8.832,0,0,0,6.329,8.494,18.557,18.557,0,0,0,10.342,0A8.832,8.832,0,0,0,88.5,74.269,3.481,3.481,0,0,0,86.929,71.353Zm-5.582,8.525a15.6,15.6,0,0,1-8.694,0A5.82,5.82,0,0,1,68.5,74.269a.478.478,0,0,1,.22-.41.5.5,0,0,1,.274-.084.506.506,0,0,1,.2.044,18.957,18.957,0,0,0,15.6,0,.5.5,0,0,1,.48.04.478.478,0,0,1,.22.41A5.82,5.82,0,0,1,81.347,79.878Z"/><path d="M77,71.5a15.46,15.46,0,0,0,8.963-3.35,1.5,1.5,0,0,0,0-2.3A15.46,15.46,0,0,0,77,62.5a15.46,15.46,0,0,0-8.963,3.35,1.5,1.5,0,0,0,0,2.3A15.46,15.46,0,0,0,77,71.5Zm1.5-3.132V65.631A12.275,12.275,0,0,1,82.276,67,12.268,12.268,0,0,1,78.5,68.368Zm-3-2.736v2.736A12.268,12.268,0,0,1,71.724,67,12.268,12.268,0,0,1,75.5,65.632Z"/></g></svg>
