<svg id="Layer_1" enable-background="new 0 0 1024 1024" viewBox="0 0 1024 1024" xmlns="http://www.w3.org/2000/svg"><g fill="none" stroke="#000" stroke-miterlimit="10" stroke-width="15"><path d="m800.95 818.28-5.71-22.02c-5.4-20.85-21.68-37.13-42.53-42.53l-22.02-5.71c-.52-.14-.52-.88 0-1.02l22.02-5.71c20.85-5.4 37.13-21.68 42.53-42.53l5.71-22.02c.14-.52.88-.52 1.02 0l5.71 22.02c5.4 20.85 21.68 37.13 42.53 42.53l22.02 5.71c.52.14.52.88 0 1.02l-22.02 5.71c-20.85 5.4-37.13 21.68-42.53 42.53l-5.71 22.02c-.14.52-.89.52-1.02 0z"/><path d="m179.07 386.19-2.24-8.63c-2.12-8.17-8.5-14.55-16.66-16.66l-8.63-2.24c-.21-.05-.21-.35 0-.4l8.63-2.24c8.17-2.12 14.55-8.5 16.66-16.66l2.24-8.63c.05-.21.35-.21.4 0l2.24 8.63c2.12 8.17 8.5 14.55 16.66 16.66l8.63 2.24c.21.05.21.35 0 .4l-8.63 2.24c-8.17 2.12-14.55 8.5-16.66 16.66l-2.24 8.63c-.06.21-.35.21-.4 0z"/><circle cx="208.58" cy="776.82" r="29.31"/><circle cx="854.88" cy="333.59" r="12.65"/><g><path d="m625.17 673.52h-51.87c-29.03 0-19.11 20.19-19.11 45.09s-20.11 45.09-45.02 45.09c-24.9 0-45.01-20.19-45.01-45.09s9.92-45.09-19.11-45.09h-51.87"/><path d="m393.17 888.76v-504.47c0-9.55 7.74-17.29 17.29-17.29h197.43c9.55 0 17.29 7.74 17.29 17.29v504.47c0 17.81-14.44 32.24-32.24 32.24h-167.53c-17.81 0-32.24-14.44-32.24-32.24z"/><path d="m438.9 336.5h140.53v30.5h-140.53z"/><path d="m427.17 334.24v-87.24h164v87.24c0 1.25-1.01 2.26-2.26 2.26h-159.48c-1.25 0-2.26-1.01-2.26-2.26z"/><path d="m329.67 184.45v49.07c0 7.45 6.04 13.48 13.48 13.48h332.04c7.45 0 13.48-6.04 13.48-13.48v-49.07c0-.8-.65-1.45-1.45-1.45h-356.1c-.8 0-1.45.65-1.45 1.45z"/><path d="m667.17 103v80"/><path d="m632.06 103v80"/><path d="m596.95 103v80"/><path d="m561.84 103v80"/><path d="m526.72 103v80"/><path d="m491.61 103v80"/><path d="m456.5 103v80"/><path d="m421.39 103v80"/><path d="m351.17 103v80"/><path d="m386.28 103v80"/><path id="XMLID_54_" d="m524.6 717.55c-.56 8.65-7.02 15.69-15.69 15.69s-14.83-7.07-15.69-15.69c-.87-8.74 2.55-80.39 41.96-140.02-22.88 85.81-9.63 125.43-10.58 140.02z"/><circle id="XMLID_57_" cx="449.24" cy="613.84" r="12.65"/><circle id="XMLID_58_" cx="491.45" cy="527.78" r="3.48"/><circle id="XMLID_59_" cx="568.12" cy="629.75" r="5.97"/></g></g></svg>