<svg id="&#x421;&#x43B;&#x43E;&#x439;_1" enable-background="new 0 0 5000 5000" viewBox="0 0 5000 5000" xmlns="http://www.w3.org/2000/svg"><g id="DNA_structure"><g><g fill="#262626"><g><path d="m3485.843 2359.259c-7.319 0-14.606-2.987-19.885-8.859-9.869-10.977-8.971-27.876 2.007-37.745l61.279-55.094c32.781-33.036 63.09-68.778 90.088-106.241 109.506-151.787 167.383-331.265 167.383-519.042v-640.02c0-35.826-14.371-69.088-40.466-93.661-26.074-24.552-60.229-36.886-96.156-34.722-67.643 4.068-120.629 63.128-120.628 134.457v560.618c0 222.68-110.593 429.97-295.834 554.501-.518.348-1.048.678-1.588.988l-90.362 51.965c-12.801 7.358-29.136 2.949-36.494-9.846-7.358-12.796-2.95-29.135 9.846-36.494l89.544-51.495c169.975-114.64 271.434-305.084 271.434-509.621v-560.615c-.001-47.194 17.228-92.532 48.51-127.66 32.036-35.973 75.492-57.337 122.364-60.156 50.803-3.051 99.099 14.405 136.011 49.164 17.887 16.842 31.966 36.737 41.848 59.132 10.237 23.199 15.428 47.91 15.428 73.446v640.02c0 100.481-15.763 199.417-46.852 294.06-30.085 91.589-74.034 177.802-130.627 256.247-28.775 39.929-61.097 78.015-96.059 113.188-.353.354-.715.699-1.087 1.033l-61.843 55.601c-5.106 4.59-11.496 6.851-17.861 6.851z"/><path d="m2476.689 2800.707c-2.529 0-5.101-.361-7.649-1.121-14.146-4.219-22.193-19.106-17.975-33.252 30.055-100.779 76.596-195.207 138.331-280.66 21.619-30.007 45.433-59.168 70.758-86.647.333-.362.677-.714 1.029-1.057l87.092-84.609c10.587-10.284 27.507-10.042 37.795.546 10.285 10.587 10.041 27.509-.547 37.794l-86.558 84.091c-23.693 25.751-45.969 53.051-66.219 81.158-58.234 80.607-102.119 169.643-130.456 264.661-3.457 11.598-14.088 19.096-25.601 19.096z"/><path d="m2594.407 3885.816h-.42c-100.399 0-182.08-81.681-182.08-182.08v-502.279c0-14.761 11.966-26.728 26.728-26.728s26.728 11.967 26.728 26.728v502.279c0 70.924 57.701 128.625 128.625 128.625h.42c70.924 0 128.625-57.701 128.625-128.625v-594.622c0-54.6 6.614-108.908 19.659-161.416 12.671-50.998 31.452-100.514 55.822-147.169 47.696-91.312 117.095-171.629 200.722-232.301l94.543-72.488c11.715-8.982 28.493-6.767 37.474 4.948 8.981 11.714 6.766 28.492-4.948 37.474l-94.823 72.703c-.191.146-.384.29-.579.432-159.306 115.445-254.414 301.545-254.414 497.817v594.622c-.002 100.4-81.682 182.08-182.082 182.08z"/><g><path d="m3470.812 1785.885h-687.251c-14.762 0-26.728-11.966-26.728-26.728s11.966-26.728 26.728-26.728h687.251c14.762 0 26.728 11.966 26.728 26.728s-11.967 26.728-26.728 26.728z"/><path d="m3502.737 1463.357h-751.078c-14.762 0-26.728-11.966-26.728-26.728s11.966-26.728 26.728-26.728h751.078c14.762 0 26.728 11.966 26.728 26.728s-11.966 26.728-26.728 26.728z"/><path d="m3502.737 1140.829h-751.078c-14.762 0-26.728-11.966-26.728-26.728s11.966-26.728 26.728-26.728h751.078c14.762 0 26.728 11.966 26.728 26.728s-11.966 26.728-26.728 26.728z"/><path d="m3481.207 2963.565h-706.869c-14.762 0-26.728-11.966-26.728-26.728s11.966-26.728 26.728-26.728h706.869c14.762 0 26.728 11.966 26.728 26.728s-11.966 26.728-26.728 26.728z"/><path d="m3504.638 3286.094h-754.878c-14.761 0-26.728-11.967-26.728-26.728s11.967-26.728 26.728-26.728h754.878c14.761 0 26.728 11.967 26.728 26.728s-11.968 26.728-26.728 26.728z"/><path d="m3504.638 3608.622h-754.878c-14.761 0-26.728-11.967-26.728-26.728s11.967-26.728 26.728-26.728h754.878c14.761 0 26.728 11.967 26.728 26.728s-11.968 26.728-26.728 26.728z"/></g></g><path d="m3660.407 3885.816h-.417c-100.399 0-182.08-81.681-182.08-182.08v-594.621c0-261.897-166.134-495.41-413.403-581.067-.129-.044-.258-.09-.387-.137-.921-.335-1.802-.626-2.682-.919-1.316-.438-2.632-.881-4.011-1.382-.351-.127-.697-.261-1.04-.402-33.301-10.974-65.747-23.825-96.475-38.215-60.098-27.86-117.499-62.31-170.602-102.391-52.651-39.739-101.294-85.174-144.579-135.041-18.608-21.439-36.452-43.977-53.035-66.987-56.585-78.433-100.534-164.646-130.62-256.236-31.088-94.642-46.851-193.578-46.851-294.059v-640.019c0-100.399 81.681-182.08 182.08-182.08s182.08 81.681 182.08 182.08v566.691c0 262.542 166.697 496.215 414.805 581.463.893.307 1.762.658 2.604 1.05 30.192 9.858 60.873 21.786 91.248 35.477 150.458 67.631 281.167 174.403 377.974 308.761 56.577 78.312 100.53 164.477 130.619 256.076 31.088 94.643 46.851 193.632 46.851 294.219v667.74c.001 100.399-81.679 182.079-182.079 182.079zm-578.247-1408.225c64.641 22.411 125.327 54.616 180.379 95.725 54.475 40.679 102.311 89.225 142.18 144.289 40.374 55.764 71.729 117.063 93.196 182.193 22.196 67.346 33.45 137.77 33.45 209.316v594.621c0 70.924 57.701 128.625 128.625 128.625h.417c70.924 0 128.625-57.701 128.625-128.625v-667.74c0-187.991-57.873-367.465-167.364-519.018-91.345-126.777-214.636-227.495-356.564-291.293-29.628-13.354-59.495-24.906-88.794-34.345-1.234-.398-2.424-.879-3.563-1.437-63.755-22.255-123.649-54.051-178.066-94.537-54.653-40.66-102.652-89.229-142.664-144.358-40.511-55.815-71.974-117.192-93.518-182.425-22.272-67.444-33.566-137.975-33.566-209.632v-566.69c0-70.924-57.701-128.625-128.625-128.625s-128.625 57.701-128.625 128.625v640.02c0 187.777 57.877 367.255 167.375 519.031 15.652 21.719 32.487 42.983 50.045 63.21 81.884 94.336 184.71 171.796 297.361 224.006.032.015.065.03.098.045 29.357 13.749 60.426 26.014 92.343 36.453.794.26 1.57.555 2.329.884.373.125.742.248 1.111.371 1.254.419 2.507.84 3.815 1.311z"/></g><g><g><path d="m1538.402 2813.054c-105.085 0-207.04-20.587-303.034-61.189-92.707-39.211-175.959-95.34-247.446-166.827-71.487-71.486-127.616-154.739-166.827-247.446-40.602-95.994-61.189-197.949-61.189-303.034 0-105.084 20.587-207.04 61.189-303.034 39.211-92.706 95.34-175.959 166.827-247.446s154.74-127.616 247.446-166.827c95.994-40.602 197.949-61.189 303.034-61.189 105.084 0 207.04 20.587 303.034 61.189 92.706 39.211 175.959 95.34 247.446 166.827s127.616 154.74 166.827 247.446c40.602 95.994 61.189 197.95 61.189 303.034 0 105.085-20.587 207.04-61.189 303.034-39.211 92.707-95.34 175.959-166.827 247.446s-154.74 127.616-247.446 166.827c-95.994 40.602-197.949 61.189-303.034 61.189zm0-1503.538c-399.789 0-725.042 325.252-725.042 725.042s325.252 725.042 725.042 725.042 725.042-325.252 725.042-725.042-325.253-725.042-725.042-725.042z" fill="#262626"/><g><path d="m1675.13 2503.538h-275.814c-14.761 0-26.728-11.967-26.728-26.728s11.966-26.728 26.728-26.728h275.814c14.761 0 26.728 11.966 26.728 26.728s-11.966 26.728-26.728 26.728z" fill="#262626"/><path d="m1225.001 2402.925c-9.237 0-18.221-4.793-23.172-13.368l-139.165-241.04c-7.38-12.784-3-29.13 9.783-36.511 12.782-7.379 29.13-3 36.51 9.783l139.165 241.04c7.38 12.784 3 29.13-9.783 36.511-4.207 2.43-8.803 3.585-13.338 3.585z" fill="#262626"/><path d="m1085.768 1960.727c-4.535 0-9.129-1.155-13.339-3.585-12.784-7.38-17.164-23.727-9.783-36.51l139.456-241.544c7.382-12.783 23.727-17.164 36.511-9.783 12.784 7.38 17.164 23.727 9.783 36.51l-139.456 241.544c-4.951 8.574-13.936 13.368-23.172 13.368z" fill="#262626"/><path d="m1674.209 1619.032h-273.969c-14.761 0-26.728-11.966-26.728-26.728s11.966-26.728 26.728-26.728h273.969c14.761 0 26.728 11.966 26.728 26.728s-11.966 26.728-26.728 26.728z" fill="#262626"/><path d="m1991.018 1960.693c-9.237 0-18.221-4.793-23.172-13.368l-139.795-242.132c-7.38-12.784-3-29.13 9.783-36.511 12.782-7.379 29.129-3.001 36.511 9.783l139.795 242.132c7.38 12.784 3 29.13-9.783 36.511-4.209 2.43-8.805 3.585-13.339 3.585z" fill="#262626"/><path d="m1850.893 2404.501c-4.535 0-9.129-1.155-13.339-3.585-12.784-7.381-17.164-23.727-9.783-36.511l140.055-242.581c7.381-12.783 23.728-17.163 36.511-9.783 12.784 7.381 17.164 23.727 9.783 36.511l-140.055 242.581c-4.951 8.574-13.935 13.368-23.172 13.368z" fill="#262626"/><g><path d="m1538.402 2208.99c-96.182 0-174.432-78.25-174.432-174.433 0-96.182 78.25-174.432 174.432-174.432s174.432 78.25 174.432 174.432c0 96.183-78.25 174.433-174.432 174.433zm0-295.41c-66.707 0-120.977 54.27-120.977 120.977s54.27 120.978 120.977 120.978 120.977-54.271 120.977-120.978-54.27-120.977-120.977-120.977z" fill="#262626"/></g><g fill="#262626"><g><path d="m1791.363 1735.274c-78.834 0-142.97-64.136-142.97-142.969s64.136-142.969 142.97-142.969c78.833 0 142.969 64.136 142.969 142.969s-64.136 142.969-142.969 142.969zm0-232.483c-49.358 0-89.515 40.156-89.515 89.514s40.156 89.514 89.515 89.514 89.514-40.156 89.514-89.514-40.156-89.514-89.514-89.514z"/><path d="m1283.989 1735.274c-78.834 0-142.97-64.136-142.97-142.969s64.136-142.969 142.97-142.969c78.833 0 142.969 64.136 142.969 142.969s-64.136 142.969-142.969 142.969zm0-232.483c-49.358 0-89.515 40.156-89.515 89.514s40.156 89.514 89.515 89.514 89.514-40.156 89.514-89.514-40.156-89.514-89.514-89.514z"/></g><g><path d="m1790.442 2619.779c-78.834 0-142.97-64.136-142.97-142.969 0-78.834 64.136-142.97 142.97-142.97 78.833 0 142.969 64.136 142.969 142.97s-64.136 142.969-142.969 142.969zm0-232.484c-49.358 0-89.515 40.156-89.515 89.515 0 49.358 40.156 89.514 89.515 89.514s89.514-40.156 89.514-89.514-40.156-89.515-89.514-89.515z"/><path d="m1283.068 2619.779c-78.834 0-142.97-64.136-142.97-142.969 0-78.834 64.136-142.97 142.97-142.97 78.833 0 142.969 64.136 142.969 142.97s-64.136 142.969-142.969 142.969zm0-232.484c-49.358 0-89.515 40.156-89.515 89.515 0 49.358 40.156 89.514 89.515 89.514s89.514-40.156 89.514-89.514-40.156-89.515-89.514-89.515z"/><path d="m2049.072 2177.527c-78.834 0-142.97-64.136-142.97-142.97 0-78.833 64.136-142.969 142.97-142.969 78.833 0 142.969 64.136 142.969 142.969 0 78.834-64.136 142.97-142.969 142.97zm0-232.484c-49.358 0-89.515 40.156-89.515 89.514s40.156 89.515 89.515 89.515 89.514-40.156 89.514-89.515-40.156-89.514-89.514-89.514z"/><path d="m1027.733 2177.527c-78.833 0-142.969-64.136-142.969-142.97 0-78.833 64.136-142.969 142.969-142.969 78.834 0 142.97 64.136 142.97 142.969 0 78.834-64.136 142.97-142.97 142.97zm0-232.484c-49.358 0-89.514 40.156-89.514 89.514s40.156 89.515 89.514 89.515 89.515-40.156 89.515-89.515-40.157-89.514-89.515-89.514z"/></g><path d="m1390.699 2061.285h-246.724c-14.761 0-26.728-11.966-26.728-26.728s11.966-26.728 26.728-26.728h246.724c14.761 0 26.728 11.966 26.728 26.728s-11.967 26.728-26.728 26.728z"/><path d="m1932.83 2061.285h-246.725c-14.761 0-26.728-11.966-26.728-26.728s11.966-26.728 26.728-26.728h246.725c14.761 0 26.728 11.966 26.728 26.728s-11.967 26.728-26.728 26.728z"/><path d="m1733.758 2404.501c-9.271 0-18.282-4.829-23.219-13.451l-123.539-215.757c-7.335-12.81-2.896-29.141 9.914-36.475 12.811-7.335 29.14-2.896 36.475 9.914l123.539 215.757c7.335 12.81 2.896 29.141-9.914 36.475-4.188 2.397-8.753 3.537-13.256 3.537z"/><path d="m1464.168 1933.672c-9.271 0-18.282-4.829-23.219-13.451l-122.435-213.828c-7.335-12.81-2.896-29.141 9.914-36.475 12.811-7.335 29.14-2.896 36.475 9.914l122.435 213.828c7.335 12.81 2.896 29.141-9.914 36.475-4.187 2.397-8.753 3.537-13.256 3.537z"/><path d="m1611.076 1932.718c-4.518 0-9.094-1.146-13.292-3.558-12.799-7.355-17.211-23.692-9.857-36.491l122.384-212.966c7.355-12.799 23.693-17.211 36.491-9.857 12.799 7.355 17.211 23.692 9.857 36.491l-122.384 212.966c-4.943 8.601-13.944 13.415-23.199 13.415z"/><path d="m1340.925 2402.818c-4.518 0-9.094-1.146-13.292-3.558-12.799-7.355-17.211-23.692-9.857-36.491l123.02-214.072c7.355-12.798 23.693-17.21 36.491-9.857 12.799 7.355 17.211 23.692 9.857 36.491l-123.02 214.072c-4.942 8.6-13.943 13.415-23.199 13.415z"/></g></g></g><path d="m2537.147 3263.67c-7.757 0-15.573-1.452-23.058-4.423l-1286.384-510.705c-13.72-5.447-20.426-20.984-14.979-34.704 5.446-13.72 20.982-20.424 34.704-14.979l1286.384 510.705c4.342 1.726 7.554-.208 9.081-1.513 1.525-1.306 3.93-4.178 2.894-8.739l-307.16-1353.562c-3.267-14.396 5.755-28.713 20.15-31.98 14.398-3.267 28.713 5.755 31.98 20.15l307.16 1353.562c5.138 22.639-2.626 46.08-20.261 61.177-11.517 9.86-25.905 15.011-40.511 15.011z" fill="#262626"/></g></g><g><g><g><path d="m1851.197 3754.235c-60.724 0-117.813-23.647-160.752-66.586-42.939-42.938-66.586-100.028-66.586-160.752s23.647-117.813 66.586-160.752c42.938-42.938 100.028-66.586 160.752-66.586s117.813 23.647 160.752 66.586c42.939 42.938 66.586 100.028 66.586 160.752s-23.647 117.813-66.586 160.752c-42.938 42.939-100.028 66.586-160.752 66.586zm0-401.22c-95.879 0-173.883 78.004-173.883 173.883s78.003 173.883 173.883 173.883 173.883-78.004 173.883-173.883-78.003-173.883-173.883-173.883z" fill="#262626"/></g><g fill="#262626"><path d="m1851.197 3897.169c-14.761 0-26.728-11.966-26.728-26.728v-142.924c0-14.762 11.966-26.728 26.728-26.728s26.728 11.966 26.728 26.728v142.924c0 14.762-11.967 26.728-26.728 26.728z"/><path d="m1851.197 3353.013c-14.761 0-26.728-11.966-26.728-26.728v-142.931c0-14.762 11.966-26.728 26.728-26.728s26.728 11.966 26.728 26.728v142.931c0 14.762-11.967 26.728-26.728 26.728z"/><path d="m2194.741 3553.625h-142.926c-14.761 0-26.728-11.966-26.728-26.728s11.966-26.728 26.728-26.728h142.926c14.761 0 26.728 11.966 26.728 26.728s-11.967 26.728-26.728 26.728z"/><path d="m1650.592 3553.625h-142.938c-14.761 0-26.728-11.966-26.728-26.728s11.966-26.728 26.728-26.728h142.938c14.761 0 26.728 11.966 26.728 26.728s-11.966 26.728-26.728 26.728z"/><path d="m1711.056 3410.134c-6.841 0-13.68-2.608-18.899-7.828l-99.43-99.431c-10.438-10.438-10.438-27.361 0-37.799 10.438-10.437 27.361-10.438 37.799 0l99.43 99.431c10.438 10.438 10.438 27.361 0 37.799-5.219 5.217-12.06 7.828-18.9 7.828z"/><path d="m2095.818 3803.951c-6.84 0-13.68-2.609-18.899-7.828l-99.431-99.431c-10.438-10.438-10.438-27.361 0-37.799s27.36-10.438 37.799 0l99.431 99.431c10.438 10.438 10.438 27.361 0 37.799-5.22 5.219-12.06 7.828-18.9 7.828z"/><path d="m1994.735 3413.438c-6.84 0-13.68-2.609-18.899-7.828-10.438-10.438-10.438-27.361 0-37.799l102.734-102.734c10.438-10.438 27.36-10.438 37.799 0 10.438 10.438 10.438 27.361 0 37.799l-102.734 102.734c-5.219 5.218-12.059 7.828-18.9 7.828z"/><path d="m1611.626 3796.547c-6.841 0-13.68-2.608-18.899-7.828-10.438-10.438-10.438-27.361 0-37.799l99.449-99.448c10.438-10.436 27.361-10.438 37.799 0s10.438 27.361 0 37.799l-99.449 99.448c-5.219 5.218-12.061 7.828-18.9 7.828z"/></g></g><g><path d="m1267.337 3310.703c-99.83 0-181.047-81.218-181.047-181.047 0-99.83 81.217-181.048 181.047-181.048s181.047 81.218 181.047 181.048c0 99.829-81.217 181.047-181.047 181.047zm0-308.64c-70.354 0-127.592 57.238-127.592 127.593s57.238 127.592 127.592 127.592 127.592-57.237 127.592-127.592-57.238-127.593-127.592-127.593z" fill="#262626"/></g></g></g></svg>