<svg id="Layer_1" enable-background="new 0 0 500 500" viewBox="0 0 500 500" xmlns="http://www.w3.org/2000/svg"><g><path d="m208.089 426.719c-.517 0-1.033-.006-1.552-.017-45.065-1.024-73.873-33.4-75.077-34.777-3.076-3.519-2.715-8.861.801-11.94 3.513-3.062 8.848-2.71 11.923.788.248.281 25.292 28.169 62.735 29.011.388.011.782.017 1.173.017 31.891 0 61.231-29.106 61.529-29.403 3.293-3.309 8.649-3.331 11.959-.038 3.312 3.288 3.34 8.63.054 11.951-1.409 1.42-34.526 34.408-73.545 34.408z"/><path d="m137.826 394.816c-.919 0-1.853-.149-2.762-.462-1.165-.403-116.262-42.383-93.032-222.963.226-1.724.457-3.426.699-5.099 5.62-38.738 22.959-69.281 56.214-99.052 30.918-27.674 68.132-41.744 110.614-41.838 9.128-.859 116.716-8.233 155.244 103.744 1.17 3.392 2.294 6.35 3.365 9.175 3.128 8.238 6.085 16.021 8.349 29.684 3.982 24.033 5.347 47.014 4.056 68.305-.281 4.665-4.304 8.217-8.955 7.931-4.661-.282-8.213-4.29-7.93-8.955 1.214-20.023-.085-41.733-3.863-64.516-1.988-12-4.408-18.372-7.473-26.445-1.126-2.968-2.31-6.085-3.543-9.665-35.519-103.256-133.664-92.885-137.826-92.401-.331.038-.678.06-1.008.06-38.366 0-71.923 12.628-99.746 37.526-30.091 26.935-45.745 54.345-50.757 88.874-.231 1.592-.451 3.205-.663 4.841-13.275 103.21 19.8 156.624 47.827 182.65-3.315-7.374-5.909-15.156-7.773-23.323-13.774-60.319 19.007-122.65 77.942-148.197 39.261-17.023 55.983-31.733 56.148-31.881 2.96-2.643 7.385-2.885 10.604-.561 34.805 25.14 58.068 54.223 69.134 86.435 1.52 4.417-.832 9.23-5.251 10.75-4.417 1.492-9.23-.837-10.747-5.254-9.371-27.272-28.843-52.285-57.919-74.418-8.161 6.053-25.751 17.667-55.239 30.449-51.467 22.314-80.14 76.527-68.178 128.912 4.535 19.881 14.095 37.113 28.409 51.211 2.814 2.771 3.334 7.126 1.25 10.486-1.575 2.538-4.326 3.997-7.19 3.997z"/><path d="m275.629 394.816c-2.682 0-5.273-1.277-6.895-3.558-2.192-3.084-2.071-7.247.294-10.199.155-.192 15.302-19.275 25.349-47.686 1.553-4.406 6.386-6.714 10.794-5.154 4.406 1.558 6.714 6.388 5.155 10.794-3.068 8.679-6.546 16.532-9.985 23.367 7.9-5.932 16.646-13.73 25.024-23.753 2.996-3.59 8.329-4.07 11.915-1.063 3.585 2.996 4.061 8.327 1.066 11.912-27.69 33.12-58.586 44.387-59.887 44.85-.927.33-1.885.49-2.83.49z"/><path d="m238.615 167.558c-.526 0-1.057-.05-1.594-.149-4.585-.876-7.594-5.304-6.727-9.891.14-.733 13.366-73.895-33.147-117.308-3.415-3.189-3.6-8.542-.414-11.957 3.189-3.409 8.542-3.596 11.957-.413 53.433 49.867 38.869 129.495 38.222 132.86-.776 4.049-4.32 6.858-8.297 6.858z"/><path d="m107.975 178.021c-1.366 0-2.751-.331-4.034-1.03-4.106-2.23-5.621-7.368-3.387-11.471 27.172-49.945 80.386-66.196 82.637-66.863 4.478-1.311 9.192 1.234 10.514 5.711 1.327 4.478-1.226 9.181-5.7 10.508-.79.242-48.915 15.217-72.593 58.729-1.533 2.819-4.438 4.416-7.437 4.416z"/><path d="m323.564 189.636c-3.671 0-7.049-2.401-8.123-6.102-5.516-19.038-18.348-35.659-38.14-49.405-3.836-2.665-4.786-7.942-2.12-11.774 2.665-3.844 7.927-4.791 11.774-2.126 23.058 16.02 38.112 35.736 44.737 58.591 1.3 4.488-1.283 9.18-5.771 10.48-.786.232-1.579.336-2.357.336z"/><path d="m246.339 364.472c-16.557 0-30.027-13.47-30.027-30.031s13.47-30.031 30.027-30.031c16.56 0 30.031 13.47 30.031 30.031s-13.471 30.031-30.031 30.031zm0-43.144c-7.228 0-13.11 5.882-13.11 13.113s5.881 13.112 13.11 13.112c7.231 0 13.113-5.881 13.113-13.112s-5.882-13.113-13.113-13.113z"/><path d="m246.339 281.71c-16.557 0-30.027-13.47-30.027-30.031 0-16.56 13.47-30.031 30.027-30.031 16.56 0 30.031 13.47 30.031 30.031s-13.471 30.031-30.031 30.031zm0-43.143c-7.228 0-13.11 5.881-13.11 13.112s5.881 13.113 13.11 13.113c7.231 0 13.113-5.882 13.113-13.113 0-7.23-5.882-13.112-13.113-13.112z"/><path d="m309.567 295.907c-1.953 0-3.913-.672-5.507-2.043l-41.659-35.769c-3.544-3.04-3.952-8.382-.909-11.929 3.048-3.541 8.39-3.948 11.929-.903l41.659 35.769c3.543 3.04 3.951 8.382.908 11.929-1.673 1.944-4.042 2.946-6.421 2.946z"/><path d="m267.913 342.9c-2.379 0-4.747-1.003-6.421-2.946-3.043-3.547-2.635-8.889.909-11.929l41.645-35.758c3.536-3.046 8.881-2.638 11.929.903 3.043 3.547 2.635 8.889-.909 11.929l-41.645 35.758c-1.594 1.371-3.555 2.043-5.508 2.043z"/><path d="m423.843 330.278h-86.066c-20.522 0-37.22-16.698-37.22-37.217 0-20.52 16.697-37.218 37.22-37.218h86.066c20.522 0 37.22 16.698 37.22 37.218 0 20.519-16.697 37.217-37.22 37.217zm-86.066-57.518c-11.193 0-20.302 9.109-20.302 20.3 0 11.19 9.109 20.299 20.302 20.299h86.066c11.193 0 20.302-9.109 20.302-20.299 0-11.191-9.109-20.3-20.302-20.3z"/><path d="m153.277 475c-.826 0-1.669-.121-2.5-.374-4.464-1.383-6.964-6.119-5.585-10.579l17.538-56.757c1.38-4.466 6.11-6.939 10.579-5.59 4.464 1.383 6.964 6.119 5.585 10.579l-17.538 56.757c-1.121 3.635-4.466 5.964-8.079 5.964z"/><path d="m260.179 475c-3.613 0-6.956-2.329-8.079-5.959l-17.54-56.757c-1.38-4.466 1.12-9.202 5.584-10.585 4.478-1.349 9.2 1.124 10.58 5.585l17.54 56.757c1.379 4.466-1.12 9.202-5.584 10.585-.833.253-1.675.374-2.501.374z"/><path d="m357.975 475h-266.409c-4.672 0-8.459-3.789-8.459-8.459s3.787-8.459 8.459-8.459h266.409c4.672 0 8.459 3.789 8.459 8.459s-3.787 8.459-8.459 8.459z"/><path d="m400.206 301.52h-49.432c-4.673 0-8.459-3.789-8.459-8.459 0-4.671 3.786-8.46 8.459-8.46h49.432c4.673 0 8.459 3.789 8.459 8.46 0 4.669-3.786 8.459-8.459 8.459z"/></g></svg>