<svg id="Layer_1" enable-background="new 0 0 512 512" viewBox="0 0 512 512" xmlns="http://www.w3.org/2000/svg"><path d="m470.357 173.643h-97.407c-9.646 0-18.625 4.278-24.637 11.739-6.012 7.46-8.283 17.145-6.232 26.569.474 2.176.704 4.639.704 7.53 0 31.283-25.45 56.733-56.733 56.733-16.842 0-32.016-6.908-42.727-19.452-10.945-12.818-15.932-30.231-13.338-46.579 1.457-9.185-1.146-18.478-7.139-25.497s-14.763-11.044-24.06-11.044h-97.043c-18.551 0-33.643 15.092-33.643 33.643v99.489c-35.091 13.323-60.102 47.293-60.102 87 0 51.293 41.729 93.022 93.022 93.022 49.892 0 90.73-39.484 92.923-88.846h286.668c12.895 0 23.386-10.491 23.386-23.386v-167.278c.001-18.551-15.091-33.643-33.642-33.643zm-369.335 297.153c-42.47 0-77.022-34.551-77.022-77.022 0-42.47 34.552-77.021 77.022-77.021s77.021 34.552 77.021 77.021c.001 42.471-34.551 77.022-77.021 77.022zm386.978-96.231c0 4.072-3.313 7.386-7.386 7.386h-287.318c-5.826-45.73-44.986-81.198-92.273-81.198-5.777 0-11.431.534-16.919 1.546v-95.013c0-9.729 7.914-17.643 17.643-17.643h97.043c4.677 0 8.899 1.93 11.892 5.434 2.993 3.505 4.237 7.979 3.504 12.601-3.316 20.91 3.028 43.145 16.974 59.476 13.8 16.162 33.295 25.062 54.894 25.062 40.105 0 72.733-32.628 72.733-72.733 0-4.049-.35-7.625-1.069-10.933-1.017-4.671.098-9.456 3.057-13.128s7.397-5.778 12.178-5.778h97.407c9.729 0 17.643 7.914 17.643 17.643v167.278zm-201.948-113.121c23.138 0 41.962-18.824 41.962-41.962 0-7.178-1.847-14.266-5.342-20.498 0 0 0-.001-.001-.001-2.037-3.633-2.213-7.404-.521-11.208 17.471-39.258 58.276-87.271 91.064-125.851 7.183-8.452 13.968-16.436 19.901-23.629 2.372-2.875 2.444-7.007.175-9.963-2.27-2.955-6.28-3.954-9.67-2.404-21.265 9.714-47.854 27.922-74.87 51.269-34.774 30.05-77.456 75.644-93.86 114.184-11.045 12.197-13.894 29.1-7.393 44.499 6.658 15.768 21.432 25.564 38.555 25.564zm-18.606-60.065c.713-.732 1.278-1.594 1.667-2.538 12.458-30.307 46.981-72.279 90.099-109.539 10.263-8.868 20.419-16.943 30.184-24.029-30.952 36.643-65.539 79.317-81.863 115.997-3.748 8.427-3.327 17.497 1.186 25.541 2.156 3.847 3.296 8.228 3.296 12.671 0 14.315-11.646 25.962-25.962 25.962-10.737 0-19.64-5.901-23.813-15.788-3.265-7.73-3.61-19.218 5.206-28.277zm-1.878 7.144c1.145-4.268 5.533-6.799 9.798-5.657 4.268 1.144 6.801 5.53 5.657 9.798-1.558 5.812 1.904 11.806 7.715 13.362 4.268 1.144 6.801 5.53 5.657 9.798-.958 3.574-4.19 5.932-7.723 5.932-.686 0-1.382-.089-2.075-.274-14.332-3.842-22.868-18.627-19.029-32.959zm156.995 18.291c0-15.146-12.322-27.468-27.468-27.468s-27.468 12.322-27.468 27.468 12.322 27.467 27.468 27.467 27.468-12.322 27.468-27.467zm-27.467 11.467c-6.323 0-11.468-5.144-11.468-11.467s5.145-11.468 11.468-11.468 11.468 5.145 11.468 11.468-5.145 11.467-11.468 11.467zm-28.283 25.807c-15.146 0-27.468 12.322-27.468 27.468s12.322 27.468 27.468 27.468 27.468-12.322 27.468-27.468-12.322-27.468-27.468-27.468zm0 38.936c-6.323 0-11.468-5.145-11.468-11.468s5.145-11.468 11.468-11.468 11.468 5.145 11.468 11.468-5.144 11.468-11.468 11.468zm62.358 1.273c-15.146 0-27.467 12.322-27.467 27.468s12.321 27.468 27.467 27.468 27.468-12.322 27.468-27.468-12.323-27.468-27.468-27.468zm0 38.936c-6.323 0-11.467-5.145-11.467-11.468s5.144-11.468 11.467-11.468 11.468 5.145 11.468 11.468-5.145 11.468-11.468 11.468zm-95.156-23.784c-15.146 0-27.468 12.322-27.468 27.468s12.322 27.468 27.468 27.468 27.468-12.322 27.468-27.468-12.323-27.468-27.468-27.468zm0 38.935c-6.323 0-11.468-5.145-11.468-11.468s5.145-11.468 11.468-11.468 11.468 5.145 11.468 11.468-5.145 11.468-11.468 11.468zm-136.168-134.207c0-15.146-12.322-27.468-27.468-27.468s-27.468 12.322-27.468 27.468 12.322 27.468 27.468 27.468 27.468-12.322 27.468-27.468zm-38.936 0c0-6.323 5.145-11.468 11.468-11.468s11.468 5.145 11.468 11.468-5.145 11.468-11.468 11.468-11.468-5.145-11.468-11.468zm29.803 40.442c-15.146 0-27.468 12.322-27.468 27.468s12.322 27.468 27.468 27.468 27.467-12.322 27.467-27.468-12.322-27.468-27.467-27.468zm0 38.935c-6.323 0-11.468-5.145-11.468-11.468s5.145-11.468 11.468-11.468 11.467 5.145 11.467 11.468-5.144 11.468-11.467 11.468zm-68.538-64.295c-15.146 0-27.468 12.322-27.468 27.468s12.322 27.468 27.468 27.468 27.467-12.322 27.467-27.468-12.322-27.468-27.467-27.468zm0 38.936c-6.323 0-11.468-5.145-11.468-11.468s5.145-11.468 11.468-11.468 11.467 5.145 11.467 11.468-5.144 11.468-11.467 11.468zm5.618 59.282c0-4.418-3.582-8-8-8h-33.544c-4.418 0-8 3.582-8 8v31.524h-31.524c-4.418 0-8 3.582-8 8v33.545c0 4.418 3.582 8 8 8h31.524v31.524c0 4.418 3.582 8 8 8h33.544c4.418 0 8-3.582 8-8v-31.524h31.525c4.418 0 8-3.582 8-8v-33.545c0-4.418-3.582-8-8-8h-31.525zm23.525 47.524v17.545h-31.525c-4.418 0-8 3.582-8 8v31.524h-17.544v-31.524c0-4.418-3.582-8-8-8h-31.524v-17.545h31.524c4.418 0 8-3.582 8-8v-31.524h17.544v31.524c0 4.418 3.582 8 8 8z"/></svg>