<svg viewBox="0 0 64 64" xmlns="http://www.w3.org/2000/svg"><g id="Layer_1" data-name="Layer 1"><path d="m56 37.573h-5.729c0-.031.009-.061.009-.093a5.519 5.519 0 0 0 -2.88-4.868c0-.044 0-.086 0-.131a22.015 22.015 0 0 0 -2.9-10.95c.023-.335.039-.679.039-1.05a17.428 17.428 0 0 0 -8.139-14.69 1.491 1.491 0 0 0 -.439-.263 17.773 17.773 0 0 0 -26.944 14.953c0 .371.015.715.039 1.05a21.759 21.759 0 0 0 -1.967 4.528v.009a22.251 22.251 0 0 0 -.939 6.413v.134a5.347 5.347 0 0 0 -1.341 1 5.592 5.592 0 0 0 -1.529 3.865 5.44 5.44 0 0 0 4.835 5.478c.726 9.513 8.39 17.022 17.7 17.022h1.91a17.271 17.271 0 0 0 12.582-5.441 18.479 18.479 0 0 0 4.5-7.966h11.193a4.5 4.5 0 0 0 0-9zm-18.247-26.753a14.377 14.377 0 0 1 3.347 6.222 21.132 21.132 0 0 0 -2.3-2 1.517 1.517 0 0 0 -.3-.236c-.379-.274-.774-.523-1.171-.77a11.434 11.434 0 0 0 .434-3.126c-.005-.03-.01-.06-.01-.09zm6.406 18.687a6.2 6.2 0 0 0 -4.949-2.527h-.443a10.192 10.192 0 0 0 1.933-5.806 18.849 18.849 0 0 1 3.459 8.333zm-17.382-23.526a14.844 14.844 0 0 1 7.452 2.005 8.311 8.311 0 0 1 .529 2.925 8.626 8.626 0 0 1 -.164 1.684 19.806 19.806 0 0 0 -4.794-1.356 1.493 1.493 0 0 0 -.419-.067 19.812 19.812 0 0 0 -2.6-.191 20.121 20.121 0 0 0 -14.323 6.061 14.725 14.725 0 0 1 14.319-11.061zm-16.939 21.428a18.918 18.918 0 0 1 13.219-5.428h6.59a1.5 1.5 0 0 0 0-3h-6.59a21.71 21.71 0 0 0 -10.616 2.773 17.374 17.374 0 0 1 14.336-7.773 16.952 16.952 0 0 1 9.823 3.145 7.162 7.162 0 0 1 1.115 3.855 7.058 7.058 0 0 1 -3.252 6h-20.123a6.137 6.137 0 0 0 -4.47 1.929 6.826 6.826 0 0 0 -.469.568 19.01 19.01 0 0 1 .437-2.069zm27.493 9.379a3.5 3.5 0 0 0 -3.831 3.484v3.6a3.5 3.5 0 0 0 3.5 3.5c.109 0 .22 0 .33-.016l3.812-.356a1.482 1.482 0 0 0 .439-.127 15.478 15.478 0 0 1 -3.435 5.6 14.3 14.3 0 0 1 -10.416 4.507h-1.91c-8.138 0-14.76-6.953-14.76-15.5a1.5 1.5 0 0 0 -1.5-1.5h-.96a2.417 2.417 0 0 1 -2.32-2.5 2.6 2.6 0 0 1 .7-1.792 2.222 2.222 0 0 1 1.62-.708h.96a1.5 1.5 0 0 0 1.5-1.5 3.623 3.623 0 0 1 .985-2.5 3.152 3.152 0 0 1 2.3-1h24.865a3.4 3.4 0 0 1 3.29 3.5 1.5 1.5 0 0 0 1.5 1.5h.95a2.175 2.175 0 0 1 .5.062h.008a2.47 2.47 0 0 1 1.822 2.438c0 .033-.008.062-.009.093h-5.243a1.482 1.482 0 0 0 -.885-.422zm2.169 3.221v4.129l-2.453.233a.47.47 0 0 1 -.383-.128.493.493 0 0 1 -.164-.369v-3.6a.5.5 0 0 1 .5-.5.41.41 0 0 1 .049 0zm12 3.564h-9v-3h9zm4.5 0h-1.5v-3h1.5a1.5 1.5 0 0 1 0 3z"/><path d="m32.061 35.939a1.5 1.5 0 0 0 -2.122 0 8.583 8.583 0 0 0 0 12.122 1.5 1.5 0 0 0 2.122-2.122 5.577 5.577 0 0 1 0-7.878 1.5 1.5 0 0 0 0-2.122z"/><path d="m27.221 35.872a1.5 1.5 0 0 0 -2.442-1.744 13.545 13.545 0 0 0 0 15.744 1.5 1.5 0 0 0 2.442-1.744 10.544 10.544 0 0 1 0-12.256z"/></g></svg>