<svg id="&#x421;&#x43B;&#x43E;&#x439;_1" viewBox="0 0 3500 3500" xmlns="http://www.w3.org/2000/svg"><g fill="none" stroke="#232323" stroke-linecap="round" stroke-linejoin="round" stroke-width="44"><path d="m2308.19 2047.5c22.34-83.76 17.74-151.84 29.2-237.25"/><path d="m1796.19 1135.5c71.55-.84 199.9-27.62 186.69-95.68 0 0 44.31 116.68 161.31 152.68 105.36 32.42 192.55 158.33 253.19 283.19.93-31.52 1.57-59.93 1.57-78.52 0-358.25-280.07-648.67-641.12-648.67s-641.12 290.42-641.12 648.67c0 75.89 14.8 159.75 28.55 221.3 52.21-161.86 121.16-476.73 650.93-482.97z"/><path d="m2392.19 1618.5s2.69-58.3 5.19-142.81c-60.64-124.86-147.83-250.77-253.19-283.19-117-36-161.31-152.68-161.31-152.68 13.22 68.06-115.13 94.84-186.69 95.68-529.77 6.24-598.72 321.11-650.93 483 11.93 53.39 23.07 90 23.07 90"/><path d="m1275.19 2084.5c53 202 181.71 276.42 306.19 377.7 36.62 29.8 73.6 59.83 115.74 81.29 57.83 29.45 105.67 29.45 163.5 0 42.14-21.46 79.12-51.49 115.74-81.29 25.35-20.63 50.93-40.73 76-60.95"/><path d="m1164.49 1717.48c-25.61-9-57.65 18.81-67.21 48s24.9 126.86 32.75 156.71c16.46 62.62 44.35 91.62 58.08 100.06s42.48 18.42 55.3 8.44"/><path d="m2392.23 1717.48c26.19-9 58.94 18.81 68.71 48s-25.46 126.86-33.48 156.71c-16.83 62.62-45.34 91.62-59.38 100.06s-43.43 18.42-56.54 8.44"/><path d="m1399.64 2311.58s34.9 238.41-53.85 435.8"/><path d="m2144.88 2329.56s-14.78 256.71 66.55 417.82"/><path d="m1648.16 1684.92s-120.66-42.42-189.5-18.66c-49.24 17-103.93 48.43-103.93 48.43"/><path d="m1910.1 1684.92s120.66-42.42 189.5-18.66c49.24 17 103.93 48.43 103.93 48.43"/><path d="m1418.56 1845.89s126.78 88.63 214.29 0"/><path d="m2132.12 1845.89s-126.78 88.63-214.29 0"/><path d="m1711.39 2100.57s64 75.17 140.24 0"/><path d="m1637.2 2261.54s53 50 146.37 50c84.75 0 137.48-47.13 137.48-50"/><path d="m1991.19 2448.38h2.25"/><circle cx="1775.19" cy="1417.5" r="162"/><path d="m1306.69 1846s45 103 135 130 120.5 59.5 120.5 124.5c0 62.65-115 156.7-287.15-16.1a95 95 0 0 1 -26.78-54.67c-5.64-42.62-3.9-118.06 58.43-183.73z"/><path d="m2286.32 2084.4a95 95 0 0 0 26.78-54.67c5.63-42.62 3.89-118.06-58.43-183.73 0 0-45 103-135 130s-120.5 44.5-120.5 109.5c0 43.07 54.34 108.07 144.25 88.34"/><circle cx="1781.19" cy="2480.5" r="76"/><path d="m1782.19 1995a39.5 39.5 0 0 1 -39.5-39.5v-229a39.5 39.5 0 0 1 39.5-39.5 39.5 39.5 0 0 1 39.5 39.5v229a39.5 39.5 0 0 1 -39.5 39.5z"/><path d="m1910.19 949.5s-14 69-205 63-395 96-437 171"/><path d="m2506.23 2330.37-80.16 87.85-142.03-84.03 125.53-137.58z"/><path d="m2751.81 2694.34-325.74-276.12 80.16-87.85 240.75 208.69"/><path d="m2342.58 2135.48-49-44.75a60.59 60.59 0 0 0 -85.59 3.92l-43.86 48.07a60.59 60.59 0 0 0 3.92 85.59l19.82 18.08 96.21 87.79 125.53-137.58z"/><circle cx="1015.19" cy="2484.5" r="267"/><circle cx="1015.19" cy="2484.5" r="155"/></g></svg>