<svg id="Layer_5" enable-background="new 0 0 62 52" height="512" viewBox="0 0 62 52" width="512" xmlns="http://www.w3.org/2000/svg"><g><path d="m15 42c0 3.309 2.691 6 6 6s6-2.691 6-6v-2h-12zm10 0c0 2.206-1.794 4-4 4s-4-1.794-4-4z"/><path d="m20 31h-2c0 1.654-1.346 3-3 3s-3-1.346-3-3h-2c0 2.757 2.243 5 5 5s5-2.243 5-5z"/><path d="m27 34c-1.654 0-3-1.346-3-3h-2c0 2.757 2.243 5 5 5s5-2.243 5-5h-2c0 1.654-1.346 3-3 3z"/><path d="m60 28.184v-17.948c0-.963-.228-1.928-.658-2.789-1.064-2.126-3.201-3.447-5.578-3.447h-3.528c-2.377 0-4.514 1.321-5.578 3.447-.43.862-.658 1.826-.658 2.789v5.764h-4.051c-.522-8.908-7.913-16-16.949-16h-4c-9.036 0-16.427 7.092-16.949 16h-.051c-1.103 0-2 .897-2 2v2c0 1.103.897 2 2 2h1.824c-1.196 1.862-1.824 3.904-1.824 6 0 1.276.244 2.532.699 3.747-.44.642-.699 1.417-.699 2.253 0 2.206 1.794 4 4 4v1c0 7.168 5.832 13 13 13h4c7.168 0 13-5.832 13-13v-1c2.206 0 4-1.794 4-4 0-.836-.259-1.611-.699-2.253.455-1.216.699-2.472.699-3.747 0-2.095-.628-4.137-1.824-6h5.824v6.184c-1.161.414-2 1.514-2 2.816v10c0 1.428 1.005 2.621 2.343 2.922l1.657 3.314v4.764h12v-4.764l1.657-3.314c1.338-.301 2.343-1.494 2.343-2.922v-10c0-1.302-.839-2.402-2-2.816zm-2-12.184h-4v-2h4zm-4 2h4v2h-4zm0 4h4v2h-4zm-3.764-16h3.528c1.481 0 2.817.761 3.587 2h-10.702c.769-1.239 2.106-2 3.587-2zm-27.236-4c3.923 0 7.488 1.526 10.164 4h-24.328c2.676-2.474 6.241-4 10.164-4zm-15.972 6h27.943c1.703 2.26 2.779 5.008 2.978 8h-33.898c.198-2.992 1.274-5.74 2.977-8zm-5.029 10h.001 46v2h-46zm31.916 8h-15.915c-1.103 0-2-.897-2-2v-2h15.25c1.416.903 2.383 2.363 2.665 4zm-29.915 8c0-1.103.897-2 2-2v4c-1.103 0-2-.897-2-2zm2.036-4h-.036c-.592 0-1.149.137-1.655.369-.222-.777-.345-1.569-.345-2.369 0-2.114.8-4.177 2.302-6h7.698v1.307l-4.107 1.54c-2.181.818-3.674 2.855-3.857 5.153zm16.964 20h-4c-6.065 0-11-4.935-11-11v-8.535c0-1.657 1.043-3.163 2.595-3.745l3.655-1.371c.557 1.541 2.02 2.651 3.75 2.651h16v11c0 6.065-4.935 11-11 11zm13-14v-4c1.103 0 2 .897 2 2s-.897 2-2 2zm2-8c0 .8-.123 1.592-.345 2.369-.506-.232-1.063-.369-1.655-.369v-2-1c0-1.847-.658-3.605-1.791-5h1.489c1.502 1.823 2.302 3.887 2.302 6zm10-6c1.103 0 2-.897 2-2v-2c0-1.103-.897-2-2-2h-2v-5.764c0-.079.009-.157.014-.236h11.972c.005.079.014.157.014.236v1.764h-6v14h6v2h-12v-6zm-3 8h14c.551 0 1 .448 1 1v1.12c-.896.227-1.468.735-1.916 1.133-.506.449-.841.747-1.586.747s-1.081-.298-1.587-.748c-.596-.528-1.411-1.252-2.916-1.252s-2.32.724-2.915 1.253c-.505.45-.84.747-1.584.747s-1.078-.297-1.583-.747c-.447-.398-1.017-.905-1.912-1.133v-1.12c-.001-.552.448-1 .999-1zm1.618 14h10.764l-1 2h-8.764zm9.382 6h-8v-2h8zm3-8h-14c-.551 0-1-.448-1-1v-6.714c.192.124.374.275.583.461.594.528 1.408 1.253 2.913 1.253s2.319-.724 2.914-1.253c.506-.45.84-.747 1.585-.747.746 0 1.08.298 1.587.747.595.529 1.41 1.253 2.916 1.253 1.505 0 2.32-.724 2.915-1.252.211-.187.394-.339.587-.463v6.715c0 .552-.449 1-1 1z"/></g></svg>