<svg version="1.1" id="Capa_1" xmlns="http://www.w3.org/2000/svg" xmlns:xlink="http://www.w3.org/1999/xlink" x="0px" y="0px" viewBox="0 0 512 512" style="enable-background:new 0 0 512 512;" xml:space="preserve">
<g>
	
		<line style="fill:none;stroke:#000000;stroke-width:15;stroke-linecap:round;stroke-linejoin:round;stroke-miterlimit:10;" x1="315.34" y1="328.97" x2="266.161" y2="328.97"/>
	
		<line style="fill:none;stroke:#000000;stroke-width:15;stroke-linecap:round;stroke-linejoin:round;stroke-miterlimit:10;" x1="504.5" y1="328.97" x2="455.87" y2="328.97"/>
	
		<line style="fill:none;stroke:#000000;stroke-width:15;stroke-linecap:round;stroke-linejoin:round;stroke-miterlimit:10;" x1="427.13" y1="328.97" x2="337.48" y2="328.97"/>
	
		<line style="fill:none;stroke:#000000;stroke-width:15;stroke-linecap:round;stroke-linejoin:round;stroke-miterlimit:10;" x1="208.3" y1="328.97" x2="7.5" y2="328.97"/>
	
		<line style="fill:none;stroke:#000000;stroke-width:15;stroke-linecap:round;stroke-linejoin:round;stroke-miterlimit:10;" x1="205.97" y1="378.2" x2="7.5" y2="378.2"/>
	
		<line style="fill:none;stroke:#000000;stroke-width:15;stroke-linecap:round;stroke-linejoin:round;stroke-miterlimit:10;" x1="422.06" y1="378.2" x2="348.89" y2="378.2"/>
	
		<line style="fill:none;stroke:#000000;stroke-width:15;stroke-linecap:round;stroke-linejoin:round;stroke-miterlimit:10;" x1="504.5" y1="378.2" x2="466.85" y2="378.2"/>
	
		<line style="fill:none;stroke:#000000;stroke-width:15;stroke-linecap:round;stroke-linejoin:round;stroke-miterlimit:10;" x1="313" y1="378.2" x2="241.85" y2="378.2"/>
	
		<line style="fill:none;stroke:#000000;stroke-width:15;stroke-linecap:round;stroke-linejoin:round;stroke-miterlimit:10;" x1="7.5" y1="502.221" x2="504.5" y2="502.221"/>
	
		<line style="fill:none;stroke:#000000;stroke-width:15;stroke-linecap:round;stroke-linejoin:round;stroke-miterlimit:10;" x1="47.805" y1="418.593" x2="47.805" y2="418.593"/>
	
		<line style="fill:none;stroke:#000000;stroke-width:15;stroke-linecap:round;stroke-linejoin:round;stroke-miterlimit:10;" x1="168.724" y1="450.129" x2="168.724" y2="450.129"/>
	
		<line style="fill:none;stroke:#000000;stroke-width:15;stroke-linecap:round;stroke-linejoin:round;stroke-miterlimit:10;" x1="147.152" y1="423.876" x2="147.152" y2="423.876"/>
	
		<line style="fill:none;stroke:#000000;stroke-width:15;stroke-linecap:round;stroke-linejoin:round;stroke-miterlimit:10;" x1="275.586" y1="441.945" x2="275.586" y2="441.945"/>
	
		<line style="fill:none;stroke:#000000;stroke-width:15;stroke-linecap:round;stroke-linejoin:round;stroke-miterlimit:10;" x1="384.328" y1="415.981" x2="384.328" y2="415.981"/>
	
		<line style="fill:none;stroke:#000000;stroke-width:15;stroke-linecap:round;stroke-linejoin:round;stroke-miterlimit:10;" x1="362.742" y1="473.312" x2="362.742" y2="473.312"/>
	
		<line style="fill:none;stroke:#000000;stroke-width:15;stroke-linecap:round;stroke-linejoin:round;stroke-miterlimit:10;" x1="451.574" y1="473.312" x2="451.574" y2="473.312"/>
	
		<line style="fill:none;stroke:#000000;stroke-width:15;stroke-linecap:round;stroke-linejoin:round;stroke-miterlimit:10;" x1="82.933" y1="467.464" x2="82.933" y2="467.464"/>
	<g>
		<path style="fill:none;stroke:#000000;stroke-width:15;stroke-linecap:round;stroke-linejoin:round;stroke-miterlimit:10;" d="&#10;&#9;&#9;&#9;M239.685,368.551c-2.829-18.086-7.186-35.914-14.109-52.94c-3.751-6.771-11.163-30.245-20.885-26.594&#10;&#9;&#9;&#9;c-3.321,1.325-4.939,5.089-3.615,8.409c7.797,20.411,8.956,42.53,7.661,64.321c-0.561,9.443-2.83,18.71-6.688,27.347&#10;&#9;&#9;&#9;c-7.869,17.62,2.105,45.358,21.862,44.614c19.496,0.746,29.661-26.549,22.062-44.147&#10;&#9;&#9;&#9;C243.06,382.817,240.82,375.808,239.685,368.551z"/>
		<path style="fill:none;stroke:#000000;stroke-width:15;stroke-linecap:round;stroke-linejoin:round;stroke-miterlimit:10;" d="&#10;&#9;&#9;&#9;M346.723,368.551c-2.829-18.086-7.186-35.914-14.109-52.94c-3.751-6.771-11.163-30.245-20.885-26.594&#10;&#9;&#9;&#9;c-3.321,1.325-4.939,5.089-3.615,8.409c7.797,20.411,8.956,42.53,7.661,64.321c-0.561,9.443-2.83,18.71-6.688,27.347&#10;&#9;&#9;&#9;c-7.869,17.62,2.105,45.358,21.862,44.614c19.496,0.746,29.661-26.549,22.062-44.147&#10;&#9;&#9;&#9;C350.097,382.817,347.858,375.808,346.723,368.551z"/>
		<path style="fill:none;stroke:#000000;stroke-width:15;stroke-linecap:round;stroke-linejoin:round;stroke-miterlimit:10;" d="&#10;&#9;&#9;&#9;M462.806,362.177c-3.296-21.071-8.372-41.842-16.438-61.678c-4.37-7.888-13.005-35.237-24.332-30.984&#10;&#9;&#9;&#9;c-3.869,1.543-5.754,5.929-4.212,9.797c9.084,23.78,10.434,49.55,8.925,74.938c-0.654,11.001-3.297,21.798-7.792,31.86&#10;&#9;&#9;&#9;c-9.168,20.528,2.452,52.844,25.47,51.978c22.714,0.87,34.556-30.931,25.703-51.434&#10;&#9;&#9;&#9;C466.738,378.798,464.129,370.632,462.806,362.177z"/>
	</g>
	<g>
		<path style="fill:none;stroke:#000000;stroke-width:15;stroke-linecap:round;stroke-linejoin:round;stroke-miterlimit:10;" d="&#10;&#9;&#9;&#9;M279.251,33.288L261.793,15.83c-8.068-8.068-21.148-8.068-29.215,0l-51.437,51.437c-5.147,5.147-7.206,12.624-5.418,19.681&#10;&#9;&#9;&#9;l6.114,24.136l-89.11,89.11l35.515,35.515l49.333-5.767l68.189-68.189l107.019,48.301l51.616-51.616L304.014,58.051"/>
		<path style="fill:none;stroke:#000000;stroke-width:15;stroke-linecap:round;stroke-linejoin:round;stroke-miterlimit:10;" d="&#10;&#9;&#9;&#9;M427.565,181.602L404.4,158.437l-51.616,51.616l23.165,23.165c4.467,4.467,11.709,4.467,16.176,0l35.439-35.439&#10;&#9;&#9;&#9;C432.032,193.311,432.032,186.069,427.565,181.602z"/>
		<path style="fill:none;stroke:#000000;stroke-width:15;stroke-linecap:round;stroke-linejoin:round;stroke-miterlimit:10;" d="&#10;&#9;&#9;&#9;M245.765,161.752l-16.878-16.878c-5.062-5.062-13.27-5.062-18.332,0l-43.132,43.132c-3.854,3.854-4.886,9.708-2.581,14.648&#10;&#9;&#9;&#9;l12.734,27.288L245.765,161.752z"/>
		<path style="fill:none;stroke:#000000;stroke-width:15;stroke-linecap:round;stroke-linejoin:round;stroke-miterlimit:10;" d="&#10;&#9;&#9;&#9;M92.727,200.193l35.515,35.515l-10.57,10.57c-9.807,9.807-25.708,9.807-35.515,0l0,0c-9.807-9.807-9.807-25.708,0-35.515&#10;&#9;&#9;&#9;L92.727,200.193z"/>
		
			<line style="fill:none;stroke:#000000;stroke-width:15;stroke-linecap:round;stroke-linejoin:round;stroke-miterlimit:10;" x1="242.847" y1="48.499" x2="280.438" y2="86.091"/>
	</g>
	<path style="fill:none;stroke:#000000;stroke-width:15;stroke-linecap:round;stroke-linejoin:round;stroke-miterlimit:10;" d="&#10;&#9;&#9;M82.158,246.278l-12.918,12.918c-6.036,6.036-14.224,9.428-22.76,9.428H7.5"/>
</g>
<g>
</g>
<g>
</g>
<g>
</g>
<g>
</g>
<g>
</g>
<g>
</g>
<g>
</g>
<g>
</g>
<g>
</g>
<g>
</g>
<g>
</g>
<g>
</g>
<g>
</g>
<g>
</g>
<g>
</g>
</svg>