<svg id="_01-lip_gloss" height="48" viewBox="0 0 48 48" width="48" xmlns="http://www.w3.org/2000/svg" data-name="01-lip gloss"><g fill="none" stroke="#000" stroke-linejoin="round" stroke-width="2"><path d="m22 37h6a0 0 0 0 1 0 0v8a2 2 0 0 1 -2 2h-2a2 2 0 0 1 -2-2v-8a0 0 0 0 1 0 0z"/><path d="m25 37v-12"/><path d="m23 22v-1a2 2 0 0 1 .8-1.6l3.2-2.4v8h-4v-2"/><path d="m39 19h6a2 2 0 0 1 2 2v22a4 4 0 0 1 -4 4h-2a4 4 0 0 1 -4-4v-22a2 2 0 0 1 2-2z"/><path d="m40 11h4v8h-4z"/><path d="m44 29v-5h-4v18a2 2 0 0 0 2 2 2 2 0 0 0 2-2v-9"/><path d="m44 30v2"/><path d="m44 14h-4"/><path d="m35 13c0 .553-1.789 1-4 1a7.719 7.719 0 0 1 -5.566-3.945 2 2 0 0 0 -1.724-1.072c-3.252-.083-5.71-.493-5.71-.983 0 .49-2.458.9-5.71.983a2 2 0 0 0 -1.724 1.072 7.719 7.719 0 0 1 -5.566 3.945c-2.211 0-4-.447-4-1"/><path d="m31 14c-7.186 0-13 1.789-13 4 0-2.211-5.814-4-13-4"/><path d="m30 21.5c3.089-2.172 5-5.179 5-8.5 0-6.633-5.262-12-13-12a4 4 0 0 0 -4 4 4 4 0 0 0 -4-4c-7.738 0-13 5.367-13 12s7.6 12 17 12"/><path d="m12 9v1a2 2 0 0 0 2 2h3l1-1v-3"/><path d="m24 9v1a2 2 0 0 1 -2 2h-3l-1-1v-3"/><path d="m29 7c0-1.658-2.236-3-5-3"/><path d="m8 18c0 1.105 1.789 2 4 2"/><path d="m19 37h-12"/><path d="m5 37h-2"/><path d="m19 33h-10"/><path d="m7 33h-2"/><path d="m19 29h-8"/><path d="m9 29h-2"/></g></svg>