<svg id="Layer_1" enable-background="new 0 0 56 56" height="512" viewBox="0 0 56 56" width="512" xmlns="http://www.w3.org/2000/svg"><g><path d="m43.55 15.1c-4.93 0-8.95 4.01-8.95 8.95 0 1.48.37 2.87 1.01 4.1l-1.61 4.82c-.06.18-.01.38.12.51.1.1.22.15.35.15.05 0 .11-.01.16-.03l4.82-1.62c1.23.63 2.62 1 4.09 1 4.93 0 8.95-4.01 8.95-8.93.01-4.94-4-8.95-8.94-8.95zm-8.28 17.23 1.03-3.08c.57.79 1.26 1.48 2.05 2.05zm8.28-.35c-4.38 0-7.95-3.56-7.95-7.93 0-4.38 3.56-7.95 7.95-7.95s7.95 3.56 7.95 7.95c0 4.37-3.57 7.93-7.95 7.93z"/><path d="m36.77 38.26c-.93-1.07-2.16-1.88-3.6-2.26l-3.97-1.03c.03-.05.07-.1.1-.15.25.06.51.1.77.1 1.75 0 3.18-1.43 3.18-3.18 0-.58-.16-1.14-.45-1.63.74-.6 1.19-1.51 1.19-2.48 0-1.39-.9-2.61-2.19-3.03v-.62c.38-.49.61-1.1.61-1.77s-.23-1.27-.61-1.76v-3.66c0-2.87-1.12-5.58-3.16-7.61s-4.74-3.15-7.61-3.15c-5.94 0-10.77 4.83-10.77 10.76v3.77c-.33.47-.52 1.04-.52 1.65 0 .62.2 1.19.52 1.66v.73c-1.29.42-2.19 1.63-2.19 3.03 0 .97.44 1.88 1.19 2.48-.3.49-.46 1.05-.46 1.62 0 1.75 1.43 3.18 3.18 3.18.26 0 .52-.03.77-.1.03.05.07.1.1.15l-3.97 1.04c-3.16.83-5.37 3.69-5.37 6.95v5.41c0 .89.72 1.61 1.61 1.61h31.82c.89 0 1.61-.72 1.61-1.61v-5.41c0-1.71-.62-3.3-1.65-4.56-.04-.05-.08-.09-.13-.13zm-3.79-10.63c0 .79-.43 1.53-1.13 1.91-.13.07-.22.2-.25.35s.01.3.11.41c.34.4.53.91.53 1.44 0 1.2-.98 2.18-2.18 2.18-.29 0-.58-.06-.85-.18-.13-.06-.28-.06-.41 0s-.23.17-.27.3c-.07.23-.21.45-.38.66l-1.07-.28c-.88-.23-1.49-1.03-1.49-1.94v-.88c.17-.11.34-.21.51-.33.01-.01.03-.02.04-.03 1.96-1.42 3.32-3.61 3.61-6.14.37-.03.72-.13 1.04-.29v.18c0 .24.17.45.41.49 1.03.19 1.78 1.09 1.78 2.15zm-8.24 3.33c-1.11.6-2.37.95-3.72.95-2.08 0-4.03-.81-5.51-2.28-1.47-1.47-2.28-3.43-2.28-5.51v-6.13c.73.59 1.62.91 2.56.91h10.47c.95 0 1.84-.32 2.55-.9v6.08c-.12.01-.23.02-.35.05-.55.13-.75.49-.82.76-.13.16-.31.36-.44.36-.07 0-.16-.02-.26-.05-.22-.06-.52-.13-.83-.01-.44.16-.71.62-.71 1.21 0 .12.02.25.03.37.02.16.04.3.02.42-.04.29-.3.56-.58.85-.38.39-.8.83-.85 1.47-.02.54.25 1.09.72 1.45zm.87-2.23c.36-.37.77-.8.85-1.42.03-.24 0-.47-.02-.66-.01-.09-.02-.19-.03-.26 0-.14.04-.24.05-.26.03 0 .16.02.24.04.15.04.34.08.54.08.63-.02 1.03-.53 1.27-.84.06-.07.09-.19.1-.28l.11-.04h.02c-.27 2.14-1.41 4.01-3.05 5.24-.11-.03-.22-.08-.32-.14-.22-.15-.36-.4-.34-.61.03-.28.28-.54.58-.85zm5.79-6.52c0 .97-.68 1.74-1.59 1.89v-3.76c.9.14 1.59.92 1.59 1.87zm-20.15-5.43c0-5.38 4.38-9.76 9.77-9.76 2.6 0 5.06 1.01 6.91 2.85 1.85 1.85 2.86 4.3 2.86 6.91v2.84c-.3-.15-.63-.25-.98-.29v-2.68c0-.22-.15-.42-.37-.48s-.45.03-.56.23c-.56.94-1.54 1.5-2.62 1.5h-10.47c-.81 0-1.58-.32-2.17-.89-.19-.19-.34-.38-.46-.6-.11-.2-.34-.29-.56-.23s-.37.26-.37.48v2.69c-.35.05-.68.16-.98.33zm.98 3.57v3.73c-.86-.19-1.5-.96-1.5-1.87s.64-1.67 1.5-1.86zm.6 13.39c-.27.12-.56.18-.85.18-1.2 0-2.18-.98-2.18-2.18 0-.52.19-1.03.53-1.44.1-.11.14-.27.11-.41-.03-.15-.12-.27-.25-.35-.7-.39-1.13-1.12-1.13-1.91 0-1.05.75-1.96 1.78-2.15.24-.04.41-.25.41-.49v-.23c.32.17.66.29 1.04.34.22 1.98 1.09 3.81 2.52 5.24.5.5 1.05.92 1.63 1.28v.88c0 .91-.61 1.71-1.49 1.94l-1.08.28c-.16-.21-.29-.43-.37-.66-.04-.13-.14-.24-.27-.3-.12-.08-.27-.08-.4-.02zm-3.31 7.3v7.93h-4.41c-.34 0-.61-.27-.61-.61v-5.41c0-2.81 1.9-5.28 4.63-5.99l.39-.1v4.16zm22.01 7.91-21.01.02v-7.32c7.12 1.34 14.19 1.34 21.01-.01zm0-12.31v3.97c-6.81 1.38-13.88 1.38-21.01.01v-3.98c0-.01-.01-.02-.01-.03l4.7-1.22c1.31-.35 2.23-1.54 2.23-2.9v-.35c1.11.5 2.32.77 3.58.77 1.28 0 2.49-.28 3.58-.77v.35c0 1.36.92 2.56 2.23 2.9l4.7 1.22zm6.01 11.72c0 .34-.27.61-.61.61h-4.41v-7.95-4.16l.39.1c1.2.31 2.22.98 3.01 1.85-.05.22-.11.39-.22.46-.09.07-.23.12-.37.17-.28.1-.64.23-.85.55-.34.45-.3 1.09.12 1.69.1.14.21.26.32.39.14.16.28.32.36.48.2.4.11.93.01 1.49-.12.69-.26 1.48.15 2.19.35.61 1.08 1.01 1.86 1.01.08 0 .16-.01.23-.02v1.14zm0-2.16c-.49.06-1.02-.11-1.23-.47-.23-.39-.13-.94-.03-1.52.12-.66.25-1.42-.1-2.12-.14-.27-.33-.49-.5-.68-.09-.1-.18-.21-.26-.31-.14-.2-.2-.42-.12-.53.05-.07.22-.13.38-.19.19-.07.41-.15.62-.3.13-.1.24-.22.32-.34.58.95.92 2.04.92 3.21z"/><circle cx="40.23" cy="26.37" r="1"/><circle cx="38.54" cy="22.4" r="1"/><circle cx="44.07" cy="24.18" r="1"/><circle cx="47.75" cy="22.4" r="1"/><circle cx="42.88" cy="29.13" r="1"/><circle cx="46.27" cy="26.37" r="1"/><circle cx="42.9" cy="19.57" r="1"/></g></svg>