<svg id="Layer_1" enable-background="new 0 0 66 66" viewBox="0 0 66 66" xmlns="http://www.w3.org/2000/svg"><g><path d="m64.21 23.55c-.15-.31-.34-.59-.59-.84-.07-.07-.14-.13-.21-.19 0 0-.01-.01-.01-.01s-.01-.01-.01-.01c-.54-.44-1.2-.67-1.9-.67-.79 0-1.5.3-2.04.8v-4.48c0-.81-.31-1.57-.88-2.13-.57-.57-1.32-.88-2.13-.88-.79 0-1.5.3-2.04.8v-2.47c0-.5-.12-.98-.35-1.41-.14-.26-.32-.5-.53-.71-.55-.55-1.27-.86-2.04-.88-.8-.02-1.55.28-2.13.85-.61.6-.96 1.42-.96 2.27v2.91c-.56-.51-1.28-.79-2.04-.79-1.66 0-3.01 1.35-3.01 3.01v13.68l-.22-.31-.73-1.03c-.56-.79-1.4-1.32-2.36-1.47-.84-.14-1.68.02-2.4.45-.1.06-.2.13-.3.2-.93.67-1.48 1.76-1.48 2.91 0 .17.01.34.04.51.07.5.25.99.53 1.43l6.55 10.23c.64 1 1.69 1.61 2.86 1.68v11.27h-4.48c.11-.53.17-1.07.17-1.63 0-4.33-3.53-7.86-7.86-7.86s-7.86 3.53-7.86 7.86c0 1.4.37 2.72 1.02 3.86h-6.2c-.15-.46-.4-.88-.75-1.23-.36-.37-.81-.63-1.29-.77v-7.74c1.14-.2 2.04-1.12 2.22-2.27 1.16-.23 2.06-1.15 2.26-2.32h6.42c2.86 0 5.19-2.33 5.19-5.19v-34.29c0-2.86-2.33-5.19-5.19-5.19h-22.79c-2.86 0-5.19 2.33-5.19 5.19v34.29c0 2.86 2.33 5.19 5.19 5.19h6.42c.2 1.16 1.11 2.09 2.26 2.32.18 1.15 1.08 2.06 2.22 2.27v7.62h-2.42l-2.82-2.82-3.73-3.73c-.57-.57-1.33-.89-2.15-.89-.81 0-1.58.32-2.16.89-1.19 1.19-1.19 3.12 0 4.3l2.29 2.29c-.6.11-1.16.4-1.59.84-.58.58-.89 1.34-.89 2.15 0 .82.33 1.56.85 2.11h-2.98c-.27 0-.48.22-.48.48 0 .27.22.48.48.48h44.31 14.32 3.4c.27 0 .48-.22.48-.48 0-.27-.22-.48-.48-.48h-2.92v-17.58c.86-.11 1.64-.49 2.26-1.11.46-.46.79-1.01.97-1.62.11-.36.17-.74.17-1.13v-17.24c0-.45-.1-.89-.29-1.29zm-18.4 35.69v4.29h-8.4c1.68-.93 2.99-2.45 3.63-4.29zm-12.17-9.49c3.8 0 6.89 3.09 6.89 6.89s-3.09 6.89-6.89 6.89-6.89-3.09-6.89-6.89 3.09-6.89 6.89-6.89zm-3.77 13.78h-9.97c.52-.54.84-1.26.85-2.06h6.69.01c.66.84 1.48 1.54 2.42 2.06zm-10.09-2.11c0 1.14-.93 2.08-2.07 2.08h-4.78v-4.15h4.78c.12 0 .23.01.34.03.02 0 .04.01.06.01h.02c.39.08.76.27 1.04.57.4.39.61.91.61 1.46zm-17.31-20.44v-34.29c0-2.33 1.89-4.22 4.22-4.22h22.79c2.33 0 4.22 1.9 4.22 4.22v34.29c0 2.33-1.89 4.22-4.22 4.22h-22.79c-2.33 0-4.22-1.89-4.22-4.22zm11.64 5.19h7.95c-.22.8-.94 1.4-1.81 1.4h-4.32c-.87 0-1.6-.59-1.82-1.4zm2.28 2.37h3.4c-.21.74-.89 1.29-1.7 1.29s-1.49-.54-1.7-1.29zm-3.94 9.84h-2.21l1.79-1.79 1.79 1.79zm-7.42-5.86c.39-.39.91-.61 1.47-.61.55 0 1.07.21 1.46.6l3.38 3.38-2.48 2.48h-.91l-2.93-2.92c-.81-.8-.8-2.12.01-2.93zm.69 7.43c.39-.39.91-.61 1.46-.61h.52c.02 0 .04.01.05.01s.04-.01.05-.01h1.2c.02 0 .04.01.05.01s.04-.01.05-.01h2.86v4.15h-4.78c-1.14 0-2.07-.93-2.07-2.08 0-.54.22-1.06.61-1.46zm54.89-14.95c-.27 0-.48.22-.48.48v18.04h-13.35v-4.29h4.25c1.6 0 2.91-1.3 2.91-2.91v-2.12c.37-.09.71-.27.97-.54.39-.39.6-.91.6-1.46s-.22-1.08-.6-1.45c-.26-.27-.6-.45-.97-.54v-2.08c0-.27-.22-.48-.48-.48-.27 0-.48.22-.48.48v2.08c-.36.09-.7.27-.97.54-.39.38-.61.91-.61 1.46 0 .97.67 1.78 1.58 2v2.12c0 1.07-.87 1.94-1.94 1.94h-4.25v-11.26h.45c.27 0 .48-.22.48-.48s-.22-.48-.48-.48h-.94-.26c-.92 0-1.77-.47-2.27-1.24l-6.55-10.23c-.27-.43-.41-.92-.41-1.42 0-.84.4-1.63 1.08-2.12.43-.31.93-.49 1.45-.51.06 0 .13.01.19.01.11 0 .22 0 .33.02.7.11 1.31.5 1.73 1.07l4.29 6.05c.09.13.24.2.4.2.1 0 .19-.03.28-.09.22-.15.27-.46.12-.68l-2.37-3.35v-15.05c0-1.12.92-2.04 2.04-2.04.55 0 1.06.21 1.45.59.38.38.59.9.59 1.45v.01 14.49c0 .27.22.48.48.48s.48-.22.48-.48v-14.5s0 0 0-.01v-5.12c0-.59.24-1.16.67-1.58.1-.1.21-.18.32-.25.34-.22.72-.33 1.11-.32.52.02 1.02.23 1.39.6.39.39.6.9.6 1.44v4.67.01 15.07c0 .27.22.48.48.48s.48-.22.48-.48v-15.06-.01c0-1.13.92-2.04 2.04-2.04.54 0 1.05.21 1.44.6.39.38.6.89.6 1.44v6.69 8.25c0 .27.22.48.48.48.27 0 .48-.22.48-.48v-8.25c0-1.12.92-2.04 2.04-2.04.55 0 1.06.21 1.45.6.1.1.18.2.25.31.22.33.34.72.34 1.13v17.25c0 .29-.04.58-.13.85-.14.45-.39.87-.73 1.22-.34.34-.76.59-1.21.73-.26.07-.54.11-.84.11zm-7.15 6.13c.29 0 .57.12.77.32s.32.48.32.76c0 .29-.11.57-.32.77-.2.2-.48.32-.76.32-.6 0-1.09-.49-1.09-1.09 0-.29.12-.57.32-.77.19-.2.46-.31.76-.31z"/><path d="m31.72 40.08v-32.49c0-1.73-1.41-3.13-3.13-3.13h-21c-1.73 0-3.13 1.41-3.13 3.13v32.49c0 1.73 1.41 3.13 3.13 3.13h21c1.72.01 3.13-1.4 3.13-3.13zm-24.13-34.65h21c1.19 0 2.16.97 2.16 2.16v6c-.37.12-.65.3-.9.46-.41.26-.74.47-1.45.47-.72 0-1.04-.21-1.46-.47-.46-.29-.98-.62-1.98-.62-1.01 0-1.53.33-1.99.62-.41.26-.74.47-1.46.47-.71 0-1.04-.21-1.45-.47-.46-.29-.98-.62-1.98-.62s-1.52.33-1.97.62c-.42.26-.75.47-1.48.47-.72 0-1.05-.21-1.46-.47l-.17-.1c-.41-.25-.92-.52-1.8-.52-1 0-1.52.33-1.98.62-.41.26-.74.47-1.46.47s-1.05-.21-1.46-.47c-.25-.16-.52-.33-.88-.45v-6.01c.01-1.19.98-2.16 2.17-2.16zm21 36.82h-21c-1.19 0-2.16-.97-2.16-2.16v-25.43c.12.06.24.14.36.21.46.29.98.62 1.98.62s1.52-.33 1.98-.62c.41-.26.74-.47 1.46-.47.63 0 .97.18 1.29.38l.16.1c.46.29.97.62 1.98.62s1.53-.33 2-.62c.41-.26.74-.47 1.46-.47s1.04.21 1.46.47c.46.29.97.62 1.97.62s1.52-.33 1.97-.62c.42-.26.75-.47 1.47-.47s1.05.21 1.46.47c.46.29.98.62 1.98.62s1.52-.33 1.97-.62c.13-.08.25-.16.38-.23v25.44c-.01 1.19-.98 2.16-2.17 2.16z"/><path d="m23.74 36.82c-.57 0-1.03.47-1.03 1.03 0 .57.47 1.03 1.03 1.03.57 0 1.03-.46 1.03-1.03.01-.57-.45-1.03-1.03-1.03z"/><path d="m25.99 33.29c-.35 0-.64.28-.64.64s.28.64.64.64.64-.28.64-.64-.28-.64-.64-.64z"/><path d="m28.34 38.13c-.42 0-.75.34-.75.75 0 .42.34.75.75.75.42 0 .75-.33.75-.75 0-.41-.34-.75-.75-.75z"/><path d="m20.28 33.79c0-.41-.33-.74-.74-.74s-.74.33-.74.74.33.74.74.74c.4 0 .74-.33.74-.74z"/><path d="m7.53 34.9c-.53 0-.96.43-.96.96s.43.96.96.96.95-.43.95-.95-.43-.97-.95-.97z"/><path d="m12.77 33.32c-.34 0-.61.27-.61.61 0 .33.27.6.61.6.33 0 .61-.27.61-.6 0-.34-.27-.61-.61-.61z"/><path d="m15 36.71c-.5 0-.9.4-.9.9 0 .49.4.9.9.9.49 0 .9-.4.9-.9s-.41-.9-.9-.9z"/><path d="m13.38 23.69c.57 0 1.03-.46 1.03-1.03s-.47-1.03-1.03-1.03c-.57 0-1.03.46-1.03 1.03 0 .56.46 1.03 1.03 1.03z"/><path d="m8.48 23.2c-.36 0-.64.28-.64.64 0 .35.28.64.64.64.35 0 .64-.28.64-.64s-.29-.64-.64-.64z"/><path d="m7.96 31.55c-.36 0-.64.28-.64.64 0 .35.28.64.64.64.35 0 .64-.28.64-.64-.01-.35-.29-.64-.64-.64z"/><path d="m11.2 27.41c-.32 0-.58.26-.58.59 0 .32.26.59.58.59.33 0 .59-.27.59-.59 0-.33-.26-.59-.59-.59z"/><path d="m7.84 18.52c.42 0 .75-.34.75-.75 0-.42-.34-.75-.75-.75-.42 0-.75.33-.75.75 0 .41.33.75.75.75z"/><path d="m17.09 25.93c-.41 0-.74.33-.74.74s.33.74.74.74.74-.33.74-.74-.34-.74-.74-.74z"/><path d="m28.65 19.83c-.53 0-.95.43-.95.95 0 .53.43.96.95.96.53 0 .96-.43.96-.96 0-.52-.43-.95-.96-.95z"/><path d="m24.22 23.26c.34 0 .61-.27.61-.61 0-.33-.27-.6-.61-.6-.33 0-.61.27-.61.6 0 .34.27.61.61.61z"/><path d="m22.71 28.32c-.49 0-.9.4-.9.9s.41.9.9.9c.5 0 .9-.4.9-.9 0-.49-.4-.9-.9-.9z"/><path d="m19.96 18.95c0-.24-.2-.43-.43-.43s-.43.19-.43.43c0 .23.2.43.43.43.24-.01.43-.2.43-.43z"/><path d="m30.17 58.81h1.73v1.73c0 .27.22.48.48.48h2.51c.27 0 .48-.22.48-.48v-1.73h1.73c.27 0 .48-.22.48-.48v-2.51c0-.27-.22-.48-.48-.48h-1.73v-1.74c0-.27-.22-.48-.48-.48h-2.51c-.27 0-.48.22-.48.48v1.73h-1.73c-.27 0-.48.22-.48.48v2.51c0 .27.22.49.48.49zm.49-2.51h1.73c.27 0 .48-.22.48-.48v-1.73h1.54v1.73c0 .27.22.48.48.48h1.73v1.54h-1.72c-.27 0-.48.22-.48.48v1.73h-1.54v-1.73c0-.27-.22-.48-.48-.48h-1.73v-1.54z"/><path d="m7.28 53.2c-.43-.43-1.16-.41-1.57 0-.19.19-.19.5 0 .69.09.09.22.14.34.14s.25-.05.34-.14c.03-.03.12-.08.2 0 .19.19.5.19.69 0s.19-.5 0-.69z"/></g></svg>