<svg id="Layer_1" enable-background="new 0 0 500 500" viewBox="0 0 500 500" xmlns="http://www.w3.org/2000/svg"><g><path d="m397.224 326.342c-4.172 0-7.554-3.381-7.554-7.554 0-15.198-12.365-27.564-27.564-27.564s-27.565 12.366-27.565 27.564c0 4.173-3.381 7.554-7.553 7.554-4.173 0-7.554-3.381-7.554-7.554 0-23.528 19.144-42.672 42.672-42.672s42.672 19.144 42.672 42.672c0 4.173-3.381 7.554-7.554 7.554z"/><path d="m400.966 348.976h-77.719c-10.404 0-18.869-8.465-18.869-18.869s8.465-18.869 18.869-18.869h77.719c10.404 0 18.87 8.466 18.87 18.869-.001 10.404-8.467 18.869-18.87 18.869zm-77.72-22.631c-2.074 0-3.762 1.687-3.762 3.762 0 2.074 1.688 3.762 3.762 3.762h77.719c2.075 0 3.762-1.688 3.762-3.762 0-2.075-1.687-3.762-3.762-3.762z"/><path d="m362.106 375.346c-19.486 0-36.479-13.166-41.33-32.015-1.041-4.039 1.393-8.158 5.432-9.197 4.043-1.042 8.159 1.393 9.198 5.433 3.134 12.171 14.113 20.671 26.7 20.671s23.566-8.5 26.7-20.671c1.041-4.037 5.155-6.471 9.197-5.433 4.039 1.039 6.474 5.158 5.433 9.197-4.851 18.849-21.844 32.015-41.33 32.015z"/><path d="m362.106 457.137c-14.729 0-26.712-11.982-26.712-26.712v-68.319c0-4.172 3.382-7.554 7.554-7.554s7.554 3.381 7.554 7.554v68.319c0 6.399 5.205 11.604 11.605 11.604s11.605-5.205 11.605-11.604v-68.319c0-4.172 3.381-7.554 7.554-7.554 4.172 0 7.553 3.381 7.553 7.554v68.319c-.001 14.73-11.983 26.712-26.713 26.712z"/><path d="m441.684 309.24c-2.213 0-4.402-.965-5.895-2.824-4.09-5.093-8.717-9.775-13.748-13.912-3.222-2.649-3.685-7.408-1.036-10.631 2.656-3.222 7.413-3.685 10.632-1.036 5.83 4.795 11.192 10.218 15.93 16.119 2.612 3.251 2.092 8.008-1.159 10.619-1.395 1.122-3.066 1.665-4.724 1.665z"/><path d="m464.077 374.283c-4.281-.059-7.616-3.488-7.557-7.659l.009-1.154c0-10.54-1.723-20.891-5.123-30.76-1.357-3.942.741-8.241 4.686-9.602 3.947-1.369 8.238.741 9.601 4.685 3.942 11.454 5.943 23.458 5.943 35.677l-.009 1.366c-.058 4.134-3.428 7.447-7.55 7.447z"/><path d="m448.252 427.61c-1.386 0-2.788-.381-4.042-1.178-3.523-2.236-4.565-6.904-2.328-10.424 3.499-5.515 6.429-11.401 8.708-17.497 1.458-3.91 5.818-5.881 9.719-4.432 3.906 1.46 5.893 5.809 4.432 9.719-2.643 7.076-6.043 13.906-10.105 20.307-1.438 2.266-3.884 3.505-6.384 3.505z"/><path d="m362.106 475c-60.397 0-109.53-49.134-109.53-109.53 0-60.397 49.134-109.53 109.53-109.53 25.316 0 50.01 8.843 69.531 24.897 3.222 2.65 3.686 7.409 1.036 10.631-2.65 3.234-7.415 3.685-10.632 1.036-16.824-13.835-38.11-21.457-59.936-21.457-52.064 0-94.423 42.359-94.423 94.424 0 52.064 42.359 94.423 94.423 94.423 32.504 0 62.326-16.406 79.776-43.885 2.24-3.529 6.907-4.568 10.425-2.328 3.523 2.237 4.565 6.905 2.328 10.425-20.234 31.868-54.825 50.894-92.528 50.894z"/><path d="m193.442 306.808c-1.457 0-2.918-.415-4.196-1.292-3.37-2.307-4.361-6.784-2.151-10.219 1.204-1.874 12.764-18.19 46.932-13.602 4.137.554 7.038 4.355 6.483 8.489s-4.365 7.038-8.49 6.482c-24.555-3.281-32.029 6.554-32.335 6.973-1.495 2.051-3.858 3.169-6.243 3.169z"/><path d="m240.986 329.879c-.579 0-1.169-.067-1.759-.21-10.979-2.616-31.713-2.03-38.774-1.593-4.27.192-7.754-2.903-8.014-7.063-.263-4.163 2.901-7.752 7.064-8.014 1.13-.071 27.818-1.697 43.23 1.977 4.057.967 6.562 5.04 5.594 9.1-.826 3.467-3.924 5.803-7.341 5.803z"/><path d="m169.383 306.935c-2.428 0-4.807-1.169-6.261-3.316-.495-.664-8.108-10.191-32.315-6.952-4.139.555-7.937-2.348-8.489-6.482-.554-4.133 2.346-7.934 6.482-8.489 34.13-4.597 45.723 11.723 46.93 13.602 2.258 3.508 1.243 8.182-2.269 10.436-1.263.815-2.679 1.201-4.078 1.201z"/><path d="m121.84 329.879c-3.417 0-6.515-2.336-7.341-5.803-.967-4.06 1.537-8.132 5.595-9.1 15.405-3.677 42.102-2.045 43.232-1.977 4.163.263 7.324 3.848 7.064 8.011-.26 4.167-3.881 7.333-8.011 7.067-.254-.018-25.576-1.552-38.78 1.593-.591.142-1.181.209-1.759.209z"/><path d="m181.413 360.147c-4.965 0-9.778-1.938-13.543-5.455l-2.644-2.47c-3.045-2.85-3.207-7.63-.356-10.678 2.847-3.042 7.627-3.21 10.678-.357l2.638 2.466c1.935 1.812 4.514 1.815 6.462-.003l2.632-2.464c3.048-2.844 7.831-2.686 10.679.357 2.85 3.048 2.688 7.828-.357 10.678l-2.638 2.467c-3.772 3.52-8.585 5.459-13.551 5.459z"/><path d="m180.92 405.666c-3.847 0-15.762-1.213-26.57-15.036-2.239-2.868-2.119-6.922.289-9.652.879-1.001 9.106-9.805 26.09-11.348.454-.042.914-.042 1.369 0 16.983 1.544 25.21 10.347 26.092 11.348 2.407 2.726 2.528 6.783.289 9.652-11.328 14.482-23.903 15.119-27.066 15.027-.145.007-.31.009-.493.009zm.49-15.113c.229 0 .475.003.64.018.074-.003 3.824.044 8.657-3.464-2.369-1.018-5.452-1.948-9.294-2.363-3.836.416-6.916 1.345-9.288 2.363 4.833 3.503 8.622 3.482 8.849 3.453.117-.004.273-.007.436-.007z"/><path d="m181.416 438.312c-11.776 0-23.36-3.951-32.616-11.126-65.327-50.648-64.386-112.641-62.539-130.436.431-4.146 4.116-7.196 8.292-6.733 4.148.428 7.164 4.143 6.733 8.291-2.104 20.295-.781 72.317 56.77 116.94 6.621 5.131 14.918 7.958 23.36 7.958 4.172 0 7.553 3.381 7.553 7.554 0 4.171-3.381 7.552-7.553 7.552z"/><path d="m181.98 438.312c-4.173 0-7.554-3.381-7.554-7.553s3.381-7.554 7.554-7.554c8.445 0 16.742-2.827 23.366-7.958 12.561-9.741 23.26-20.543 31.802-32.103 2.479-3.352 7.208-4.058 10.563-1.587 3.355 2.479 4.066 7.208 1.588 10.563-9.365 12.676-21.038 24.476-34.696 35.066-9.261 7.175-20.845 11.126-32.623 11.126z"/><path d="m130.609 475c-1.738 0-3.485-.596-4.911-1.815-3.169-2.715-3.537-7.483-.825-10.651 14.591-17.04 9.689-49.426 9.639-49.75-.345-2.184.283-4.412 1.717-6.091 2.659-3.107 7.843-3.434 10.864-.684 3.73 3.39 7.314 6.412 10.962 9.239 6.618 5.131 14.915 7.958 23.357 7.958 4.173 0 7.554 3.381 7.554 7.554 0 4.172-3.381 7.553-7.554 7.553-11.097 0-22.023-3.508-30.991-9.917-.33 13.278-3.119 31.171-14.071 43.964-1.495 1.743-3.61 2.64-5.741 2.64z"/><path d="m232.789 475c-2.13 0-4.246-.897-5.742-2.641-10.952-12.794-13.741-30.686-14.071-43.964-8.973 6.409-19.896 9.917-30.994 9.917-4.172 0-7.554-3.381-7.554-7.553s3.382-7.554 7.554-7.554c8.442 0 16.739-2.827 23.364-7.958 3.644-2.827 7.229-5.848 10.958-9.239 3.025-2.75 8.185-2.419 10.844.684 1.434 1.679 2.083 3.907 1.738 6.091-.051.324-4.951 32.71 9.639 49.75 2.712 3.168 2.343 7.937-.826 10.651-1.425 1.22-3.172 1.816-4.91 1.816z"/><path d="m426.843 475h-346.739c-4.173 0-7.554-3.381-7.554-7.554 0-4.172 3.381-7.553 7.554-7.553h346.739c4.172 0 7.554 3.381 7.554 7.553-.001 4.173-3.382 7.554-7.554 7.554z"/><path d="m66.828 434.512c-.17 0-.342-.006-.516-.017-4.158-.28-7.303-3.874-7.028-8.032.03-.499 1.974-35.638-18.184-62.408-11.687-15.521-15.571-37.583-10.652-60.523 4.264-19.89 14.57-36.461 26.898-43.242 16.193-8.905 16.193-8.905 23.558-27.045 1.478-3.647 3.216-7.931 5.369-13.025 17.123-40.544 56.401-61.329 100.094-52.969 24.255 4.651 39.952 25.753 44.201 59.423.936 7.436-1.451 14.853-6.553 20.351-5.14 5.538-12.443 8.462-19.987 8.126-21.546-1.059-62.689 1.027-96.09 27.185-3.29 2.576-8.032 1.997-10.604-1.287-2.573-3.286-1.998-8.034 1.286-10.604 37.269-29.188 82.505-31.575 106.164-30.383 3.05.133 6.058-1.053 8.156-3.307 2.085-2.248 3.021-5.158 2.641-8.191-2.379-18.854-9.87-42.221-32.056-46.475-44.182-8.451-72.523 18.415-83.334 44.012-2.119 5.019-3.833 9.239-5.288 12.826-8.721 21.483-9.867 23.381-30.273 34.602-8.468 4.66-16.09 17.681-19.409 33.172-4.001 18.657-1.104 36.251 7.949 48.269 23.659 31.418 21.301 70.836 21.188 72.5-.271 3.984-3.59 7.042-7.53 7.042z"/><path d="m311.379 262.609c-.19 0-.375-.006-.564-.021-4.161-.307-7.285-3.927-6.979-8.088 1.171-15.895.693-30.498-17.048-48.239-32.767-32.773-67.395-5.928-68.853-4.771-3.267 2.59-8.014 2.056-10.613-1.213-2.597-3.266-2.054-8.018 1.213-10.614 16.001-12.714 55.18-27.842 88.935 5.916 22.222 22.215 22.714 42.634 21.434 60.03-.293 3.972-3.606 7-7.525 7z"/><path d="m262.605 285.399c-2.39 0-4.741-1.13-6.208-3.242-21.126-30.406-56.457-27.385-57.944-27.244-4.128.407-7.837-2.629-8.25-6.772-.413-4.139 2.594-7.834 6.733-8.259 1.835-.18 45.564-4.211 71.865 33.652 2.381 3.425 1.534 8.135-1.891 10.513-1.316.915-2.817 1.352-4.305 1.352z"/><path d="m389.252 142.884c-4.172 0-7.554-3.381-7.554-7.554v-12.502c0-4.172 3.382-7.554 7.554-7.554s7.554 3.382 7.554 7.554v12.502c0 4.173-3.382 7.554-7.554 7.554z"/><path d="m411.647 150.839c-1.714 0-3.438-.578-4.854-1.768-3.195-2.682-3.611-7.447-.929-10.643l8.035-9.575c2.682-3.192 7.45-3.608 10.642-.929 3.196 2.682 3.611 7.447.929 10.642l-8.034 9.575c-1.493 1.78-3.634 2.698-5.789 2.698z"/><path d="m423.683 171.331c-3.596 0-6.783-2.576-7.43-6.24-.726-4.11 2.019-8.026 6.126-8.751l12.31-2.172c4.11-.72 8.029 2.018 8.751 6.126.726 4.11-2.018 8.025-6.125 8.751l-12.31 2.171c-.446.079-.885.115-1.322.115z"/><path d="m430.566 201.017c-1.283 0-2.582-.325-3.771-1.012l-10.829-6.25c-3.612-2.083-4.851-6.704-2.764-10.318 2.086-3.617 6.713-4.845 10.318-2.764l10.829 6.25c3.611 2.083 4.851 6.703 2.764 10.318-1.397 2.422-3.938 3.776-6.547 3.776z"/><path d="m405.932 221.934c-3.086 0-5.981-1.906-7.099-4.972l-4.276-11.746c-1.425-3.921.596-8.256 4.514-9.684 3.925-1.413 8.256.599 9.684 4.515l4.276 11.746c1.425 3.921-.596 8.256-4.514 9.684-.853.309-1.727.457-2.585.457z"/><path d="m373.616 222.117c-.859 0-1.732-.147-2.585-.457-3.918-1.428-5.94-5.763-4.514-9.684l4.276-11.746c1.431-3.916 5.774-5.925 9.684-4.515 3.918 1.429 5.94 5.763 4.514 9.684l-4.276 11.746c-1.117 3.066-4.015 4.972-7.099 4.972z"/><path d="m348.746 201.483c-2.608 0-5.149-1.354-6.547-3.776-2.086-3.612-.847-8.233 2.764-10.319l10.829-6.252c3.609-2.089 8.232-.847 10.318 2.764 2.086 3.612.847 8.233-2.764 10.319l-10.829 6.252c-1.189.688-2.488 1.012-3.771 1.012z"/><path d="m355.27 171.859c-.437 0-.877-.035-1.322-.115l-12.313-2.172c-4.107-.723-6.851-4.641-6.125-8.752.726-4.11 4.632-6.857 8.751-6.126l12.313 2.172c4.107.723 6.851 4.641 6.125 8.751-.646 3.666-3.833 6.242-7.429 6.242z"/><path d="m366.986 151.184c-2.154 0-4.296-.918-5.789-2.697l-8.034-9.574c-2.682-3.196-2.266-7.961.929-10.643 3.202-2.673 7.961-2.263 10.643.929l8.034 9.575c2.682 3.196 2.267 7.961-.929 10.643-1.416 1.186-3.139 1.767-4.854 1.767z"/><path d="m113.537 53.477c-4.173 0-7.554-3.381-7.554-7.554v-13.37c0-4.172 3.381-7.554 7.554-7.554 4.172 0 7.554 3.382 7.554 7.554v13.37c0 4.173-3.382 7.554-7.554 7.554z"/><path d="m137.484 61.987c-1.715 0-3.438-.578-4.854-1.768-3.195-2.682-3.612-7.447-.929-10.642l8.595-10.242c2.688-3.196 7.453-3.606 10.643-.929 3.195 2.682 3.611 7.447.929 10.642l-8.595 10.242c-1.492 1.779-3.635 2.697-5.789 2.697z"/><path d="m150.357 83.901c-3.596 0-6.783-2.576-7.43-6.241-.726-4.11 2.019-8.028 6.126-8.751l13.168-2.322c4.123-.731 8.026 2.016 8.752 6.126s-2.019 8.028-6.126 8.751l-13.168 2.322c-.445.079-.884.115-1.322.115z"/><path d="m157.719 115.653c-1.283 0-2.582-.325-3.771-1.012l-11.577-6.686c-3.615-2.086-4.852-6.707-2.765-10.318 2.089-3.611 6.716-4.845 10.318-2.764l11.578 6.686c3.615 2.086 4.851 6.707 2.765 10.318-1.399 2.421-3.94 3.776-6.548 3.776z"/><path d="m131.373 138.024c-3.086 0-5.984-1.906-7.099-4.975l-4.571-12.567c-1.425-3.922.596-8.256 4.517-9.681 3.927-1.414 8.259.596 9.681 4.517l4.571 12.567c1.425 3.922-.596 8.255-4.518 9.681-.852.311-1.722.458-2.581.458z"/><path d="m96.81 138.219c-.859 0-1.732-.148-2.585-.458-3.918-1.428-5.94-5.763-4.514-9.684l4.573-12.563c1.431-3.918 5.772-5.93 9.684-4.514 3.919 1.428 5.94 5.763 4.515 9.683l-4.574 12.564c-1.118 3.066-4.016 4.972-7.099 4.972z"/><path d="m70.213 116.148c-2.608 0-5.148-1.354-6.547-3.777-2.086-3.614-.847-8.232 2.765-10.318l11.578-6.683c3.609-2.086 8.232-.853 10.318 2.765 2.086 3.615.847 8.232-2.765 10.318l-11.578 6.684c-1.19.687-2.488 1.011-3.771 1.011z"/><path d="m77.188 84.468c-.436 0-.876-.036-1.322-.116l-13.168-2.322c-4.108-.722-6.851-4.641-6.126-8.751.726-4.107 4.63-6.852 8.752-6.125l13.168 2.321c4.108.723 6.851 4.641 6.126 8.752-.647 3.665-3.833 6.241-7.43 6.241z"/><path d="m89.719 62.355c-2.154 0-4.296-.918-5.789-2.7l-8.593-10.241c-2.681-3.196-2.266-7.961.933-10.64 3.192-2.68 7.958-2.263 10.64.932l8.593 10.242c2.681 3.196 2.266 7.961-.933 10.64-1.414 1.189-3.137 1.767-4.851 1.767z"/><path d="m249.776 129.021c-4.172 0-7.554-3.381-7.554-7.553v-13.369c0-4.173 3.382-7.554 7.554-7.554 4.173 0 7.554 3.381 7.554 7.554v13.369c-.001 4.172-3.382 7.553-7.554 7.553z"/><path d="m273.726 137.531c-1.714 0-3.438-.578-4.851-1.767-3.198-2.679-3.615-7.444-.933-10.64l8.593-10.242c2.685-3.201 7.456-3.611 10.64-.933 3.198 2.68 3.614 7.445.932 10.64l-8.592 10.242c-1.493 1.782-3.635 2.7-5.789 2.7z"/><path d="m286.599 159.446c-3.596 0-6.783-2.576-7.429-6.24-.726-4.11 2.018-8.026 6.125-8.752l13.166-2.322c4.125-.732 8.026 2.015 8.751 6.125.726 4.11-2.018 8.029-6.126 8.751l-13.165 2.322c-.445.08-.884.116-1.322.116z"/><path d="m213.427 160.012c-.437 0-.877-.035-1.322-.115l-13.165-2.322c-4.108-.723-6.851-4.641-6.126-8.751.726-4.108 4.656-6.851 8.751-6.126l13.166 2.322c4.107.726 6.851 4.641 6.126 8.751-.646 3.665-3.833 6.241-7.43 6.241z"/><path d="m225.961 137.9c-2.154 0-4.296-.918-5.789-2.696l-8.595-10.242c-2.682-3.196-2.266-7.961.929-10.643 3.198-2.676 7.964-2.266 10.643.929l8.595 10.242c2.682 3.196 2.266 7.961-.93 10.643-1.415 1.186-3.139 1.767-4.853 1.767z"/></g></svg>