<svg id="Icon_Template" viewBox="0 0 216.03 216.03" xmlns="http://www.w3.org/2000/svg" data-name="Icon Template"><g fill="none"><path d="m36.88 138.7c7.91 0 7.91 8.54 15.81 8.54s7.9-8.54 15.8-8.54 7.9 8.54 15.81 8.54 7.9-8.54 15.8-8.54 7.9 8.54 15.81 8.54 7.9-8.54 15.8-8.54 7.91 8.54 15.81 8.54 7.91-8.54 15.81-8.54c4.88 0 6.75 3.24 9.32 5.73a11.86 11.86 0 0 0 1.26 1.09" stroke="#000" stroke-linejoin="round" stroke-width="2"/><path d="m101 99.41 4.35-2.85 4.32 7.21a1.39 1.39 0 0 1 -.43 1.89l-1.44 1a1.41 1.41 0 0 1 -1.91-.36z" stroke="#000" stroke-linejoin="round" stroke-width="2"/><path d="m82.03 79.25 12.32-8.07" stroke="#000" stroke-linejoin="round" stroke-width="2"/><path d="m68.49 36 4.63-3a1.93 1.93 0 1 1 2.12 3.22l-7.24 4.78 21.1 32.15a.9.9 0 0 1 -.26 1.24l-1.63 1.07a.9.9 0 0 1 -1.21-.26l-21.13-32.2-7.24 4.75a1.93 1.93 0 0 1 -2.11-3.23l10.3-6.75" stroke="#000" stroke-linejoin="round" stroke-width="2"/><path d="m81 77.43 13.28 20.44a5 5 0 0 0 6.84 1.43l4-2.63a4.94 4.94 0 0 0 1.43-6.85l-28.67-44 2.66-1.74a1 1 0 1 0 -1.14-1.74l-7.24 4.74 16.93 26a.9.9 0 0 1 -.26 1.24l-1.63 1.07a.9.9 0 0 1 -1.2-.19l-16.93-26-7.24 4.74a1 1 0 0 0 -.3 1.44 1 1 0 0 0 1.43.3l2.67-1.74 9.84 15.06" stroke="#000" stroke-linejoin="round" stroke-width="2"/><path d="m76.87 71.18 2.63 4.03" stroke="#000" stroke-linejoin="round" stroke-width="2"/><path d="m108.88 106.8 6.08 9.29" stroke="#000" stroke-linejoin="round" stroke-width="2"/><path d="m105.71 183.31a9 9 0 0 0 .19-1.81 9.12 9.12 0 0 0 -9.09-9.09h-9.09a9.1 9.1 0 0 0 -8.18 5.18m-23-15a9.06 9.06 0 0 0 -8.48-12.3h-2m90.88 27.58a9.11 9.11 0 0 0 -8.33-5.48h-9.09a9.11 9.11 0 0 0 -9.08 9.09 8.64 8.64 0 0 0 .19 1.84m60.54-33h-3.17a9.06 9.06 0 0 0 -8.13 13.1m-24.11 5.07h9.08a9.09 9.09 0 1 0 0-18.17h-9.08a9.11 9.11 0 0 0 -9.09 9.08m-23.16-9.08a9.09 9.09 0 0 0 0 18.17h9.09a9.09 9.09 0 0 0 0-18.17h-5.19m-45.23 9.08a9.12 9.12 0 0 0 9.09 9.09h9.08a9.09 9.09 0 1 0 0-18.17h-9.12" stroke="#000" stroke-linejoin="round" stroke-width="2"/><path d="m115.4 143c-2.26 0-6.05-1-6.05-8.5 0-4.15 3.17-11.77 6.05-15.83 2.89 4.06 6.06 11.68 6.06 15.83 0 7.5-3.79 8.5-6.06 8.5z" stroke="#000" stroke-linejoin="round" stroke-width="2"/><path d="m131.71 134c-3.34 0-5.27 1.53-7 3.29h14c-1.71-1.77-3.65-3.29-7-3.29z"/><path d="m68.49 134c-3.34 0-5.27 1.53-7 3.29h14c-1.73-1.77-3.66-3.29-7-3.29z"/><path d="m100.1 134c-3.34 0-5.27 1.53-7 3.29h14c-1.73-1.77-3.65-3.29-7-3.29z"/><path d="m163.33 134c-3.34 0-5.27 1.53-7 3.29h14c-1.73-1.77-3.65-3.29-7-3.29z"/><g stroke="#000" stroke-linejoin="round" stroke-width="2"><path d="m179.14 137.28h-8.82c2.33 2.41 4.26 5.25 8.82 5.25"/><path d="m43.86 137.28c2.34 2.41 4.27 5.25 8.83 5.25s6.49-2.84 8.82-5.25"/><path d="m147.52 142.53c4.56 0 6.5-2.84 8.83-5.25h-17.65"/><path d="m93.12 137.28h-17.65c2.33 2.41 4.27 5.25 8.83 5.25"/><path d="m145 124.76h-26.23a32.58 32.58 0 0 1 2.59 8.37h57.78"/><path d="m179.14 124.76h-21.53"/><path d="m73.1 133.13h36.35a32.19 32.19 0 0 1 2.59-8.37h-75.16"/><path d="m36.88 133.13h30.39"/><circle cx="69" cy="145.22" r="1.74"/><circle cx="100.1" cy="145.22" r="1.74"/><circle cx="91.39" cy="167.39" r="1.74"/><circle cx="123.69" cy="167.39" r="1.74"/><circle cx="131.2" cy="145.22" r="1.74"/><circle cx="162.3" cy="145.22" r="1.74"/></g></g></svg>