<svg id="Layer_3" enable-background="new 0 0 100 100" viewBox="0 0 100 100" xmlns="http://www.w3.org/2000/svg"><path d="m89.572 68.411c-.773-.508-1.815-.293-2.325.481-.098.147-10.042 14.717-37.247 14.717-10.483 0-20.038-3.923-26.887-7.763v-3.443c7.052 4.041 16.454 7.845 26.887 7.845 21.778 0 39.095-16.574 39.822-17.28.326-.316.509-.751.509-1.206 0-.454-.184-.889-.509-1.205-.727-.705-18.043-17.279-39.822-17.279-10.433 0-19.836 3.804-26.887 7.845v-2.804c0-.364-.118-.717-.337-1.009l-3.233-4.31c.623-.54.787-1.469.326-2.192-.398-.611-1.122-.88-1.798-.718v-6.894c0-.01-.003-.02-.003-.03 0-.041.006-.08.003-.122-.005-.056-.021-.108-.031-.162-.003-.015-.005-.03-.009-.045-.02-.091-.048-.18-.082-.265-.007-.019-.015-.037-.023-.056-.034-.076-.074-.147-.118-.217-.018-.026-.035-.053-.053-.079-.04-.056-.084-.107-.13-.157-.032-.034-.064-.068-.099-.1-.039-.036-.081-.069-.123-.102-.047-.035-.096-.069-.147-.1-.038-.024-.079-.045-.12-.066-.055-.027-.112-.052-.17-.074-.048-.018-.098-.033-.149-.046-.049-.013-.099-.024-.15-.033-.074-.012-.15-.02-.227-.023-.017 0-.032-.005-.049-.005-.01 0-.02.003-.03.003-.041 0-.08-.006-.122-.003-.057.005-.11.021-.165.032-.014.003-.027.005-.04.008-.095.02-.188.049-.276.086-.013.005-.026.01-.039.016-.086.037-.168.082-.246.134-.013.009-.026.017-.04.026-.075.052-.145.11-.21.173-.013.012-.025.024-.037.036-.063.065-.12.134-.172.208-.01.014-.02.028-.029.042-.051.077-.095.159-.133.244-.006.013-.012.025-.017.038-.037.09-.066.184-.087.282-.002.009-.004.019-.007.029-.019.1-.03.203-.031.309 0 .006-.002.011-.002.017v.151 7.691l-2.346 3.127c-.164.072-.322.163-.462.289-.311.28-.484.651-.532 1.036l-1.366 1.821c-.218.292-.337.645-.337 1.009v3.361 10.083 26.888c0 .928.752 1.68 1.681 1.68.928 0 1.68-.752 1.68-1.68v-15.321-4.294-3.568-2.203-3.003-2.203-3.958-.74h1.393 5.033.296v1.851 2.05 9.003 2.05 2.044 3.487 3.997 10.807c0 .928.752 1.68 1.68 1.68s1.681-.752 1.681-1.68v-8.922c7.052 3.728 16.458 7.243 26.891 7.243 29.145 0 39.627-15.576 40.059-16.239.506-.777.287-1.812-.487-2.32zm-66.459-13.325c3.843-2.345 8.543-4.715 13.784-6.347-3.324 3.344-5.381 7.949-5.381 13.024 0 5.077 2.058 9.681 5.381 13.025-5.24-1.632-9.94-4.003-13.784-6.347zm63.02 6.677c-3.219 2.762-11.914 9.563-23.029 13.025 3.324-3.344 5.382-7.948 5.382-13.025 0-5.076-2.058-9.681-5.382-13.024 11.115 3.461 19.81 10.262 23.029 13.024zm-21.008 0c0 8.339-6.785 15.125-15.124 15.125s-15.124-6.785-15.124-15.125 6.784-15.124 15.123-15.124 15.125 6.785 15.125 15.124zm-46.062-11.764h-1.191-4.842v-1.12l3.361-4.482 1.788 2.384 1.573 2.098v.617.503zm57.825-6.57s0 0-.017 0c.857.403 1.21 1.395.823 2.235-.285.622-.891.975-1.529.975-.236 0-.47-.051-.706-.152-.84-.403-1.21-1.395-.806-2.235.386-.841 1.378-1.21 2.235-.823zm-18.318-3.95c-.1.84-.84 1.462-1.663 1.462-.068 0-.151 0-.218-.017-.925-.117-1.563-.958-1.446-1.865.101-.924.959-1.58 1.866-1.462.923.118 1.579.959 1.461 1.882zm12.957 3.496c-.235.689-.891 1.126-1.58 1.126-.185 0-.369-.034-.554-.101-.874-.319-1.345-1.277-1.026-2.151.302-.874 1.261-1.328 2.152-1.025.874.319 1.328 1.277 1.008 2.151zm-39.491-1.126c.336.874-.118 1.832-.975 2.168-.202.067-.404.101-.589.101-.689 0-1.328-.42-1.58-1.093-.319-.874.117-1.848.991-2.167.875-.32 1.833.117 2.153.991zm6.487-1.815c.218.907-.337 1.815-1.227 2.051-.135.034-.269.049-.404.049-.756-.016-1.445-.521-1.63-1.277-.235-.908.319-1.815 1.227-2.05.89-.218 1.798.336 2.034 1.227zm45.069 8.873c-.319.538-.874.84-1.462.84-.286 0-.571-.067-.84-.218-.807-.47-1.075-1.496-.605-2.302.471-.807 1.496-1.075 2.303-.622.789.47 1.076 1.495.604 2.302zm-18.451-8.016c-.185.756-.874 1.278-1.63 1.278-.135 0-.269-.018-.404-.05-.89-.22-1.445-1.127-1.227-2.035.218-.89 1.126-1.445 2.017-1.227.909.219 1.462 1.127 1.244 2.034zm-13.259-2.067c0 .925-.756 1.68-1.68 1.68 0 0 0 0-.016 0-.924 0-1.664-.756-1.664-1.697 0-.924.757-1.664 1.681-1.664.923 0 1.679.757 1.679 1.681zm37.257 13.897c-.32.454-.84.689-1.361.689-.337 0-.689-.101-.992-.337-.739-.537-.908-1.596-.353-2.335.538-.756 1.597-.924 2.352-.37.74.555.908 1.598.354 2.353zm-43.979-13.695c.118.908-.538 1.747-1.462 1.865-.067.017-.134.017-.202.017-.84 0-1.563-.622-1.664-1.478-.117-.925.538-1.765 1.462-1.883.908-.101 1.748.555 1.866 1.479zm-19.359 5.343c.42.823.085 1.832-.739 2.252-.252.118-.504.185-.756.185-.605 0-1.21-.353-1.496-.94-.42-.824-.084-1.832.739-2.252.84-.421 1.849-.084 2.252.755zm45.726-8.116c-.235.69-.891 1.126-1.58 1.126-.185 0-.369-.034-.554-.101-.874-.319-1.345-1.277-1.026-2.151.302-.874 1.278-1.328 2.152-1.025.874.32 1.328 1.277 1.008 2.151zm12.065 5.931c-.319.538-.874.84-1.462.84-.286 0-.571-.067-.84-.235-.789-.453-1.075-1.479-.605-2.286.471-.807 1.496-1.075 2.303-.621.789.471 1.076 1.496.604 2.302zm-25.022-9.427c-.1.84-.84 1.462-1.663 1.462-.068 0-.151 0-.218-.018-.925-.117-1.563-.958-1.446-1.865.101-.924.941-1.58 1.866-1.462.923.119 1.579.959 1.461 1.883zm30.569 13.242c-.32.454-.84.689-1.361.689-.337 0-.689-.117-.992-.336-.739-.537-.908-1.596-.353-2.335.554-.757 1.597-.907 2.352-.37.74.555.908 1.596.354 2.352zm-23.998-11.83c-.185.757-.874 1.278-1.63 1.278-.135 0-.269-.017-.404-.05-.89-.219-1.445-1.126-1.227-2.034.218-.89 1.126-1.445 2.017-1.227.909.218 1.462 1.126 1.244 2.033zm-21.443 0c-.067 0-.134.017-.202.017-.84 0-1.563-.621-1.68-1.478-.101-.924.555-1.765 1.478-1.882.907-.101 1.748.554 1.866 1.478.118.907-.538 1.747-1.462 1.865zm33.996 4.773c-.285.622-.891.975-1.529.975-.236 0-.47-.051-.706-.152-.84-.403-1.21-1.395-.806-2.235.387-.84 1.395-1.209 2.218-.807.857.387 1.21 1.379.823 2.219zm-25.812-6.84c0 .924-.756 1.68-1.68 1.68 0 0 0 0-.016 0-.924 0-1.664-.756-1.664-1.697 0-.924.757-1.664 1.681-1.664.923 0 1.679.757 1.679 1.681zm-26.82 7.797c-.252.118-.504.185-.756.185-.622 0-1.21-.353-1.496-.941-.42-.823-.084-1.832.739-2.252.84-.42 1.849-.084 2.252.757.42.823.084 1.831-.739 2.251zm6-2.604c-.202.068-.404.101-.589.101-.689 0-1.328-.42-1.58-1.093-.319-.874.117-1.848.991-2.167.874-.32 1.831.118 2.152.992.336.873-.118 1.831-.974 2.167zm6.234-1.932c-.135.034-.269.05-.404.05-.756 0-1.445-.521-1.63-1.277-.235-.908.319-1.815 1.227-2.05.89-.218 1.797.337 2.033 1.243.219.891-.336 1.798-1.226 2.034zm-14.335-1.849c-.74 0-1.428-.487-1.613-1.243-.235-.907.302-1.815 1.193-2.05s1.815.285 2.05 1.193c.235.89-.302 1.815-1.193 2.05-.151.033-.285.05-.437.05zm6.436-1.916c-.706 0-1.361-.454-1.58-1.159-.302-.874.185-1.832 1.059-2.118.891-.285 1.832.186 2.134 1.076.285.874-.202 1.832-1.075 2.118-.185.049-.353.083-.538.083zm-.487-15.125c-.168-.403-.185-.874 0-1.276.168-.42.487-.74.891-.907.84-.353 1.865.067 2.202.89.001.002.001.003.002.005.366.856-.037 1.845-.893 2.197-.218.084-.437.135-.656.135-.67 0-1.273-.402-1.543-1.037-.001-.003-.003-.005-.003-.007zm-19.191 7.747c-.202-.806.218-1.613.975-1.932l12.923-5.411c.823-.353 1.846.066 2.183.905.001 0 .001.001.001.002.185.404.185.857.017 1.278-.168.42-.504.739-.908.907l-3.462 1.462 20.183-1.445c.84 0 2-.068 3.209-.118 1.513-.084 3.226-.168 4.824-.168 1.26 0 2.739.051 4.05.32l.05.017 32.92 8.016-1.227-10.066-27.845-4.083c-6.52-1.361-13.411-1.126-19.897.706l-.404.168c-.84.352-1.848-.051-2.202-.891 0-.001 0-.002-.001-.002-.167-.42-.184-.872-.016-1.275.168-.42.504-.756.907-.925l.706-.285c7.008-2 14.469-2.269 21.544-.789l28.955 4.234c.757.118 1.345.706 1.428 1.462l1.681 13.763c.067.538-.135 1.076-.537 1.446-.32.285-.723.436-1.126.436-.135 0-.27-.016-.404-.05l-35.257-8.588c-.723-.167-1.882-.252-3.243-.252h-.134c-1.446 0-2.992.085-4.504.152-1.261.066-2.453.134-3.445.134l-30.199 2.168c-.821.065-1.561-.489-1.745-1.296zm36.803 26.303c-.668.207-1.138.805-1.181 1.503-.042.698.35 1.349.989 1.636 1.209.543 1.99 1.744 1.99 3.06 0 1.854-1.507 3.361-3.361 3.361-1.316 0-2.517-.782-3.06-1.99-.287-.638-.952-1.047-1.636-.989-.698.043-1.296.513-1.503 1.181-.347 1.125-.524 2.295-.524 3.478 0 6.487 5.277 11.763 11.763 11.763 6.487 0 11.763-5.277 11.763-11.763s-5.277-11.763-11.763-11.763c-1.182-.001-2.352.176-3.477.523zm3.478 19.642c-4.365 0-7.963-3.346-8.365-7.608.995.57 2.136.887 3.324.887 3.706 0 6.722-3.016 6.722-6.722 0-1.188-.317-2.33-.887-3.324 4.262.402 7.608 4 7.608 8.365.001 4.632-3.769 8.402-8.402 8.402z"/></svg>