<svg id="&#x421;&#x43B;&#x43E;&#x439;_1" viewBox="0 0 2046.43 2023.31" xmlns="http://www.w3.org/2000/svg"><g fill="none" stroke="#000" stroke-linecap="round" stroke-linejoin="round" stroke-width="31.31"><path d="m435.89 1236.29 66.65 38.75"/><path d="m733.84 1368.05-19.6 69.76"/><path d="m847.54 1647.09h90.17"/><path d="m1809.55 2183.91c7.84 3.88 58.81 15.5 58.81 15.5" transform="translate(-726.78 -738.35)"/><path d="m1400.33 1294.42 19.6 58.13"/><path d="m1651.24 1294.42-27.45 58.13"/><path d="m1263.11 1662.59 43.12-54.26"/><path d="m494.7 1472.69 15.68 65.88"/><path d="m1474.81 1495.94 58.81 11.63"/><g transform="translate(-726.78 -738.35)"><path d="m2020 1478.29c176.21 7.3 366 22.28 563.36 48.62"/><path d="m916.62 1526.91c.83-.14 241.87-39.27 617-51"/><path d="m1534.81 1318.93c-339.22 12.62-555.31 52-558.7 52.71"/><path d="m2523.7 1371.24c-2.83-.39-5.61-.77-8.46-1.19-169.22-24.67-331.78-39.51-483.68-47.44"/><path d="m1542 1826.71c-21.08-1.33-38.21-6.84-69.61-18.72-184.26-69.76-219.55 54.26-360.68-15.5-131.09-64.79-211.43 14.16-222.21 25.74"/><path d="m2609.1 1833.85c-180.11-107.23-164.44 43.89-364.37-22-157.73-52-148.06 19.06-256 15.21"/></g><ellipse cx="1023.22" cy="1011.65" rx="1007.56" ry="996"/><path d="m1535.12 1315.8s-7.84 69.76 0 186-62.73 302.29 109.77 507.69 348.92-127.89 368.52-275.16-6.85-292.48 18.14-409.77c0 .02-229.84-140.56-496.43-8.76z" transform="translate(-726.78 -738.35)"/><ellipse cx="953.39" cy="705.34" rx="47.05" ry="46.51"/><ellipse cx="1098.45" cy="833.23" rx="47.05" ry="46.51"/><ellipse cx="937.71" cy="965" rx="47.05" ry="46.51"/><ellipse cx="1145.49" cy="1011.51" rx="47.05" ry="46.51"/><ellipse cx="1008.28" cy="1166.53" rx="47.05" ry="46.51"/><ellipse cx="1141.57" cy="639.46" rx="47.05" ry="46.51"/></g></svg>