<?xml version="1.0" encoding="iso-8859-1"?>
<!-- Generator: Adobe Illustrator 19.0.0, SVG Export Plug-In . SVG Version: 6.00 Build 0)  -->
<svg version="1.1" id="Capa_1" xmlns="http://www.w3.org/2000/svg" xmlns:xlink="http://www.w3.org/1999/xlink" x="0px" y="0px"
	 viewBox="0 0 512 512" style="enable-background:new 0 0 512 512;" xml:space="preserve">
<g>
	<g>
		<path d="M331,301.991v38c0,41.355-33.645,75-75,75c-41.355,0-75-33.645-75-75v-38H0v210h512v-210H331z M482,481.991H30v-150h121v8
			c0,57.897,47.103,105,105,105c57.897,0,105-47.103,105-105v-8h121V481.991z"/>
	</g>
</g>
<g>
	<g>
		<path d="M463,158.991c0-16.379-11.312-30.162-26.533-33.958c0.343-1.964,0.533-3.981,0.533-6.042c0-19.299-15.701-35-35-35
			H301.891l17.742-17.741c15.133-15.134,15.132-39.758-0.001-54.891s-39.756-15.134-54.89,0L188.67,87.431l-32.292,16.56H84v150
			h72.378l39,20H365c19.299,0,35-15.701,35-35c0-1.805-0.138-3.579-0.403-5.312C416.73,231.42,430,216.731,430,198.991
			c0-1.712-0.129-3.394-0.368-5.041C448.176,193.094,463,177.742,463,158.991z M285.954,32.572c3.437-3.437,9.029-3.436,12.465,0
			c3.436,3.437,3.436,9.028,0,12.464L259.464,83.99h-24.929L285.954,32.572z M428,163.991H284v30h111c2.757,0,5,2.243,5,5
			c0,2.757-2.243,5-5,5H284v30h81c2.757,0,5,2.243,5,5c0,2.757-2.243,5-5,5H202.622l-39-20H114v-90h49.622l39-20H402
			c2.757,0,5,2.243,5,5c0,2.757-2.243,5-5,5H284v30h144c2.757,0,5,2.243,5,5C433,161.748,430.757,163.991,428,163.991z"/>
	</g>
</g>
<g>
	<g>
		<circle cx="236" cy="150.99" r="15"/>
	</g>
</g>
<g>
	<g>
		<circle cx="275" cy="299.99" r="15"/>
	</g>
</g>
<g>
	<g>
		<circle cx="218" cy="325.99" r="15"/>
	</g>
</g>
<g>
	<g>
		<circle cx="263" cy="371.99" r="15"/>
	</g>
</g>
<g>
	<g>
		<circle cx="206" cy="183.99" r="15"/>
	</g>
</g>
<g>
	<g>
		<circle cx="234" cy="220.99" r="15"/>
	</g>
</g>
<g>
</g>
<g>
</g>
<g>
</g>
<g>
</g>
<g>
</g>
<g>
</g>
<g>
</g>
<g>
</g>
<g>
</g>
<g>
</g>
<g>
</g>
<g>
</g>
<g>
</g>
<g>
</g>
<g>
</g>
</svg>
