<?xml version="1.0"?>
<svg xmlns="http://www.w3.org/2000/svg" viewBox="0 0 100 100"><title/><path d="M93.53,21.43a1,1,0,0,0-1-1.74l-6.09,3.52-12.19-7V9.91a1,1,0,0,0-2,0v6.27l-12.19,7-12.19-7V9.91a1,1,0,1,0-2,0v6.27l-12.19,7L28.07,20a1,1,0,0,0-1,1.74L32.66,25V43.39l-5,2.91V33.14h0v0a7.48,7.48,0,0,0-2.14-5.17l-.28-.27L20.16,23V6a1,1,0,0,0-2,0V23L13.1,27.65a7.49,7.49,0,0,0-2.41,5.49V66h-.62a4.11,4.11,0,1,0,0,8.21h4.65V93H10.49a1,1,0,0,0,0,2H27.57a1,1,0,0,0,0-2h-4V74.22h4.65a4.11,4.11,0,1,0,0-8.21h-.61V48.49a1,1,0,0,0,.43-.13l5.6-3.23,12.19,7V70.61l-5.36,3.1a1,1,0,0,0,.5,1.87,1,1,0,0,0,.5-.14l5.36-3.09,12.19,7V86.3a1,1,0,0,0,2,0V79.39l12.19-7,5.36,3.09a1,1,0,0,0,.5.14,1,1,0,0,0,.51-1.87l-5.36-3.1V52.17l12.19-7,6.09,3.52a1,1,0,0,0,1-1.74l-6.09-3.52V25Zm-79.07,7.7,4.7-4.3,4.7,4.3.21.2a5.41,5.41,0,0,1,1.56,3.81v20H12.69V48.91H14.9a1,1,0,0,0,0-2H12.69v-5H14.9a1,1,0,0,0,0-2H12.69V33.14A5.47,5.47,0,0,1,14.46,29.13ZM21.6,93H16.73V74.22H21.6Zm8.75-22.88a2.1,2.1,0,0,1-2.1,2.1H10.07a2.1,2.1,0,0,1,0-4.2H28.25A2.1,2.1,0,0,1,30.35,70.11ZM12.69,66V55.13H25.63V66ZM67.28,55V67.75l-7.23,4.18-7.23-4.18V55l7.23-4.17Zm-7.22-6.34h0A4.72,4.72,0,1,1,64.77,44,4.72,4.72,0,0,1,60.05,48.69Zm-6-8.16-7.23,4.18-7.23-4.18V27.81l7.23-4.17,7.23,4.17Zm31.34,2.86-12.19,7-6.93-4A6.69,6.69,0,0,0,66.78,44a5.48,5.48,0,0,0,0-.7l6,3.46a1,1,0,0,0,1,0L82,42a1,1,0,0,0,.5-.87V27.23a1,1,0,0,0-.5-.86l-8.23-4.76a1,1,0,0,0-1,0l-8.23,4.76a1,1,0,0,0-.5.86V38.54a6.59,6.59,0,0,0-3-1.22V25l12.19-7,12.19,7ZM66,40.53V27.81l7.23-4.17,7.24,4.17V40.53l-7.24,4.18Zm-7-3.21a6.56,6.56,0,0,0-2.95,1.22V27.23a1,1,0,0,0-.5-.86l-8.24-4.76a1,1,0,0,0-1,0l-8.24,4.76a1,1,0,0,0-.5.86V41.11a1,1,0,0,0,.5.87l8.24,4.75a1,1,0,0,0,.5.14,1,1,0,0,0,.5-.14l6-3.46c0,.23,0,.47,0,.7a6.69,6.69,0,0,0,.47,2.46l-6.93,4L44.28,49l-9.61-5.56V25l12.19-7,12.19,7Zm1,40.33-12.19-7V52.17l6.94-4a6.73,6.73,0,0,0,2.52,1.95l-6,3.46a1,1,0,0,0-.5.87V68.33a1,1,0,0,0,.5.87L59.55,74a1,1,0,0,0,.5.14,1,1,0,0,0,.5-.14l8.24-4.75a1,1,0,0,0,.5-.87V54.45a1,1,0,0,0-.5-.87l-6-3.46a6.89,6.89,0,0,0,2.52-1.95l6.93,4V70.61Z"/></svg>
