<svg id="&#x421;&#x43B;&#x43E;&#x439;_1" enable-background="new 0 0 4000 4000" viewBox="0 0 4000 4000" xmlns="http://www.w3.org/2000/svg"><g fill="#333"><path d="m1903.019 1309.714c6.216 0 12.452-2.184 17.472-6.641 21.375-18.964 48.897-29.41 77.516-29.41 93.455 0 169.489-76.033 169.489-169.489v-20.367h1007.951v20.367c0 93.456 76.033 169.489 169.489 169.489 64.422 0 116.837 52.415 116.837 116.837v155.516h-1382.9c-14.537 0-26.326 11.789-26.326 26.326s11.789 26.326 26.326 26.326h1382.89v1529.195h-1287.133c-14.537 0-26.326 11.789-26.326 26.326s11.79 26.326 26.326 26.326h1287.132v70.361c0 91.005-74.037 165.052-165.052 165.052h-1302.211c-14.537 0-26.326 11.789-26.326 26.326s11.789 26.326 26.326 26.326h1302.211c120.039 0 217.704-97.666 217.704-217.704v-1860.376c0-93.456-76.033-169.489-169.489-169.489-64.422 0-116.837-52.415-116.837-116.837v-20.367h99.978c24.192 0 43.877-19.685 43.877-43.877v-326.872c0-101.618-82.675-184.292-184.283-184.292h-1032.39c-101.619 0-184.292 82.674-184.292 184.292v326.872c0 24.192 19.685 43.877 43.877 43.877h99.978v20.367c0 64.422-52.415 116.837-116.837 116.837-41.505 0-81.449 15.159-112.459 42.681-10.87 9.655-11.868 26.297-2.214 37.167 5.199 5.87 12.433 8.855 19.696 8.855zm120.612-278.559v-318.097c0-72.584 59.056-131.63 131.64-131.63h1032.379c72.584 0 131.64 59.056 131.64 131.63v318.097h-232.863v-169.074c0-14.537-11.79-26.326-26.326-26.326-14.537 0-26.326 11.789-26.326 26.326v169.074h-335.984v-294.735c0-14.537-11.78-26.326-26.326-26.326s-26.326 11.789-26.326 26.326v294.736h-335.984v-169.075c0-14.537-11.789-26.326-26.326-26.326s-26.326 11.789-26.326 26.326v169.074z"/><path d="m3023.093 2872.587c4.971 4.289 11.098 6.394 17.185 6.394 7.392 0 14.744-3.093 19.952-9.131 119.801-138.894 201.863-313.304 228.525-480.826l42.701 80.292c4.734 8.904 13.845 13.973 23.263 13.973 4.17 0 8.41-.998 12.343-3.093 12.837-6.828 17.709-22.769 10.88-35.606l-83.385-156.771c-.089-.158-7.481-12.758-19.724-13.716-.04-.01-12.343-2.302-22.542 7.926.307-.346.267-.316-.297.277l-114.386 123.665c-.681.741-.613.672-.01.02-9.853 10.673-9.201 27.314 1.463 37.177 10.683 9.873 27.334 9.23 37.207-1.452l61.121-66.082c-24.617 158.579-104.04 328.819-217.032 459.807-9.498 11.028-8.273 27.65 2.736 37.146z"/><path d="m2614.832 1779.956c-128.715 0-232.903 40.517-309.667 120.414-87.418 90.985-133.962 232.695-127.707 388.794 4.575 114.287 40.161 236.678 97.626 335.796 69.135 119.238 167.226 203.78 283.677 244.495 18.085 6.325 37.078 9.477 56.072 9.477s37.987-3.162 56.072-9.477c116.451-40.715 214.542-125.256 283.677-244.495 57.366-98.93 92.922-221.054 97.596-335.164 0-.03 0-.05 0-.079.01-.188.02-.376.03-.563 6.255-156.099-40.3-297.799-127.707-388.794-76.767-79.887-180.954-120.404-309.669-120.404zm-271.701 156.9c66.457-69.175 157.867-104.247 271.7-104.247 30.298 0 58.987 2.51 86.054 7.461-5.604 81.587-43.047 149.903-91.104 204.887-.969.938-1.858 1.937-2.668 2.984-35.289 39.707-75.944 72.387-113.734 97.982-99.573 67.446-205.253 104.128-263.834 113.447.406-130.692 41.13-247.094 113.586-322.514zm310.389 882.901c-24.953 8.726-52.435 8.726-77.387 0-216.914-75.836-328.552-310.972-344.521-507.459 72.248-9.971 190.222-54.312 291.307-122.776 33.797-22.887 69.659-51.002 102.824-84.424 60.073 75.845 137.57 124.654 194.688 153.055 61.556 30.605 126.64 50.656 177.523 55.34-16.326 196.241-127.955 430.587-344.434 506.264zm190.36-608.75c-53.917-26.811-127.589-73.345-182.306-145.663 47.01-57.771 83.267-128.34 91.163-212.14 52.04 17.205 96.796 45.132 133.804 83.653 72.713 75.688 113.487 192.653 113.595 323.907-37.146-3.894-92.891-18.244-156.256-49.757z"/><path d="m2752.529 2388.826c-12.521-7.372-28.668-3.192-36.04 9.339s-3.192 28.668 9.328 36.04c20.535 12.086 42.058 16.078 61.556 16.078 36.792 0 66.329-14.23 68.197-15.149 13.044-6.424 18.41-22.205 11.987-35.25s-22.195-18.41-35.25-11.987c-.443.218-45.259 21.247-79.778.929z"/><path d="m2477.134 2388.826c-34.578 20.348-79.443-.771-79.779-.929-13.044-6.424-28.826-1.057-35.25 11.987s-1.057 28.826 11.987 35.25c1.868.919 31.396 15.15 68.197 15.15 19.487 0 41.021-4.003 61.556-16.078 12.531-7.372 16.71-23.51 9.339-36.04-7.382-12.542-23.529-16.722-36.05-9.34z"/><path d="m995.867 2235.435c49.015 0 97.023-11.908 138.894-36.366 12.55-7.333 16.78-23.46 9.447-36.01-7.333-12.56-23.46-16.79-36.011-9.447-86.785 50.705-206.853 34.538-291.988-39.312-10.979-9.526-27.611-8.35-37.137 2.629-8.775 10.109-8.439 25.002.227 34.736l-41.723 24.864c-12.491 7.441-16.582 23.599-9.141 36.089 4.931 8.271 13.667 12.857 22.64 12.857 4.585 0 9.23-1.196 13.45-3.715l60.38-35.981c15.802 9.793 32.216 18.183 49.065 25.111l-24.251 41.604c-7.323 12.56-3.073 28.678 9.487 36.001 4.17 2.431 8.726 3.587 13.232 3.587 9.062 0 17.877-4.684 22.768-13.074l30.131-51.684c23.372 5.384 47.069 8.111 70.53 8.111z"/><path d="m1412.42 2199.069c41.871 24.458 89.868 36.366 138.894 36.366 23.46 0 47.148-2.728 70.529-8.104l30.131 51.684c4.892 8.39 13.706 13.074 22.768 13.074 4.506 0 9.062-1.156 13.232-3.587 12.56-7.323 16.809-23.44 9.487-36.001l-24.26-41.604c16.849-6.927 33.273-15.317 49.075-25.111l60.38 35.981c4.22 2.52 8.864 3.715 13.45 3.715 8.973 0 17.719-4.585 22.64-12.857 7.441-12.491 3.35-28.648-9.141-36.089l-41.722-24.864c8.677-9.734 9.003-24.617.227-34.736-9.526-10.989-26.158-12.165-37.137-2.629-85.135 73.85-205.203 90.017-291.988 39.312-12.55-7.333-28.678-3.103-36.011 9.447-7.344 12.542-3.115 28.67 9.446 36.003z"/><path d="m1029.673 2371.779c-75.806 53.966-112.657 145.139-112.657 278.736 0 14.537 11.789 26.326 26.326 26.326s26.326-11.789 26.326-26.326c0-115.325 29.617-192.465 90.54-235.838 11.839-8.43 14.616-24.874 6.176-36.712-8.428-11.848-24.862-14.616-36.711-6.186z"/><path d="m2659.37 2628.251h-89.077c-14.537 0-26.326 11.789-26.326 26.326s11.789 26.326 26.326 26.326h89.077c14.537 0 26.326-11.789 26.326-26.326s-11.789-26.326-26.326-26.326z"/><path d="m799.39 2389.715c0-14.537-11.789-26.326-26.326-26.326s-26.326 11.79-26.326 26.326c0 88.564 45.675 174.746 47.612 178.373 4.744 8.854 13.825 13.885 23.213 13.885 4.19 0 8.449-1.008 12.402-3.123 12.807-6.858 17.64-22.798 10.801-35.615-.405-.771-41.376-78.415-41.376-153.52z"/><path d="m504.367 3468.699c182.188 0 291.751-102.033 351.598-187.623 59.955-85.767 89.127-180.537 98.575-251.886 64.422 49.648 135.129 88.534 211.607 116.264 12.027 4.437 25.022 8.064 39.667 11.088 13.509 2.816 27.235 4.783 41.031 5.9v55.824c0 14.537 11.789 26.326 26.326 26.326s26.326-11.789 26.326-26.326v-55.756c14.23-1.136 28.273-3.192 41.95-6.167 14.151-3.034 27.67-6.839 40.329-11.375 75.292-27.502 145.762-66.655 209.996-116.214 8.36 63.107 32.275 145.367 79.66 223.08l-49.678 49.677c-37.631 37.631-58.354 87.664-58.354 140.88 0 14.537 11.789 26.326 26.326 26.326s26.326-11.789 26.326-26.326c0-39.153 15.248-75.964 42.928-103.644l64.57-64.57c.069-.069.148-.138.217-.217l414.073-414.073c7.451-7.451 17.363-11.552 27.897-11.552s20.446 4.101 27.897 11.562c14.388 14.388 15.367 37.829 2.234 53.364l-267.995 317.05c-20.526 24.28-31.831 55.172-31.831 86.963 0 9.328-1.571 18.509-4.675 27.304l-31.425 89.058c-4.842 13.707 2.352 28.747 16.068 33.589 2.896 1.028 5.85 1.512 8.755 1.512 10.851 0 21.009-6.76 24.824-17.571l31.425-89.058c5.099-14.438 7.678-29.518 7.678-44.826 0-19.369 6.888-38.185 19.389-52.979l267.984-317.049c30.665-36.278 28.372-91.005-5.218-124.594-17.393-17.393-40.527-26.978-65.133-26.978-24.607 0-47.731 9.576-65.134 26.978l-157.937 157.937v-333.019c0-30.23-13.756-57.297-35.329-75.302 9.803-28.431 18.657-57.751 26.306-87.595 81.162-88.426 125.781-202.683 125.781-322.534v-33.778c0-24.469-5.811-47.76-16.355-68.414 7.263-44.589 10.989-90.471 10.989-136.572 0-219.74-81.004-426.376-228.07-581.852-188.779-246.689-553.757-241.757-554.429-241.698-207.97.543-403.331 86.321-550.298 241.708-147.057 155.486-228.051 362.122-228.051 581.852 0 46.1 3.607 91.618 10.633 135.524-10.88 20.911-16.879 44.589-16.879 69.462v33.778c0 119.851 44.608 234.108 125.77 322.534 36.623 143.331 100.492 276.829 184.955 386.462 33.224 43.135 69.146 82.111 107.607 116.896-2.263 69.581-31.109 175.102-92.487 262.896-52.672 75.332-148.934 165.141-308.442 165.141-14.537 0-26.326 11.789-26.326 26.326.002 14.536 11.813 26.287 26.349 26.287zm1242.198-292.008-36.722 36.722c-48.057-83.287-67.07-169.973-68.819-225.807 37.859-34.182 73.148-72.278 105.532-114.01v303.095zm143.459-143.469-90.807 90.808v-476.488c0-25.032 20.367-45.399 45.408-45.399 6.65 0 19.843 4.655 20.466 4.931 14.774 7.5 24.933 22.808 24.933 40.478zm-590.143-1834.475c0-.227.03-.445.03-.672v-45.102c389.179 14.754 701.495 354.631 701.495 770.364 0 27.956-1.463 55.815-4.319 83.297-10.119-7.214-21.256-13.281-33.283-17.946-18.292-7.096-32.512-22.512-38.975-42.167-46.762-144.685-153.796-334.234-398.142-415.604-135.662-44.994-226.805-169.983-226.805-311.002zm-52.622-45.765v44.47c0 .227-.03.445-.03.672v21.8c0 140.88-91.43 265.86-227.547 311.011-244.188 81.32-351.37 270.88-398.3 415.624-6.325 19.626-20.486 35.002-38.787 42.148-11.74 4.556-22.63 10.445-32.552 17.432-2.747-27.176-4.16-54.856-4.16-82.783-.001-415.762 312.276-755.649 701.376-770.374zm-585.103 1312.302c-1.097-4.387-3.301-8.419-6.404-11.71-74.887-79.294-116.125-182.8-116.125-291.465v-33.777c0-17.758 4.714-34.578 13.183-49.095.533-.761 23.203-35.319 48.877-41.476 33.174-12.955 58.621-40.319 69.798-75.025 43.175-133.152 141.513-307.483 364.81-381.847 111.105-36.851 196.457-119.811 237.211-222.823 40.635 103.101 125.76 186.061 236.579 222.813 223.426 74.413 321.625 248.714 364.692 381.965 11.444 34.815 36.959 62.129 70.005 74.946 20.427 7.916 36.89 22.027 47.721 39.707.445.82.929 1.63 1.463 2.401 8.232 14.368 12.817 30.941 12.817 48.442v33.777c0 108.664-41.238 212.17-116.125 291.465-3.103 3.281-5.307 7.313-6.404 11.69-7.263 29.053-15.703 57.623-25.1 85.303-4.743-.712-9.585-1.077-14.526-1.077-54.065 0-98.06 43.985-98.06 98.06v135.435c-97.3 148.519-229.523 256.511-382.697 312.454-10.327 3.696-21.583 6.868-33.53 9.427-10.08 2.194-20.397 3.755-30.842 4.743v-196.052c67.91-1.255 109.396-8.43 137.738-34.766 10.653-9.892 11.266-26.553 1.364-37.207-9.892-10.653-26.553-11.255-37.206-1.364-14.616 13.578-42.335 19.448-101.895 20.664v-250.019c5.445-1.305 10.831-2.826 16.147-4.339 12.145-3.449 23.619-6.71 33.471-6.71h.267c23.806 0 46.209-10.465 61.487-28.727 15.337-18.331 21.672-42.335 17.373-65.855l-21.326-116.738c-2.619-14.3-16.335-23.777-30.635-21.168-14.299 2.609-23.776 16.325-21.167 30.625l21.326 116.738c2.016 11.048-2.876 18.905-5.969 22.6-3.083 3.686-9.922 9.862-21.188 9.862-.03 0-.069 0-.099 0-17.274 0-33.57 4.635-47.948 8.716-.593.168-1.166.326-1.749.494v-516.175c0-.01 0-.02 0-.04v-327.633c.267-1.492.425-3.024.425-4.585s-.158-3.093-.425-4.595v-142.165c0-14.537-11.789-26.326-26.326-26.326s-26.326 11.789-26.326 26.326v120.958c-81.469 2.955-156.059 19.487-222.032 49.332-78.682 35.596-124.485 80.757-149.053 112.38-8.924 11.483-6.848 28.026 4.635 36.939 4.803 3.735 10.495 5.544 16.138 5.544 7.846 0 15.624-3.498 20.812-10.179 24.824-31.959 119.97-133.31 329.501-141.364v237.805c-49.233-31.998-123.29-48.838-189.006-48.838-14.537 0-26.326 11.789-26.326 26.326s11.789 26.326 26.326 26.326c91.934 0 173.392 35.902 189.006 69.294v510.414c-.306-.089-.593-.168-.899-.257-14.378-4.082-30.674-8.716-48.037-8.716-.03 0-.069 0-.099 0-11.177 0-18.015-6.176-21.099-9.862-3.093-3.696-7.985-11.552-5.969-22.6l21.326-116.738c2.609-14.3-6.868-28.016-21.168-30.625-14.299-2.619-28.016 6.868-30.625 21.168l-21.326 116.738c-4.299 23.52 2.046 47.523 17.383 65.855 15.288 18.272 37.681 28.727 61.408 28.727 9.942-.128 21.563 3.232 33.817 6.71 5.04 1.433 10.139 2.876 15.288 4.131v250.217c-59.56-1.215-87.289-7.085-101.895-20.664-10.653-9.892-27.304-9.28-37.207 1.364-9.902 10.644-9.289 27.304 1.364 37.207 28.342 26.336 69.828 33.51 137.737 34.766v195.993c-10.188-.978-20.338-2.49-30.348-4.576-12.096-2.49-22.6-5.406-32.255-8.973-251.199-91.061-446.372-326.849-522.079-630.696z"/></g></svg>