<svg id="outline" enable-background="new 0 0 512 512" height="512" viewBox="0 0 512 512" width="512" xmlns="http://www.w3.org/2000/svg"><g><path d="m320.2490234 336c-4.4179688 0-8 3.581543-8 8 0 8.8222656-7.1777344 16-16 16s-16-7.1777344-16-16h-16c0 17.6450195 14.3554688 32 32 32 15.2841797 0 28.0996094-10.7705078 31.2558594-25.1206055 9.6972656-3.0830078 16.7441406-12.1738281 16.7441406-22.8793945h-16c0 4.4111328-3.5888671 8-8 8z"/><path d="m216.2490234 384c-4.4111328 0-8-3.5888672-8-8h-16c0 13.2338867 10.7666016 24 24 24s24-10.7661133 24-24h-16c0 4.4111328-3.5888671 8-8 8z"/><path d="m136.2490234 360c-8.8222656 0-16-7.1777344-16-16 0-4.418457-3.5820313-8-8-8-4.4111328 0-8-3.5888672-8-8h-16c0 10.7055664 7.046875 19.7963867 16.7441406 22.8793945 3.1562501 14.3500977 15.9716798 25.1206055 31.2558594 25.1206055 17.6445313 0 32-14.3549805 32-32h-16c0 8.8222656-7.1777343 16-16 16z"/><path d="m144 216h16v16h-16z"/><path d="m120 248h16v16h-16z"/><path d="m104 200h16v16h-16z"/><path d="m484.2558594 203.9868164c-7.5566406-7.5693359-17.609375-11.737793-28.3056641-11.737793h-50.0048828c15.0615234-47.0188599 2.8891602-98.4780884-32.5419922-133.9091797l-.3964844-.3964844c-13.3701172-13.3701172-29-23.8154297-46.4550781-31.0444336-17.4628906-7.2319335-35.9003906-10.8989257-54.8017578-10.8989257h-23.75v16h23.75c16.7900391 0 33.1679688 3.2573242 48.6787109 9.6811523 15.5048828 6.4213867 29.3876953 15.6987305 41.2675781 27.5791016l.3964844.3964844c32.4165039 32.4164429 42.6987305 80.0980835 26.8837891 122.7577515-.1923828.0222778-.3842773.0465088-.5751953.0733032.0742188-19.6850586-5.1728516-39.2900391-15.2929688-56.4257813-12.1201172-20.5235596-30.7651367-36.562439-52.859375-45.5834961v-26.4785156c0-4.418457-3.5820313-8-8-8h-32c-13.0585938 0-24.6738281 6.2915649-31.9790039 16.0010376-.0070801 0-.013916-.0010376-.0209961-.0010376h-64c-.0070801 0-.013916.0010376-.0209961.0010376-7.3051757-9.7094727-18.9206543-16.0010376-31.9790039-16.0010376h-32c-4.4179688 0-8 3.581543-8 8v26.4870605c-27.9394531 11.3964233-49.9650879 33.7903442-60.8447266 62.0979004-5.3237305 13.8531494-7.7143555 28.4429321-7.2351074 42.9157715-5.489746-13.6447143-8.3713378-28.3503418-8.3713378-43.5007324 0-31.1049805 12.1132813-60.3486328 34.1044922-82.3398438l.40625-.4052734c24.0234375-24.0239258 55.9648437-37.2548828 89.9404296-37.2548828h23.7509766v-16h-23.7509766c-38.25 0-74.2089844 14.8950195-101.2509766 41.9379883l-.40625.4052734c-25.0166015 25.0166016-38.7939452 58.2778321-38.7939452 93.6567383 0 25.946167 7.4187012 50.7485352 21.237793 72h-.7856446c-17.6445313 0-32 14.3549805-32 32 0 8.5327148 3.3261719 16.565918 9.3730469 22.6269531 6.0449219 6.0444336 14.0800781 9.3730469 22.6269531 9.3730469h16v8c0 83.8129883 68.1865234 152 152 152h16c40.6064453 0 78.7763672-15.8125 107.4775391-44.5234375 24.4589844-24.4594727 39.5478516-55.7850342 43.4829102-89.6252441 4.2827148 3.9667969 10.0073242 6.3977051 16.2915039 6.3977051h8.4980468v40 127.7509765c0 4.418457 3.5820313 8 8 8h79.7509766c4.4179688 0 8-3.581543 8-8v-127.7382812l.1992188-127.9506836c.0166015-10.6962891-4.1367188-20.7553711-11.694336-28.3242188zm-92.5048828 36.262207h40.2490234v31.980957l-87.7514648-.2103271-.2485352-31.8321533v-.168457l45.3378906.1087036c.7939453.0796509 1.5986328.1212768 2.413086.1212768zm-104.6401368 19.0507813c-.0009766 0-.0024414-.0003662-.003418-.0004883l-22.8574218-2.2880859v-1.5224609l22.8466797-2.2885742c.0004883-.000061.0009766-.0002441.0019531-.0003052v.0003052l40.9013672-4.1069337v14.2963867zm-31.6577148 12.9101562 17.0244141 1.7045898c-4.3476563 3.9785157-10.1074219 6.3354493-16.2275391 6.3354493-13.2333984 0-24-10.7666016-24-24s10.7666016-24 24-24c6.1220703 0 11.8818359 2.3569336 16.2255859 6.3349609l-17.0224609 1.7050781c-4.0898437.4091798-7.203125 3.850586-7.203125 7.959961v16c0 4.1098633 3.1142578 7.5507813 7.203125 7.9599609zm63.1748047-164.9626464c35.1586914 16.5423584 56.769043 53.6861572 53.4467773 92.6138916-9.946289-27.8620606-36.5883789-47.8612061-67.824707-47.8612061h-24c-10.4287109 0-19.3212891-6.6886597-22.6240234-16h22.6230469c18.1508788 0 33.5068359-12.1566772 38.3789062-28.7526855zm-38.3789063-35.2473145h24v24c0 13.2333984-10.7666016 24-24 24h-24v-24c0-13.2333984 10.7666016-24 24-24zm-88 16h48v8 24h-48v-24zm-64-16h24c13.2333984 0 24 10.7666016 24 24v24h-24c-13.2333984 0-24-10.7666016-24-24zm-61.9091796 86.3251953c8.7067871-22.656311 25.7768555-40.874939 47.527832-51.085144 4.8701172 16.5997314 20.2280273 28.7599487 38.3813476 28.7599487h22.6411133c-1.175293 3.3374634-3.0895996 6.3955688-5.6625977 8.9682617-4.5419921 4.534668-10.571289 7.0317383-16.977539 7.0317383h-24c-31.2119141 0-57.8381348 19.9677124-67.8024902 47.7960205-1.1848145-13.9255981.7534179-28.1000366 5.892334-41.4708252zm-26.0898438 113.6748047c-4.2734375 0-8.2910156-1.6645508-11.3066406-4.6801758-3.0263672-3.0336914-4.6933594-7.0541992-4.6933594-11.3198242 0-8.8222656 7.1777344-16 16-16h13.0126953c.9782715 1.0974121 1.9692383 2.1860962 2.9873047 3.2557373v28.7442627zm280.1621094 120.1640625c-25.678711 25.6884766-59.8300781 39.8359375-96.1621094 39.8359375h-16c-74.9902344 0-136-61.0092773-136-136v-16-48-8c0-30.878418 25.1210938-56 56-56h24c10.6748047 0 20.71875-4.1582031 28.2871094-11.7133789 5.6318359-5.6323242 9.3769531-12.6499023 10.9179688-20.2866211h49.5986328c3.7167969 18.2348633 19.8798828 32 39.1962891 32h24c30.8789063 0 56 25.121582 56 56v.0580444l-24.2304688-.0580444c-.0068359 0-.0126953 0-.0195313 0-2.1181641 0-4.1503906.840332-5.6503906 2.3364258-1.5039063 1.5009765-2.3496094 3.5385742-2.3496094 5.6635742v1.0130615l-36.8500977 3.7000122c-6.9926757-12.4500732-20.3291015-20.4630737-34.8999023-20.4630737-22.0556641 0-40 17.9438477-40 40s17.9443359 40 40 40c14.5664063 0 27.9072266-8.013916 34.9082031-20.46521l36.8417969 3.6850586v.5301514c0 4.4106445 3.5703125 7.9892578 7.9804688 8l24.2695312.0581055v7.9418945c0 36.3222656-14.1474609 70.4736328-39.8378906 96.1640625zm71.0898437-87.9150391c-4.4111328 0-8-3.5888672-8-8s3.5888672-8 8-8h48.4785156.0195313c.2675781 0 .5341797-.013916.7983398-.0402832.1884766-.0187988.3720703-.0515137.5566406-.0830078.0722656-.0124512.1459961-.0187988.2182617-.0333252.2265625-.0452881.4477539-.1033936.6669922-.1673584.0288086-.0084229.059082-.0137939.0878906-.0227051.2207031-.0671387.4360352-.1464844.6484375-.2318115.0288086-.0114746.0585938-.0198975.0869141-.0317383.1992188-.0827637.3925781-.177124.5830078-.2751465.0415039-.0211182.0844727-.0384521.1254883-.0601807.1733398-.0928955.3393555-.1965332.5043945-.3015137.0556641-.0351563.1137695-.0656738.168457-.1021729.1479492-.0992432.2885742-.2084961.4291992-.3170166.0664063-.0510254.1362305-.097168.2011719-.1503906.1420898-.1170654.2758789-.2441406.4101563-.3706055.0537109-.0510254.1123047-.0964355.1650391-.1491699.0014648-.0015869.0029297-.003418.0043945-.005127.184082-.1835938.3583984-.3762207.5239258-.5769043.0351563-.0427246.0644531-.0891113.0991211-.1325684.1279297-.1622314.2539063-.3262939.3696289-.4984131.0239258-.0362549.0439453-.0748291.0673828-.1114502.1186523-.1831055.2333984-.3688965.3369141-.5617676.0131836-.0249023.0234375-.0510254.0366211-.0759277.1079102-.206543.2094727-.416748.2998047-.6334229.0043945-.0112305.0078125-.0230713.0126953-.0343018.09375-.2290039.1787109-.4624023.2514648-.701416.0043945-.0146484.0068359-.0299072.0117188-.0446777.0693359-.2333984.1308594-.470459.1791992-.7124023.0107422-.053833.0151367-.1091309.0249023-.1633301.0361328-.2023926.0708008-.4050293.0913086-.6123047.0268555-.2646482.0405274-.5312497.0405274-.7995603v-48c0-.2758179-.0141602-.5484009-.0410156-.8170776-.0146484-.1448364-.0429688-.2854004-.0654297-.4278564-.019043-.1216431-.03125-.2456665-.0556641-.3654175-.034668-.1681519-.0825195-.3310547-.1274414-.4952393-.0244141-.0897217-.0419922-.182251-.0693359-.2706299-.0463867-.1484375-.1049805-.2910156-.1591797-.4356079-.0375977-.0993652-.0683594-.2017822-.109375-.2992554-.0546875-.1292725-.1206055-.2523193-.1821289-.3780518-.0517578-.1067505-.0981445-.2168579-.1542969-.3209229-.074707-.1370239-.1601563-.2666016-.2421875-.3986816-.0532227-.0860596-.1010742-.1759644-.1577148-.2598877-.0854492-.1265259-.1811523-.2449951-.2734375-.366272-.0629883-.0827026-.1206055-.1695557-.1865234-.2497559-.0913086-.1110229-.1923828-.213501-.2895508-.319397-.0756836-.0825195-.1469727-.1693115-.2260742-.2485962-.0961914-.0962524-.2006836-.1835938-.3017578-.2749023-.0888672-.0804443-.1733398-.1653442-.2661133-.2417603-.1000977-.0827637-.2080078-.156189-.3120117-.2341309-.1010742-.0755005-.1982422-.1557007-.3027344-.2265015-.1074219-.0725098-.2211914-.1350708-.3320313-.2024536-.1088867-.0662231-.2148438-.1373901-.3266602-.1984863-.1132813-.0617065-.2329102-.1126709-.3496094-.1689453-.1162109-.0562744-.2294922-.1176147-.3491211-.1682739-.1220703-.0516968-.2495117-.0921631-.3745117-.1379395-.1201172-.0438232-.2368164-.0932617-.359375-.1314087-.1279297-.039917-.2602539-.067749-.3911133-.1013794-.125-.0321655-.2475586-.0702515-.375-.0964355-.1264648-.026001-.2568359-.0397339-.3852539-.0596924-.1362305-.0211792-.2705078-.0482178-.4086914-.0623779-.1264648-.0130005-.2563477-.0133057-.3847656-.0203247-.1411133-.0076904-.2797852-.0219727-.4223633-.0223389l-49.5908203-.1187134c-3.7827148-.6333008-6.6777344-3.9214478-6.6777344-7.8812866 0-4.4111328 3.5888672-8 8-8h64.1992188c6.4179688 0 12.4492188 2.5009766 16.9833984 7.0424805 4.5351563 4.5415039 7.0263672 10.5771484 7.0166016 16.9946289l-.1865234 119.9628906h-63.7636719v-40c0-4.418457-3.5820313-8-8-8h-16.4980469zm24.4980469 175.7509766v-111.7509766h63.7509766v111.7509766z"/><path d="m184 248.249h16v16h-16z"/><path d="m202.818 293.68h16v16h-16z" transform="matrix(.707 -.707 .707 .707 -151.575 237.446)"/><path d="m202.818 202.818h16v16h-16z" transform="matrix(.707 -.707 .707 .707 -87.324 210.812)"/><path d="m293.68 293.68h16v16h-16z" transform="matrix(.707 -.707 .707 .707 -124.96 301.698)"/><path d="m293.679 202.819h16.001v15.999h-16.001z" transform="matrix(.707 -.707 .707 .707 -60.714 275.051)"/><path d="m248.249 312.498h16v16h-16z"/><path d="m248.249 184h16v16h-16z"/></g></svg>