<svg id="&#x421;&#x43B;&#x43E;&#x439;_1" viewBox="0 0 3500 3500" xmlns="http://www.w3.org/2000/svg"><g fill="none" stroke-linecap="round" stroke-linejoin="round" stroke-width="44"><circle cx="2278.28" cy="2279" r="474" stroke="#262626"/><g stroke="#232323"><path d="m1398.28 2425h1"/><path d="m2316.28 2320h1"/><path d="m1503.28 2408h1"/><path d="m1469.28 1992h1"/><path d="m1369.28 1962h1"/><path d="m2406.28 2360h1"/><path d="m2309.28 2421h1"/><path d="m2480.28 2242h1"/><path d="m2386.28 2250h1"/><path d="m2286.28 2230h1"/><path d="m2326.28 2140h1"/><path d="m2426.28 2150h1"/><path d="m2126.28 2312h1"/><path d="m2216.28 2352h1"/><path d="m2196.28 2242h1"/><path d="m2086.28 2212h1"/><path d="m2236.28 2142h1"/><path d="m895.28 2032c-22.34-83.76-21.54-134.84-33-220.25"/><path d="m895.51 2032.15c-12.82 10-41.57 0-55.3-8.44s-41.62-37.44-58.08-100.06c-7.85-29.85-42.31-127.55-32.75-156.71s41.62-56.94 67.21-47.94l-19.25-112.8"/><path d=""/><path d="m1981.57 1905c1.69-28.38 3.16-57.88 7.91-93.28"/><path d="m895.28 2032c54.51 150.29 133.52 271.72 258 373 36.62 29.8 153.79 118.53 195.93 140 57.83 29.45 105.67 29.45 163.5 0 42.14-21.46 79.12-51.49 115.74-81.29 25.35-20.63 120.83-101.7 168.83-162.7"/><path d="m2044.32 1719c26.19-9 58.94 18.81 68.71 48 5.19 15.48-2.16 38.86-11.53 72.56"/><path d="m1051.74 2308.08s34.9 243.41-53.85 440.8"/><path d="m1863.53 2748.88c-81.33-161.11-66.55-447.82-66.55-447.82"/><path d="m1300.26 1686.42s-120.66-42.42-189.5-18.66c-49.24 17-103.93 48.43-103.93 48.43"/><path d="m1562.2 1686.42s120.66-42.42 189.5-18.66c49.24 17 103.93 48.43 103.93 48.43"/><path d="m1070.66 1847.39s126.78 88.63 214.29 0"/><path d="m1784.22 1847.39s-126.78 88.63-214.29 0"/><path d="m1363.49 2102.07s64 75.17 140.24 0"/><path d="m1329.3 2283s60 20 106.37 20c45.61 0 107.48-17.13 107.48-20"/><path d="m2046.28 1580-6 135"/></g><path d="m1382.78 1236.5c69.89-15.37 265.4-127.12 252.19-195.18 0 0 58.6 180.36 161.81 246.18 138 88 188.36 169.14 249 294 .93-31.52 5.26-164.24 5.26-182.83-.04-358.25-280.04-648.67-641.12-648.67s-641.12 290.42-641.12 648.67c0 75.89 14.8 159.75 28.55 221.3 52.21-161.86 162.43-290.47 585.43-383.47z" stroke="#252525"/><path d="m1548.62 977.75s-6.86 70.07-197.47 83.66-383.15 135.93-417.2 214.84" stroke="#232323"/><path d="" stroke="#232323"/><path d="" stroke="#232323"/><path d="m2344.8 1812.63a478.13 478.13 0 0 0 -66.52-4.63c-261.78 0-474 212.22-474 474a471.78 471.78 0 0 0 72.08 251.39c73.26 116.87 196.08 199.51 339 218.47a478.36 478.36 0 0 0 62.91 4.15 472.44 472.44 0 0 0 187.06-38.35c168.76-72.56 286.94-240.3 286.94-435.65.01-239.22-177.18-437.01-407.47-469.38z" stroke="#262626"/></g></svg>