<svg id="&#x421;&#x43B;&#x43E;&#x439;_1" enable-background="new 0 0 300 300" viewBox="0 0 300 300" xmlns="http://www.w3.org/2000/svg"><g style="fill:none;stroke:#333;stroke-width:3.96;stroke-linecap:round;stroke-linejoin:round;stroke-miterlimit:10"><path d="m203.315 208.714h67.072"/><path d="m170.262 232.457c-.939-5.678-3.675-11.902-7.841-18.534-1.423-2.265.201-5.209 2.875-5.209h23.416"/><path d="m28.827 208.714h78.452c2.735 0 4.315 3.039 2.808 5.322-5.422 8.216-7.395 16.66-7.395 23.045"/><path d="m197.87 222.534c2.461 1.756 5.901 1.53 8.109-.678l.466-.466c2.46-2.46 6.45-2.46 8.91 0l.79.79c2.46 2.46 6.45 2.46 8.91 0l.61-.61c2.46-2.46 6.45-2.46 8.91 0l.166.166c2.46 2.46 6.45 2.46 8.91 0l.502-.502c2.46-2.46 6.45-2.46 8.91 0l.99.99c2.46 2.46 6.45 2.46 8.91 0 2.152-2.152 5.475-2.422 7.92-.808"/><path d="m167.507 223.704 2.202-2.202c2.46-2.46 6.45-2.46 8.91 0l.037.037c1.985 1.985 4.964 2.368 7.333 1.152"/><path d="m103.304 226.498-4.91-4.91c-2.471-2.471-6.476-2.471-8.947 0l-.573.573c-2.471 2.471-6.476 2.471-8.947 0l-.752-.752c-2.471-2.471-6.476-2.471-8.947 0l-.429.429c-2.471 2.471-6.476 2.471-8.947 0l-.418-.418c-2.471-2.471-6.476-2.471-8.947 0l-.1.1c-2.471 2.471-6.476 2.471-8.947 0-2.471-2.471-6.476-2.471-8.947 0l-1.507 1.507"/><path d="m126.033 217.727c-6.116 6.873-8.805 14.16-8.805 19.202 0 10.802 8.757 19.559 19.559 19.559s19.559-8.757 19.559-19.559c0-5.195-3.475-12.869-9.219-19.801"/><path d="m102.756 236.39c0 18.694 15.154 33.849 33.849 33.849 17.141 0 31.306-12.741 33.541-29.268"/><path d="m124.13 236.929c0 6.99 5.666 12.656 12.656 12.656"/><path d="m147.126 216.554s-10.986-102.194-76.326-163.574c0 0 55.44 83.16 55.233 164.747"/><path d="m61.144 238.383v8.407"/><path d="m44.33 251.835v8.407"/><path d="m79.64 251.835v8.407"/><path d="m229.444 238.383v8.407"/><path d="m212.63 251.835v8.407"/><path d="m247.94 251.835v8.407"/><g><path d="m203.907 53.372h39.93v128.109h-39.93z" transform="matrix(.957 .291 -.291 .957 43.892 -60.098)"/><path d="m212.281 46.943 58.892 17.924"/><path d="m232.973 53.241 6.117-20.573"/><path d="m242.523 56.147 6.117-20.572"/><path d="m252.073 59.054 6.117-20.572"/><path d="m229.54 29.762 38.2 11.626"/><path d="m190.602 158.169 17.508 5.329"/><path d="m197.384 135.886 17.508 5.329"/><path d="m204.651 112.011 17.508 5.329"/><path d="m211.917 88.136 17.508 5.329"/><path d="m219.184 64.261 17.508 5.329"/><path d="m205.221 178.706-23.738 77.991"/></g></g></svg>