<?xml version="1.0" encoding="UTF-8" standalone="no"?>
<!-- Created with Inkscape (http://www.inkscape.org/) -->

<svg
   version="1.1"
   id="svg786"
   xml:space="preserve"
   width="682.66669"
   height="682.66669"
   viewBox="0 0 682.66669 682.66669"
   xmlns="http://www.w3.org/2000/svg"
   xmlns:svg="http://www.w3.org/2000/svg"><defs
     id="defs790"><clipPath
       clipPathUnits="userSpaceOnUse"
       id="clipPath800"><path
         d="M 0,512 H 512 V 0 H 0 Z"
         id="path798" /></clipPath></defs><g
     id="g792"
     transform="matrix(1.3333333,0,0,-1.3333333,0,682.66667)"><g
       id="g794"><g
         id="g796"
         clip-path="url(#clipPath800)"><g
           id="g802"
           transform="translate(222.9258,104.7573)"><path
             d="m 0,0 c -0.454,-8.334 -0.681,-8.504 -0.681,-25.455 0,-24.661 3.544,-47.622 4.876,-71.802 M -146.948,0 c 0.453,-8.334 0.68,-8.504 0.68,-25.455 0,-24.661 -3.515,-47.622 -4.876,-71.802"
             style="fill:none;stroke:#000000;stroke-width:14.995;stroke-linecap:round;stroke-linejoin:round;stroke-miterlimit:10;stroke-dasharray:none;stroke-opacity:1"
             id="path804" /></g><g
           id="g806"
           transform="translate(260.8247,155.8096)"><path
             d="m 0,0 c -17.32,-44.646 -60.803,-76.507 -111.373,-76.507 -65.65,0 -119.396,53.716 -119.396,119.395 v 76.054 m 238.791,0 V 42.888 c 0,-3.316 -0.142,-6.605 -0.425,-9.865"
             style="fill:none;stroke:#000000;stroke-width:14.995;stroke-linecap:round;stroke-linejoin:round;stroke-miterlimit:10;stroke-dasharray:none;stroke-opacity:1"
             id="path808" /></g><g
           id="g810"
           transform="translate(14.9761,361.0659)"><path
             d="m 0,0 c -10.205,-26.476 -7.059,-56.664 15.08,-86.314 46.063,8.078 86.627,22.79 119.396,46.828 M 61.909,62.731 C 44.107,53.802 28.97,42.265 17.575,28.942"
             style="fill:none;stroke:#000000;stroke-width:14.995;stroke-linecap:round;stroke-linejoin:round;stroke-miterlimit:10;stroke-dasharray:none;stroke-opacity:1"
             id="path812" /></g><g
           id="g814"
           transform="translate(185.1113,495.23)"><path
             d="m 0,0 c -10.545,5.896 -22.706,9.27 -35.66,9.27 -43.483,0 -77.102,-37.645 -72.567,-80.703 30.047,-90.425 100.035,-132.888 191.962,-149.046 0,0 65.396,86.826 -39.571,145.446 -6.123,3.429 -6.435,5.527 -6.463,11.339 -0.029,14.173 -4.932,28.771 -12.954,40.761"
             style="fill:none;stroke:#000000;stroke-width:14.995;stroke-linecap:round;stroke-linejoin:round;stroke-miterlimit:10;stroke-dasharray:none;stroke-opacity:1"
             id="path816" /></g><g
           id="g818"
           transform="translate(168.3872,232.3447)"><path
             d="M 0,0 C -2.636,5.358 -10.403,9.241 -19.587,9.241 -28.772,9.241 -36.539,5.358 -39.175,0"
             style="fill:none;stroke:#000000;stroke-width:14.995;stroke-linecap:round;stroke-linejoin:round;stroke-miterlimit:10;stroke-dasharray:none;stroke-opacity:1"
             id="path820" /></g><g
           id="g822"
           transform="translate(160.3647,184.8931)"><path
             d="m 0,0 c -2.494,-3.288 -6.435,-5.442 -10.913,-5.442 -4.451,0 -8.419,2.154 -10.914,5.442"
             style="fill:none;stroke:#000000;stroke-width:14.995;stroke-linecap:round;stroke-linejoin:round;stroke-miterlimit:10;stroke-dasharray:none;stroke-opacity:1"
             id="path824" /></g><g
           id="g826"
           transform="translate(178.875,136.2505)"><path
             d="m 0,0 c -5.669,-7.625 -16.724,-12.813 -29.423,-12.813 -12.7,0 -23.755,5.188 -29.424,12.813"
             style="fill:none;stroke:#000000;stroke-width:14.995;stroke-linecap:round;stroke-linejoin:round;stroke-miterlimit:10;stroke-dasharray:none;stroke-opacity:1"
             id="path828" /></g><g
           id="g830"
           transform="translate(85.8706,255.7876)"><path
             d="m 0,0 h 19.927 c 12.87,0 23.415,-10.545 23.415,-23.443 0,-12.869 -10.545,-23.414 -23.415,-23.414 H 0 c -12.898,0 -23.443,10.545 -23.443,23.414 C -23.443,-10.545 -12.898,0 0,0 Z"
             style="fill:none;stroke:#000000;stroke-width:14.995;stroke-linecap:round;stroke-linejoin:round;stroke-miterlimit:10;stroke-dasharray:none;stroke-opacity:1"
             id="path832" /></g><g
           id="g834"
           transform="translate(191.8296,255.7876)"><path
             d="m 0,0 h 19.927 c 12.87,0 23.415,-10.545 23.415,-23.443 0,-12.869 -10.545,-23.414 -23.415,-23.414 H 0 c -12.898,0 -23.442,10.545 -23.442,23.414 C -23.442,-10.545 -12.898,0 0,0 Z"
             style="fill:none;stroke:#000000;stroke-width:14.995;stroke-linecap:round;stroke-linejoin:round;stroke-miterlimit:10;stroke-dasharray:none;stroke-opacity:1"
             id="path836" /></g><path
           d="m 438.529,116.691 h 64.063 v 71.83 h -64.063 z"
           style="fill:none;stroke:#000000;stroke-width:14.995;stroke-linecap:round;stroke-linejoin:round;stroke-miterlimit:10;stroke-dasharray:none;stroke-opacity:1"
           id="path838" /><g
           id="g840"
           transform="translate(401.6499,208.9307)"><path
             d="m 0,0 h 22.337 c 7.994,0 14.542,-6.576 14.542,-14.57 v -83.48 c 0,-8.022 -6.548,-14.571 -14.542,-14.571 H 0 c -7.994,0 -14.57,6.549 -14.57,14.571 v 83.48 C -14.57,-6.576 -7.994,0 0,0 Z"
             style="fill:none;stroke:#000000;stroke-width:14.995;stroke-linecap:round;stroke-linejoin:round;stroke-miterlimit:10;stroke-dasharray:none;stroke-opacity:1"
             id="path842" /></g><g
           id="g844"
           transform="translate(353.1206,152.6064)"><path
             d="M 0,0 C 0,18.765 15.222,33.987 33.959,33.987 V -33.959 C 15.222,-33.959 0,-18.766 0,0 Z"
             style="fill:none;stroke:#000000;stroke-width:14.995;stroke-linecap:round;stroke-linejoin:round;stroke-miterlimit:10;stroke-dasharray:none;stroke-opacity:1"
             id="path846" /></g><g
           id="g848"
           transform="translate(357.146,97.0757)"><path
             d="m 0,0 c -19.729,10.658 -33.137,31.55 -33.137,55.531 0,24.009 13.408,44.901 33.137,55.559 m -13.805,25.625 c -28.856,-15.562 -48.472,-46.091 -48.472,-81.184 0,-35.065 19.616,-65.594 48.472,-81.184"
             style="fill:none;stroke:#000000;stroke-width:14.995;stroke-linecap:round;stroke-linejoin:round;stroke-miterlimit:10;stroke-dasharray:none;stroke-opacity:1"
             id="path850" /></g></g></g></g></svg>
