<svg id="_x33_0" enable-background="new 0 0 62 62.236" height="512" viewBox="0 0 62 62.236" width="512" xmlns="http://www.w3.org/2000/svg"><g><path d="m36.172 24.236h-4.172v2h4.172c2.061 0 4.078-.836 5.535-2.293l-1.414-1.414c-1.085 1.085-2.587 1.707-4.121 1.707z"/><path d="m21.707 22.529-1.414 1.414c1.457 1.457 3.475 2.293 5.535 2.293h4.172v-2h-4.172c-1.534 0-3.036-.622-4.121-1.707z"/><path d="m33.707 20.943c.456-.456 1.063-.707 1.707-.707h.172c.645 0 1.251.251 1.707.707l1.414-1.414c-.834-.834-1.942-1.293-3.121-1.293h-.172c-1.179 0-2.287.459-3.121 1.293l-.293.293c-.535.533-1.465.533-2 0l-.293-.293c-.834-.834-1.942-1.293-3.121-1.293h-.172c-1.179 0-2.287.459-3.121 1.293l1.414 1.414c.456-.456 1.063-.707 1.707-.707h.172c.645 0 1.251.251 1.707.707l.293.293c.645.645 1.502 1 2.414 1s1.77-.355 2.414-1z"/><path d="m60 26.236h-2c-1.103 0-2 .897-2 2v2h-2.029c-.279-6.586-3.3-12.619-8.415-16.797.971-1.748 2.331-3.26 3.998-4.371l1.248-.832-1.248-.832c-1.818-1.212-3.296-2.886-4.272-4.84l-1.282-2.564-1.282 2.564c-.977 1.954-2.454 3.628-4.272 4.84l-1.248.832 1.248.832c.357.238.69.508 1.02.78-2.676-1.059-5.537-1.612-8.466-1.612-4.964 0-9.651 1.559-13.617 4.485-1.845-1.204-3.288-2.942-4.115-5.009l-1.268-3.17-1.268 3.171c-.98 2.45-2.82 4.449-5.18 5.629l-1.789.895 1.789.895c2.291 1.146 4.086 3.068 5.086 5.422-1.567 2.984-2.459 6.301-2.607 9.683h-2.031v-2c0-1.103-.897-2-2-2h-2c-1.103 0-2 .897-2 2v6c0 1.103.897 2 2 2h2c1.103 0 2-.897 2-2v-2h2.025c.526 12.22 10.627 22 22.975 22s22.449-9.78 22.975-22h2.025v2c0 1.103.897 2 2 2h2c1.103 0 2-.897 2-2v-6c0-1.103-.897-2.001-2-2.001zm-58 8v-6h2l.002 6zm42-29.849c.872 1.467 1.998 2.771 3.319 3.85-1.321 1.078-2.447 2.383-3.319 3.85-.872-1.467-1.998-2.771-3.319-3.85 1.321-1.079 2.447-2.383 3.319-3.85zm-36.035 9.849c1.687-1.157 3.07-2.704 4.035-4.513.965 1.809 2.348 3.355 4.035 4.513-1.687 1.157-3.07 2.704-4.035 4.513-.965-1.809-2.348-3.355-4.035-4.513zm3.692 8.837.343.858 1.268-3.171c.98-2.45 2.82-4.449 5.18-5.629l1.789-.895-.908-.454c3.453-2.321 7.455-3.546 11.672-3.546 4.162 0 8.178 1.217 11.625 3.514.028.054.065.103.092.158l1.282 2.565.614-1.227c4.456 3.785 7.087 9.149 7.358 14.991h-5.132c.746-1.434 1.16-3.017 1.16-4.643 0-2.403-.861-4.731-2.426-6.558l-1.234-1.439c-1.83-2.136-4.492-3.36-7.305-3.36-1.486 0-2.974.352-4.303 1.016-1.086.543-2.381.543-3.465 0-1.329-.664-2.816-1.016-4.303-1.016-2.813 0-5.475 1.225-7.304 3.359l-1.236 1.441c-1.563 1.825-2.424 4.153-2.424 6.557 0 1.627.414 3.209 1.16 4.643h-5.129c.119-2.47.672-4.899 1.626-7.164zm5.801 7.163-.196-.308c-.825-1.297-1.262-2.796-1.262-4.334 0-1.926.69-3.793 1.943-5.255l1.236-1.441c1.449-1.691 3.558-2.661 5.785-2.661 1.177 0 2.355.278 3.408.805 1.645.822 3.609.822 5.254 0 1.053-.526 2.231-.805 3.408-.805 2.228 0 4.336.97 5.786 2.662l1.234 1.439c1.256 1.463 1.946 3.33 1.946 5.256 0 1.538-.437 3.037-1.263 4.335l-.196.308h-27.083zm25.839 2c-2.874 4.736-4.893 9.885-5.984 15.333-.077.387-.419.667-.813.667s-.736-.28-.813-.667l-1.313-6.568c-.321-1.603-1.739-2.765-3.373-2.765s-3.052 1.162-3.373 2.765l-1.313 6.568c-.077.387-.419.667-.813.667s-.736-.28-.813-.667c-1.09-5.448-3.109-10.597-5.984-15.333zm-12.297 20c-11.242 0-20.422-8.887-20.949-20h6.309l.127.199c3.031 4.763 5.131 9.986 6.239 15.526.263 1.317 1.43 2.274 2.774 2.274s2.512-.957 2.774-2.274l1.313-6.568c.135-.67.729-1.157 1.412-1.157s1.277.487 1.412 1.157l1.313 6.568c.263 1.317 1.43 2.274 2.774 2.274s2.512-.957 2.774-2.274c1.108-5.54 3.208-10.764 6.239-15.526l.127-.199h6.309c-.525 11.114-9.705 20-20.947 20zm27-18v-6h2l.002 6z"/><path d="m58 60.236h-2v-8h-2v8h-2v-6h-2v6h-2v-4h-2v4h-2v-2h-2v2h-22v-2h-2v2h-2v-4h-2v4h-2v-6h-2v6h-2v-8h-2v8h-2v-10h-2v12h58v-12h-2z"/></g></svg>