<svg id="Icon_Template" viewBox="0 0 216.03 216.03" xmlns="http://www.w3.org/2000/svg" data-name="Icon Template"><g fill="none" stroke="#000" stroke-linejoin="round" stroke-width="2"><path d="m109.51 73h-8.46a35.54 35.54 0 0 0 -34.61 28 3.31 3.31 0 0 1 2.63 3.22v41.15a39.46 39.46 0 0 0 35.93 23.37h.56a39.48 39.48 0 0 0 36.62-25l-4.44-1.74a1.71 1.71 0 0 1 -.73-2.67l3.05-3.78a1.72 1.72 0 0 1 2.77.15l1.2 1.87a39 39 0 0 0 .88-8.21v-21a35.51 35.51 0 0 0 -35.4-35.36z"/><path d="m108.73 47.29h-6.9a50.94 50.94 0 0 0 -40.23 19.64v17.92h4.76v8.09h-15.3a53.63 53.63 0 0 0 -.28 5.4v2.58h.52v-6.92h10.3v6.94h4.17a3 3 0 0 1 .67.07 35.54 35.54 0 0 1 34.61-28h8.46a35.51 35.51 0 0 1 35.4 35.41v22.49a14.87 14.87 0 0 0 14.87-14.91v-17.66a51 51 0 0 0 -51.05-51.05z"/><path d="m50.78 98.34v2.58h.52v-6.92h6.94c.11-.34.2-.69.31-1h-7.49a53.63 53.63 0 0 0 -.28 5.34z"/><path d="m108.73 47.29h-6.9a50.94 50.94 0 0 0 -40.23 19.64v17.92h.23c7.74-15.57 22.26-26.38 40-26.38h7c28.56 0 48.86 28.13 45.74 59.07l-1.08 10.64a14.81 14.81 0 0 0 6.29-12.18v-17.66a51 51 0 0 0 -51.05-51.05z"/><path d="m72.91 104.74s11-9.92 24.48 0"/><path d="m137.84 104.74s-13.88-9.36-25.21 0c-3 2.49-6.65 6.84-4.77 17.59.59 3.43 3.17 14.88 3.17 14.88s-3.11 3.72-7.79 3.72"/><path d="m75.17 113.15s8.74 7.85 19.36 0"/><path d="m135.45 113.15s-11 7.4-19.93 0"/><path d="m96.64 149.59s.59 4.67 9.34 4.67"/><path d="m114.1 149.59s-.59 4.67-9.34 4.67"/><path d="m72.91 115.3s5 5.24 14.73 5.63a26.76 26.76 0 0 0 10.85-2c0 5.66.7 11.76-7.25 13.48a19 19 0 0 1 -19.24-8.41c-.93-2.39-1.47-10.28.91-8.7z"/><path d="m155.7 135.43h3.66v34.78h-3.66z" transform="matrix(-.63 .78 -.78 -.63 375.41 126.42)"/><path d="m137 139.36 3.05-3.78a1.72 1.72 0 0 1 2.77.15l2.73 4.24-3.11 3.84-4.7-1.81a1.71 1.71 0 0 1 -.74-2.64z"/><path d="m142.59 135.43-6.8-5.5"/><path d="m139.41 136.4-5.36-4.33"/><path d="m137.67 138.54-5.35-4.33"/><path d="m137.39 141.86-6.8-5.5"/><rect height="65.08" rx="3.29" width="25.24" x="43.83" y="100.92"/><path d="m61.6 61c0-.72-1.19-1.3-2.64-1.3h-5c-1.46 0-2.64.58-2.64 1.3v23.85h10.28z"/><path d="m51.3 93.98h10.3v6.94h-10.3z"/><path d="m46.53 84.85h19.83v8.09h-19.83z"/><path d="m53.75 100.92h5.4v20.74h-5.4z"/><path d="m53.75 139.83v4.74c0 2.83 1.21 3.69 2.7 3.69s2.69-.86 2.69-3.69v-4.74z"/><path d="m43.83 121.66h25.24v18.17h-25.24z"/></g><path d="m50.66 126.65a1.68 1.68 0 1 1 -1.66-1.65 1.68 1.68 0 0 1 1.66 1.65zm5.79-1.65a1.68 1.68 0 1 0 1.68 1.68 1.69 1.69 0 0 0 -1.68-1.68zm7.46 0a1.68 1.68 0 1 0 1.69 1.68 1.68 1.68 0 0 0 -1.69-1.68z"/><path d="m137.84 115.29s-5 5.25-14.74 5.64a26.66 26.66 0 0 1 -10.84-2c0 5.66-.7 11.76 7.24 13.48a15.83 15.83 0 0 0 1.88.2 2.22 2.22 0 0 1 1.39.53 2.88 2.88 0 0 1 1 2.8c-.52 2.63-3.47 7.48.65 7.48 3.87 0 2.93-4.81 2.41-7.44-.18-.89-.33-1.56-.38-2.1a1.65 1.65 0 0 1 1.2-1.79 19 19 0 0 0 11.14-8.09c.88-2.39 1.42-10.28-.95-8.71z" fill="none" stroke="#000" stroke-linejoin="round" stroke-width="2"/></svg>