<svg viewBox="0 0 48 48" xmlns="http://www.w3.org/2000/svg"><g id="Layer_25" data-name="Layer 25"><path d="m37.13184 13.6333c-.04883-.8501-.08594-1.50049-.08594-1.86865a2.73489 2.73489 0 0 0 -1.03516-2.30371 3.5105 3.5105 0 0 0 -2.127-.61914c-.02832-2.92041-3.34473-6.10694-3.791-6.52246a1.02329 1.02329 0 0 0 -.75488-.26563 1.00183 1.00183 0 0 0 -.708.373c-3.62205 4.52837-12.5322 5.41118-17.24412 5.22129a4.96078 4.96078 0 0 0 -3.84374 1.29243c-1.87011 1.79541-2.63281 5.36963-2.63281 12.33691 0 8.83716 3.49225 12.47394 4.48132 13.32685a12.55511 12.55511 0 0 0 3.74817 5.27227v5.71827a1 1 0 0 0 2 0v-4.36567a12.49588 12.49588 0 0 0 11.919-.001v4.36664a1 1 0 0 0 2 0v-5.71982a12.54993 12.54993 0 0 0 3.975-5.89459c4.50242-1.6258 4.61732-11.1308 4.09916-20.34699zm-16.03418 27.10791a10.52315 10.52315 0 0 1 -10.51172-10.51074v-11.71047h21.02246v11.71047a10.52232 10.52232 0 0 1 -10.51074 10.51074zm12.46826-9.67261c.01855-.27826.04248-.55523.04248-.83813v-12.71047a.99974.99974 0 0 0 -1-1h-23.02246a.99973.99973 0 0 0 -1 1v12.51961a20.49338 20.49338 0 0 1 -1.67676-8.76227c0-6.11084.6416-9.57275 2.01758-10.894a3.03529 3.03529 0 0 1 2.377-.7373c1.33789.05371 12.69336.34619 18.14258-5.13575.13361.14582.27112.30591.40826.46753a22.85209 22.85209 0 0 1 -7.917 4.62281.99979.99979 0 1 0 .63672 1.8955 24.65608 24.65608 0 0 0 8.47109-4.89513c.67151 1.08515 1.08374 2.195.68506 2.92585a.98542.98542 0 0 0 -.10352.32208c-.00183.01129-.00927.02-.01074.03143-.00293.02-.29492 2.0166-1.7793 2.4292a.99985.99985 0 1 0 .53516 1.92676 4.62769 4.62769 0 0 0 3.06415-3.36414 2.14733 2.14733 0 0 1 1.36651.183c.06055.04589.24317.186.24317.70947 0 .39014.03808 1.08008.08887 1.981.51867 9.21394-.01209 15.0049-1.56885 17.32295z"/><path d="m18.90918 23.167h-5.59766a1 1 0 0 0 0 2h1.79883v.26856a1 1 0 0 0 2 0v-.26856h1.79883a1 1 0 0 0 0-2z"/><path d="m28.71973 23.167h-5.59766a1 1 0 0 0 0 2h1.79883v.26856a1 1 0 0 0 2 0v-.26856h1.79883a1 1 0 0 0 0-2z"/><path d="m19.10254 10.34277a21.47274 21.47274 0 0 1 -5.71.29981.99046.99046 0 0 0 -1.07813.916 1.00065 1.00065 0 0 0 .916 1.07715q.95653.07764 1.91113.07764a23.26129 23.26129 0 0 0 4.334-.40576 1 1 0 0 0 -.373-1.96485z"/><path d="m44.07617 5.27832h-2.22754v-2.227a1 1 0 0 0 -2 0v2.227h-2.22754a1 1 0 0 0 0 2h2.22754v2.22754a1 1 0 0 0 2 0v-2.22754h2.22754a1 1 0 0 0 0-2z"/></g></svg>