<svg enable-background="new 0 0 550 550" height="512" viewBox="0 0 550 550" width="512" xmlns="http://www.w3.org/2000/svg"><g id="_x36_899_-_Skin_Checkup"><g id="XMLID_772_"><g id="XMLID_782_"><g id="XMLID_790_"><path d="m386 530h-354c-3.313 0-6-2.687-6-6v-63.468c0-23.911 7.613-46.762 22.016-66.083 14.342-19.24 34.039-33.149 56.961-40.224l54.768-16.202 8.344-41.689c.65-3.249 3.811-5.354 7.061-4.706 3.249.65 5.356 3.813 4.706 7.062l-9.054 45.238c-.437 2.183-2.046 3.944-4.181 4.576l-58.171 17.209c-41.453 12.793-70.45 51.793-70.45 94.819v57.468h342v-57.468c0-43.904-27.915-82.018-69.463-94.84l-57.332-17.195c-2.131-.639-3.733-2.404-4.163-4.587l-8.878-45.033c-.627-2.938 1.027-5.956 3.94-6.942 3.139-1.063 6.54.604 7.603 3.743l.011.03c.084.25.152.505.204.765l8.195 41.569 53.914 16.17c46.654 14.398 77.97 57.12 77.97 106.32v63.468c-.001 3.313-2.688 6-6.001 6z"/></g><g id="XMLID_789_"><path d="m210.053 408.836c-24.368 0-47.26-10.584-62.808-29.036-8.23-9.769-12.691-19.65-13.26-29.373-.194-3.308 2.331-6.146 5.639-6.341 3.305-.188 6.146 2.332 6.34 5.64.415 7.081 3.933 14.598 10.458 22.342 13.262 15.74 32.81 24.769 53.631 24.769 20.82-.001 40.368-9.028 53.63-24.769 6.524-7.744 10.043-15.261 10.458-22.343.194-3.309 3.046-5.847 6.341-5.638 3.308.193 5.832 3.032 5.638 6.341-.569 9.722-5.031 19.604-13.261 29.372-15.547 18.452-38.439 29.035-62.806 29.036z"/></g><g id="XMLID_785_"><g id="XMLID_788_"><path d="m210.088 311.198c-.253 0-.504-.001-.757-.003-52.566-.39-95.331-44.122-95.331-97.485v-58.27c0-8.051 3.073-15.551 8.653-21.118 5.622-5.634 13.1-8.742 21.048-8.742 5.976 0 11.805-1.162 17.326-3.452 5.763-2.381 10.711-5.617 14.714-9.621 2.343-2.343 6.143-2.343 8.485 0 8.575 8.575 20.258 13.493 32.055 13.493h16.719c3.313 0 6 2.687 6 6s-2.687 6-6 6h-16.719c-13.091 0-26.045-4.75-36.321-13.184-4.211 3.382-9.016 6.197-14.343 8.399-6.978 2.895-14.354 4.365-21.917 4.365-4.738 0-9.199 1.856-12.563 5.228-3.316 3.309-5.137 7.792-5.137 12.632v58.27c0 46.795 37.422 85.144 83.419 85.485 14.835.125 28.824-3.456 41.556-10.598 2.892-1.623 6.547-.594 8.168 2.297s.593 6.547-2.297 8.168c-14.357 8.054-30.086 12.136-46.758 12.136z"/></g><g id="XMLID_787_"><path d="m360 396c-3.313 0-6-2.687-6-6v-81c0-3.313 2.687-6 6-6s6 2.687 6 6v81c0 3.313-2.687 6-6 6z"/></g><g id="XMLID_786_"><path d="m60 396c-3.314 0-6-2.687-6-6v-213.29c0-86.25 70.087-156.42 156.235-156.42 41.601 0 80.771 16.272 110.297 45.819 7.066 7.067 12.582 13.525 17.356 20.322 1.905 2.711 1.251 6.454-1.46 8.358-2.71 1.904-6.455 1.25-8.359-1.461-4.366-6.216-9.458-12.17-16.024-18.736-27.26-27.28-63.416-42.303-101.81-42.303-79.531.001-144.235 64.788-144.235 144.421v213.29c0 3.313-2.687 6-6 6z"/></g></g><g id="XMLID_784_"><path d="m92 530c-3.313 0-6-2.687-6-6v-39c0-3.313 2.687-6 6-6s6 2.687 6 6v39c0 3.313-2.687 6-6 6z"/></g><g id="XMLID_783_"><path d="m332 530c-3.313 0-6-2.687-6-6v-39c0-3.313 2.687-6 6-6s6 2.687 6 6v39c0 3.313-2.687 6-6 6z"/></g></g><g id="XMLID_781_"><path d="m321.656 291.951c-23.858 0-46.289-9.291-63.158-26.161-34.825-34.826-34.825-91.491 0-126.316 16.87-16.87 39.3-26.161 63.158-26.161 23.857 0 46.287 9.291 63.157 26.161 34.826 34.825 34.826 91.49 0 126.316-16.87 16.87-39.299 26.161-63.157 26.161zm0-166.638c-20.653 0-40.069 8.042-54.673 22.646-30.146 30.146-30.146 79.199 0 109.345 14.604 14.604 34.02 22.646 54.673 22.646 20.652 0 40.068-8.042 54.673-22.646 30.146-30.146 30.146-79.199 0-109.345-14.604-14.603-34.02-22.646-54.673-22.646z"/></g><g id="XMLID_780_"><path d="m321.656 321.896c-30.556 0-61.11-11.631-84.372-34.893-46.522-46.522-46.522-122.22 0-168.742 46.522-46.521 122.219-46.522 168.742 0 46.522 46.522 46.522 122.22 0 168.742-23.26 23.262-53.815 34.893-84.37 34.893zm-.001-226.532c-27.481 0-54.963 10.461-75.885 31.382-41.844 41.844-41.844 109.928 0 151.772 41.844 41.843 109.929 41.841 151.772 0 41.843-41.844 41.843-109.929 0-151.772-20.922-20.921-48.404-31.382-75.887-31.382z"/></g><g id="XMLID_779_"><path d="m499.949 404.667c-6.146 0-12.292-2.339-16.971-7.019l-98.994-98.995c-2.344-2.343-2.344-6.142 0-8.484 2.343-2.344 6.144-2.344 8.484 0l98.994 98.995c4.681 4.679 12.293 4.676 16.972 0 4.679-4.68 4.679-12.292 0-16.972l-98.995-98.995c-2.344-2.343-2.344-6.142 0-8.485 2.342-2.343 6.143-2.343 8.484 0l98.995 98.996c9.358 9.357 9.358 24.583 0 33.94-4.678 4.68-10.823 7.019-16.969 7.019z"/></g><g id="XMLID_778_"><path d="m297.02 253.778c-5.975 0-11.195-1.884-14.995-5.683-6.384-6.385-7.469-16.688-2.976-28.269 1.79-4.612 2.393-10.145 1.791-16.443-1.219-12.753 3.272-25.257 12.322-34.307 8.683-8.683 20.698-13.216 32.96-12.431 4.436.28 9.259-.472 14.332-2.243 10.949-3.819 20.709-2.531 26.777 3.537h-.001.001c6.821 6.821 7.547 18.312 1.941 30.736-1.823 4.042-2.877 8.433-3.133 13.053-.582 10.502-4.992 20.377-12.42 27.806-5.806 5.805-13.1 9.794-21.092 11.535-4.616 1.005-8.935 2.764-12.837 5.228-7.874 4.97-15.774 7.48-22.67 7.481zm26.376-85.22c-8.133 0-15.968 3.222-21.75 9.003-6.508 6.508-9.738 15.504-8.861 24.68.781 8.178-.077 15.554-2.549 21.925-2.655 6.843-2.553 12.616.273 15.443 3.941 3.941 13.306 2.518 22.775-3.461 5.089-3.212 10.703-5.502 16.689-6.806 5.741-1.25 10.983-4.119 15.16-8.295 5.336-5.337 8.505-12.434 8.923-19.984.339-6.102 1.744-11.93 4.178-17.324 3.418-7.578 3.614-14.213.511-17.316-.001 0-.001 0-.001 0-2.643-2.643-8.002-2.902-14.337-.691-6.594 2.302-13.001 3.271-19.05 2.888-.653-.041-1.308-.062-1.961-.062z"/></g><g id="XMLID_777_"><path d="m314.05 221.69c-.39 0-.78-.04-1.17-.12-.38-.08-.76-.19-1.12-.34-.37-.15-.72-.34-1.04-.55-.33-.22-.64-.47-.91-.75-1.12-1.12-1.76-2.66-1.76-4.24 0-.39.04-.79.12-1.18.07-.38.189-.76.34-1.12.15-.36.34-.71.55-1.03.221-.33.471-.64.75-.92.271-.27.58-.52.91-.74.32-.22.67-.4 1.04-.55.36-.15.73-.27 1.12-.35 1.95-.38 4.02.25 5.41 1.64.279.28.529.59.75.92.22.32.399.67.55 1.03.15.36.27.74.34 1.12.08.39.12.79.12 1.18 0 1.58-.64 3.12-1.76 4.24-1.11 1.12-2.66 1.76-4.24 1.76z"/></g><g id="XMLID_776_"><path d="m308.05 199.69c-1.58 0-3.13-.64-4.24-1.76-.279-.28-.529-.58-.75-.91-.21-.33-.399-.68-.55-1.04-.15-.36-.27-.74-.34-1.12-.08-.39-.12-.78-.12-1.17 0-1.58.64-3.13 1.76-4.25.271-.27.58-.52.91-.74.32-.22.67-.4 1.04-.55.36-.15.74-.27 1.12-.34.77-.16 1.57-.16 2.34 0 .38.07.76.19 1.13.34.36.15.71.33 1.03.55.33.22.64.47.91.74 1.12 1.12 1.76 2.67 1.76 4.25 0 .39-.04.78-.12 1.17-.07.38-.189.76-.34 1.12-.15.36-.33.71-.55 1.04-.221.33-.471.63-.75.91-1.11 1.12-2.66 1.76-4.24 1.76z"/></g><g id="XMLID_775_"><path d="m462.151 374.587c-1.535 0-3.071-.586-4.242-1.758-2.344-2.343-2.344-6.142 0-8.484l25.46-25.46c2.342-2.344 6.143-2.344 8.484 0 2.344 2.343 2.344 6.142 0 8.484l-25.46 25.46c-1.17 1.172-2.706 1.758-4.242 1.758z"/></g><g id="XMLID_774_"><path d="m443.651 356.087c-1.535 0-3.071-.586-4.242-1.758-2.344-2.343-2.344-6.142 0-8.484l25.46-25.46c2.342-2.344 6.143-2.344 8.484 0 2.344 2.343 2.344 6.142 0 8.484l-25.46 25.46c-1.17 1.172-2.706 1.758-4.242 1.758z"/></g><g id="XMLID_773_"><path d="m332.051 200c-1.535 0-3.071-.586-4.242-1.757-2.344-2.343-2.344-6.142 0-8.485l6-6c2.342-2.343 6.143-2.343 8.484 0 2.344 2.343 2.344 6.142 0 8.485l-6 6c-1.171 1.171-2.707 1.757-4.242 1.757z"/></g></g></g></svg>