<svg id="&#x421;&#x43B;&#x43E;&#x439;_1" enable-background="new 0 0 2000 2000" viewBox="0 0 2000 2000" xmlns="http://www.w3.org/2000/svg"><g><g><g><g><path d="m661.7 1226.7c-.9 0-1.8-.1-2.8-.3l-209.6-45.7c-17-3.7-32.1-14.2-41.2-28.8-8.5-13.7-11.2-29.5-7.6-44.5 3.8-15.7 14.4-28.9 29.1-36.2 6.4-3.2 14.1-.6 17.3 5.7 3.2 6.4.6 14.1-5.7 17.3-8 4-13.5 10.9-15.6 19.3-2 8.2-.4 17 4.4 24.7 5.5 8.8 14.5 15.1 24.8 17.3l209.6 45.7c6.9 1.5 11.4 8.4 9.8 15.3-1.2 6.1-6.6 10.2-12.5 10.2z" fill="#333"/></g><g><path d="m649.9 1204.2c-2 0-4-.5-5.9-1.4l-279.3-142.9c-16.8-8.6-29.6-23.6-35.1-41.1-5-16.2-3.5-33 4.3-47.5 8.9-16.4 25-27.8 44.1-31.3 7-1.3 13.7 3.4 14.9 10.4s-3.4 13.7-10.4 14.9c-11.4 2-20.8 8.6-26 18.1-4.5 8.3-5.3 18.1-2.4 27.6 3.4 10.9 11.5 20.3 22.2 25.8l279.3 142.9c6.3 3.2 8.8 11 5.6 17.3-2.1 4.6-6.6 7.2-11.3 7.2z" fill="#333"/></g><g><path d="m632.9 1163.7c-2.8 0-5.6-.9-8-2.8l-286.3-225.2c-12.7-10-21.3-23.9-24.2-39.1-3-15.6.2-31.2 8.9-44.1 18.1-26.7 55.6-34.2 85.4-17 6.2 3.6 8.3 11.4 4.7 17.6s-11.4 8.3-17.6 4.7c-18.1-10.5-40.6-6.4-51.2 9.2-10.3 15.1-6 36 9.9 48.5l286.4 225.3c5.6 4.4 6.6 12.5 2.2 18.1-2.6 3.1-6.4 4.8-10.2 4.8z" fill="#333"/></g><g><path d="m748.1 1642.6c-.5 0-1 0-1.4-.1-7.1-.8-12.2-7.2-11.4-14.2l10-89.8c-27.9-18.3-133.5-88.9-179.8-136.8-17.9-18.5-77.7-48.3-164.1-81.8-32.9-12.8-49.4-50-36.9-83 12.3-32.3 47.6-49.2 80.4-38.4l126.6 41.6 86.8 25.6c4.7 1.4 7.7-1.4 8.7-2.6s3.3-4.6 1.2-9l-53.2-110.3-215.9-280c-9.5-12.3-14-27.6-12.6-43 1.3-15.5 8.3-29.8 19.7-40.3 24.5-22.6 62.2-21.8 85.7 1.8l259.1 259.4c5 5 5 13.2 0 18.2s-13.2 5-18.2 0l-259.1-259.4c-13.7-13.8-35.7-14.2-50-1-13.9 12.8-15.7 33.7-4.1 48.6l216.7 281.1c.5.7 1 1.5 1.4 2.3l53.8 111.5c6 12.3 4.1 26.5-4.7 36.9-8.9 10.4-22.5 14.5-35.6 10.6l-87-25.7c-.1 0-.3-.1-.4-.1l-126.9-41.7c-19.7-6.5-41 3.6-48.3 23.1-7.5 19.8 2.4 42.2 22.1 49.8 64.4 25 146.7 60.5 173.3 87.9 50.4 52.1 180.7 136.6 182 137.4 4.1 2.6 6.3 7.4 5.8 12.2l-10.9 97.7c-.7 6.7-6.3 11.5-12.8 11.5z" fill="#333"/></g><g><path d="m972.4 1642.6c-.4 0-.7 0-1.1 0-7.1-.6-12.4-6.8-11.8-13.9l13-158c3.8-46.1-4.3-92.7-23.3-134.9-2.9-6.5-.1-14.1 6.4-17s14.1-.1 17 6.4c20.9 46.1 29.7 97.2 25.5 147.6l-13 158c-.4 6.7-6.1 11.8-12.7 11.8z" fill="#333"/></g></g><g><g><g><path d="m1476.2 1117.7c-10.2 0-20.4-3.9-28.2-11.6l-66.6-66.6c-5-5-5-13.2 0-18.2s13.2-5 18.2 0l66.6 66.6c5.5 5.5 14.4 5.5 19.9 0l103-103c5.5-5.5 5.5-14.4 0-19.9l-66.6-66.6c-5-5-5-13.2 0-18.2s13.2-5 18.2 0l66.6 66.6c15.5 15.5 15.5 40.8 0 56.3l-103 103c-7.7 7.8-17.9 11.6-28.1 11.6z" fill="#333"/></g><g><path d="m1379.4 1043.1c-8.9 0-17.9-3-25.3-9l-21.4-17.3c-5.5-4.5-6.4-12.6-2-18.1 4.5-5.5 12.6-6.4 18.1-2l21.4 17.3c5.8 4.7 14.1 4.2 19.4-1l16.9-17.5c5-5.1 13.1-5.2 18.2-.3 5.1 5 5.2 13.1.3 18.2l-17 17.5s-.1.1-.1.1c-7.8 8.1-18.1 12.1-28.5 12.1z" fill="#333"/></g><g><path d="m1456.9 976.9c-3.3 0-6.6-1.3-9.1-3.8-5-5-5-13.2 0-18.2l66.5-66.5c5.3-5.3 5.7-13.7 1-19.5l-386.2-479.4-238.3 238.4 129.4 104.3c5.5 4.5 6.4 12.6 1.9 18.1s-12.6 6.4-18.1 2l-140.5-113.4c-2.8-2.3-4.6-5.7-4.8-9.3s1.2-7.2 3.8-9.8l258.7-258.7c2.6-2.6 6.1-4 9.8-3.8 3.6.2 7 1.9 9.3 4.8l395.2 490.6c13 16.1 11.7 39.2-2.9 53.8l-66.5 66.5c-2.6 2.6-5.9 3.9-9.2 3.9z" fill="#333"/></g><g><path d="m1116.2 491.8c-3.3 0-6.6-1.2-9.1-3.7-5-5-5.1-13.2 0-18.2l55.4-55.7c5-5 13.2-5.1 18.2 0 5 5 5.1 13.2 0 18.2l-55.4 55.7c-2.5 2.4-5.8 3.7-9.1 3.7z" fill="#333"/></g><g><path d="m924.4 684.6c-3.3 0-6.6-1.2-9.1-3.7-5-5-5.1-13.2 0-18.2l149.2-150c5-5 13.2-5.1 18.2 0 5 5 5.1 13.2 0 18.2l-149.2 150c-2.4 2.4-5.7 3.7-9.1 3.7z" fill="#333"/></g></g></g><g><g><path d="m1041.3 1355c-106.6 0-204.8-53.6-262.7-143.3-3.9-6-2.1-13.9 3.8-17.8 6-3.9 13.9-2.1 17.8 3.8 53.1 82.3 143.2 131.5 241.1 131.5 158.1 0 286.6-128.6 286.6-286.6 0-34.5-6.1-68.2-18-100.3-2.5-6.7.9-14.1 7.6-16.6s14.1.9 16.6 7.6c13 34.9 19.7 71.7 19.7 109.3 0 83.4-32.5 161.9-91.5 220.9-59.1 59-137.6 91.5-221 91.5zm0-52.6c-69.4 0-134.6-27-183.7-76.1s-76.1-114.3-76.1-183.7c0-53.3 16.1-104.5 46.4-148.2 2.2-3.1 5.6-5.1 9.4-5.5 3.8-.3 7.6 1 10.2 3.7l343.5 343.5c2.7 2.7 4.1 6.4 3.7 10.2s-2.3 7.3-5.5 9.4c-43.4 30.6-94.7 46.7-147.9 46.7zm-200.6-380.2c-21.9 36.3-33.4 77.7-33.4 120.4 0 129 105 234 234 234 42.8 0 84.1-11.5 120.4-33.4zm381.3 301.4c-3.4 0-6.7-1.4-9.1-3.8l-348.9-348.7c-2.5-2.5-3.8-5.8-3.8-9.3.1-3.5 1.5-6.8 4.1-9.2 48.2-44.9 111.1-69.6 176.9-69.6 69.4 0 134.6 27 183.7 76.1s76.1 114.3 76.1 183.7c0 65.9-24.7 128.7-69.6 176.9-2.4 2.6-5.7 4-9.2 4.1-.1-.2-.2-.2-.2-.2zm-330-361.1 329.4 329.4c34.8-42 53.9-94.5 53.9-149.3 0-129-105-234-234-234-54.9.1-107.4 19.1-149.3 53.9zm-137 281.2c-5.5 0-10.6-3.6-12.3-9.1-9.1-29.7-13.8-60.6-13.8-92 0-83.4 32.5-161.9 91.5-220.9s137.5-91.5 220.9-91.5c51 0 101.6 12.6 146.3 36.3 43.3 23 81.1 56.4 109.4 96.6 4.1 5.8 2.7 13.8-3.1 17.9s-13.8 2.7-17.9-3.1c-53.7-76.4-141.4-122-234.7-122-158.1 0-286.6 128.6-286.6 286.6 0 28.8 4.2 57.2 12.6 84.4 2.1 6.8-1.7 14-8.5 16.1-1.3.5-2.6.7-3.8.7z" fill="#333"/></g><g><path d="m1201.1 1089.8c-21.9 0-39.7-17.8-39.7-39.7s17.8-39.7 39.7-39.7 39.7 17.8 39.7 39.7-17.8 39.7-39.7 39.7zm0-53.5c-7.7 0-13.9 6.2-13.9 13.9s6.2 13.9 13.9 13.9 13.9-6.2 13.9-13.9-6.2-13.9-13.9-13.9z" fill="#333"/></g><g><path d="m1002.8 1232.3c-21.9 0-39.7-17.8-39.7-39.7s17.8-39.7 39.7-39.7 39.7 17.8 39.7 39.7-17.8 39.7-39.7 39.7zm0-53.6c-7.7 0-13.9 6.2-13.9 13.9s6.2 13.9 13.9 13.9 13.9-6.2 13.9-13.9c.1-7.7-6.2-13.9-13.9-13.9z" fill="#333"/></g><g><path d="m1151 947.5c-21.9 0-39.7-17.8-39.7-39.7s17.8-39.7 39.7-39.7 39.7 17.8 39.7 39.7-17.8 39.7-39.7 39.7zm0-53.6c-7.7 0-13.9 6.2-13.9 13.9s6.2 13.9 13.9 13.9 13.9-6.2 13.9-13.9-6.2-13.9-13.9-13.9z" fill="#333"/></g><g><path d="m890 1125.8c-21.9 0-39.7-17.8-39.7-39.7s17.8-39.7 39.7-39.7 39.7 17.8 39.7 39.7-17.8 39.7-39.7 39.7zm0-53.6c-7.7 0-13.9 6.2-13.9 13.9s6.2 13.9 13.9 13.9 13.9-6.2 13.9-13.9c0-7.6-6.2-13.9-13.9-13.9z" fill="#333"/></g><g><path d="m1021.5 919.6c-21.9 0-39.7-17.8-39.7-39.7s17.8-39.7 39.7-39.7 39.7 17.8 39.7 39.7-17.8 39.7-39.7 39.7zm0-53.6c-7.7 0-13.9 6.2-13.9 13.9s6.2 13.9 13.9 13.9 13.9-6.2 13.9-13.9-6.2-13.9-13.9-13.9z" fill="#333"/></g></g></g></g></svg>