<svg id="Layer_1" enable-background="new 0 0 74 74" height="512" viewBox="0 0 74 74" width="512" xmlns="http://www.w3.org/2000/svg"><g><path d="m58.08 26.88c-7.09-12.04-1.77-21.54-1.71-21.63.14-.24.06-.54-.18-.68s-.54-.06-.68.18c-.06.1-5.69 10.08 1.72 22.65 1.57 2.51 2.51 5.32 3.01 8.26-25.53 12.59-43.48 2.11-45.88.57.51-2.38 1.21-4.69 2.18-6.85 6.81-15.14 2.32-24.06 2.13-24.43-.13-.24-.43-.34-.67-.21s-.34.43-.21.67c.05.09 4.44 8.89-2.16 23.56-1.04 2.31-1.78 4.78-2.3 7.33-.01.03-.03.05-.04.08l-.04.27c-.34 1.72-.58 3.47-.74 5.22l-.06.39c0 .03.01.07.02.1-1.07 13.34 2.54 26.6 2.59 26.78.06.22.26.37.48.37.04 0 .09-.01.13-.02.27-.07.42-.35.35-.62-.05-.17-3.5-12.84-2.61-25.74 2.12 1.07 8.76 4.38 12.7 5.78 4.15 1.48 8.68 4.88 9.58 5.58.03.68-.13 3.79-3.54 14.36-.08.26.06.54.33.63.05.02.1.02.15.02.21 0 .41-.13.48-.34 3.44-10.67 3.63-13.94 3.57-14.81.62-.92 4.68-6.46 13.33-8.32 6.41-1.38 9.33-2.82 10.63-3.71-.42 13.06-7.12 26.26-7.21 26.45-.13.25-.03.55.22.67.07.04.15.06.23.06.18 0 .36-.1.44-.27.56-1.08 13.56-26.71 3.76-42.35z"/><path d="m50.99 8.55c.04.01.08.01.12.01.23 0 .43-.15.49-.38.08-.33.17-.65.25-.95.08-.26-.08-.54-.34-.62-.27-.08-.54.08-.62.34-.09.31-.18.64-.26.98-.07.28.09.56.36.62z"/><path d="m51.02 20.37c.04 0 .07 0 .11-.01.27-.06.44-.33.38-.6-.15-.69-.28-1.4-.38-2.09-.04-.27-.29-.46-.56-.43-.27.04-.46.29-.43.56.1.72.23 1.45.39 2.17.05.24.26.4.49.4z"/><path d="m51.61 23.67c.25.68.52 1.37.82 2.04.08.19.27.3.46.3.07 0 .14-.01.2-.04.25-.11.37-.41.25-.66-.29-.65-.56-1.32-.8-1.98-.09-.26-.38-.39-.64-.3-.25.09-.39.38-.29.64z"/><path d="m55.2 30.99c.09.18.27.29.45.29.07 0 .14-.02.21-.05.25-.12.36-.42.24-.67-.3-.64-.64-1.25-.99-1.82l-.07-.11c-.14-.24-.45-.32-.68-.18s-.32.45-.18.68l.08.13c.34.54.66 1.13.94 1.73z"/><path d="m50.38 14.46c.28 0 .5-.22.5-.5 0-.71.04-1.42.1-2.12.02-.28-.18-.52-.45-.54s-.52.18-.54.45c-.07.73-.1 1.47-.11 2.2 0 .28.22.51.5.51z"/><path d="m57.15 35.83c.03 0 .07 0 .1-.01.27-.06.44-.32.39-.59-.07-.33-.15-.67-.23-1-.07-.27-.34-.43-.61-.36s-.43.34-.36.61c.08.31.15.63.22.95.05.24.25.4.49.4z"/><path d="m17.42 34.23c-.09.32-.18.65-.27.98-.07.27.09.54.36.61.04.01.08.02.13.02.22 0 .42-.15.48-.37.08-.32.17-.63.26-.95.08-.27-.07-.54-.34-.62-.26-.09-.54.06-.62.33z"/><path d="m23.2 19.82c.13-.73.23-1.44.32-2.13.03-.27-.16-.52-.44-.56s-.52.16-.56.44c-.08.67-.18 1.37-.31 2.08-.05.27.13.53.41.58.03.01.06.01.09.01.24-.01.45-.18.49-.42z"/><path d="m22.71 11.81c.03.57.05 1.17.05 1.8v.3c0 .28.22.5.5.5.27 0 .5-.22.5-.5v-.31c0-.65-.02-1.27-.05-1.86-.02-.28-.26-.49-.53-.47-.28.03-.49.26-.47.54z"/><path d="m21.13 25.88c.05.02.1.02.15.02.21 0 .41-.13.48-.35.23-.7.43-1.39.61-2.06.07-.27-.08-.54-.35-.61-.26-.07-.54.08-.61.35-.18.66-.38 1.33-.6 2.02-.09.27.06.55.32.63z"/><path d="m19.54 28.72c-.23.55-.47 1.12-.73 1.69l-.11.26c-.11.25.01.55.26.66.06.03.13.04.2.04.19 0 .38-.11.46-.3l.11-.25c.26-.58.51-1.15.74-1.72.1-.25-.02-.55-.27-.65-.26-.11-.55.01-.66.27z"/><path d="m22.25 8.17c.05.24.26.4.49.4.03 0 .06 0 .1-.01.27-.05.45-.32.39-.59-.07-.35-.14-.68-.22-.99-.06-.27-.33-.43-.6-.37s-.43.33-.37.6c.08.31.15.62.21.96z"/><path d="m27.13 10.55h3.95l-.64.64c-.19.2-.19.51 0 .71.1.1.22.14.35.14s.26-.05.35-.15l1.48-1.5c.19-.19.19-.51 0-.7l-1.48-1.5c-.19-.2-.51-.2-.71 0-.2.19-.2.51 0 .71l.64.64h-3.95c-.28 0-.5.22-.5.5s.23.51.51.51z"/><path d="m26.19 16.67h3.92l-.64.64c-.19.2-.19.51 0 .71.1.1.22.14.35.14s.26-.05.35-.15l1.48-1.5c.19-.19.19-.51 0-.7l-1.48-1.5c-.19-.2-.51-.2-.71 0s-.2.51 0 .71l.64.64h-3.92c-.28 0-.5.22-.5.5.01.28.24.51.51.51z"/><path d="m25.26 22.79h3.89l-.64.64c-.19.2-.19.51 0 .71.1.1.22.14.35.14s.26-.05.35-.15l1.48-1.5c.19-.19.19-.51 0-.7l-1.48-1.5c-.19-.2-.51-.2-.71 0-.2.19-.2.51 0 .71l.64.64h-3.89c-.28 0-.5.22-.5.5s.24.51.51.51z"/><path d="m28.99 28.76c.19-.19.19-.51 0-.7l-1.48-1.5c-.19-.2-.51-.2-.71 0s-.2.51 0 .71l.64.64h-3.84c-.28 0-.5.22-.5.5s.22.5.5.5h3.83l-.64.64c-.19.2-.19.51 0 .71.1.1.22.14.35.14s.26-.05.35-.15z"/><path d="m25.09 36.38c.1.1.23.14.35.14.13 0 .26-.05.36-.15l1.48-1.5c.19-.19.19-.51 0-.7l-1.48-1.5c-.19-.2-.51-.2-.71 0s-.2.51 0 .71l.64.64h-3.78c-.28 0-.5.22-.5.5s.22.5.5.5h3.78l-.64.64c-.2.21-.2.53 0 .72z"/><path d="m42.15 11.89c.1.1.23.15.35.15.13 0 .25-.05.35-.14.2-.19.2-.51 0-.71l-.64-.64h4.12c.28 0 .5-.22.5-.5s-.22-.5-.5-.5h-4.12l.64-.64c.19-.2.19-.51 0-.71s-.5-.2-.7 0l-1.48 1.5c-.19.19-.19.51 0 .7z"/><path d="m43.83 15.02c.19-.2.19-.51 0-.71s-.51-.19-.71 0l-1.48 1.5c-.19.19-.19.51 0 .7l1.48 1.5c.1.1.23.15.35.15.13 0 .25-.05.35-.14.2-.19.2-.51 0-.71l-.64-.64h4.12c.28 0 .5-.22.5-.5s-.22-.5-.5-.5h-4.12z"/><path d="m44.79 21.14c.19-.2.19-.51 0-.71-.2-.19-.51-.19-.71 0l-1.48 1.5c-.19.19-.19.51 0 .7l1.48 1.5c.1.1.23.15.35.15.13 0 .25-.05.35-.14.2-.2.2-.51 0-.71l-.64-.64h4.12c.28 0 .5-.22.5-.5s-.22-.5-.5-.5h-4.12z"/><path d="m46.5 26.56c-.2-.19-.51-.19-.71 0l-1.48 1.5c-.19.19-.19.51 0 .7l1.48 1.5c.1.1.23.15.35.15.13 0 .25-.05.35-.14.2-.19.2-.51 0-.71l-.64-.64h4.12c.28 0 .5-.22.5-.5s-.22-.5-.5-.5h-4.12l.64-.64c.21-.21.21-.53.01-.72z"/><path d="m52.2 34.53c0-.28-.22-.5-.5-.5h-4.12l.64-.64c.19-.2.19-.51 0-.71s-.51-.19-.71 0l-1.48 1.5c-.19.19-.19.51 0 .7l1.48 1.5c.1.1.23.15.36.15s.25-.05.35-.14c.2-.19.2-.51 0-.71l-.64-.64h4.12c.28-.01.5-.23.5-.51z"/></g></svg>