<svg id="Layer_1" enable-background="new 0 0 500 500" viewBox="0 0 500 500" xmlns="http://www.w3.org/2000/svg"><g><path d="m233.632 135.179c-3.965 0-7.179-3.214-7.179-7.179v-36.908c0-3.965 3.214-7.179 7.179-7.179 3.966 0 7.179 3.214 7.179 7.179v36.908c0 3.965-3.213 7.179-7.179 7.179z"/><path d="m204.52 135.179c-3.966 0-7.179-3.214-7.179-7.179v-67.408c0-3.965 3.213-7.179 7.179-7.179 3.965 0 7.179 3.214 7.179 7.179v67.408c0 3.965-3.214 7.179-7.179 7.179z"/><path d="m175.411 134.831c-3.965 0-7.179-3.213-7.179-7.179v-67.06c0-3.965 3.214-7.179 7.179-7.179 3.966 0 7.18 3.214 7.18 7.179v67.06c0 3.965-3.214 7.179-7.18 7.179z"/><path d="m175.406 215.408c-3.769 0-6.933-2.936-7.159-6.747-1.181-19.639-22.034-22.825-22.92-22.952-3.539-.501-6.206-3.536-6.206-7.112v-56.49c0-3.965 3.214-7.179 7.179-7.179s7.179 3.214 7.179 7.179v50.753c11.91 3.603 27.824 13.738 29.098 34.936.239 3.96-2.776 7.362-6.733 7.597-.15.012-.295.015-.438.015z"/><path d="m262.374 471.7h-128.18c-3.965 0-7.179-3.214-7.179-7.179v-27.609c0-3.965 3.214-7.179 7.179-7.179h128.18c3.965 0 7.179 3.214 7.179 7.179v27.609c0 3.965-3.214 7.179-7.179 7.179zm-121.002-14.359h113.822v-13.25h-113.822z"/><path d="m250.267 444.091h-103.968c-3.965 0-7.179-3.214-7.179-7.179v-196.921l-23.568-25.312c-8.937-9.602-13.862-22.115-13.862-35.233v-56.367c0-13.859 10.368-25.615 23.602-26.762 4.807-.429 9.594.513 13.828 2.617v-37.563c0-11.024 7.501-20.348 17.836-22.171 4.186-.732 8.39-.258 12.185 1.302 1.2-4.027 3.559-7.656 6.859-10.424 4.936-4.148 11.458-5.867 17.858-4.74 8.068 1.419 14.409 7.412 16.807 15.213 3.825-1.601 8.093-2.092 12.305-1.352 10.34 1.823 17.841 11.147 17.841 22.171v9.277c3.548-1.281 7.418-1.629 11.274-.948 10.333 1.82 17.838 11.142 17.838 22.168v68.491c0 3.965-3.214 7.179-7.179 7.179s-7.179-3.214-7.179-7.179v-68.489c0-3.976-2.569-7.429-5.973-8.029-2.241-.387-4.44.169-6.139 1.596-1.68 1.407-2.642 3.469-2.642 5.656 0 3.965-3.213 7.179-7.179 7.179-3.965 0-7.179-3.214-7.179-7.179v-29.72c0-3.976-2.569-7.431-5.976-8.032-2.247-.384-4.434.174-6.139 1.599-1.676 1.408-2.638 3.469-2.638 5.653 0 3.965-3.214 7.179-7.179 7.179-3.966 0-7.179-3.214-7.179-7.179v-13.083c0-3.98-2.569-7.431-5.974-8.032-2.249-.381-4.434.169-6.138 1.596-1.677 1.408-2.639 3.469-2.639 5.656v13.862c0 3.965-3.214 7.179-7.18 7.179-3.965 0-7.179-3.214-7.179-7.179 0-2.185-.961-4.246-2.638-5.653-1.705-1.43-3.887-1.977-6.144-1.599-3.402.6-5.97 4.056-5.97 8.032v60.736c0 3.966-3.214 7.179-7.179 7.179s-7.179-3.213-7.179-7.179c0-3.273-1.329-6.293-3.744-8.506-2.412-2.212-5.559-3.255-8.842-2.984-5.881.511-10.485 5.985-10.485 12.46v56.367c0 9.476 3.556 18.514 10.014 25.452l25.492 27.378c1.236 1.327 1.924 3.077 1.924 4.891v192.566h89.61v-108.955c0-3.965 3.214-7.179 7.179-7.179s7.179 3.214 7.179 7.179v116.136c-.003 3.965-3.217 7.179-7.182 7.179z"/><path d="m186.612 421.962c-3.965 0-7.179-3.214-7.179-7.179v-16.818c0-3.965 3.214-7.179 7.179-7.179h25.191c3.966 0 7.18 3.214 7.18 7.179 0 3.966-3.214 7.179-7.18 7.179h-18.012v9.639c0 3.965-3.214 7.179-7.179 7.179z"/><path d="m211.803 380.564h-25.191c-3.965 0-7.179-3.214-7.179-7.179 0-3.966 3.214-7.179 7.179-7.179h25.191c3.966 0 7.18 3.213 7.18 7.179 0 3.965-3.214 7.179-7.18 7.179z"/><path d="m199.206 359.866c-3.966 0-7.18-3.214-7.18-7.179v-17.466c0-3.965 3.214-7.179 7.18-7.179 3.965 0 7.179 3.214 7.179 7.179v17.466c0 3.965-3.214 7.179-7.179 7.179z"/><path d="m213.258 320.086h-28.103c-3.965 0-7.179-3.214-7.179-7.179s3.214-7.179 7.179-7.179h28.103c3.965 0 7.179 3.214 7.179 7.179.001 3.965-3.213 7.179-7.179 7.179z"/><path d="m252.8 254.591c-.286 0-.575-.017-.864-.053-1.89-.227-3.612-1.197-4.787-2.698l-16.046-20.469c-5.367-6.846-4.167-16.787 2.681-22.16l95.869-75.156c3.315-2.6 7.446-3.73 11.632-3.25 4.19.507 7.928 2.614 10.528 5.933l10.737 13.696c2.6 3.321 3.752 7.451 3.248 11.635-.507 4.187-2.617 7.925-5.934 10.525l-102.636 80.468c-1.268.996-2.83 1.529-4.428 1.529zm86.584-109.541c-.25 0-.567.064-.872.302-.003.003-95.87 75.156-95.87 75.156-.617.482-.726 1.383-.238 2.003l11.615 14.821 96.988-76.039c.384-.301.502-.681.536-.949.031-.269.006-.67-.295-1.054l-10.737-13.697c-.301-.384-.681-.502-.948-.532-.056-.008-.115-.011-.179-.011z"/><path d="m244.162 293.296c-.804 0-1.615-.05-2.426-.148-5.267-.637-9.967-3.287-13.236-7.46l-21.358-27.239c-2.445-3.121-1.898-7.633 1.22-10.081 3.127-2.443 7.636-1.893 10.081 1.22l21.359 27.241c.903 1.155 2.204 1.89 3.659 2.067 1.456.168 2.894-.221 4.049-1.133l101.523-79.59c1.156-.906 1.891-2.207 2.064-3.663.177-1.458-.224-2.897-1.13-4.049l-9.335-11.907c-2.445-3.121-1.898-7.633 1.22-10.081 3.132-2.44 7.639-1.896 10.082 1.22l9.335 11.907c3.27 4.175 4.722 9.372 4.083 14.635-.637 5.267-3.286 9.967-7.462 13.24l-101.52 79.59c-3.528 2.765-7.791 4.231-12.208 4.231z"/><path d="m243.276 262.058c-2.131 0-4.24-.945-5.656-2.751-2.445-3.121-1.898-7.633 1.222-10.079l9.529-7.468c3.122-2.443 7.634-1.893 10.079 1.222 2.445 3.121 1.898 7.633-1.223 10.079l-9.529 7.468c-1.312 1.031-2.874 1.529-4.422 1.529z"/><path d="m226.941 250.109c-2.132 0-4.241-.942-5.657-2.748-2.446-3.122-1.899-7.634 1.22-10.082l13.843-10.853c3.13-2.445 7.639-1.895 10.081 1.22 2.446 3.122 1.899 7.634-1.22 10.082l-13.842 10.853c-1.315 1.029-2.877 1.528-4.425 1.528z"/><path d="m203.564 290.559c-5.028 0-10.003-2.224-13.335-6.475-5.755-7.339-4.465-17.996 2.874-23.753.003-.003 15.261-11.963 15.261-11.963 3.124-2.443 7.634-1.896 10.078 1.222l12.02 15.331c2.445 3.118 1.899 7.63-1.221 10.076l-15.256 11.963c-3.09 2.424-6.77 3.599-10.421 3.599zm-1.599-18.932c-1.11.872-1.307 2.487-.435 3.598.87 1.108 2.488 1.312 3.598.438l9.605-7.533-3.16-4.032z"/><path d="m189.186 292.087c-2.132 0-4.241-.942-5.657-2.751-2.446-3.118-1.899-7.63 1.22-10.079l6.703-5.252c3.118-2.446 7.636-1.896 10.079 1.22 2.446 3.121 1.899 7.633-1.22 10.081l-6.702 5.253c-1.313 1.029-2.875 1.528-4.423 1.528z"/><path d="m351.537 155.193c-2.131 0-4.24-.942-5.656-2.749-2.446-3.121-1.899-7.633 1.22-10.081l17.564-13.772c3.126-2.445 7.636-1.896 10.081 1.22 2.446 3.122 1.899 7.634-1.22 10.082l-17.563 13.772c-1.315 1.029-2.877 1.528-4.426 1.528z"/><path d="m379.78 155.042c-2.131 0-4.241-.942-5.657-2.748l-21.358-27.239c-2.445-3.122-1.898-7.634 1.221-10.082 3.126-2.446 7.635-1.893 10.081 1.22l21.358 27.239c2.446 3.122 1.899 7.634-1.22 10.082-1.315 1.029-2.877 1.528-4.425 1.528z"/><path d="m293.555 298.176c-4.964 0-9.88-2.193-13.169-6.394l-14.89-18.993c-2.446-3.119-1.899-7.631 1.22-10.079l25.006-19.607c1.949-1.523 4.549-1.932 6.862-1.105 2.325.838 4.056 2.81 4.583 5.224l6.697 30.69c1.36 6.226-1.004 12.785-6.015 16.714-3.056 2.391-6.687 3.55-10.294 3.55zm-12.33-28.597 10.463 13.346c.522.668 1.206.839 1.568.884.37.045 1.074.039 1.736-.485.704-.553 1.035-1.476.844-2.351l-4.257-19.512z"/><path d="m369.099 300.938c-1.868 0-3.727-.727-5.124-2.148l-56.718-57.727c-1.433-1.458-2.176-3.455-2.044-5.494.132-2.042 1.127-3.925 2.737-5.187l41.083-32.208c3.037-2.372 7.42-1.932 9.914 1.021l39.939 47.321c4.378 4.941 6.601 11.716 5.987 18.461-.611 6.744-4.018 13.006-9.35 17.185l-21.997 17.249c-1.309 1.022-2.871 1.527-4.427 1.527zm-45.972-64.211 46.591 47.422 16.947-13.29c2.263-1.773 3.651-4.324 3.909-7.185.261-2.86-.644-5.62-2.549-7.771l-35.584-42.158z"/><path d="m330.892 262.061c-3.07 0-5.911-1.988-6.859-5.075-1.164-3.792.965-7.808 4.757-8.968 25.752-7.903 26.736-32.337 26.767-33.372.112-3.949 3.525-7.182 7.338-6.994 3.949.09 7.084 3.331 7.017 7.28-.216 12.339-8.203 38.002-36.911 46.81-.701.216-1.41.319-2.109.319z"/><path d="m351.251 282.782c-3.07 0-5.911-1.988-6.859-5.076-1.164-3.792.965-7.808 4.757-8.968 25.251-7.748 22.51-31.976 22.381-33.002-.494-3.935 2.294-7.525 6.229-8.018 3.948-.527 7.521 2.294 8.017 6.229 1.613 12.846-3.085 39.516-32.415 48.515-.701.217-1.411.32-2.11.32z"/><path d="m330.887 471.697c-3.178 0-6.082-2.125-6.933-5.342-.521-1.969-12.44-48.498 13.584-73.561 11.742-11.307 13.242-29.131 9.52-41.784-3.099-10.536-9.661-17.755-17.549-19.308-30.791-6.061-36.922-40.077-37.168-41.524-.665-3.906 1.966-7.617 5.875-8.281 3.875-.654 7.603 1.955 8.278 5.855.199 1.119 4.818 25.733 25.786 29.861 13.242 2.605 23.915 13.576 28.554 29.345 4.944 16.811 2.739 40.702-13.335 56.18-19.928 19.19-9.768 59.157-9.662 59.558 1.001 3.834-1.289 7.757-5.12 8.764-.61.161-1.225.237-1.83.237z"/><path d="m397.799 475h-110.693c-3.966 0-7.18-3.213-7.18-7.179 0-3.965 3.214-7.179 7.18-7.179h110.693c3.965 0 7.179 3.214 7.179 7.179 0 3.966-3.214 7.179-7.179 7.179z"/><path d="m428.194 408.148c-2.796 0-5.591-.886-8.028-2.658l-5.662-4.111-5.657 4.111c-4.879 3.545-11.184 3.545-16.063 0-4.877-3.545-6.826-9.54-4.964-15.275l2.162-6.652-5.659-4.112c-4.877-3.545-6.826-9.543-4.961-15.278 1.861-5.734 6.963-9.439 12.993-9.439h6.994l2.165-6.652c1.862-5.732 6.96-9.439 12.99-9.439 6.032 0 11.13 3.708 12.995 9.442l2.162 6.649h6.991c6.029 0 11.13 3.705 12.995 9.439 1.862 5.735-.084 11.731-4.963 15.278l-5.657 4.112 2.162 6.652c1.862 5.735-.087 11.731-4.963 15.275-2.439 1.771-5.236 2.658-8.032 2.658zm-13.687-21.302c2.816 0 5.628.875 8.032 2.622l4.333 3.147-1.657-5.099c-1.835-5.651.162-11.787 4.966-15.275l4.335-3.149h-5.361c-5.937 0-11.159-3.794-12.993-9.442l-1.655-5.093-1.657 5.099c-1.834 5.642-7.056 9.436-12.995 9.436h-5.359l4.338 3.153c4.801 3.485 6.797 9.621 4.963 15.269l-1.657 5.101 4.333-3.149c2.402-1.745 5.218-2.62 8.034-2.62zm21.736-19.011 4.22 5.808-4.217-5.808c-.003 0-.003 0-.003 0z"/><path d="m71.807 332.203c-2.795 0-5.589-.885-8.028-2.656-4.88-3.545-6.829-9.543-4.967-15.278l2.166-6.652-5.662-4.111c-4.877-3.542-6.826-9.538-4.964-15.273 1.864-5.735 6.965-9.442 12.995-9.442h6.994l2.16-6.652c1.868-5.738 6.969-9.443 12.995-9.443 6.032.003 11.13 3.707 12.995 9.443l2.16 6.652h6.994c6.032 0 11.13 3.707 12.995 9.442 1.862 5.735-.087 11.731-4.967 15.273l-5.656 4.111 2.162 6.652c1.862 5.738-.087 11.733-4.967 15.278-4.877 3.539-11.18 3.542-16.058-.003l-5.659-4.111-5.657 4.111c-2.439 1.774-5.235 2.659-8.031 2.659zm-6.317-39.053 4.335 3.149c4.801 3.491 6.795 9.63 4.963 15.272l-1.657 5.099 4.333-3.149c4.809-3.489 11.262-3.486 16.06-.002l4.335 3.152-1.654-5.095c-1.835-5.651.162-11.787 4.966-15.275l4.33-3.149h-5.356c-5.934 0-11.156-3.792-12.993-9.434l-1.657-5.104-1.655 5.099c-1.834 5.645-7.056 9.439-12.995 9.439h-5.355zm41.744-1.259 4.221 5.808-4.215-5.81c-.006.002-.006.002-.006.002z"/></g></svg>