<svg clip-rule="evenodd" fill-rule="evenodd" stroke-linejoin="round" stroke-miterlimit="2" viewBox="0 0 128 128" xmlns="http://www.w3.org/2000/svg"><g id="Icon"><path d="m92 62c16.557 0 30 13.443 30 30s-13.443 30-30 30-30-13.443-30-30 13.443-30 30-30zm0 4c-14.35 0-26 11.65-26 26s11.65 26 26 26 26-11.65 26-26-11.65-26-26-26zm2 10c0 1.104-.896 2-2 2s-2-.896-2-2v-3c0-1.104.896-2 2-2s2 .896 2 2zm-8.586.586c.781.78.781 2.048 0 2.828-.78.781-2.048.781-2.828 0l-2-2c-.781-.78-.781-2.048 0-2.828.78-.781 2.048-.781 2.828 0zm16 2.828c-.78.781-2.048.781-2.828 0-.781-.78-.781-2.048 0-2.828l2-2c.78-.781 2.048-.781 2.828 0 .781.78.781 2.048 0 2.828zm-30.414 8.586c0-1.104.896-2 2-2h8.887c2.143-3.629 5.887-6 10.113-6s7.97 2.371 10.113 6h8.887c1.104 0 2 .896 2 2v16c0 1.105-.895 2-2 2h-38c-1.105 0-2-.895-2-2zm38 2h-8.092c-.778 0-1.485-.451-1.813-1.156-1.325-2.848-3.989-4.844-7.095-4.844s-5.77 1.996-7.095 4.844c-.328.705-1.035 1.156-1.813 1.156h-8.092v6c1.104 0 2 .896 2 2s-.896 2-2 2v2h34v-6c-1.104 0-2-.896-2-2s.896-2 2-2zm-17-4c3.179 0 6 3.027 6 7s-2.821 7-6 7-6-3.027-6-7 2.821-7 6-7zm0 4c-1.243 0-2 1.446-2 3s.757 3 2 3 2-1.446 2-3-.757-3-2-3zm10 9c-1.104 0-2-.896-2-2s.896-2 2-2 2 .896 2 2-.896 2-2 2zm-21-3c-1.104 0-2-.896-2-2s.896-2 2-2 2 .896 2 2-.896 2-2 2zm-20.792 8.069c-3.66 1.269-7.512 1.931-11.428 1.931h-5.56c-9.889 0-19.379-4.226-26.371-11.77-6.94-7.488-10.849-17.64-10.849-28.23v-30c0-7.937 2.932-15.546 8.134-21.159 5.254-5.669 12.386-8.841 19.817-8.841h24.098c7.431 0 14.563 3.172 19.817 8.841 5.202 5.613 8.134 13.222 8.134 21.159v22.529c-1.363.243-2.698.567-4 .968v-23.497c0-6.915-2.536-13.55-7.068-18.439-4.479-4.833-10.549-7.561-16.883-7.561h-24.098c-6.334 0-12.404 2.728-16.883 7.561-4.532 4.889-7.068 11.524-7.068 18.439v30c0 9.567 3.513 18.746 9.782 25.511 6.218 6.708 14.645 10.489 23.438 10.489h5.56c3.507 0 6.956-.601 10.23-1.75.325 1.304.726 2.579 1.198 3.819zm-1.426-19.346c-3.801-1.101-8.156-1.723-12.782-1.723-4.883 0-9.464.693-13.41 1.911-1.055.326-2.175-.266-2.501-1.321s.266-2.175 1.321-2.501c4.293-1.325 9.276-2.089 14.59-2.089 5.017 0 9.74.681 13.866 1.873-.434 1.252-.797 2.537-1.084 3.85zm10.184-17.723c-1.088-.018-1.966-.907-1.966-2 0-1.104.896-2 2-2s2 .896 2 2c0 .096-.007.19-.02.282-.693.547-1.365 1.12-2.014 1.718zm-41.966-1c1.104 0 2 .896 2 2s-.896 2-2 2-2-.896-2-2 .896-2 2-2zm-11.731-18.139c-1.028-.403-1.534-1.565-1.13-2.592.403-1.028 1.565-1.534 2.592-1.13 3.022 1.187 6.53 1.861 10.269 1.861s7.247-.674 10.269-1.861c1.027-.404 2.189.102 2.592 1.13.404 1.027-.102 2.189-1.13 2.592-3.452 1.357-7.458 2.139-11.731 2.139s-8.279-.782-11.731-2.139zm58.731 13.139c-1.104 0-2-.896-2-2s.896-2 2-2 2 .896 2 2-.896 2-2 2zm-9 0c-1.104 0-2-.896-2-2s.896-2 2-2 2 .896 2 2-.896 2-2 2zm-11.731-13.139c-1.028-.403-1.534-1.565-1.13-2.592.403-1.028 1.565-1.534 2.592-1.13 3.022 1.187 6.53 1.861 10.269 1.861s7.247-.674 10.269-1.861c1.027-.404 2.189.102 2.592 1.13.404 1.027-.102 2.189-1.13 2.592-3.452 1.357-7.458 2.139-11.731 2.139s-8.279-.782-11.731-2.139zm-11.269 42.139c-1.104 0-2-.896-2-2s.896-2 2-2h8c1.104 0 2 .896 2 2s-.896 2-2 2zm-21-31c1.104 0 2 .896 2 2s-.896 2-2 2-2-.896-2-2 .896-2 2-2zm-2 7c1.104 0 2 .896 2 2s-.896 2-2 2-2-.896-2-2 .896-2 2-2z"/></g></svg>