<svg id="Layer_1" enable-background="new 0 0 500 500" viewBox="0 0 500 500" xmlns="http://www.w3.org/2000/svg"><g><path d="m249.996 401.475c-44.039 0-79.868-35.824-79.868-79.865v-216.739c0-44.042 35.829-79.871 79.868-79.871 44.042 0 79.871 35.829 79.871 79.871v216.739c0 44.041-35.829 79.865-79.871 79.865zm0-362.727c-36.461 0-66.12 29.663-66.12 66.123v216.739c0 36.455 29.66 66.118 66.12 66.118 36.458 0 66.123-29.663 66.123-66.118v-216.739c0-36.461-29.665-66.123-66.123-66.123z"/><path d="m249.999 433.785c-63.214 0-114.643-43.292-114.643-96.503v-27.608c0-3.8 3.078-6.875 6.875-6.875 3.795 0 6.872 3.075 6.872 6.875v27.608c0 45.633 45.261 82.755 100.896 82.755 55.63 0 100.891-37.122 100.891-82.755v-27.581c0-3.8 3.078-6.875 6.875-6.875 3.795 0 6.872 3.075 6.872 6.875v27.581c0 53.211-51.425 96.503-114.638 96.503z"/><path d="m250.004 475-26.102-.039c-17.247-.028-31.279-14.078-31.279-31.323v-27.167c0-3.797 3.078-6.872 6.872-6.872 3.797 0 6.875 3.075 6.875 6.872v27.167c0 9.674 7.874 17.561 17.553 17.572l26.08.041 25.526-.041c9.978-.011 18.094-8.141 18.094-18.116v-26.624c0-3.797 3.078-6.872 6.875-6.872 3.795 0 6.872 3.075 6.872 6.872v26.624c0 17.548-14.274 31.839-31.822 31.866z"/><path d="m269.143 163.424h-38.289c-14.762 0-26.77-12.007-26.77-26.77 0-14.76 12.007-26.77 26.77-26.77h38.289c14.762 0 26.77 12.01 26.77 26.77 0 14.762-12.008 26.77-26.77 26.77zm-38.289-39.792c-7.178 0-13.022 5.841-13.022 13.022 0 7.184 5.844 13.022 13.022 13.022h38.289c7.178 0 13.022-5.838 13.022-13.022 0-7.181-5.844-13.022-13.022-13.022z"/><path d="m269.143 240.01h-38.289c-14.762 0-26.77-12.01-26.77-26.77 0-14.762 12.007-26.772 26.77-26.772h38.289c14.762 0 26.77 12.01 26.77 26.772 0 14.76-12.008 26.77-26.77 26.77zm-38.289-39.792c-7.178 0-13.022 5.838-13.022 13.022 0 7.181 5.844 13.022 13.022 13.022h38.289c7.178 0 13.022-5.841 13.022-13.022 0-7.184-5.844-13.022-13.022-13.022z"/><path d="m269.143 316.588h-38.292c-14.76 0-26.767-12.01-26.767-26.77 0-14.762 12.007-26.77 26.767-26.77h38.292c14.762 0 26.77 12.007 26.77 26.77 0 14.76-12.008 26.77-26.77 26.77zm-38.291-39.792c-7.181 0-13.02 5.838-13.02 13.022 0 7.181 5.838 13.022 13.02 13.022h38.292c7.178 0 13.022-5.841 13.022-13.022 0-7.184-5.844-13.022-13.022-13.022z"/><path d="m446.27 220.113h-77.333c-3.795 0-6.872-3.075-6.872-6.872 0-3.8 3.078-6.875 6.872-6.875h77.333c3.798 0 6.875 3.075 6.875 6.875 0 3.797-3.078 6.872-6.875 6.872z"/><path d="m368.941 170.608c-2.7 0-5.256-1.6-6.354-4.244-1.453-3.502.21-7.523 3.717-8.979l65.321-27.081c3.508-1.448 7.526.215 8.982 3.72 1.453 3.505-.21 7.526-3.718 8.982l-65.321 27.079c-.859.355-1.752.523-2.627.523z"/><path d="m434.254 296.69c-.874 0-1.768-.168-2.628-.524l-65.321-27.07c-3.508-1.456-5.171-5.477-3.717-8.982 1.453-3.505 5.466-5.168 8.982-3.72l65.321 27.073c3.508 1.456 5.171 5.477 3.718 8.982-1.099 2.645-3.655 4.241-6.355 4.241z"/><path d="m131.059 220.113h-77.329c-3.797 0-6.875-3.075-6.875-6.872 0-3.8 3.078-6.875 6.875-6.875h77.328c3.798 0 6.875 3.075 6.875 6.875.001 3.797-3.077 6.872-6.874 6.872z"/><path d="m131.056 170.608c-.874 0-1.768-.168-2.628-.524l-65.318-27.079c-3.505-1.456-5.171-5.477-3.717-8.982 1.451-3.505 5.471-5.168 8.982-3.72l65.318 27.081c3.505 1.456 5.171 5.477 3.717 8.979-1.098 2.645-3.654 4.245-6.354 4.245z"/><path d="m65.746 296.69c-2.7 0-5.256-1.597-6.354-4.241-1.453-3.505.212-7.526 3.717-8.982l65.318-27.073c3.502-1.448 7.529.215 8.982 3.72s-.212 7.526-3.717 8.982l-65.318 27.07c-.86.356-1.754.524-2.628.524z"/></g></svg>