<svg id="Layer_3" enable-background="new 0 0 100 100" viewBox="0 0 100 100" xmlns="http://www.w3.org/2000/svg"><path d="m40.321 11.618c-.018-.924.722-1.681 1.662-1.697.926-.017 1.681.722 1.698 1.648.017.924-.724 1.697-1.647 1.713-.016 0-.016 0-.033 0-.908 0-1.665-.739-1.68-1.664zm-4.689 3.748c.184 0 .369-.035.554-.102.873-.301 1.344-1.26 1.041-2.133-.318-.873-1.277-1.344-2.15-1.042-.875.32-1.345 1.276-1.026 2.152.235.688.892 1.125 1.581 1.125zm19.525-1.799c.085.017.169.017.253.017.807 0 1.529-.604 1.647-1.428.151-.924-.487-1.78-1.413-1.915-.907-.134-1.764.504-1.899 1.411-.134.924.488 1.781 1.412 1.915zm-32.214 6.235c.185 0 .371-.033.555-.1.875-.302 1.327-1.261 1.025-2.135-.302-.873-1.26-1.344-2.135-1.042-.873.304-1.344 1.261-1.024 2.152.235.688.873 1.125 1.579 1.125zm6.336-2.217c.185 0 .369-.035.554-.102.891-.302 1.344-1.261 1.042-2.134-.304-.875-1.261-1.346-2.135-1.042-.891.318-1.344 1.276-1.042 2.152.237.688.892 1.126 1.581 1.126zm32.517-3.027c.102 0 .185.018.252.018.824 0 1.546-.606 1.664-1.445.134-.907-.488-1.764-1.413-1.899-.924-.134-1.781.488-1.916 1.411-.133.924.505 1.765 1.413 1.915zm19.963 2.959c.068 0 .153.017.236.017.824 0 1.546-.606 1.664-1.446.133-.907-.505-1.764-1.413-1.899-.924-.135-1.781.504-1.915 1.411-.134.924.505 1.783 1.428 1.917zm-6.654-.993c.085.018.169.018.237.018.822 0 1.546-.606 1.662-1.429.135-.924-.486-1.78-1.411-1.915-.908-.135-1.764.504-1.899 1.411-.135.924.487 1.782 1.411 1.915zm-58.513 5.497c.184 0 .369-.035.554-.1.873-.304 1.344-1.261 1.041-2.135-.302-.891-1.276-1.344-2.15-1.042-.875.302-1.328 1.277-1.026 2.152.235.688.892 1.125 1.581 1.125zm51.858-6.488c.085.018.169.018.252.018.824 0 1.53-.589 1.664-1.43.135-.924-.506-1.764-1.411-1.899-.926-.151-1.783.487-1.917 1.411-.134.909.505 1.766 1.412 1.9zm19.948 2.959c.084.017.169.033.253.033.824 0 1.53-.606 1.664-1.445.133-.924-.506-1.764-1.413-1.899-.924-.134-1.78.488-1.915 1.412-.135.906.503 1.765 1.411 1.899zm-39.675-5.479h.033c.924-.033 1.664-.789 1.648-1.713-.018-.942-.791-1.681-1.715-1.648-.924.018-1.664.773-1.646 1.715.016.907.772 1.646 1.68 1.646zm-37.258 19.242 30.199-2.168c.991 0 2.185-.067 3.461-.134 2.957-.151 6.318-.218 7.831.084l35.29 8.604c.118.034.253.051.404.051.404 0 .806-.151 1.109-.436.42-.37.622-.908.555-1.446l-1.68-13.762c-.086-.757-.673-1.362-1.429-1.462l-28.972-4.236c-7.041-1.478-14.519-1.209-21.527.791l-.706.286c-.404.168-.74.504-.908.907-.167.42-.167.872.016 1.291 0 .001 0 .001.001.002.352.824 1.362 1.243 2.202.891h.017l.385-.169c6.487-1.831 13.36-2.066 19.898-.705l27.844 4.084 1.228 10.065-32.92-8.015-.051-.017c-1.058-.218-2.302-.32-4.05-.32-1.597 0-3.31.084-4.806.168-1.226.051-2.368.118-3.209.118l-20.2 1.429 3.461-1.445c.858-.353 1.26-1.344.891-2.185 0-.001-.001-.002-.002-.003-.338-.838-1.36-1.257-2.183-.905l-12.923 5.411c-.755.32-1.175 1.126-.973 1.933.185.805.941 1.343 1.747 1.293zm18.334-11.242c-.402.184-.722.504-.908.924-.167.42-.167.873.018 1.277.001.002.002.003.002.005.253.635.873 1.037 1.544 1.037.235 0 .437-.051.655-.135.856-.352 1.259-1.341.893-2.197 0-.001 0-.003-.001-.004-.337-.823-1.344-1.26-2.203-.907zm5.076 14.44c-.929 0-1.68.752-1.68 1.681v5.546l-.272-.418c-.507-.776-1.546-.996-2.326-.491-.778.507-.998 1.548-.491 2.325l3.361 5.158c.31.476.84.763 1.408.763s1.098-.287 1.408-.763l3.361-5.158c.507-.778.287-1.818-.491-2.325-.781-.505-1.82-.285-2.325.491l-.272.418v-5.546c0-.929-.752-1.681-1.681-1.681zm26.888 1.681c-.929 0-1.681.751-1.681 1.68v5.547l-.272-.418c-.507-.777-1.546-.997-2.325-.491-.778.507-.998 1.548-.491 2.325l3.361 5.158c.31.476.84.763 1.408.763s1.098-.287 1.408-.763l3.361-5.158c.507-.778.287-1.818-.491-2.325-.781-.507-1.82-.285-2.325.491l-.273.418v-5.547c0-.929-.751-1.68-1.68-1.68zm13.443 3.36c-.929 0-1.68.752-1.68 1.681v7.227l-.273-.418c-.506-.777-1.546-.994-2.325-.491-.778.507-.998 1.547-.49 2.326l3.361 5.158c.31.476.84.763 1.408.763s1.098-.287 1.408-.763l3.361-5.158c.507-.778.287-1.818-.491-2.325-.781-.506-1.822-.288-2.325.491l-.272.418v-7.227c-.001-.93-.753-1.682-1.682-1.682zm-53.775-3.36c-.929 0-1.68.751-1.68 1.68v7.227l-.273-.418c-.505-.777-1.545-.996-2.325-.491-.778.507-.998 1.547-.491 2.325l3.361 5.158c.31.476.84.763 1.408.763s1.098-.287 1.408-.763l3.361-5.158c.507-.778.287-1.818-.491-2.325-.78-.507-1.82-.287-2.325.491l-.273.418v-7.227c.001-.929-.751-1.68-1.68-1.68zm26.888-2.241c-.929 0-1.681.751-1.681 1.68v5.545l-.272-.418c-.506-.778-1.546-.995-2.325-.491-.778.507-.998 1.547-.491 2.325l3.361 5.16c.31.476.84.763 1.408.763s1.098-.287 1.408-.763l3.361-5.16c.507-.778.288-1.819-.491-2.325-.781-.506-1.82-.288-2.325.491l-.272.419v-5.545c0-.929-.752-1.681-1.681-1.681zm42.012 36.971c0 .454-.184.889-.51 1.206-.726.706-18.044 17.279-39.821 17.279s-39.096-16.574-39.821-17.279c-.327-.317-.51-.752-.51-1.206 0-.455.184-.889.51-1.206.725-.706 18.043-17.28 39.821-17.28 21.777 0 39.096 16.574 39.821 17.279.326.318.51.752.51 1.207zm-4.198.002c-3.217-2.762-11.913-9.564-23.03-13.026 3.324 3.344 5.381 7.948 5.381 13.025 0 5.079-2.06 9.686-5.388 13.031 11.132-3.461 19.823-10.267 23.037-13.03zm-49.237 13.022c-3.324-3.344-5.382-7.948-5.382-13.024 0-5.08 2.06-9.687 5.388-13.031-11.13 3.46-19.821 10.266-23.036 13.029 3.217 2.762 11.913 9.564 23.03 13.026zm13.104 2.1c8.34 0 15.124-6.784 15.124-15.124s-6.784-15.125-15.124-15.125-15.125 6.784-15.125 15.125 6.784 15.124 15.125 15.124zm0-3.361c-6.486 0-11.763-5.278-11.763-11.763 0-1.185.177-2.357.525-3.479.207-.668.806-1.137 1.503-1.18.717-.046 1.349.351 1.635.989.543 1.208 1.743 1.989 3.059 1.989 1.852 0 3.361-1.508 3.361-3.36 0-1.317-.781-2.516-1.989-3.059-.639-.285-1.032-.937-.989-1.635.043-.697.512-1.296 1.18-1.503 1.121-.348 2.293-.526 3.478-.526 6.486 0 11.763 5.278 11.763 11.763 0 6.487-5.278 11.764-11.763 11.764zm-8.365-10.969c.4 4.262 3.999 7.608 8.364 7.608 4.633 0 8.402-3.77 8.402-8.402 0-4.365-3.346-7.965-7.608-8.365.57.995.886 2.135.886 3.324 0 3.707-3.014 6.721-6.722 6.721-1.187 0-2.327-.317-3.322-.886z"/></svg>