<svg enable-background="new 0 0 2048 2048" viewBox="0 0 2048 2048" xmlns="http://www.w3.org/2000/svg"><g id="_x31_4940_-_Laser"><g><g><path d="m1151.754 529.24c-4.323 0-8.699-1.168-12.643-3.617-51.819-32.191-108.496-53.863-168.455-64.413-13.054-2.296-21.775-14.741-19.478-27.795 2.296-13.055 14.743-21.78 27.795-19.478 66.021 11.616 128.421 35.474 185.468 70.914 11.259 6.994 14.716 21.792 7.722 33.051-4.546 7.316-12.387 11.338-20.409 11.338z" fill="rgb(0,0,0)"/></g><g><path d="m892.267 1669.893h-12.86c-37.339 0-73.713-7.306-108.112-21.714l-7.303-3.048c-41.553-17.394-79.678-41.287-113.337-71.027-32.988-29.146-60.951-63.24-83.112-101.333-6.666-11.457-2.781-26.147 8.676-32.813 11.456-6.663 26.147-2.781 32.813 8.677 40.047 68.837 100.033 121.47 173.472 152.21l7.308 3.05c28.522 11.947 58.658 17.999 89.595 17.999h12.86c30.938 0 61.073-6.052 89.568-17.987l7.357-3.071c73.365-30.708 133.328-83.301 173.385-152.08 6.671-11.454 21.366-15.331 32.817-8.661 11.454 6.671 15.332 21.364 8.661 32.817-22.167 38.062-50.125 72.126-83.099 101.247-33.646 29.716-71.75 53.592-113.254 70.964l-7.352 3.069c-34.37 14.395-70.744 21.701-108.083 21.701z" fill="rgb(0,0,0)"/></g><g><path d="m1195.168 1462.847c-3.602 0-7.258-.813-10.699-2.531-11.86-5.92-16.676-20.332-10.756-32.192 24.941-49.968 38.124-105.945 38.124-161.881v-148.11c0-120.038-64.244-232.313-167.69-293.129l-165.908-88.313-150.298 88.07c-103.69 60.759-168.104 173.173-168.104 293.373v148.11c0 20.815 1.798 41.716 5.346 62.12.236 1.357.354 2.732.354 4.11 0 13.255-10.745 24.005-24 24.005-12.026 0-21.986-8.842-23.729-20.38-3.962-22.957-5.971-46.458-5.971-69.855v-148.11c0-67.584 17.757-134.298 51.353-192.93 33.598-58.636 82.176-107.689 140.484-141.856l161.87-94.85c7.191-4.214 16.053-4.395 23.411-.479l178.19 94.85c.288.154.574.313.856.479 58.308 34.167 106.887 83.22 140.484 141.856 33.595 58.632 51.353 125.346 51.353 192.93v148.11c0 63.337-14.931 126.728-43.177 183.318-4.202 8.416-12.683 13.285-21.493 13.285z" fill="rgb(0,0,0)"/></g><g><path d="m853.697 710.193c-.02-.422-2.294-42.693-31.763-85.556-39.367-57.262-107.065-89.269-201.212-95.13-13.229-.824-23.286-12.216-22.462-25.445.823-13.229 12.215-23.284 25.445-22.462 60.304 3.754 112.442 17.661 154.969 41.333 34.851 19.4 63.258 45.271 84.433 76.896 36.169 54.021 38.474 106.297 38.554 108.497l-47.968 1.753z" fill="rgb(0,0,0)"/></g><g><path d="m870.5 1277.61h-.01c-13.255 0-24-10.745-24-24s10.745-24 24-24 24.005 10.745 24.005 24-10.74 24-23.995 24z" fill="rgb(0,0,0)"/></g><g><path d="m1235.87 1291.02c-13.255 0-24.016-10.745-24.016-24 0-5.792 2.049-11.104 5.462-15.25l7.014-9.224c2.926-4.39 6.243-8.976 9.868-13.641 64.439-82.933 105.762-180.359 119.5-281.748 7.814-57.616 9.091-80.214 8.786-89.027-.405-11.677-1.537-23.04-3.364-33.772l-.104-.601c-4.039-23.521-11.636-46.777-22.586-69.174l-11.061-22.62c-40.945-83.768-103.556-153.979-181.066-203.043-1.672-1.065-3.304-2.082-4.932-3.095-6.032-3.639-10.337-9.856-11.384-17.122-19.218-118.7-120.507-204.813-240.977-204.813-120.725 0-222.122 86.399-241.099 205.438-1.092 6.851-5.096 12.895-10.979 16.572l-1.19.74c-54.171 33.875-100.417 78.04-137.452 131.267l-20.39 29.301c-42.883 61.644-65.955 133.193-66.721 206.911-.02 1.702-.029 3.391-.029 5.081 0 100.231 30.805 184.703 99.867 273.813l44.679 52.294c3.81 4.248 6.129 9.86 6.129 16.013 0 13.255-10.73 24-23.985 24h-.03c-7.02 0-13.688-3.073-18.247-8.41l-45.41-53.15c-.244-.285-.481-.576-.711-.873-76.277-98.256-110.292-191.917-110.292-303.687 0-1.871.011-3.741.032-5.602.866-83.364 26.911-164.22 75.317-233.804l20.392-29.303c38.96-55.996 87.228-102.906 143.557-139.544 12.652-63.666 46.474-121.7 96.029-164.375 52.928-45.58 120.594-70.682 190.534-70.682 69.88 0 137.502 25.065 190.407 70.58 49.522 42.603 83.356 100.551 96.066 164.13 83.377 53.674 150.769 129.771 195.008 220.281l11.06 22.617c12.956 26.499 21.96 54.115 26.763 82.081l.111.636c2.2 12.927 3.552 26.44 4.03 40.254.545 15.742-2.462 47.515-9.192 97.138-14.873 109.762-59.536 215.144-129.161 304.75-3.062 3.942-5.812 7.754-8.173 11.329-.294.444-.603.879-.925 1.303l-8.03 10.56c-4.54 5.967-11.607 9.471-19.105 9.471z" fill="rgb(0,0,0)"/></g><g><path d="m902.17 1278.77h-.01c-13.255 0-24-10.745-24-24s10.745-24 24-24 24.005 10.745 24.005 24-10.74 24-23.995 24z" fill="rgb(0,0,0)"/></g><g><path d="m1101.84 1791.89h-432c-13.255 0-24-10.745-24-24v-209c0-13.255 10.745-24 24-24s24 10.745 24 24v185h384v-184.9c0-13.255 10.745-24 24-24s24 10.745 24 24v208.899c0 13.256-10.745 24.001-24 24.001z" fill="rgb(0,0,0)"/></g><g><path d="m1246.092 855.898c-10.05 0-19.413-6.36-22.766-16.417-66.54-199.619-219.092-223.611-220.625-223.831-13.122-1.875-22.239-14.031-20.365-27.153 1.875-13.123 14.03-22.24 27.153-20.365 1.928.275 47.848 7.153 102.644 42.609 31.81 20.583 60.371 46.695 84.891 77.611 30.359 38.279 54.529 84.019 71.84 135.949 4.191 12.575-2.604 26.166-15.179 30.358-2.518.841-5.079 1.239-7.593 1.239z" fill="rgb(0,0,0)"/></g><g><path d="m1077.965 1311.893h-103.507c-23.965 0-47.122-7.102-66.966-20.537-8.012-5.425-15.268-11.735-21.656-18.796-6.388 7.061-13.643 13.371-21.655 18.796-19.845 13.436-43.001 20.537-66.967 20.537h-103.506c-26.113 0-51.346-7.738-72.97-22.379-21.624-14.64-38.179-35.193-47.878-59.439l-52.867-132.168c-6.66-16.648-4.634-35.453 5.419-50.301 10.053-14.849 26.759-23.713 44.69-23.713h631.466c17.932 0 34.638 8.864 44.69 23.713 10.054 14.848 12.079 33.651 5.42 50.301l-52.867 132.168c-9.698 24.246-26.255 44.8-47.878 59.439-21.622 14.64-46.855 22.379-72.968 22.379zm-192.129-108c9.813 0 18.639 5.975 22.283 15.087 10.914 27.283 36.953 44.913 66.339 44.913h103.506c33.789 0 63.731-20.272 76.281-51.646l52.867-132.167c.972-2.431.21-4.368-.6-5.564-.811-1.196-2.326-2.623-4.944-2.623h-631.465c-2.618 0-4.133 1.427-4.943 2.623s-1.572 3.133-.6 5.564l52.867 132.168c12.549 31.373 42.492 51.645 76.281 51.645h103.506c29.386 0 55.425-17.63 66.339-44.913 3.645-9.113 12.47-15.087 22.283-15.087z" fill="rgb(0,0,0)"/></g><g><g><path d="m1408.013 1791.893c-6.143 0-12.284-2.343-16.971-7.029l-183.515-183.515c-2.635-2.635-4.619-5.847-5.798-9.382l-50.911-152.734c-2.875-8.624-.63-18.133 5.798-24.561 6.429-6.429 15.937-8.673 24.561-5.798l152.734 50.911c3.534 1.179 6.746 3.163 9.381 5.798l183.516 183.516c4.501 4.501 7.029 10.605 7.029 16.971s-2.528 12.47-7.029 16.971l-101.824 101.823c-4.686 4.685-10.83 7.029-16.971 7.029zm-162.538-220.479 162.538 162.537 67.883-67.882-162.539-162.539-101.822-33.94z" fill="rgb(0,0,0)"/></g><g><path d="m1190.558 1642.318c-6.143 0-12.284-2.343-16.971-7.029-9.372-9.373-9.372-24.568 0-33.941l169.705-169.705c9.373-9.373 24.568-9.373 33.941 0 9.372 9.373 9.372 24.568 0 33.941l-169.705 169.705c-4.686 4.687-10.828 7.029-16.97 7.029z" fill="rgb(0,0,0)"/></g></g><g><g><path d="m1317.837 1383.893c-6.143 0-12.284-2.343-16.971-7.029-9.372-9.373-9.372-24.568 0-33.941l24-24c9.373-9.373 24.568-9.373 33.941 0 9.372 9.373 9.372 24.568 0 33.941l-24 24c-4.686 4.686-10.828 7.029-16.97 7.029z" fill="rgb(0,0,0)"/></g><g><path d="m1413.837 1287.893c-6.143 0-12.284-2.343-16.971-7.029-9.372-9.373-9.372-24.568 0-33.941l120-120c9.373-9.373 24.568-9.373 33.941 0 9.372 9.373 9.372 24.568 0 33.941l-120 120c-4.686 4.686-10.828 7.029-16.97 7.029z" fill="rgb(0,0,0)"/></g></g><g><g><path d="m1413.809 1407.896c-11.445 0-21.578-8.215-23.614-19.877-2.279-13.057 6.458-25.49 19.516-27.77l27.668-4.83c13.055-2.271 25.489 6.457 27.77 19.516 2.279 13.057-6.458 25.49-19.516 27.77l-27.668 4.83c-1.397.243-2.786.361-4.156.361z" fill="rgb(0,0,0)"/></g><g><path d="m1524.48 1388.578c-11.445 0-21.578-8.215-23.614-19.877-2.279-13.058 6.458-25.49 19.516-27.77l138.341-24.147c13.053-2.274 25.491 6.458 27.77 19.516s-6.458 25.49-19.516 27.77l-138.341 24.147c-1.396.243-2.785.361-4.156.361z" fill="rgb(0,0,0)"/></g></g><g><path d="m885.836 1561.783c-27.129 0-54.258-10.326-74.912-30.979-9.373-9.373-9.373-24.568 0-33.941s24.568-9.373 33.941 0c22.591 22.592 59.351 22.592 81.941 0 9.373-9.373 24.568-9.373 33.941 0s9.373 24.568 0 33.941c-20.652 20.653-47.781 30.979-74.911 30.979z" fill="rgb(0,0,0)"/></g><g><path d="m541.541 1555.314c-8.773 0-16.847-4.787-21.057-12.483l-31.778-58.104-58.104-31.778c-7.697-4.21-12.484-12.284-12.484-21.057s4.787-16.847 12.484-21.057l58.104-31.778 31.778-58.104c4.21-7.696 12.284-12.483 21.057-12.483s16.847 4.787 21.057 12.483l31.778 58.104 58.104 31.778c7.697 4.21 12.484 12.284 12.484 21.057s-4.787 16.847-12.484 21.057l-58.104 31.778-31.778 58.104c-4.21 7.696-12.284 12.483-21.057 12.483zm-49.406-123.421 25.771 14.095c4.027 2.202 7.338 5.514 9.541 9.54l14.095 25.771 14.095-25.771c2.203-4.026 5.514-7.338 9.541-9.54l25.771-14.095-25.771-14.095c-4.027-2.202-7.338-5.514-9.541-9.54l-14.095-25.771-14.095 25.771c-2.203 4.026-5.514 7.338-9.541 9.54z" fill="rgb(0,0,0)"/></g></g></g><g id="Layer_1"/></svg>