<svg id="&#x421;&#x43B;&#x43E;&#x439;_1" enable-background="new 0 0 300 300" viewBox="0 0 300 300" xmlns="http://www.w3.org/2000/svg"><g fill="#333"><path d="m126.836 124.944c8.894-5.014 18.053-6.97 22.785-4.863 4.088 1.821 6.81 3.551 11.663 6.704.3.195.637.288.97.288.583 0 1.155-.285 1.496-.811.536-.825.302-1.93-.523-2.466-4.867-3.162-7.831-5.046-12.155-6.971-5.805-2.582-16.004-.615-25.986 5.014-.858.484-1.16 1.571-.677 2.429.483.857 1.569 1.16 2.427.676z"/><path d="m148.223 134.729c-.005-.787-.141-1.55-.374-2.275 1.928.825 3.561 2.01 5.237 3.247.881.65 1.793 1.323 2.754 1.941.826.534 1.93.295 2.464-.533.533-.829.294-1.931-.534-2.464-.865-.558-1.692-1.167-2.568-1.814-3.071-2.266-6.551-4.834-12.132-5.038-7.895-.281-12.109 2.264-19.121 8.481-.736.652-.804 1.779-.151 2.516.352.397.842.6 1.335.6.421 0 .842-.147 1.182-.449 2.646-2.346 4.767-4.054 6.779-5.256-.055.376-.093.756-.091 1.141.027 4.179 3.436 7.562 7.611 7.562h.048c4.195-.028 7.587-3.463 7.561-7.659zm-7.585 4.094c-.008 0-.017 0-.025 0-2.219 0-4.032-1.798-4.046-4.02-.008-1.208.523-2.313 1.437-3.091 1.434-.301 2.973-.412 4.747-.359 1.172.732 1.898 2.002 1.907 3.398.014 2.232-1.79 4.058-4.02 4.072z"/><path d="m93.909 123.756c.858.482 1.944.18 2.428-.677.483-.858.18-1.945-.677-2.429-9.982-5.629-20.183-7.599-25.987-5.014-4.326 1.926-7.289 3.809-12.155 6.971-.826.536-1.059 1.641-.523 2.466.342.526.913.811 1.496.811.333 0 .67-.093.97-.288 4.851-3.153 7.574-4.883 11.663-6.704 4.733-2.108 13.891-.153 22.785 4.864z"/><path d="m93.668 138.941c.339.302.761.449 1.182.449.492 0 .982-.203 1.335-.6.653-.737.585-1.864-.151-2.516-4.996-4.429-8.5-6.575-12.885-7.457-.137-.044-.277-.071-.418-.08-1.697-.306-3.529-.438-5.639-.438-.002 0-.002 0-.003 0-5.725 0-9.455 2.602-12.745 4.897-.706.492-1.409.984-2.13 1.448-.828.533-1.066 1.635-.534 2.464.533.827 1.636 1.068 2.464.533.758-.487 1.498-1.003 2.24-1.52 1.87-1.304 3.686-2.556 5.816-3.362-.333.923-.496 1.915-.449 2.933.189 4.073 3.561 7.259 7.598 7.259.118 0 .237-.002.356-.008 2.03-.093 3.903-.972 5.273-2.474 1.369-1.503 2.072-3.448 1.979-5.479-.017-.379-.073-.751-.147-1.118 2.064 1.087 4.186 2.702 6.858 5.069zm-11.327-.875c-.728.798-1.724 1.266-2.803 1.316-2.222.086-4.124-1.626-4.227-3.855-.069-1.493.686-2.892 1.969-3.66 1.72.007 3.215.105 4.589.337.907.727 1.47 1.774 1.524 2.95.049 1.08-.324 2.114-1.052 2.912z"/><path d="m109.665 169.611h.01.097c4.351 0 8.226-1.509 10.921-4.254.69-.702.679-1.831-.023-2.521-.703-.692-1.832-.68-2.521.023-2.019 2.057-4.991 3.187-8.377 3.187-.029 0-.056.001-.086 0-3.931-.022-7.144-1.495-8.466-2.852-.686-.704-1.816-.717-2.521-.034-.706.687-.721 1.816-.034 2.522 2.301 2.361 6.618 3.904 11 3.929z"/><path d="m133.734 192.578c-.012-.064-.009-.131-.027-.193-.002-.008-.001-.015-.003-.023-.045-.145-.121-.272-.197-.396-.021-.034-.03-.075-.053-.107-.114-.159-.253-.297-.41-.41-.042-.03-.093-.045-.138-.072-.125-.074-.251-.142-.392-.185-.015-.005-.027-.016-.042-.02-1.233-.335-2.921-1.706-4.709-3.156-4.098-3.325-10.183-8.262-16.897-3.962-6.716-4.301-12.8.637-16.897 3.962-1.788 1.451-3.476 2.821-4.709 3.156-.007.002-.012.007-.018.009-.186.054-.362.137-.52.245-.077.053-.133.125-.199.188-.078.073-.16.138-.224.224-.052.07-.081.152-.122.229-.046.086-.105.163-.137.257-.005.014-.003.029-.007.044-.023.075-.024.154-.038.232-.02.122-.042.243-.037.364.001.02-.007.037-.006.057.004.06.033.112.043.171.021.12.044.236.088.349.031.079.074.149.116.223.054.095.11.186.182.271.06.071.127.129.197.19.049.042.084.096.138.133 1.056.729 2.187 1.781 3.385 2.895 3.906 3.633 9.255 8.608 18.764 8.608s14.858-4.975 18.763-8.608c1.198-1.114 2.33-2.167 3.386-2.894.057-.039.094-.095.145-.139.066-.058.13-.113.187-.18.073-.086.13-.178.185-.275.041-.072.085-.14.116-.217.046-.115.069-.235.09-.357.01-.058.038-.11.043-.17.001-.016-.005-.03-.005-.045.006-.132-.017-.264-.041-.398zm-22.87 9.72c-7.677 0-12.002-3.645-15.714-7.078 4.104.35 9.929.736 15.722.736 5.789 0 11.607-.385 15.707-.736-3.713 3.433-8.039 7.078-15.715 7.078zm.008-9.907c-5.818 0-11.686-.398-15.722-.748.352-.28.706-.567 1.064-.859 5.217-4.232 8.979-6.741 13.548-3.143.646.508 1.558.508 2.205 0 4.568-3.597 8.33-1.091 13.549 3.143.358.291.713.579 1.065.86-4.033.349-9.894.747-15.709.747z"/><path d="m261.603 102.6c0-.001 0-.001 0-.001-.001-.001-.001-.002-.002-.002l-2.472-4.767c-.378-.73-1.275-1.013-2.003-.635-.728.377-1.012 1.274-.635 2.002l1.79 3.451-4.947 2.566-1.438-2.774c0-.001-.001-.001-.002-.002l-3.131-6.037c-.378-.729-1.274-1.013-2.003-.635-.728.377-1.012 1.274-.635 2.002l2.14 4.127-65.519 33.979c.004-.283.014-.548.014-.847 0-6.128-1.322-9.968-3.93-11.414-.65-.361-1.525-.659-2.627-.592.335-1.771.713-4.214 1.012-7.268.182-.345.259-.747.181-1.16-.002-.008-.023-.1-.055-.227.083-.991.159-2.026.219-3.133 1.5-27.361-5.924-51.146-20.907-66.972-12.146-12.831-28.521-19.613-47.352-19.613-22.74 0-43.24 9.386-56.242 25.751-13.057 16.437-17.31 38.149-11.973 61.14.931 4.012 1.21 7.408 1.435 10.138.039.48.077.935.115 1.365-1.206-.122-2.168.187-2.865.572-2.608 1.446-3.93 5.286-3.93 11.414 0 5.15.653 7.878 1.736 12.397.974 4.066 2.308 9.635 3.852 19.97.862 5.773 5.303 7.909 8.485 8.41.043.267.087.534.133.8 1.983 11.526 9.103 22.917 19.459 31.61l.998 27.044c.588 15.902-9.543 30.471-24.636 35.432-.935.308-1.444 1.315-1.137 2.25.247.75.943 1.225 1.693 1.225.185 0 .373-.028.557-.089 16.593-5.453 27.731-21.471 27.086-38.951l-.887-24.039c1.009.732 2.034 1.448 3.091 2.129l14.921 11.028c5.315 3.423 11.125 5.455 16.8 5.878.934.07 1.874.103 2.816.103.885 0 1.77-.03 2.65-.092 6.465-.453 12.949-2.92 18.75-7.132.038-.028.075-.058.112-.088l12.253-10.487c.846-.616 1.773-1.317 2.754-2.099l-.96 25.988c-.645 17.481 10.493 33.498 27.086 38.951.185.061.372.089.557.089.748 0 1.446-.476 1.693-1.225.308-.935-.201-1.943-1.137-2.25-15.093-4.961-25.224-19.53-24.636-35.432l1.053-28.515c3.365 1.794 7.199 2.819 11.272 2.819 13.26 0 24.048-10.788 24.048-24.047 0-7.66-3.613-14.479-9.21-18.886.026-.142.06-.276.082-.423.981-6.569 1.876-11.208 2.649-14.764l74.671-38.725 1.716 3.31c.265.509.783.802 1.32.802.23 0 .464-.053.683-.167.728-.377 1.012-1.274.635-2.002l-2.708-5.223-.001-.002-1.438-2.773 4.947-2.566 1.704 3.286c.265.511.783.802 1.32.802.23 0 .464-.053.683-.167.728-.377 1.012-1.274.635-2.002zm-152.301-74.388c17.828 0 33.307 6.396 44.763 18.499 13.855 14.636 20.908 36.542 20.022 61.873-2.326-2.541-6.191-4.962-12.589-5.132-33.457-.883-58.995-15.295-71.91-40.582-.511-1-.787-2.095-.818-3.253l-.769-28.322c0-.004-.001-.007-.001-.011 6.715-2.001 13.875-3.072 21.302-3.072zm-53.45 24.403c7.343-9.242 17.24-16.112 28.612-20.174l.725 28.579c-4.47 29.749-31.555 43.767-39.761 47.357-.452.198-.84.491-1.181.842-4.558-21.345-.477-41.396 11.605-56.604zm126.885 134.087c0 11.294-9.188 20.482-20.483 20.482-11.294 0-20.482-9.188-20.482-20.482s9.189-20.482 20.482-20.482c11.295 0 20.483 9.189 20.483 20.482zm-20.482-24.047c-13.259 0-24.047 10.788-24.047 24.047 0 7.667 3.619 14.49 9.225 18.897-1.825 1.578-3.55 2.92-5.012 3.982-.038.028-.075.057-.112.088l-12.253 10.487c-5.245 3.795-11.069 6.015-16.846 6.42-1.645.115-3.312.11-4.953-.012-5.083-.377-10.316-2.216-15.04-5.253l-14.921-11.028c-13.264-8.542-22.511-21.358-24.735-34.285-.12-.696-.228-1.395-.324-2.096-.121-.883-.876-1.541-1.766-1.541-.005 0-.011 0-.017 0-.241.008-5.68-.007-6.499-5.495-1.565-10.488-2.921-16.144-3.91-20.274-1.056-4.409-1.638-6.837-1.638-11.566 0-5.262 1.082-7.734 2.094-8.296.689-.383 1.675.062 2.378.5.62.39 1.416.359 2.005-.079.589-.435.851-1.187.661-1.895-.22-.817-.336-2.233-.471-3.874-.088-1.069-.191-2.299-.342-3.655.063-.227.082-.469.048-.717-.273-1.995.433-4.993 1.075-5.367 8.134-3.558 33.897-16.877 40.805-44.811 13.886 25.05 39.959 39.293 73.743 40.183 9.168.243 11.731 5.834 12.327 7.666-.43 4.732-1.106 8.464-1.673 10.576-.19.708.072 1.46.661 1.895.589.437 1.385.469 2.005.079.704-.439 1.689-.881 2.378-.5 1.012.562 2.094 3.035 2.094 8.296 0 1.006-.032 1.893-.083 2.732l-8.664 4.493c-.99.513-.962 1.597-.937 2.553.002.06.004.121.006.181l-7.787 4.038c-1.264.655-1.759 2.215-1.103 3.479l.459.885-14.823 7.687c-.583.302-.81 1.019-.508 1.601.211.408.626.642 1.056.642.184 0 .371-.043.546-.133l14.822-7.687.458.884c.459.885 1.362 1.394 2.296 1.394.4 0 .805-.094 1.184-.29l7.787-4.04c.048.036.096.073.144.109.533.396 1.115.819 1.752.876-.601 2.966-1.261 6.605-1.967 11.208-3.435-1.897-7.381-2.984-11.578-2.984zm13.715-11.373c-.048-.036-.096-.073-.144-.109-.767-.572-1.638-1.218-2.627-.706l-8.1 4.202-1.654-3.188 8.101-4.202c.989-.513.961-1.597.936-2.553-.002-.06-.004-.121-.006-.181l23.451-12.162 3.309 6.832zm25.905-13.434-3.309-6.832 51.068-26.485 1.746 3.367v.001l.001.002 1.746 3.367z"/><path d="m160.756 175.719c-1.204 1.872-7.21 11.419-7.21 15.559 0 4.802 3.907 8.709 8.709 8.709s8.71-3.907 8.71-8.709c0-4.141-6.007-13.688-7.21-15.559-.658-1.019-2.343-1.019-2.999 0zm1.499 20.703c-2.837 0-5.144-2.308-5.144-5.144 0-1.883 2.663-7.051 5.144-11.208 2.482 4.156 5.145 9.322 5.145 11.208 0 2.836-2.308 5.144-5.145 5.144z"/></g></svg>