<svg viewBox="0 0 512 512" xmlns="http://www.w3.org/2000/svg"><g id="Outline"><g id="hand_unsafe_dirty_covid_pandemic_bacteria_dity_virus" data-name="hand unsafe dirty covid pandemic bacteria dity virus"><path d="m194.14 323.1172c-1.4786.6329-3.3978-4.2036-1.747-4.9321 21.6389-9.5552-7.2575-38.0162-16.4375-16.1353-.7311 1.7424-5.3292-.8062-4.9229-1.7676 9.38-22.2569-32.18-22.2853-22.8584-.0151.4321 1.0348-4.177 3.46-4.9111 1.8042-9.2317-20.7932-37.88 6.8136-16.3428 16.3516 1.68.7434-.8015 5.3223-1.7715 4.9248-22.19-8.8651-21.8795 32.2382.2207 22.9375 1.0916-.4631 2.8321 4.4579 1.7461 4.9394-21.5854 9.5824 7.37 37.979 16.4893 16.084.6033-1.4391 5.191 1.0427 4.7334 2.2646-8.2929 22.1883 32.3044 21.2545 23.0049-.5312-.6069-1.4221 4.4254-2.9 4.9746-1.6714 9.7233 21.7793 37.97-7.8522 15.8681-16.5937-1.56-.6163 1.0742-5.1914 2.2344-4.7334 22.2143 8.8393 21.8118-32.326-.2803-22.9263zm3.9756 13.6338c-13.3567-5.3066-23.7661 17.7236-9.6074 23.3247 4.2418 1.6793-1.2569 7.2514-3.06 3.2178-5.8624-13.1342-29.2075-4.1621-23.3027 9.6748 1.7792 4.1678-5.9894 4.2476-4.44.1069 4.985-13.3377-17.6086-23.3505-23.3311-9.6123-1.74 4.175-7.2044-1.3229-3.2021-3.0977 13.1014-5.8143 3.6716-28.9205-9.68-23.2978-4.212 1.769-4.192-6.0853-.0547-4.4336 13.1511 5.2539 23.1758-17.3121 9.5313-23.3545-4.03-1.7848 1.3507-7.2129 3.1533-3.1514 6.1152 13.7735 28.7789 3.4308 23.2763-9.72-1.7755-4.2425 6.1718-4.169 4.419-.0083-5.6043 13.2954 17.4948 23.4973 23.36 9.5176 1.7392-4.1508 7.2593 1.3174 3.1758 3.12-13.6082 6.0082-4.1318 29.1752 9.7022 23.2818 4.2024-1.7916 4.1975 6.0846.0597 4.432z"/><path d="m159.6055 318.1738a16.587 16.587 0 1 0 16.5869 16.5869 16.6054 16.6054 0 0 0 -16.5869-16.5869zm0 23.1739a6.587 6.587 0 1 1 6.5869-6.587 6.5946 6.5946 0 0 1 -6.5869 6.587z"/><path d="m416 347a69 69 0 1 0 69 69 69.0779 69.0779 0 0 0 -69-69zm0 128a59 59 0 1 1 59-59 59.0665 59.0665 0 0 1 -59 59z"/><path d="m424.4854 387.0107-8.4854 8.4854-8.4854-8.4854c-14.1993-14.2029-35.0737 7.3525-21.2128 21.2134l8.4843 8.4854-8.4843 8.4848c-13.8656 13.8608 7.02 35.4083 21.2128 21.2134l8.4854-8.4848 8.4854 8.4848c13.9974 14 35.2633-7.1678 21.2128-21.2134l-8.4843-8.4848 8.4843-8.4854c13.8661-13.8636-7.0215-35.4035-21.2128-21.2134zm14.1425 14.1421-12.0205 12.021a4.9994 4.9994 0 0 0 0 7.0713l12.0205 12.0205c4.6767 4.6767-2.3927 11.748-7.0722 7.0708l-12.0205-12.0205a5 5 0 0 0 -7.07 0l-12.0205 12.0205c-4.7322 4.73-11.6932-2.45-7.0722-7.0708l12.0205-12.0205a4.9994 4.9994 0 0 0 0-7.0713l-12.0205-12.021c-4.62-4.62 2.338-11.8 7.0722-7.0708l12.0205 12.021a4.998 4.998 0 0 0 7.07 0l12.0205-12.021c4.7322-4.7298 11.6932 2.4499 7.0722 7.0708z"/><path d="m290.1975 244.4958c-1.4786.6329-3.3978-4.2035-1.747-4.9321 21.6389-9.5552-7.2576-38.0162-16.4375-16.1353-.7311 1.7425-5.3292-.8062-4.9229-1.7675 9.38-22.2569-32.18-22.2853-22.8584-.0152.4321 1.0348-4.177 3.46-4.9111 1.8042-9.2317-20.7931-37.88 6.8137-16.3428 16.3516 1.6795.7434-.8015 5.3223-1.7715 4.9248-22.19-8.8651-21.88 32.2382.2207 22.9375 1.0916-.4631 2.832 4.4579 1.7461 4.94-21.5854 9.5823 7.37 37.9789 16.4893 16.0839.6033-1.4391 5.191 1.0427 4.7334 2.2647-8.2929 22.1882 32.3044 21.2544 23.0049-.5313-.6069-1.422 4.4254-2.9 4.9746-1.6714 9.7233 21.7793 37.97-7.8521 15.8681-16.5937-1.56-.6163 1.0742-5.1914 2.2344-4.7334 22.2147 8.8389 21.8122-32.3264-.2803-22.9268zm3.9756 13.6338c-13.3567-5.3066-23.7661 17.7236-9.6074 23.3247 4.2418 1.6793-1.2569 7.2515-3.06 3.2178-5.8624-13.1342-29.2075-4.162-23.3027 9.6748 1.7792 4.1678-5.9894 4.2477-4.44.1069 4.985-13.3377-17.6086-23.35-23.3311-9.6123-1.74 4.175-7.2044-1.3229-3.2021-3.0976 13.1014-5.8143 3.6715-28.9205-9.68-23.2979-4.212 1.7691-4.192-6.0852-.0547-4.4336 13.1511 5.2539 23.1758-17.3121 9.5312-23.3545-4.03-1.7848 1.3508-7.2129 3.1534-3.1513 6.1152 13.7735 28.7788 3.4308 23.2763-9.72-1.7755-4.2426 6.1718-4.1691 4.419-.0083-5.6043 13.2953 17.4948 23.4973 23.36 9.5175 1.7392-4.1508 7.2593 1.3174 3.1758 3.12-13.6082 6.0081-4.1318 29.1752 9.7021 23.2817 4.2029-1.7914 4.1979 6.0848.0602 4.4325z"/><path d="m255.6634 239.5525a16.5869 16.5869 0 1 0 16.5866 16.5869 16.6055 16.6055 0 0 0 -16.5866-16.5869zm0 23.1738a6.5869 6.5869 0 1 1 6.5869-6.5869 6.5947 6.5947 0 0 1 -6.5869 6.5869z"/><path d="m255.83 239.4814a16.587 16.587 0 1 0 16.5879 16.587 16.6055 16.6055 0 0 0 -16.5879-16.587zm0 23.1739a6.587 6.587 0 1 1 6.5879-6.5869 6.5946 6.5946 0 0 1 -6.5879 6.5869z"/><path d="m162.9375 209.7808a16.5872 16.5872 0 1 0 -16.5869-16.5874 16.6065 16.6065 0 0 0 16.5869 16.5874zm0-23.1744a6.5872 6.5872 0 1 1 -6.5869 6.587 6.5949 6.5949 0 0 1 6.5869-6.587z"/><path d="m440.4238 178.0474c19.17-18.6131-7.4528-52.1495-30.2968-34.98-95.75 68.692-91.56 65.6785-91.7471 65.834a1.1913 1.1913 0 0 1 -1.6865-1.66c4.4638-3.9111 71.0439-62.2969 92.7011-83.9541 21.72-21.7193-3.8725-58.4695-29.8486-36.7036-101.4667 81.6474-96.4049 77.5534-96.7051 77.8535a1.1864 1.1864 0 0 1 -1.6836-1.6719c2.7139-2.7055 66.5928-66.42 78.1866-80.375 16.4645-19.8181-5.8189-55.6923-34.7139-34.9184-14.6389 10.5258-63.1019 58.1561-121.7329 115.7527-2.9561-9.5627-17.6934-17.1711-23.7769-2.6709-.7309 1.7424-5.3291-.8061-4.9228-1.7676 9.38-22.2569-32.1792-22.2854-22.8584-.0151.1932.4621-3.3183 4.5836-5.6172.3876 8.0967-53.911-48.2892-82.103-48.9072-33.6195-.2784 3.3642-4.8184 56.4692-15.5655 83.18-11.5248 28.6441-5.3485 55.7718-9.68 86.916l-43.1042 43.1042a4.9993 4.9993 0 0 0 0 7.0712l113.836 113.8355a4.998 4.998 0 0 0 7.07 0l41.6152-41.6152c51.3516-5.6753 71.93-22.0547 95.7129-40.9864.1034-.0822 92.5543-71.49 143.9746-122.5634.0313-.0308.0616-.0621.0918-.0933 23.5361-24.6354-2.7212-55.6753-23.3574-38.6631-71.92 51.4848-63.596 45.3935-64.2559 45.9058a1.2055 1.2055 0 0 1 -1.7705-1.5938c6.0414-4.8515 84.6885-68.0547 99.0423-81.9892zm-279.86-23.1358c-1.7754-4.2425 6.1719-4.169 4.4189-.0083-5.604 13.2954 17.4951 23.4973 23.36 9.5176 1.7392-4.1509 7.26 1.3174 3.1758 3.12-13.608 6.0081-4.1314 29.1752 9.7021 23.2818 4.2026-1.791 4.1978 6.0852.06 4.4326-13.3565-5.3067-23.7657 17.7236-9.6074 23.3247 4.2421 1.6792-1.2569 7.2515-3.06 3.2178-5.8623-13.1343-29.207-4.1621-23.3028 9.6748 1.7793 4.1677-5.9892 4.2475-4.44.1069 4.9854-13.3378-17.6084-23.3506-23.331-9.6123-1.74 4.175-7.2041-1.323-3.2022-3.0977 13.1016-5.8143 3.6719-28.9205-9.68-23.2978-4.2119 1.769-4.1914-6.0852-.0547-4.4336 13.1514 5.2539 23.1758-17.3121 9.5313-23.3545-4.03-1.7849 1.3511-7.2129 3.1533-3.1514 6.1152 13.7731 28.7793 3.4304 23.2764-9.7206zm188.583 114.7237c4.5-3.1187 61.7715-44.125 64.2295-45.8843q.1553-.1113.3017-.2339c10.7672-9.0312 24.7407 8.3217 9.9014 23.9165-51.2305 50.8426-143.0033 121.7042-143.1074 121.7871-23.77 18.9209-42.544 33.8652-92.292 39.0537a5 5 0 0 0 -3.0166 1.4375l-39.3272 39.3272-106.7649-106.7642 40.7432-40.7436a4.9966 4.9966 0 0 0 1.4091-2.792c4.88-32.435-1.4928-59.4571 9.3028-86.2881 11.6172-28.8741 16.0859-83.9551 16.27-86.2862 2.75-35.9 31.5585-2.3619 29.5591 26.8413-10.7749.076-22.1309 16.8965-6.271 23.92 1.68.7434-.8013 5.3222-1.7715 4.9248-22.19-8.8651-21.8794 32.2382.2207 22.9375 1.0918-.4632 2.832 4.4578 1.7461 4.9394-21.585 9.5823 7.37 37.979 16.4892 16.084.6035-1.4392 5.1914 1.0425 4.7334 2.2646-8.2925 22.1883 32.3047 21.2544 23.0049-.5312-.6064-1.4221 4.4258-2.9 4.9746-1.6714 9.7237 21.7793 37.97-7.8522 15.8682-16.5937-1.56-.6162 1.0742-5.1914 2.2344-4.7334 21.5942 8.5925 21.8144-30.0594 1.5175-23.592 41.7298-40.8661 114.5913-113.3026 131.3658-125.3636 19.4556-13.9927 30.1069 9.6677 21.1845 20.4092-11.2968 13.5972-76.8945 79.0239-77.5615 79.689-10.3722 10.3744 5.0545 26.0784 15.6026 16.0317l96.1611-77.3774c.0273-.0225.0557-.0455.083-.0684 16.3547-13.7488 29.0295 9.2982 16.3867 21.9409-21.7031 21.7026-91.6572 83.01-92.3613 83.627-.082.0727-.1631.1479-.24.2255-9.9466 9.9466 3.9315 25.381 14.8584 16.6778l91.4228-65.5879c.0332-.0239.0654-.0479.0986-.0728 13.0276-9.837 27.5567 9.8813 17.3555 19.7867-14.8478 14.414-98.3915 81.3267-98.9961 81.9336-9.7911 9.7886 3.5879 25.1866 14.6844 16.8291z"/><path d="m162.7708 176.6777a16.5869 16.5869 0 1 0 16.5869 16.5869 16.6054 16.6054 0 0 0 -16.5869-16.5869zm0 23.1738a6.5869 6.5869 0 1 1 6.5869-6.5869 6.5945 6.5945 0 0 1 -6.5869 6.5869z"/><path d="m162.9375 176.6067a16.5869 16.5869 0 1 0 16.5879 16.5869 16.6054 16.6054 0 0 0 -16.5879-16.5869zm0 23.1738a6.5869 6.5869 0 1 1 6.5879-6.5869 6.5947 6.5947 0 0 1 -6.5879 6.5869z"/></g></g></svg>